<?xml version="1.0" encoding="utf-8"?>
<!-- Generator: Adobe Illustrator 18.1.0, SVG Export Plug-In . SVG Version: 6.00 Build 0)  -->
<svg version="1.1" id="Layer_1" xmlns="http://www.w3.org/2000/svg" xmlns:xlink="http://www.w3.org/1999/xlink" x="0px" y="0px"
	 viewBox="0 0 118.8 47" enable-background="new 0 0 118.8 47" xml:space="preserve">
<g>
	<g>
		<path d="M85.5,26.6c-4.2,0-8.4,0-12.5,0c0-0.4,0-0.7,0-1.2c5.1,0,10.2,0,15.4,0c-0.4-0.5-0.7-1-1-1.4c0-0.1-0.2-0.1-0.3-0.1
			c-4.2,0-8.5,0-12.7,0c-0.1,0-0.3,0.1-0.4,0.2c-0.3,0.4-0.6,0.7-1,1.1c0,0-0.1,0-0.1-0.1c0-7.3,0-14.7,0-22c0,0,0,0,0.1,0
			c0.1,0.5,0.3,1,0.4,1.5c0.8,3.4,1.5,6.8,1.8,10.3c0.2,2.1,0.3,4.2-0.1,6.3c0,0.1,0,0.1,0,0.3c3.6,0,7.1,0,10.7,0
			c-4.3-6.3-8.5-12.7-12.7-19c0-0.1,0.1-0.1,0.1-0.2C73.3,2,73.3,1.8,73,1.6c-0.2-0.2-0.5-0.1-0.7,0.1c-0.2,0.2-0.2,0.5,0,0.7
			c0.2,0.2,0.2,0.4,0.2,0.6c0,1.5,0,3,0,4.5c0,0.2-0.1,0.5-0.2,0.7c-3.1,5.5-6.2,10.9-9.3,16.4c-0.1,0.1-0.1,0.3-0.2,0.5
			c3.3,0,6.5,0,9.7,0c0,0.5,0,1,0,1.5c-2.6,0-5.3,0-8,0c-0.1,0.9,0.2,1.8,0.7,2.5c0.4,0.6,1,1.1,1.5,1.6c0.1,0.1,0.3,0.2,0.5,0.2
			c4.5,0,9.1,0,13.6,0c0.5,0,1.1-0.2,1.5-0.4C83.9,29.5,84.7,28.1,85.5,26.6z"/>
		<path d="M86.2,22.2c-0.1-0.4-0.3-0.5-0.6-0.5c-3.4,0-6.8,0-10.2,0c-0.3,0-0.5,0.1-0.4,0.5C78.7,22.2,82.5,22.2,86.2,22.2z"/>
		<path d="M87.2,23.6c-0.1-0.3-0.3-0.4-0.6-0.4c-3.9,0-7.8,0-11.7,0c-0.3,0-0.5,0.1-0.5,0.4C78.7,23.6,82.9,23.6,87.2,23.6z"/>
		<path d="M74.7,22.9c4,0,8,0,12,0c-0.1-0.3-0.2-0.4-0.5-0.4c-3.7,0-7.4,0-11.1,0C74.9,22.5,74.7,22.6,74.7,22.9z"/>
	</g>
	<g>
		<polyline fill="none" stroke="#000000" stroke-miterlimit="10" points="2.6,12.9 9.9,20.9 12.8,23.9 23.8,34.5 40.7,40.7 
			50.2,43.1 59.5,40.6 66.8,39.3 76.2,38 83,38.8 91.9,39.9 100.2,40.3 115.2,37.7 		"/>
		<g>
			<path vector-effect="non-scaling-stroke" fill="none" stroke="#000000" stroke-miterlimit="10" d="M3.7,13.8
				c-0.3,0.3-0.7,0.4-1,0.1c-0.3-0.3-0.4-0.7-0.1-1c0.3-0.3,0.7-0.4,1-0.1C3.9,13,3.9,13.5,3.7,13.8"/>
			<path vector-effect="non-scaling-stroke" fill="none" stroke="#000000" stroke-miterlimit="10" d="M10.5,21
				c-0.3,0.3-0.7,0.4-1,0.1c-0.3-0.3-0.4-0.7-0.1-1c0.3-0.3,0.7-0.4,1-0.1C10.7,20.2,10.8,20.7,10.5,21"/>
			<path vector-effect="non-scaling-stroke" fill="none" stroke="#000000" stroke-miterlimit="10" d="M13.3,24.4
				c-0.3,0.3-0.7,0.4-1,0.1c-0.3-0.3-0.4-0.7-0.1-1c0.3-0.3,0.7-0.4,1-0.1C13.5,23.7,13.6,24.1,13.3,24.4"/>
			<path vector-effect="non-scaling-stroke" fill="none" stroke="#000000" stroke-miterlimit="10" d="M24.2,34.9
				c-0.3,0.3-0.7,0.4-1,0.1c-0.3-0.3-0.4-0.7-0.1-1c0.3-0.3,0.7-0.4,1-0.1C24.4,34.2,24.5,34.6,24.2,34.9"/>
			<path vector-effect="non-scaling-stroke" fill="none" stroke="#000000" stroke-miterlimit="10" d="M41.2,41.2
				c-0.3,0.3-0.7,0.4-1,0.1c-0.3-0.3-0.4-0.7-0.1-1c0.3-0.3,0.7-0.4,1-0.1S41.4,40.9,41.2,41.2"/>
			<path vector-effect="non-scaling-stroke" fill="none" stroke="#000000" stroke-miterlimit="10" d="M50.6,43.6
				c-0.3,0.3-0.7,0.4-1,0.1c-0.3-0.3-0.4-0.7-0.1-1c0.3-0.3,0.7-0.4,1-0.1C50.8,42.9,50.8,43.3,50.6,43.6"/>
			<path vector-effect="non-scaling-stroke" fill="none" stroke="#000000" stroke-miterlimit="10" d="M60,40.9
				c-0.3,0.3-0.7,0.4-1,0.1c-0.3-0.3-0.4-0.7-0.1-1c0.3-0.3,0.7-0.4,1-0.1C60.2,40.1,60.2,40.6,60,40.9"/>
			<path vector-effect="non-scaling-stroke" fill="none" stroke="#000000" stroke-miterlimit="10" d="M67.4,39.7
				c-0.3,0.3-0.7,0.4-1,0.1c-0.3-0.3-0.4-0.7-0.1-1c0.3-0.3,0.7-0.4,1-0.1C67.6,38.9,67.7,39.4,67.4,39.7"/>
			<path vector-effect="non-scaling-stroke" fill="none" stroke="#000000" stroke-miterlimit="10" d="M76.6,38.7
				c-0.3,0.3-0.7,0.4-1,0.1c-0.3-0.3-0.4-0.7-0.1-1s0.7-0.4,1-0.1C76.8,38,76.8,38.4,76.6,38.7"/>
			<path vector-effect="non-scaling-stroke" fill="none" stroke="#000000" stroke-miterlimit="10" d="M83.7,39.4
				c-0.3,0.3-0.7,0.4-1,0.1c-0.3-0.3-0.4-0.7-0.1-1c0.3-0.3,0.7-0.4,1-0.1S83.9,39.1,83.7,39.4"/>
			<path vector-effect="non-scaling-stroke" fill="none" stroke="#000000" stroke-miterlimit="10" d="M92.6,40.3
				c-0.3,0.3-0.7,0.4-1,0.1c-0.3-0.3-0.4-0.7-0.1-1c0.3-0.3,0.7-0.4,1-0.1C92.8,39.5,92.9,40,92.6,40.3"/>
			<path vector-effect="non-scaling-stroke" fill="none" stroke="#000000" stroke-miterlimit="10" d="M100.3,41.3
				c-0.3,0.3-0.7,0.4-1,0.1c-0.3-0.3-0.4-0.7-0.1-1c0.3-0.3,0.7-0.4,1-0.1C100.5,40.5,100.6,41,100.3,41.3"/>
			<path vector-effect="non-scaling-stroke" fill="none" stroke="#000000" stroke-miterlimit="10" d="M115.8,38
				c-0.3,0.3-0.7,0.4-1,0.1c-0.3-0.3-0.4-0.7-0.1-1c0.3-0.3,0.7-0.4,1-0.1C116,37.2,116.1,37.7,115.8,38"/>
		</g>
	</g>
</g>
</svg>
