<?xml version="1.0" encoding="utf-8"?>
<!-- Generator: Adobe Illustrator 18.1.0, SVG Export Plug-In . SVG Version: 6.00 Build 0)  -->
<svg version="1.1" id="Layer_1" xmlns="http://www.w3.org/2000/svg" xmlns:xlink="http://www.w3.org/1999/xlink" x="0px" y="0px"
	 viewBox="0 0 25.6 29.3" enable-background="new 0 0 25.6 29.3" xml:space="preserve">
<g>
	<path d="M22.7,25.1c-4.2,0-8.4,0-12.5,0c0-0.4,0-0.7,0-1.2c5.1,0,10.2,0,15.4,0c-0.4-0.5-0.7-1-1-1.4c0-0.1-0.2-0.1-0.3-0.1
		c-4.2,0-8.5,0-12.7,0c-0.1,0-0.3,0.1-0.4,0.2c-0.3,0.4-0.6,0.7-1,1.1c0,0-0.1,0-0.1-0.1c0-7.3,0-14.7,0-22c0,0,0,0,0.1,0
		c0.1,0.5,0.3,1,0.4,1.5c0.8,3.4,1.5,6.8,1.8,10.3c0.2,2.1,0.3,4.2-0.1,6.3c0,0.1,0,0.1,0,0.3c3.6,0,7.1,0,10.7,0
		c-4.3-6.3-8.5-12.7-12.7-19c0-0.1,0.1-0.1,0.1-0.2c0.1-0.3,0.1-0.5-0.2-0.7C10-0.1,9.7,0,9.5,0.2c-0.2,0.2-0.2,0.5,0,0.7
		c0.2,0.2,0.2,0.4,0.2,0.6c0,1.5,0,3,0,4.5c0,0.2-0.1,0.5-0.2,0.7c-3.1,5.5-6.2,10.9-9.3,16.4c-0.1,0.1-0.1,0.3-0.2,0.5
		c3.3,0,6.5,0,9.7,0c0,0.5,0,1,0,1.5c-2.6,0-5.3,0-8,0C1.7,26,2,26.8,2.5,27.5c0.4,0.6,1,1.1,1.5,1.6c0.1,0.1,0.3,0.2,0.5,0.2
		c4.5,0,9.1,0,13.6,0c0.5,0,1.1-0.2,1.5-0.4C21,28,21.9,26.6,22.7,25.1z"/>
	<path d="M23.4,20.7c-0.1-0.4-0.3-0.5-0.6-0.5c-3.4,0-6.8,0-10.2,0c-0.3,0-0.5,0.1-0.4,0.5C15.9,20.7,19.6,20.7,23.4,20.7z"/>
	<path d="M24.4,22.1c-0.1-0.3-0.3-0.4-0.6-0.4c-3.9,0-7.8,0-11.7,0c-0.3,0-0.5,0.1-0.5,0.4C15.8,22.1,20.1,22.1,24.4,22.1z"/>
	<path d="M11.9,21.4c4,0,8,0,12,0c-0.1-0.3-0.2-0.4-0.5-0.4c-3.7,0-7.4,0-11.1,0C12,21,11.9,21.1,11.9,21.4z"/>
</g>
</svg>
