<?xml version="1.0" encoding="utf-8"?>
<!-- Generator: Adobe Illustrator 18.1.0, SVG Export Plug-In . SVG Version: 6.00 Build 0)  -->
<svg version="1.1" xmlns="http://www.w3.org/2000/svg" xmlns:xlink="http://www.w3.org/1999/xlink" x="0px" y="0px"
	 viewBox="0 0 260 260" enable-background="new 0 0 260 260" xml:space="preserve">
<g id="Guide">
</g>
<g id="Layer_3">
</g>
<g id="Layer_1">
	<g>
		
			<ellipse transform="matrix(-0.2174 0.9761 -0.9761 -0.2174 422.7184 38.6587)" fill="#FFFFFF" stroke="#F16600" stroke-width="2" cx="195.9" cy="188.8" rx="2.1" ry="6.7"/>
		<path fill="#FFFFFF" stroke="#F16600" stroke-width="2" d="M179.7,202.6c1.9,0.2-22.3,19.1-23.9,19.5s-1.6-1.4,0.8-3.3
			c2.4-1.9,8.7-8.5,14.3-12.5C178.9,200.4,179.7,202.6,179.7,202.6z"/>
		<path fill="#FFFFFF" stroke="#F16600" stroke-width="2" d="M186.5,202.2c1-1.7,8.5,28.1,8.1,29.7c-0.4,1.6-1.9,0.9-2.7-2
			s-4.2-11.4-5.6-18.1C184.2,202,186.5,202.2,186.5,202.2z"/>
		<path fill="#FFFFFF" stroke="#F16600" stroke-width="2" d="M191,182.9c1-1.7,8.5,28.1,8.1,29.7c-0.4,1.6-1.9,0.9-2.7-2
			c-0.8-2.9-4.2-11.4-5.6-18.1C188.7,182.7,191,182.9,191,182.9z"/>
		<path fill="#FFFFFF" stroke="#F16600" stroke-width="2" d="M181.3,159.6c2.2-0.3-19.3,27.9-21,28.7c-1.7,0.8-2.1-1.2,0-4
			c2.1-2.8,7.2-12,12.3-18.1C180,157.3,181.3,159.6,181.3,159.6z"/>
		<path fill="#FFFFFF" stroke="#F16600" stroke-width="2" d="M204.3,186.9c1.8,1.3-33.2,6.8-35,6.2s-0.7-2.3,2.8-2.9
			c3.4-0.6,13.6-3.7,21.4-4.6C204.9,184.3,204.3,186.9,204.3,186.9z"/>
		<path fill="#FFFFFF" stroke="#F16600" stroke-width="2" d="M227.4,187.5c-0.2,2.2-22.7-25.2-23.1-27.1s1.6-1.8,3.9,0.9
			s10.1,9.8,14.8,16.2C230,186.7,227.4,187.5,227.4,187.5z"/>
		<path fill="#FFFFFF" stroke="#F16600" stroke-width="2" d="M154.5,227.6c-0.2,2.2-22.7-25.2-23.1-27.1c-0.4-1.8,1.6-1.8,3.9,0.9
			s10.1,9.8,14.8,16.2C157,226.8,154.5,227.6,154.5,227.6z"/>
		<path fill="#FFFFFF" stroke="#F16600" stroke-width="2" d="M155.4,187.5c1.8,0.9-27.5,10.3-29.1,10c-1.6-0.3-1-1.9,1.9-2.8
			c2.9-1,11.1-5,17.7-6.8C155.4,185.2,155.4,187.5,155.4,187.5z"/>
		<path fill="#FFFFFF" stroke="#F16600" stroke-width="2" d="M161.9,189.5c1.5-1.2-1.8,29.3-2.7,30.7c-0.9,1.4-2.1,0.1-1.8-2.9
			s-0.1-12.1,1-18.9C159.8,188.5,161.9,189.5,161.9,189.5z"/>
		<path fill="#FFFFFF" stroke="#F16600" stroke-width="2" d="M172.8,173c1.5-1.2-1.8,29.3-2.7,30.7c-0.9,1.4-2.1,0.1-1.8-2.9
			s-0.1-12.1,1-18.9C170.7,172,172.8,173,172.8,173z"/>
		<path fill="#FFFFFF" stroke="#F16600" stroke-width="2" d="M183.9,181.3c1.2,1.8-33.6-5.1-35-6.2c-1.5-1.2,0.2-2.4,3.6-1.8
			c3.4,0.6,14,1.2,21.7,3.1C185.3,179.1,183.9,181.3,183.9,181.3z"/>
		<path fill="#FFFFFF" stroke="#F16600" stroke-width="2" d="M167.2,184.5c-1,2-12.6-31.5-12.3-33.4c0.3-1.9,2.1-1.1,3.3,2.2
			c1.2,3.3,6,12.7,8.3,20.3C169.8,184.7,167.2,184.5,167.2,184.5z"/>
		<path fill="#FFFFFF" stroke="#F16600" stroke-width="2" d="M210.7,146.8c2.2-0.3-19.3,27.9-21,28.7c-1.7,0.8-2.1-1.2,0-4
			c2.1-2.8,7.2-12,12.3-18.1C209.3,144.5,210.7,146.8,210.7,146.8z"/>
		<path fill="#FFFFFF" stroke="#F16600" stroke-width="2" d="M230.5,175.8c-0.2,2.2-22.7-25.2-23.1-27.1c-0.4-1.8,1.6-1.8,3.9,0.9
			s10.1,9.8,14.8,16.2C233.1,175,230.5,175.8,230.5,175.8z"/>
		<path fill="#FFFFFF" stroke="#F16600" stroke-width="2" d="M215.7,207.3c-0.2,2.2-22.7-25.2-23.1-27.1s1.6-1.8,3.9,0.9
			s10.1,9.8,14.8,16.2C218.2,206.5,215.7,207.3,215.7,207.3z"/>
		<path fill="#FFFFFF" stroke="#F16600" stroke-width="2" d="M188.2,124.6c1.8,0.9-27.5,10.3-29.1,10c-1.6-0.3-1-1.9,1.9-2.8
			c2.9-1,11.1-5,17.7-6.8C188.2,122.3,188.2,124.6,188.2,124.6z"/>
		<path fill="#FFFFFF" stroke="#F16600" stroke-width="2" d="M190.9,160.5c1.5-1.2-1.8,29.3-2.7,30.7c-0.9,1.4-2.1,0.1-1.8-2.9
			s-0.1-12.1,1-18.9C188.8,159.5,190.9,160.5,190.9,160.5z"/>
		<path fill="#FFFFFF" stroke="#F16600" stroke-width="2" d="M202.1,160.2c1.5-1.2-1.8,29.3-2.7,30.7c-0.9,1.4-2.1,0.1-1.8-2.9
			c0.3-3-0.1-12.1,1-18.9C200.1,159.2,202.1,160.2,202.1,160.2z"/>
		<path fill="#FFFFFF" stroke="#F16600" stroke-width="2" d="M213.2,168.5c1.2,1.8-33.6-5.1-35-6.2c-1.5-1.2,0.2-2.4,3.6-1.8
			c3.4,0.6,14,1.2,21.7,3.1C214.7,166.3,213.2,168.5,213.2,168.5z"/>
		<path fill="#FFFFFF" stroke="#F16600" stroke-width="2" d="M209.8,169c-1,2-12.6-31.5-12.3-33.4c0.3-1.9,2.1-1.1,3.3,2.2
			c1.2,3.3,6,12.7,8.3,20.3C212.4,169.2,209.8,169,209.8,169z"/>
		<path fill="#FFFFFF" stroke="#F16600" stroke-width="2" d="M198.2,217.3c-1,2-12.6-31.5-12.3-33.4c0.3-1.9,2.1-1.1,3.3,2.2
			c1.2,3.3,6,12.7,8.3,20.3C200.8,217.4,198.2,217.3,198.2,217.3z"/>
		<path fill="#FFFFFF" stroke="#F16600" stroke-width="2" d="M163.7,157.8c2,0.1-20.7,20.9-22.3,21.3c-1.6,0.4-1.7-1.3,0.5-3.4
			c2.2-2.1,7.9-9.2,13.2-13.6C162.9,155.7,163.7,157.8,163.7,157.8z"/>
		<path fill="#FFFFFF" stroke="#F16600" stroke-width="2" d="M182.4,149.1c1.3,1.8-33.7-3.6-35.3-4.8s0.1-2.4,3.5-1.9
			c3.4,0.5,14,0.6,21.8,2.1C183.8,146.8,182.4,149.1,182.4,149.1z"/>
		<path fill="#FFFFFF" stroke="#F16600" stroke-width="2" d="M169.5,182.2c-0.3,2.2-21.9-25.9-22.2-27.8c-0.3-1.9,1.7-1.7,3.8,1
			c2.1,2.7,9.7,10.1,14.3,16.6C172,181.6,169.5,182.2,169.5,182.2z"/>
		<path fill="#FFFFFF" stroke="#F16600" stroke-width="2" d="M118.2,176.9c-2,0.8,11.3-32,12.8-33.2s2.3,0.6,1,3.8
			c-1.3,3.2-3.8,13.5-7.1,20.7C120.1,178.7,118.2,176.9,118.2,176.9z"/>
		<path fill="#FFFFFF" stroke="#F16600" stroke-width="2" d="M146.6,187.7c-0.9,2-13.5-31.1-13.3-33c0.2-1.9,2.1-1.1,3.4,2.1
			c1.3,3.2,6.4,12.5,8.9,20C149.2,187.8,146.6,187.7,146.6,187.7z"/>
		<path fill="#FFFFFF" stroke="#F16600" stroke-width="2" d="M166.6,148c1.8,0.7-26.6,12.4-28.3,12.3c-1.7-0.1-1.1-1.8,1.6-3
			c2.8-1.2,10.6-5.8,17.1-8.2C166.5,145.7,166.6,148,166.6,148z"/>
		<path fill="#FFFFFF" stroke="#F16600" stroke-width="2" d="M164.6,161.7c-1,1.9-11.6-31.9-11.2-33.7c0.3-1.9,2.2-1,3.3,2.3
			c1.1,3.3,5.6,12.9,7.7,20.5C167.3,161.9,164.6,161.7,164.6,161.7z"/>
		<path fill="#FFFFFF" stroke="#F16600" stroke-width="2" d="M162.5,158.9c-2.2,0.1,21.7-26.1,23.4-26.8s2,1.4-0.3,4
			c-2.3,2.6-8.3,11.4-13.8,17C163.6,161.3,162.5,158.9,162.5,158.9z"/>
		<path fill="#FFFFFF" stroke="#F16600" stroke-width="2" d="M164.5,200.7c1.3,1.8-33.7-3.6-35.3-4.8s0.1-2.4,3.5-1.9
			c3.4,0.5,14,0.6,21.8,2.1C165.9,198.5,164.5,200.7,164.5,200.7z"/>
		<path fill="#FFFFFF" stroke="#F16600" stroke-width="2" d="M216.2,205.2c-2,0.8,11.3-32,12.8-33.2c1.4-1.2,2.3,0.6,1,3.8
			c-1.3,3.2-3.8,13.5-7.1,20.7C218.1,207.1,216.2,205.2,216.2,205.2z"/>
		<path fill="#FFFFFF" stroke="#F16600" stroke-width="2" d="M157,202c-2,0.8,11.3-32,12.8-33.2c1.4-1.2,2.3,0.6,1,3.8
			c-1.3,3.2-3.8,13.5-7.1,20.7C158.9,203.8,157,202,157,202z"/>
		<path fill="#FFFFFF" stroke="#F16600" stroke-width="2" d="M184.9,151.2c0.1,2-22.2-19.2-22.7-20.8c-0.5-1.6,1.2-1.8,3.4,0.3
			c2.2,2.1,9.7,7.3,14.4,12.3C187,150.2,184.9,151.2,184.9,151.2z"/>
		<path fill="#FFFFFF" stroke="#F16600" stroke-width="2" d="M211.6,176.3c1.6,1.1-28.5,7-30.1,6.6c-1.6-0.5-0.8-2,2.2-2.6
			s11.6-3.7,18.4-4.7C211.9,174,211.6,176.3,211.6,176.3z"/>
		<path fill="#FFFFFF" stroke="#F16600" stroke-width="2" d="M191.9,167.6c1.8,0.7-26.6,12.4-28.3,12.3c-1.7-0.1-1.1-1.8,1.6-3
			c2.8-1.2,10.6-5.8,17.1-8.2C191.8,165.3,191.9,167.6,191.9,167.6z"/>
		<path fill="#FFFFFF" stroke="#F16600" stroke-width="2" d="M195,169.2c-1,1.9-11.6-31.9-11.2-33.7s2.2-1,3.3,2.3
			c1.1,3.3,5.6,12.9,7.7,20.5C197.7,169.4,195,169.2,195,169.2z"/>
		<path fill="#FFFFFF" stroke="#F16600" stroke-width="2" d="M211,170.4c-2.2,0.1,21.7-26.1,23.4-26.8s2,1.4-0.3,4
			c-2.3,2.6-8.3,11.4-13.8,17C212.1,172.8,211,170.4,211,170.4z"/>
		<path fill="#FFFFFF" stroke="#F16600" stroke-width="2" d="M154.3,156.2c-0.2,2.2-23.1-24.9-23.5-26.7c-0.4-1.8,1.6-1.8,3.9,0.9
			c2.3,2.6,10.2,9.7,15.1,15.9C156.8,155.4,154.3,156.2,154.3,156.2z"/>
		<path fill="#FFFFFF" stroke="#F16600" stroke-width="2" d="M166.1,228.8c-2,0.8,11.3-32,12.8-33.2c1.4-1.2,2.3,0.6,1,3.8
			c-1.3,3.2-3.8,13.5-7.1,20.7C168,230.7,166.1,228.8,166.1,228.8z"/>
		<path fill="#FFFFFF" stroke="#F16600" stroke-width="2" d="M130.4,200.4c-2.2,0.1,21.7-26.1,23.4-26.8s2,1.4-0.3,4
			c-2.3,2.6-8.3,11.4-13.8,17C131.5,202.8,130.4,200.4,130.4,200.4z"/>
		<path fill="#FFFFFF" stroke="#F16600" stroke-width="2" d="M160.7,208.9c-2-0.9,31.1-13.5,33-13.3s1.1,2.1-2.1,3.4
			c-3.2,1.3-12.5,6.4-20,8.9C160.6,211.5,160.7,208.9,160.7,208.9z"/>
		<path fill="#FFFFFF" stroke="#F16600" stroke-width="2" d="M150,205.8c-0.2,2.2-22.7-25.2-23.1-27.1s1.6-1.8,3.9,0.9
			s10.1,9.8,14.8,16.2C152.5,205,150,205.8,150,205.8z"/>
		<path fill="#FFFFFF" stroke="#F16600" stroke-width="2" stroke-linejoin="round" d="M115.5,206.1c-0.5-0.3-1.1-0.5-1.8-0.5
			c-2.1,0-3.9,1.8-3.9,4.1s1.7,4.1,3.9,4.1c0.8,0,1.2,0,1.8-0.5c0.3,0.5,1.1,0.5,1.6,0.5c1.1,0,1.5-1.8,1.5-3.7
			C118.5,208,116.9,206.7,115.5,206.1z"/>
		<path fill="#FFFFFF" stroke="#F16600" stroke-width="2" stroke-linejoin="round" d="M97.4,214.2c-0.2-0.6-0.6-1.1-1.1-1.5
			c-1.7-1.3-4.2-0.9-5.6,0.9c-1.4,1.8-1.1,4.3,0.6,5.6c0.7,0.5,1,0.7,1.7,0.7c0,0.6,0.6,1.1,0.9,1.3c0.8,0.6,2.3-0.5,3.5-2
			C98.7,217.5,98.1,215.5,97.4,214.2z"/>
		<path fill="#FFFFFF" stroke="#F16600" stroke-width="2" stroke-linejoin="round" d="M111,211.4c0.4-0.5,0.6-1.1,0.7-1.7
			c0.2-2.1-1.4-4.1-3.7-4.3c-2.3-0.2-4.3,1.3-4.5,3.4c-0.1,0.8-0.1,1.2,0.3,1.9c-0.5,0.3-0.6,1.1-0.6,1.5c-0.1,1,1.6,1.7,3.5,1.9
			C108.8,214.3,110.3,212.8,111,211.4z"/>
		<path fill="#FFFFFF" stroke="#F16600" stroke-width="2" stroke-linejoin="round" d="M131.6,212.4c-0.5-0.3-1.1-0.5-1.8-0.5
			c-2.1,0-3.9,1.8-3.9,4.1s1.7,4.1,3.9,4.1c0.8,0,1.2,0,1.8-0.5c0.3,0.5,1.1,0.5,1.6,0.5c1.1,0,1.5-1.8,1.5-3.7
			C134.6,214.3,133,213,131.6,212.4z"/>
		<path fill="#FFFFFF" stroke="#F16600" stroke-width="2" stroke-linejoin="round" d="M115.8,223.2c0.4-0.5,0.6-1.1,0.7-1.7
			c0.2-2.1-1.4-4.1-3.7-4.3c-2.3-0.2-4.3,1.3-4.5,3.4c-0.1,0.8-0.1,1.2,0.3,1.9c-0.5,0.3-0.6,1.1-0.6,1.5c-0.1,1,1.6,1.7,3.5,1.9
			C113.6,226,115,224.5,115.8,223.2z"/>
		<path fill="#FFFFFF" stroke="#F16600" stroke-width="2" stroke-linejoin="round" d="M103.9,199.3c0.1,0.6,0.4,1.2,0.8,1.7
			c1.3,1.7,3.9,1.9,5.6,0.5s2.1-3.9,0.8-5.6c-0.5-0.6-0.8-0.9-1.5-1.1c0.2-0.5-0.3-1.2-0.6-1.5c-0.7-0.8-2.3-0.1-3.8,1.1
			C103.4,195.8,103.5,197.8,103.9,199.3z"/>
		<path fill="#FFFFFF" stroke="#F16600" stroke-width="2" stroke-linejoin="round" d="M89.9,201.7c0.5,0.3,1.1,0.5,1.8,0.5
			c2.1,0,3.9-1.8,3.9-4.1c0-2.3-1.7-4.1-3.9-4.1c-0.8,0-1.2,0-1.8,0.5c-0.3-0.5-1.1-0.5-1.6-0.5c-1.1,0-1.5,1.8-1.5,3.7
			C86.9,199.8,88.5,201.1,89.9,201.7z"/>
		<path fill="#FFFFFF" stroke="#F16600" stroke-width="2" stroke-linejoin="round" d="M117.8,195.6c-0.5-0.3-1.1-0.5-1.8-0.5
			c-2.1,0-3.9,1.8-3.9,4.1s1.7,4.1,3.9,4.1c0.8,0,1.2,0,1.8-0.5c0.3,0.5,1.1,0.5,1.6,0.5c1.1,0,1.5-1.8,1.5-3.7
			C120.9,197.5,119.3,196.2,117.8,195.6z"/>
		<path fill="#FFFFFF" stroke="#F16600" stroke-width="2" stroke-linejoin="round" d="M121.1,190.8c0.5,0.3,1.1,0.5,1.8,0.5
			c2.1,0,3.9-1.8,3.9-4.1s-1.7-4.1-3.9-4.1c-0.8,0-1.2,0-1.8,0.5c-0.3-0.5-1.1-0.5-1.6-0.5c-1.1,0-1.5,1.8-1.5,3.7
			C118,188.9,119.7,190.2,121.1,190.8z"/>
		<path fill="#FFFFFF" stroke="#F16600" stroke-width="2" stroke-linejoin="round" d="M96.9,204.2c-0.5-0.3-1.1-0.5-1.8-0.5
			c-2.1,0-3.9,1.8-3.9,4.1c0,2.3,1.7,4.1,3.9,4.1c0.8,0,1.2,0,1.8-0.5c0.3,0.5,1.1,0.5,1.6,0.5c1.1,0,1.5-1.8,1.5-3.7
			C100,206,98.4,204.8,96.9,204.2z"/>
		<path fill="#FFFFFF" stroke="#F16600" stroke-width="2" stroke-linejoin="round" d="M80.4,202.9c-0.2-0.6-0.6-1.1-1.1-1.5
			c-1.7-1.3-4.2-0.9-5.6,0.9c-1.4,1.8-1.1,4.3,0.6,5.6c0.7,0.5,1,0.7,1.7,0.7c0,0.6,0.6,1.1,0.9,1.3c0.8,0.6,2.3-0.5,3.5-2
			C81.7,206.2,81.2,204.2,80.4,202.9z"/>
		<path fill="#FFFFFF" stroke="#F16600" stroke-width="2" stroke-linejoin="round" d="M104.4,190.3c0.4-0.5,0.6-1.1,0.7-1.7
			c0.2-2.1-1.4-4.1-3.7-4.3c-2.3-0.2-4.3,1.3-4.5,3.4c-0.1,0.8-0.1,1.2,0.3,1.9c-0.5,0.3-0.6,1.1-0.6,1.5c-0.1,1,1.6,1.7,3.5,1.9
			C102.2,193.1,103.6,191.6,104.4,190.3z"/>
		<path fill="#FFFFFF" stroke="#F16600" stroke-width="2" stroke-linejoin="round" d="M103.9,183.5c0.1,0.6,0.4,1.2,0.8,1.7
			c1.3,1.7,3.9,1.9,5.6,0.5s2.1-3.9,0.8-5.6c-0.5-0.6-0.8-0.9-1.5-1.1c0.2-0.5-0.3-1.2-0.6-1.5c-0.7-0.8-2.3-0.1-3.8,1.1
			C103.4,180,103.5,182,103.9,183.5z"/>
		<path fill="#FFFFFF" stroke="#F16600" stroke-width="2" stroke-linejoin="round" d="M89.9,185.9c0.5,0.3,1.1,0.5,1.8,0.5
			c2.1,0,3.9-1.8,3.9-4.1c0-2.3-1.7-4.1-3.9-4.1c-0.8,0-1.2,0-1.8,0.5c-0.3-0.5-1.1-0.5-1.6-0.5c-1.1,0-1.5,1.8-1.5,3.7
			C86.9,184,88.5,185.3,89.9,185.9z"/>
		<path fill="#FFFFFF" stroke="#F16600" stroke-width="2" stroke-linejoin="round" d="M85.7,210.6c-0.5-0.3-1.1-0.5-1.8-0.5
			c-2.1,0-3.9,1.8-3.9,4.1s1.7,4.1,3.9,4.1c0.8,0,1.2,0,1.8-0.5c0.3,0.5,1.1,0.5,1.6,0.5c1.1,0,1.5-1.8,1.5-3.7
			C88.8,212.5,87.1,211.2,85.7,210.6z"/>
		<path fill="#FFFFFF" stroke="#F16600" stroke-width="2" stroke-linejoin="round" d="M53.9,195.6c-0.2-0.6-0.6-1.1-1.1-1.5
			c-1.7-1.3-4.2-0.9-5.6,0.9s-1.1,4.3,0.6,5.6c0.7,0.5,1,0.7,1.7,0.7c0,0.6,0.6,1.1,0.9,1.3c0.8,0.6,2.3-0.5,3.5-2
			C55.1,198.9,54.6,196.9,53.9,195.6z"/>
		<path fill="#FFFFFF" stroke="#F16600" stroke-width="2" stroke-linejoin="round" d="M73.9,211.4c0.4-0.5,0.6-1.1,0.7-1.7
			c0.2-2.1-1.4-4.1-3.7-4.3c-2.3-0.2-4.3,1.3-4.5,3.4c-0.1,0.8-0.1,1.2,0.3,1.9c-0.5,0.3-0.6,1.1-0.6,1.5c-0.1,1,1.6,1.7,3.5,1.9
			C71.7,214.3,73.1,212.8,73.9,211.4z"/>
		<path fill="#FFFFFF" stroke="#F16600" stroke-width="2" stroke-linejoin="round" d="M63.3,220.1c0.4-0.5,0.6-1.1,0.7-1.7
			c0.2-2.1-1.4-4.1-3.7-4.3s-4.3,1.3-4.5,3.4c-0.1,0.8-0.1,1.2,0.3,1.9c-0.5,0.3-0.6,1.1-0.6,1.5c-0.1,1,1.6,1.7,3.5,1.9
			C61.1,222.9,62.6,221.4,63.3,220.1z"/>
		<path fill="#FFFFFF" stroke="#F16600" stroke-width="2" stroke-linejoin="round" d="M77.5,190.9c0.1,0.6,0.4,1.2,0.8,1.7
			c1.3,1.7,3.9,1.9,5.6,0.5s2.1-3.9,0.8-5.6c-0.5-0.6-0.8-0.9-1.5-1.1c0.2-0.5-0.3-1.2-0.6-1.5c-0.7-0.8-2.3-0.1-3.8,1.1
			C77.1,187.3,77.1,189.4,77.5,190.9z"/>
		<path fill="#FFFFFF" stroke="#F16600" stroke-width="2" stroke-linejoin="round" d="M53.3,208.8c0.5,0.3,1.1,0.5,1.8,0.5
			c2.1,0,3.9-1.8,3.9-4.1c0-2.3-1.7-4.1-3.9-4.1c-0.8,0-1.2,0-1.8,0.5c-0.3-0.5-1.1-0.5-1.6-0.5c-1.1,0-1.5,1.8-1.5,3.7
			C50.2,206.9,51.9,208.2,53.3,208.8z"/>
		<path fill="#FFFFFF" stroke="#F16600" stroke-width="2" stroke-linejoin="round" d="M65.3,200.6c-0.5-0.3-1.1-0.5-1.8-0.5
			c-2.1,0-3.9,1.8-3.9,4.1s1.7,4.1,3.9,4.1c0.8,0,1.2,0,1.8-0.5c0.3,0.5,1.1,0.5,1.6,0.5c1.1,0,1.5-1.8,1.5-3.7
			C68.4,202.5,66.7,201.2,65.3,200.6z"/>
		<path fill="#FFFFFF" stroke="#F16600" stroke-width="2" stroke-linejoin="round" d="M43.3,213.5c-0.2-0.6-0.6-1.1-1.1-1.5
			c-1.7-1.3-4.2-0.9-5.6,0.9c-1.4,1.8-1.1,4.3,0.6,5.6c0.7,0.5,1,0.7,1.7,0.7c0,0.6,0.6,1.1,0.9,1.3c0.8,0.6,2.3-0.5,3.5-2
			C44.6,216.9,44,214.9,43.3,213.5z"/>
		<path fill="#FFFFFF" stroke="#F16600" stroke-width="2" stroke-linejoin="round" d="M78.2,196.9c0.4-0.5,0.6-1.1,0.7-1.7
			c0.2-2.1-1.4-4.1-3.7-4.3c-2.3-0.2-4.3,1.3-4.5,3.4c-0.1,0.8-0.1,1.2,0.3,1.9c-0.5,0.3-0.6,1.1-0.6,1.5c-0.1,1,1.6,1.7,3.5,1.9
			C76,199.7,77.4,198.2,78.2,196.9z"/>
		<path fill="#FFFFFF" stroke="#F16600" stroke-width="2" stroke-linejoin="round" d="M93.6,174.6c0.1,0.6,0.4,1.2,0.8,1.7
			c1.3,1.7,3.9,1.9,5.6,0.5s2.1-3.9,0.8-5.6c-0.5-0.6-0.8-0.9-1.5-1.1c0.2-0.5-0.3-1.2-0.6-1.5c-0.7-0.8-2.3-0.1-3.8,1.1
			C93.2,171,93.2,173.1,93.6,174.6z"/>
		<path fill="#FFFFFF" stroke="#F16600" stroke-width="2" stroke-linejoin="round" d="M65.3,190c0.5,0.3,1.1,0.5,1.8,0.5
			c2.1,0,3.9-1.8,3.9-4.1c0-2.3-1.7-4.1-3.9-4.1c-0.8,0-1.2,0-1.8,0.5c-0.3-0.5-1.1-0.5-1.6-0.5c-1.1,0-1.5,1.8-1.5,3.7
			C62.3,188.1,63.9,189.4,65.3,190z"/>
	</g>
</g>
</svg>
