<?xml version="1.0" encoding="utf-8"?>
<!-- Generator: Adobe Illustrator 18.1.0, SVG Export Plug-In . SVG Version: 6.00 Build 0)  -->
<svg version="1.1" xmlns="http://www.w3.org/2000/svg" xmlns:xlink="http://www.w3.org/1999/xlink" x="0px" y="0px"
	 viewBox="0 0 260 260" enable-background="new 0 0 260 260" xml:space="preserve">
<g id="Guide">
</g>
<g id="Layer_3">
</g>
<g id="Layer_1">
	<g>
		<path fill="#FFFFFF" stroke="#F16600" stroke-width="2" stroke-linejoin="round" d="M208.5,200.2c-0.3-0.1-0.7,0-1.2,0.1l0.3-0.2
			l-36.8-5.9l-9.9,8.1l37.8,6l0,0c1.6,0.2,5.1-1.4,7.8-3.6C209.1,202.5,210.1,200.4,208.5,200.2z"/>
		<path fill="#FFFFFF" stroke="#F16600" stroke-width="2" stroke-linejoin="round" d="M168.7,198.7c-2.8,2.2-6.3,3.8-7.9,3.6
			c-1.6-0.3-0.7-2.3,2.1-4.5c2.8-2.2,6.3-3.8,7.9-3.6C172.4,194.4,171.4,196.5,168.7,198.7z"/>
	</g>
	<g>
		<path fill="#FFFFFF" stroke="#F16600" stroke-width="2" stroke-linejoin="round" d="M175.3,184.6c-0.3,0.1-0.6,0.4-1,0.7l0.1-0.3
			l-35.1,12.7l-4.8,11.9l35.9-13.1l0,0c1.5-0.6,3.8-3.7,5.1-6.9C177,186.2,176.8,184,175.3,184.6z"/>
		<path fill="#FFFFFF" stroke="#F16600" stroke-width="2" stroke-linejoin="round" d="M139.7,202.5c-1.3,3.3-3.6,6.4-5.1,6.9
			c-1.5,0.6-1.7-1.7-0.3-4.9c1.3-3.3,3.6-6.4,5.1-6.9C140.9,197.1,141.1,199.3,139.7,202.5z"/>
	</g>
	<g>
		<path fill="#FFFFFF" stroke="#F16600" stroke-width="2" stroke-linejoin="round" d="M211.9,189c-0.3,0.2-0.5,0.5-0.8,0.9l0-0.3
			l-30.2,21.9l-1.3,12.7l31-22.4l0,0c1.3-1,2.6-4.6,3-8.1C213.9,190.1,213.2,188,211.9,189z"/>
		<path fill="#FFFFFF" stroke="#F16600" stroke-width="2" stroke-linejoin="round" d="M182.6,216c-0.4,3.5-1.7,7.1-3,8.1
			c-1.3,0.9-2.1-1.1-1.7-4.7s1.7-7.1,3-8.1S183,212.5,182.6,216z"/>
	</g>
	<g>
		<path fill="#FFFFFF" stroke="#F16600" stroke-width="2" stroke-linejoin="round" d="M178.2,205.6c0.3,0.2,0.7,0.3,1.1,0.5
			l-0.3,0.1l30.2,21.8l12.5-2.7l-31-22.4l0,0c-1.3-0.9-5.2-1.1-8.6-0.3C178.7,203.3,176.9,204.7,178.2,205.6z"/>
		<path fill="#FFFFFF" stroke="#F16600" stroke-width="2" stroke-linejoin="round" d="M213.1,224.9c3.5-0.7,7.3-0.6,8.6,0.4
			c1.3,0.9-0.4,2.3-3.9,3.1s-7.3,0.6-8.6-0.4C207.9,227,209.6,225.7,213.1,224.9z"/>
	</g>
	<g>
		<path fill="#FFFFFF" stroke="#F16600" stroke-width="2" stroke-linejoin="round" d="M192,203.5c0.3,0,0.7-0.1,1.2-0.3l-0.2,0.3
			l37.3,0l8.5-9.5l-38.2,0l0,0c-1.6,0-4.8,2.2-7.2,4.8C191,201.4,190.4,203.5,192,203.5z"/>
		<path fill="#FFFFFF" stroke="#F16600" stroke-width="2" stroke-linejoin="round" d="M231.6,198.7c2.4-2.6,5.6-4.8,7.2-4.8
			c1.6,0,1,2.1-1.4,4.8c-2.4,2.6-5.6,4.8-7.2,4.8C228.6,203.5,229.2,201.3,231.6,198.7z"/>
	</g>
	<g>
		<path fill="#FFFFFF" stroke="#F16600" stroke-width="2" stroke-linejoin="round" d="M192,201.5c0.3,0.1,0.7,0.2,1.2,0.2l-0.3,0.2
			l34.2,14.9l11.6-5.3l-35.1-15.2l0,0c-1.5-0.6-5.3,0.1-8.5,1.5C192,199.1,190.6,200.8,192,201.5z"/>
		<path fill="#FFFFFF" stroke="#F16600" stroke-width="2" stroke-linejoin="round" d="M230.2,212.9c3.2-1.5,7-2.1,8.5-1.5
			c1.5,0.6,0.1,2.4-3.1,3.8c-3.2,1.5-7,2.1-8.5,1.5C225.6,216.1,227,214.4,230.2,212.9z"/>
	</g>
	<g>
		<path fill="#FFFFFF" stroke="#F16600" stroke-width="2" stroke-linejoin="round" d="M195.6,187.1c0.3-0.1,0.6-0.4,1-0.7l-0.1,0.3
			l34.4-14.4l4.2-12.1L199.9,175l0,0c-1.5,0.7-3.6,3.8-4.8,7.1C193.9,185.5,194.2,187.7,195.6,187.1z"/>
		<path fill="#FFFFFF" stroke="#F16600" stroke-width="2" stroke-linejoin="round" d="M230.3,167.5c1.2-3.3,3.3-6.5,4.8-7.2
			c1.5-0.6,1.7,1.6,0.6,4.9c-1.2,3.3-3.3,6.5-4.8,7.2C229.4,173,229.1,170.8,230.3,167.5z"/>
	</g>
	<g>
		<path fill="#FFFFFF" stroke="#F16600" stroke-width="2" stroke-linejoin="round" d="M133.9,204.6c0.2-0.2,0.5-0.6,0.7-1l0,0.3
			l27-25.8l-0.4-12.8l-27.7,26.4l0,0c-1.2,1.2-2,4.9-1.9,8.4C131.7,203.8,132.8,205.8,133.9,204.6z"/>
		<path fill="#FFFFFF" stroke="#F16600" stroke-width="2" stroke-linejoin="round" d="M159.3,173.9c-0.1-3.5,0.8-7.3,1.9-8.4
			c1.2-1.1,2.2,0.8,2.3,4.4c0.1,3.5-0.8,7.3-1.9,8.4C160.4,179.4,159.4,177.4,159.3,173.9z"/>
	</g>
	<g>
		<path fill="#FFFFFF" stroke="#F16600" stroke-width="2" stroke-linejoin="round" d="M167.9,190.3c0.3,0.1,0.7,0.2,1.2,0.3
			l-0.3,0.2l33.8,15.8l11.7-5l-34.6-16.2l0,0c-1.5-0.7-5.3-0.1-8.5,1.3C167.9,188,166.4,189.7,167.9,190.3z"/>
		<path fill="#FFFFFF" stroke="#F16600" stroke-width="2" stroke-linejoin="round" d="M205.8,202.8c3.3-1.4,7.1-1.9,8.5-1.3
			c1.5,0.7,0,2.4-3.3,3.7c-3.3,1.4-7.1,1.9-8.5,1.3C201.1,205.8,202.5,204.2,205.8,202.8z"/>
	</g>
	<g>
		<path fill="#FFFFFF" stroke="#F16600" stroke-width="2" stroke-linejoin="round" d="M132.4,185.5c0.3,0.1,0.7,0,1.2-0.1l-0.3,0.2
			l36.8,5.9l9.9-8.1l-37.8-6.1l0,0c-1.6-0.2-5.1,1.4-7.8,3.6C131.7,183.2,130.8,185.2,132.4,185.5z"/>
		<path fill="#FFFFFF" stroke="#F16600" stroke-width="2" stroke-linejoin="round" d="M172.2,187c2.8-2.2,6.3-3.8,7.9-3.6
			c1.6,0.3,0.7,2.3-2.1,4.5c-2.8,2.2-6.3,3.8-7.9,3.6C168.5,191.3,169.5,189.3,172.2,187z"/>
	</g>
	<g>
		<path fill="#FFFFFF" stroke="#F16600" stroke-width="2" stroke-linejoin="round" d="M215.7,184.5c-0.3-0.1-0.7,0-1.2,0l0.3-0.2
			l-36.5-7.5l-10.3,7.6l37.4,7.7l0,0c1.6,0.3,5.1-1.1,8-3.2C216.2,186.8,217.3,184.9,215.7,184.5z"/>
		<path fill="#FFFFFF" stroke="#F16600" stroke-width="2" stroke-linejoin="round" d="M176,181.2c-2.8,2.1-6.4,3.5-8,3.2
			c-1.6-0.3-0.6-2.3,2.3-4.4c2.8-2.1,6.4-3.5,8-3.2C179.9,177.2,178.8,179.1,176,181.2z"/>
	</g>
	<g>
		<path fill="#FFFFFF" stroke="#F16600" stroke-width="2" stroke-linejoin="round" d="M183,224.3c-0.2-0.2-0.6-0.4-1-0.6l0.3,0
			l-26.4-26.3l-12.8,0.7l27.1,27l0,0c1.2,1.1,4.9,1.9,8.4,1.7C182.2,226.5,184.1,225.4,183,224.3z"/>
		<path fill="#FFFFFF" stroke="#F16600" stroke-width="2" stroke-linejoin="round" d="M151.6,199.7c-3.5,0.2-7.3-0.6-8.5-1.7
			c-1.1-1.1,0.8-2.2,4.3-2.4c3.5-0.2,7.3,0.6,8.5,1.7C157.1,198.4,155.1,199.5,151.6,199.7z"/>
	</g>
	<g>
		<path fill="#FFFFFF" stroke="#F16600" stroke-width="2" stroke-linejoin="round" d="M187.4,194.7c0.2-0.2,0.4-0.6,0.6-1.1l0.1,0.3
			l24.2-28.4l-1.7-12.7L185.7,182l0,0c-1,1.3-1.5,5.1-1,8.5C185.1,194,186.3,195.9,187.4,194.7z"/>
		<path fill="#FFFFFF" stroke="#F16600" stroke-width="2" stroke-linejoin="round" d="M209.4,161.4c-0.5-3.5,0-7.3,1-8.6
			c1-1.2,2.3,0.6,2.7,4.1c0.5,3.5,0,7.3-1,8.6C211.1,166.8,209.9,164.9,209.4,161.4z"/>
	</g>
	<g>
		<path fill="#FFFFFF" stroke="#F16600" stroke-width="2" stroke-linejoin="round" d="M208.5,170.8c-0.3-0.1-0.7-0.2-1.2-0.2
			l0.3-0.2l-34.5-14.2l-11.5,5.6l35.4,14.5l0,0c1.5,0.6,5.3-0.2,8.4-1.7C208.6,173.2,210,171.5,208.5,170.8z"/>
		<path fill="#FFFFFF" stroke="#F16600" stroke-width="2" stroke-linejoin="round" d="M170.1,160.2c-3.2,1.5-7,2.3-8.5,1.7
			c-1.5-0.6-0.1-2.4,3.1-3.9s7-2.3,8.5-1.7C174.6,156.9,173.3,158.7,170.1,160.2z"/>
	</g>
	<path fill="#FFFFFF" stroke="#F16600" stroke-width="2" stroke-linejoin="round" d="M84.6,119.1h3.2c0,0-2.5,7.6-1.6,11.4
		s6.6,16.1,4.4,21.5c-2.2,5.4-2.8,25.6-6,34.2c-3.2,8.5-8.2,25.3-16.8,33.9s-7.3,9.8-16.8,11.7s-11.4,2.8-15.5,4.1
		c-4.1,1.3-5.4,1.3-6.6,0c-1.3-1.3-0.6-2.5,2.2-3.8s5.7-2.8,5.7-7.9s-4.1-9.8,0.9-32.9s11.4-38.9,17.1-47.2s16.5-10,24.1-14.9
		C86.4,124.3,84.6,119.1,84.6,119.1z"/>
	<path fill="#FFFFFF" stroke="#F16600" stroke-width="2" stroke-linejoin="round" d="M111.1,124.1c0,0,3.8,0.3,3.2,5.4
		c-0.6,5.1-2.2,29.4,1.6,40.2c3.8,10.8,13.6,18.7,4.4,40.5s-17.1,17.4-18.4,20.9c-1.3,3.5-2.2,3.5-4.1,3.2c-1.9-0.3-4.7,2.8-4.7,0.1
		s0.9-4.6-2.5-8c-3.5-3.5-21.5-16.5-16.1-40.2c5.4-23.7,12.3-38.9,22.5-49.1s7.5-8.3,10.1-10.1C111.1,124.1,111.1,124.1,111.1,124.1
		z"/>
</g>
</svg>
