<?xml version="1.0" encoding="utf-8"?>
<!-- Generator: Adobe Illustrator 18.1.0, SVG Export Plug-In . SVG Version: 6.00 Build 0)  -->
<svg version="1.1" id="Layer_1" xmlns="http://www.w3.org/2000/svg" xmlns:xlink="http://www.w3.org/1999/xlink" x="0px" y="0px"
	 viewBox="0 0 112.9 87.1" enable-background="new 0 0 112.9 87.1" xml:space="preserve">
<g>
	
		<rect x="44.7" y="17" transform="matrix(-4.262120e-003 1 -1 -4.262120e-003 96.6998 -27.518)" opacity="0.2" fill="#60CAE5" width="34.8" height="34.8"/>
	
		<rect x="66.9" y="32.7" transform="matrix(0.7041 0.7101 -0.7101 0.7041 60.49 -45.0723)" opacity="0.15" fill="#60CAE5" width="34.8" height="34.8"/>
	<polygon opacity="0.15" fill="#60CAE5" points="43.6,87.8 68.3,63.4 92.8,88 	"/>
	<polygon opacity="0.4" fill="#60CAE5" points="88.7,86.5 100.9,74.4 112.9,86.6 	"/>
	
		<rect x="44.4" y="40" transform="matrix(-0.9701 0.2427 -0.2427 -0.9701 135.6809 98.0997)" opacity="0.4" fill="#60CAE5" width="34.8" height="34.8"/>
	
		<rect x="25" y="45.9" transform="matrix(-0.5144 0.8576 -0.8576 -0.5144 118.4343 59.4061)" opacity="0.15" fill="#60CAE5" width="34.8" height="34.8"/>
	
		<rect x="4.9" y="34.5" transform="matrix(-0.5144 0.8576 -0.8576 -0.5144 68.6278 56.7241)" opacity="0.4" fill="#60CAE5" width="26.6" height="26.6"/>
	<polygon opacity="0.2" fill="#60CAE5" points="18.3,0 48.1,17.9 30.3,47.7 	"/>
</g>
</svg>
