<?xml version="1.0" encoding="utf-8"?>
<!-- Generator: Adobe Illustrator 18.1.0, SVG Export Plug-In . SVG Version: 6.00 Build 0)  -->
<svg version="1.1" xmlns="http://www.w3.org/2000/svg" xmlns:xlink="http://www.w3.org/1999/xlink" x="0px" y="0px"
	 viewBox="0 0 260 260" enable-background="new 0 0 260 260" xml:space="preserve">
<g id="Guide">
</g>
<g id="Layer_3">
</g>
<g id="Layer_1">
	<g>
		<g>
			<path fill="#FFFFFF" stroke="#B55001" stroke-width="2" stroke-linejoin="round" d="M150.2,85.1c-1.9-2.1-2.1-5.3-2.1-5.3V62.2
				h-16.7v17.6c0,0-0.1,3.2-2.1,5.3c-1.9,2.1-7.2,5.6-7.2,18.1s0,111.5,0,111.5s1.4,3.4,3.4,3.4c2,0,12,0,12,0h4.4c0,0,10,0,12,0
				s3.4-3.4,3.4-3.4s0-99,0-111.5S152.2,87.2,150.2,85.1z"/>
			<path fill="#FFFFFF" stroke="#B55001" stroke-width="2" stroke-linejoin="round" d="M148.4,47.6c-2.2-1-8.1-1-8.1-1h-1.1
				c0,0-5.8,0-8.1,1s-2.2,1-2.2,1v13.6c0,0,6.8,0,9.4,0h2.8c2.6,0,9.4,0,9.4,0V48.6C150.6,48.6,150.6,48.6,148.4,47.6z"/>
			<path fill="#FFFFFF" stroke="#B55001" stroke-width="2" stroke-linejoin="round" d="M123.4,94.1c2.7,1.2,5.8,1.9,16.4,1.8
				c14.2-0.2,16.4-1.8,16.4-1.8"/>
		</g>
		<path fill="#FFFFFF" stroke="#B55001" stroke-width="2" d="M195.5,40"/>
		<g>
			<path fill="#FFFFFF" stroke="#B55001" stroke-width="2" stroke-linejoin="round" d="M140.4,220c0,0-1-3.8-3.7-15.4
				s-8.2-14.8-9.4-15.6c-1.2-0.8-2,1.3-1.2,3.9c0.8,2.6,7.5,17.9,10.1,22.2c2.6,4.3,2,3.3,2.6,4.3c0.6,1,1.2-1.1,1.2-1.1"/>
			<path fill="#FFFFFF" stroke="#B55001" stroke-width="2" stroke-linejoin="round" d="M129.5,217.9c-0.5-0.4-0.6,0.3-6.7-8.8
				c-6.5-9.6-10.1-12.2-12.6-13.7c-2.5-1.4-3.2-0.6-3.3,1.1c-0.1,1.7-0.9,6.6,6.8,13.2c7.7,6.6,8.3,5.1,11.6,7.2
				C128.5,219,129.5,217.9,129.5,217.9z"/>
			<path fill="#FFFFFF" stroke="#B55001" stroke-width="2" stroke-linejoin="round" d="M136.5,219.7c-0.6,0.3-0.5-0.4-9,6.4
				c-9.1,7.3-13.3,8.7-16.1,9.4c-2.8,0.6-3.2-0.4-2.9-2s1.1-6.6,10.3-10.6c9.3-4,9.4-2.5,13.2-3.5
				C135.9,218.4,136.5,219.7,136.5,219.7z"/>
			<path fill="#FFFFFF" stroke="#B55001" stroke-width="2" stroke-linejoin="round" d="M106.6,214.2c0,0-5-6.2-11.6-12.4
				c-6.7-6.2-10-9.5-11.3-8.1s0.2,8.6,5.5,12.4C94.6,209.8,106.6,214.2,106.6,214.2z"/>
			<path fill="#FFFFFF" stroke="#B55001" stroke-width="2" stroke-linejoin="round" d="M116.8,216.8c0.1,0-4.3,3.1-11.9,6
				c-7.4,2.9-12.9,4.6-17.5,2.9s-5.3-4.9,1.6-5.2c6.9-0.3,15.2-3.6,20.6-3.5c5.4,0.2,3.8-0.1,5.4,0.2
				C116.6,217.4,116.8,216.8,116.8,216.8z"/>
			<path fill="none" stroke="#B55001" stroke-width="2" stroke-linejoin="round" d="M154.7,223.7c-4-2.8-37.4-6.7-50.8-9.5
				c-13.4-2.7-20.5-6-21.8-6.6"/>
			<path fill="#FFFFFF" stroke="#B55001" stroke-width="2" stroke-linejoin="round" d="M89.6,210.3c0,0-8,0.1-17-1.2
				s-13.7-1.7-13.4-3.6s6.8-5.3,13.1-3.5S89.6,210.3,89.6,210.3z"/>
		</g>
		
			<ellipse transform="matrix(0.4532 -0.8914 0.8914 0.4532 -116.8914 252.552)" fill="#FFFFFF" stroke="#B55001" stroke-width="2" stroke-linejoin="round" cx="147.4" cy="221.6" rx="6.5" ry="10"/>
		
			<ellipse transform="matrix(-0.2014 -0.9795 0.9795 -0.2014 -39.1204 434.2289)" fill="#FFFFFF" stroke="#B55001" stroke-width="2" stroke-linejoin="round" cx="157.4" cy="233.1" rx="6.5" ry="10"/>
		
			<ellipse transform="matrix(0.6997 0.7145 -0.7145 0.6997 205.0124 -29.8238)" fill="#FFFFFF" stroke="#B55001" stroke-width="2" stroke-linejoin="round" cx="138" cy="228.9" rx="6.5" ry="10"/>
	</g>
</g>
</svg>
