<?xml version="1.0" encoding="utf-8"?>
<!-- Generator: Adobe Illustrator 18.1.0, SVG Export Plug-In . SVG Version: 6.00 Build 0)  -->
<svg version="1.1" xmlns="http://www.w3.org/2000/svg" xmlns:xlink="http://www.w3.org/1999/xlink" x="0px" y="0px"
	 viewBox="0 0 260 260" enable-background="new 0 0 260 260" xml:space="preserve">
<g id="Guide">
</g>
<g id="Layer_3">
</g>
<g id="Layer_1">
	<g>
		<g>
			<path fill="#FFFFFF" stroke="#B55001" stroke-width="2" d="M97.5,180.6l7-5.9c3.3-2.8,3.8-13.2-3.3-16.8s-11.4,2.3-14.3,1.6
				c-2.9-0.8-1.3-0.1-1.3-0.1l-0.3,0.2c0,0-0.4-1.7-0.1,1.3s-6.3,6.4-3.8,13.9C83.8,182.2,94.1,183.5,97.5,180.6z"/>
			<path fill="#FFFFFF" stroke="#B55001" stroke-width="2" d="M91.3,190.6l7,5.9c3.3,2.8,13.7,1.6,16.1-6c2.4-7.5-4.2-10.9-3.9-13.9
				s-0.1-1.3-0.1-1.3l-0.3-0.2c0,0,1.6-0.7-1.3,0.1c-2.9,0.8-7.3-5.1-14.3-1.5C87.5,177.4,87.8,187.7,91.3,190.6z"/>
			<g>
				<path fill="#FFFFFF" stroke="#B55001" stroke-width="2" d="M140.6,134.2c0,0-20.3,10.1-24,23.7c-3.6,13.6,2.9,16.1,2.9,16.1
					s5.7,4.1,14.9-6.6C143.7,156.7,140.6,134.2,140.6,134.2z"/>
				<path fill="#FFFFFF" stroke="#B55001" stroke-width="2" d="M139.8,135.6c0,0-16.9,18.2-18.9,28.8c-2.1,10.6-1.3,9.5-1.3,9.5"/>
				<path fill="#FFFFFF" stroke="#B55001" stroke-width="2" d="M121.4,172.9c-1.6,0.3,7.9-1.9,13.1-19.9c5-17.6,5.3-17.5,5.3-17.5"
					/>
			</g>
			<g>
				<path fill="#FFFFFF" stroke="#B55001" stroke-width="2" d="M101.9,165.9c0,0,8.3,21.1,21.5,26c13.2,4.8,16.2-1.5,16.2-1.5
					s4.5-5.4-5.2-15.5C124.6,164.8,101.9,165.9,101.9,165.9z"/>
				<path fill="#FFFFFF" stroke="#B55001" stroke-width="2" d="M103.3,166.8c0,0,16.6,18.4,27,21.4c10.4,3,9.3,2.2,9.3,2.2"/>
				<path fill="#FFFFFF" stroke="#B55001" stroke-width="2" d="M138.8,188.4c0.2,1.6-1.1-8.1-18.6-14.8c-17.1-6.5-16.9-6.8-16.9-6.8
					"/>
			</g>
			<g>
				<path fill="#FFFFFF" stroke="#B55001" stroke-width="2" d="M187.4,155.1c0,0-20.3,10.1-24,23.7c-3.6,13.6,2.9,16.1,2.9,16.1
					s5.7,4.1,14.9-6.6C190.5,177.6,187.4,155.1,187.4,155.1z"/>
				<path fill="#FFFFFF" stroke="#B55001" stroke-width="2" d="M186.6,156.6c0,0-16.9,18.2-18.9,28.8c-2.1,10.6-1.3,9.5-1.3,9.5"/>
				<path fill="#FFFFFF" stroke="#B55001" stroke-width="2" d="M168.2,193.9c-1.6,0.3,7.9-1.9,13.1-19.9c5-17.6,5.3-17.5,5.3-17.5"
					/>
			</g>
			<g>
				<path fill="#FFFFFF" stroke="#B55001" stroke-width="2" d="M140.6,175.3c0,0,10.1,20.3,23.7,24c13.6,3.6,16.1-2.9,16.1-2.9
					s4.1-5.7-6.6-14.9C163.1,172.2,140.6,175.3,140.6,175.3z"/>
				<path fill="#FFFFFF" stroke="#B55001" stroke-width="2" d="M142,176c0,0,18.2,16.9,28.8,18.9c10.6,2.1,9.5,1.3,9.5,1.3"/>
				<path fill="#FFFFFF" stroke="#B55001" stroke-width="2" d="M179.4,194.4c0.3,1.6-1.9-7.9-19.9-13.1c-17.6-5-17.5-5.3-17.5-5.3"
					/>
			</g>
			<path fill="#FFFFFF" stroke="#B55001" stroke-width="2" stroke-miterlimit="10" d="M176.5,130.5c0,0-13.3-2.9-18.8,2.4
				c-5.5,5.3-11.4,14.1-7.5,22c3.9,7.9,11.9,9.5,12.5,5.7c0.6-3.8-3.5-12.2,0-14.4c3.5-2.3,5.9-0.1,12.1,0c6.2,0.1,9.1-2,8.6-8.5
				C183,131.2,176.5,130.5,176.5,130.5z"/>
			<path fill="#FFFFFF" stroke="#B55001" stroke-width="2" stroke-miterlimit="10" d="M151.3,216.3c0,0,11.4-7.3,11.6-15
				c0.2-7.6-1.9-18-10.2-20.8c-8.3-2.8-15.1,1.6-12.9,4.8s11.1,6.1,10.2,10.2c-0.9,4.1-4.1,4.3-8.6,8.6s-5,7.8-0.1,12.1
				C146.2,220.3,151.3,216.3,151.3,216.3z"/>
			<g>
				<path fill="#FFFFFF" stroke="#B55001" stroke-width="2" d="M132,213.8c0.7,0,2.2-1.1,2.2-3.3c0-2.2-2.7-6.4-2.7-6.4
					s-2.7,4.2-2.7,6.4c0,2.2,1.4,3.3,2.2,3.3H132z"/>
				<path fill="#FFFFFF" stroke="#B55001" stroke-width="2" d="M122.6,223.1c0.7,0,2.2-1.1,2.2-3.3s-2.7-6.4-2.7-6.4
					s-2.7,4.2-2.7,6.4s1.4,3.3,2.2,3.3H122.6z"/>
				<path fill="#FFFFFF" stroke="#B55001" stroke-width="2" d="M115.3,207.6c-0.3,0.7,0.3,2.4,2.3,3.2c2,0.8,6.9-0.2,6.9-0.2
					s-3-4-5-4.8c-2-0.8-3.6,0.1-3.9,0.8L115.3,207.6z"/>
			</g>
			<g>
				<path fill="#FFFFFF" stroke="#B55001" stroke-width="2" d="M79.3,190.6c0.7,0,2.2-1.1,2.2-3.3s-2.7-6.4-2.7-6.4
					s-2.7,4.2-2.7,6.4s1.4,3.3,2.2,3.3H79.3z"/>
				<path fill="#FFFFFF" stroke="#B55001" stroke-width="2" d="M69.9,200c0.7,0,2.2-1.1,2.2-3.3c0-2.2-2.7-6.4-2.7-6.4
					s-2.7,4.2-2.7,6.4c0,2.2,1.4,3.3,2.2,3.3H69.9z"/>
				<path fill="#FFFFFF" stroke="#B55001" stroke-width="2" d="M62.6,184.5c-0.3,0.7,0.3,2.4,2.3,3.2c2,0.8,6.9-0.2,6.9-0.2
					s-3-4-5-4.8c-2-0.8-3.6,0.1-3.9,0.8L62.6,184.5z"/>
			</g>
			<g>
				<path fill="#FFFFFF" stroke="#B55001" stroke-width="2" d="M141.6,168.3c3,0,9.8,2.1,11.3,5.8c1.5,3.7-2.4,12.3-4.4,15.1
					c-2.8,3.9-9.2,6.1-9.2,6.1s-6.4-2.2-9.2-6.1c-1.9-2.7-5.9-11.4-4.4-15.1c1.5-3.7,8.3-5.8,11.3-5.8H141.6z"/>
				<path fill="#FFFFFF" stroke="#B55001" stroke-width="2" d="M126.4,172.8c0,0,3.3,4.5,12.8,4.5c9.3,0,12-5.3,12-5.3"/>
			</g>
			<g>
				<path fill="#FFFFFF" stroke="#B55001" stroke-width="2" d="M184.8,173.7c0,0-13.3,18.4-10.1,32.1c3.1,13.7,10.1,12.8,10.1,12.8
					s7,0.9,10.1-12.8C198,192.2,184.8,173.7,184.8,173.7z"/>
				<path fill="#FFFFFF" stroke="#B55001" stroke-width="2" d="M184.8,175.4c0,0-6.4,24-3.3,34.3c3.1,10.3,3.3,9,3.3,9"/>
				<path fill="#FFFFFF" stroke="#B55001" stroke-width="2" d="M186,216.9c-1.2,1,6.1-5.3,2.2-23.7c-3.8-17.9-3.5-17.9-3.5-17.9"/>
			</g>
			<g>
				<path fill="#FFFFFF" stroke="#B55001" stroke-width="2" d="M101.8,198.7c-0.4-3.7-4.4-9.4-6.4-8.4c-2,1-6.5,4.5-6.8,7.6
					c-1,13.1,12.1,12.4,13.5,6.5S101.8,198.7,101.8,198.7z"/>
				<path fill="#FFFFFF" stroke="#B55001" stroke-width="2" d="M85.3,214.7c0,0,1.1,2,7.5,0c6.4-2,9.8-5.3,11.3-10.4
					c1.4-4.9,0.1-12.7-3.5-11.5c0,0-1.5,10.8-6.5,13c0,0,1.1-9.4-1.3-13.3c-2.4-3.9-3.4-2.7-3.4-2.7s-7,2.4-8,11.5
					C80.6,210.4,85.3,214.7,85.3,214.7z"/>
			</g>
		</g>
	</g>
</g>
</svg>
