<?xml version="1.0" encoding="utf-8"?>
<!-- Generator: Adobe Illustrator 17.1.0, SVG Export Plug-In . SVG Version: 6.00 Build 0)  -->
<!DOCTYPE svg PUBLIC "-//W3C//DTD SVG 1.1//EN" "http://www.w3.org/Graphics/SVG/1.1/DTD/svg11.dtd">
<svg version="1.1" id="Layer_1" xmlns="http://www.w3.org/2000/svg" xmlns:xlink="http://www.w3.org/1999/xlink" x="0px" y="0px"
	 viewBox="0 0 217.6 214.8" enable-background="new 0 0 217.6 214.8" xml:space="preserve">
<g>
	<g>
		<rect x="24" y="206.1" fill="#FFFFFF" width="7" height="7"/>
	</g>
	<g>
		<rect x="31" y="206.1" fill="#FFF4B2" width="7" height="7"/>
	</g>
	<g>
		<rect x="38" y="206.1" fill="#FED976" width="7" height="7"/>
	</g>
	<g>
		<rect x="45" y="206.1" fill="#FEB24C" width="7" height="7"/>
	</g>
	<g>
		<rect x="52" y="206.1" fill="#FD8D3B" width="7" height="7"/>
	</g>
	<g>
		<rect x="59" y="206.1" fill="#F03B1F" width="7" height="7"/>
	</g>
	<g>
		<rect x="66" y="206.1" fill="#B20026" width="7" height="7"/>
	</g>
</g>
<g>
	<g>
		<rect x="143.1" y="205.1" fill="#FFFFFF" width="7" height="7"/>
	</g>
	<g>
		<rect x="150.1" y="205.1" fill="#FFF4B2" width="7" height="7"/>
	</g>
	<g>
		<rect x="157.1" y="205.1" fill="#FED976" width="7" height="7"/>
	</g>
	<g>
		<rect x="164.1" y="205.1" fill="#FEB24C" width="7" height="7"/>
	</g>
	<g>
		<rect x="171.1" y="205.1" fill="#D38751" width="7" height="7"/>
	</g>
	<g>
		<rect x="178.1" y="205.1" fill="#A05458" width="7" height="7"/>
	</g>
	<g>
		<rect x="185.1" y="205.1" fill="#762A5D" width="7" height="7"/>
	</g>
</g>
<g>
	<path fill="#939A9E" d="M26.1,188.4c0-0.3,0.3-0.6,0.6-0.6s0.6,0.3,0.6,0.6S27,189,26.7,189S26.1,188.7,26.1,188.4z M26.2,190.3
		h0.9v5h-0.9V190.3z"/>
	<path fill="#939A9E" d="M28.7,191.1h-0.5v-0.8h0.5v-1.8h0.9v1.8h0.9v0.8h-0.9v4.2h-0.9V191.1z"/>
	<path fill="#939A9E" d="M35.7,194c-0.6,1-1.3,1.4-2.3,1.4c-1.4,0-2.4-1.1-2.4-2.6c0-1.5,1-2.6,2.4-2.6c1.4,0,2.4,1,2.4,2.6v0.1
		h-3.9c0,1,0.7,1.7,1.6,1.7c0.7,0,1.1-0.3,1.5-1L35.7,194z M34.9,192.2c-0.2-0.8-0.7-1.3-1.5-1.3c-0.7,0-1.3,0.5-1.5,1.3H34.9z"/>
	<path fill="#939A9E" d="M37.1,190.3h0.9v0.5c0.3-0.5,0.7-0.7,1.2-0.7c0.6,0,1.1,0.3,1.4,0.8c0.3-0.5,0.8-0.8,1.5-0.8
		c0.6,0,1.1,0.3,1.3,0.7c0.2,0.3,0.3,0.7,0.3,1.3v3.2h-0.9v-3c0-0.9-0.3-1.3-0.9-1.3c-0.7,0-1.1,0.5-1.1,1.6v2.8h-0.9v-3
		c0-0.9-0.3-1.4-0.9-1.4c-0.4,0-0.7,0.2-0.9,0.5c-0.1,0.2-0.2,0.6-0.2,1.1v2.7h-0.9V190.3z"/>
	<path fill="#939A9E" d="M45.6,193.8c0.3,0.6,0.5,0.8,1,0.8c0.5,0,0.8-0.3,0.8-0.8c0-0.4-0.2-0.6-0.8-0.8c-1.2-0.5-1.4-0.8-1.4-1.5
		c0-0.8,0.6-1.4,1.5-1.4c0.6,0,1.1,0.3,1.4,0.9l-0.7,0.4c-0.2-0.3-0.4-0.5-0.7-0.5c-0.3,0-0.6,0.3-0.6,0.6c0,0.3,0.2,0.4,0.8,0.7
		c0.6,0.2,0.7,0.3,0.9,0.5c0.4,0.3,0.6,0.6,0.6,1.1c0,0.9-0.7,1.6-1.7,1.6c-0.8,0-1.4-0.4-1.7-1.3L45.6,193.8z"/>
	<path fill="#939A9E" d="M53.7,186.5l0.7,0.3l-5.2,10.6l-0.7-0.3L53.7,186.5z"/>
	<path fill="#939A9E" d="M55.2,186.5h0.9v5.6l1.8-1.8H59l-2.1,2.1l2.5,2.9h-1.1l-2-2.3l-0.2,0.2v2.1h-0.9V186.5z"/>
	<path fill="#939A9E" d="M60.3,190.3h0.9v0.5c0.3-0.5,0.7-0.7,1.2-0.7c0.6,0,1.1,0.3,1.4,0.8c0.3-0.5,0.8-0.8,1.5-0.8
		c0.6,0,1.1,0.3,1.3,0.7c0.2,0.3,0.3,0.7,0.3,1.3v3.2H66v-3c0-0.9-0.3-1.3-0.9-1.3c-0.7,0-1.1,0.5-1.1,1.6v2.8h-0.9v-3
		c0-0.9-0.3-1.4-0.9-1.4c-0.4,0-0.7,0.2-0.9,0.5c-0.1,0.2-0.2,0.6-0.2,1.1v2.7h-0.9V190.3z"/>
	<path fill="#939A9E" d="M69.7,189.3c0.6-0.7,0.8-1,0.8-1.4c0-0.5-0.4-0.9-0.9-0.9c-0.3,0-0.6,0.2-0.8,0.4c-0.1,0.1-0.1,0.3-0.2,0.6
		h-0.5c0-0.4,0.1-0.6,0.2-0.8c0.3-0.4,0.7-0.6,1.2-0.6c0.8,0,1.5,0.6,1.5,1.4c0,0.5-0.2,0.8-1,1.8l-1,1.1h2v0.5h-3L69.7,189.3z"/>
</g>
<g>
	<path fill="#939A9E" d="M152.5,186.5h0.9v5.6l1.8-1.8h1.1l-2.1,2.1l2.5,2.9h-1.1l-2-2.3l-0.2,0.2v2.1h-0.9V186.5z"/>
	<path fill="#939A9E" d="M157.9,195.7c0,0.4,0.1,0.6,0.2,0.8c0.3,0.4,0.8,0.7,1.4,0.7c1,0,1.6-0.7,1.6-2v-0.7
		c-0.5,0.6-1.1,0.8-1.8,0.8c-1.3,0-2.4-1.1-2.4-2.6c0-1.5,1-2.6,2.4-2.6c0.7,0,1.2,0.3,1.7,0.8v-0.7h0.9v4.9c0,1-0.1,1.5-0.5,2
		c-0.4,0.6-1.2,0.9-2,0.9c-1.4,0-2.4-0.9-2.4-2.3H157.9z M159.5,194.6c1,0,1.7-0.8,1.7-1.8c0-1.1-0.7-1.8-1.7-1.8
		c-0.9,0-1.6,0.8-1.6,1.8C157.9,193.8,158.5,194.6,159.5,194.6z"/>
	<path fill="#939A9E" d="M167.8,186.5l0.7,0.3l-5.2,10.6l-0.7-0.3L167.8,186.5z"/>
	<path fill="#939A9E" d="M169.4,186.5h0.9v5.6l1.8-1.8h1.1l-2.1,2.1l2.5,2.9h-1.1l-2-2.3l-0.2,0.2v2.1h-0.9V186.5z"/>
	<path fill="#939A9E" d="M174.5,190.3h0.9v0.5c0.3-0.5,0.7-0.7,1.2-0.7c0.6,0,1.1,0.3,1.4,0.8c0.3-0.5,0.8-0.8,1.5-0.8
		c0.6,0,1.1,0.3,1.3,0.7c0.2,0.3,0.3,0.7,0.3,1.3v3.2h-0.9v-3c0-0.9-0.3-1.3-0.9-1.3c-0.7,0-1.1,0.5-1.1,1.6v2.8h-0.9v-3
		c0-0.9-0.3-1.4-0.9-1.4c-0.4,0-0.7,0.2-0.9,0.5c-0.1,0.2-0.2,0.6-0.2,1.1v2.7h-0.9V190.3z"/>
	<path fill="#939A9E" d="M183.9,189.3c0.6-0.7,0.8-1,0.8-1.4c0-0.5-0.4-0.9-0.9-0.9c-0.3,0-0.6,0.2-0.8,0.4
		c-0.1,0.1-0.1,0.3-0.2,0.6h-0.5c0-0.4,0.1-0.6,0.2-0.8c0.3-0.4,0.7-0.6,1.2-0.6c0.8,0,1.5,0.6,1.5,1.4c0,0.5-0.2,0.8-1,1.8l-1,1.1
		h2v0.5h-3L183.9,189.3z"/>
</g>
<g>
	<path fill="#939A9E" d="M122.3,204.1h0.9v7.2h2.2v0.8h-3.1V204.1z"/>
	<path fill="#939A9E" d="M128.6,207c1.5,0,2.6,1.2,2.6,2.6c0,1.5-1.2,2.6-2.7,2.6c-1.5,0-2.6-1.2-2.6-2.7
		C125.9,208.2,127.1,207,128.6,207z M128.6,211.4c1,0,1.8-0.8,1.8-1.8s-0.7-1.8-1.8-1.8c-1,0-1.8,0.8-1.8,1.8
		C126.8,210.7,127.5,211.4,128.6,211.4z"/>
	<path fill="#939A9E" d="M131.6,207.1h1l1.5,3.4l1.6-3.8l1.5,3.8l1.5-3.4h1l-2.5,5.3l-1.5-3.7l-1.5,3.7L131.6,207.1z"/>
</g>
<g>
	<path fill="#939A9E" d="M195.5,204.1h0.9v3.3h4.1v-3.3h0.9v8h-0.9v-3.9h-4.1v3.9h-0.9V204.1z"/>
	<path fill="#939A9E" d="M203.1,205.2c0-0.3,0.3-0.6,0.6-0.6s0.6,0.3,0.6,0.6s-0.3,0.6-0.6,0.6S203.1,205.6,203.1,205.2z
		 M203.3,207.1h0.9v5h-0.9V207.1z"/>
	<path fill="#939A9E" d="M206.4,212.6c0,0.4,0.1,0.6,0.2,0.8c0.3,0.4,0.8,0.7,1.4,0.7c1,0,1.6-0.7,1.6-2v-0.7
		c-0.5,0.6-1.1,0.8-1.8,0.8c-1.3,0-2.4-1.1-2.4-2.6c0-1.5,1-2.6,2.4-2.6c0.7,0,1.2,0.3,1.7,0.8v-0.7h0.9v4.9c0,1-0.1,1.5-0.5,2
		c-0.4,0.6-1.2,0.9-2,0.9c-1.4,0-2.4-0.9-2.4-2.3H206.4z M208,211.4c1,0,1.7-0.8,1.7-1.8c0-1.1-0.7-1.8-1.7-1.8
		c-0.9,0-1.6,0.8-1.6,1.8C206.3,210.7,207,211.4,208,211.4z"/>
	<path fill="#939A9E" d="M212.1,203.3h0.9v4.4c0.4-0.5,0.8-0.7,1.4-0.7s1.2,0.3,1.4,0.7c0.2,0.3,0.3,0.7,0.3,1.3v3.1h-0.9v-3
		c0-0.9-0.3-1.3-1-1.3c-0.5,0-0.9,0.2-1.1,0.6c-0.1,0.3-0.2,0.6-0.2,1.2v2.5h-0.9V203.3z"/>
</g>
<g>
	<path fill="#939A9E" d="M3.7,204.1h0.9v7.2h2.2v0.8H3.7V204.1z"/>
	<path fill="#939A9E" d="M10,207c1.5,0,2.6,1.2,2.6,2.6c0,1.5-1.2,2.6-2.7,2.6c-1.5,0-2.6-1.2-2.6-2.7C7.4,208.2,8.6,207,10,207z
		 M10,211.4c1,0,1.8-0.8,1.8-1.8s-0.7-1.8-1.8-1.8c-1,0-1.8,0.8-1.8,1.8C8.2,210.7,9,211.4,10,211.4z"/>
	<path fill="#939A9E" d="M13,207.1h1l1.5,3.4l1.6-3.8l1.5,3.8l1.5-3.4h1l-2.5,5.3l-1.5-3.7l-1.5,3.7L13,207.1z"/>
</g>
<g>
	<path fill="#939A9E" d="M77.1,204.1H78v3.3H82v-3.3h0.9v8H82v-3.9H78v3.9h-0.9V204.1z"/>
	<path fill="#939A9E" d="M84.7,205.2c0-0.3,0.3-0.6,0.6-0.6s0.6,0.3,0.6,0.6s-0.3,0.6-0.6,0.6S84.7,205.6,84.7,205.2z M84.8,207.1
		h0.9v5h-0.9V207.1z"/>
	<path fill="#939A9E" d="M88,212.6c0,0.4,0.1,0.6,0.2,0.8c0.3,0.4,0.8,0.7,1.4,0.7c1,0,1.6-0.7,1.6-2v-0.7c-0.5,0.6-1.1,0.8-1.8,0.8
		c-1.3,0-2.4-1.1-2.4-2.6c0-1.5,1-2.6,2.4-2.6c0.7,0,1.2,0.3,1.7,0.8v-0.7H92v4.9c0,1-0.1,1.5-0.5,2c-0.4,0.6-1.2,0.9-2,0.9
		c-1.4,0-2.4-0.9-2.4-2.3H88z M89.5,211.4c1,0,1.7-0.8,1.7-1.8c0-1.1-0.7-1.8-1.7-1.8c-0.9,0-1.6,0.8-1.6,1.8
		C87.9,210.7,88.6,211.4,89.5,211.4z"/>
	<path fill="#939A9E" d="M93.6,203.3h0.9v4.4c0.4-0.5,0.8-0.7,1.4-0.7s1.2,0.3,1.4,0.7c0.2,0.3,0.3,0.7,0.3,1.3v3.1h-0.9v-3
		c0-0.9-0.3-1.3-1-1.3c-0.5,0-0.9,0.2-1.1,0.6c-0.1,0.3-0.2,0.6-0.2,1.2v2.5h-0.9V203.3z"/>
</g>
<g>
	<path fill="#485F71" d="M17.7,107.4c-1,0.7-1.9,1-3,1c-2.8,0-5.2-2.3-5.2-5.1c0-2.9,2.4-5.2,5.2-5.2c1.1,0,2,0.3,3,1v1.4
		c-1-0.9-1.9-1.3-3-1.3c-2.2,0-4,1.9-4,4.2c0,2.2,1.8,4.1,4.1,4.1c1.1,0,2.1-0.4,3-1.3V107.4z"/>
	<path fill="#485F71" d="M22.3,101.8c1.8,0,3.3,1.4,3.3,3.3c0,1.8-1.4,3.3-3.3,3.3c-1.8,0-3.3-1.5-3.3-3.3
		C19,103.3,20.5,101.8,22.3,101.8z M22.3,107.4c1.3,0,2.2-1,2.2-2.3s-0.9-2.3-2.2-2.3c-1.2,0-2.2,1-2.2,2.3
		C20.1,106.4,21,107.4,22.3,107.4z"/>
	<path fill="#485F71" d="M32.2,105.7c0,0.9-0.2,1.4-0.6,1.9c-0.4,0.5-1.1,0.8-1.9,0.8c-0.8,0-1.4-0.3-1.9-0.8
		c-0.4-0.5-0.6-1-0.6-1.9V102h1.1v3.6c0,0.6,0.1,0.9,0.2,1.2c0.2,0.4,0.7,0.6,1.2,0.6c0.5,0,1-0.2,1.2-0.6c0.1-0.3,0.2-0.6,0.2-1.2
		V102h1.1V105.7z"/>
	<path fill="#485F71" d="M34.2,102h1.1v0.8c0.5-0.7,1-0.9,1.8-0.9c0.8,0,1.4,0.3,1.8,0.9c0.2,0.4,0.3,0.9,0.3,1.7v3.9h-1.1v-3.7
		c0-0.7,0-1-0.2-1.2c-0.2-0.3-0.6-0.5-1.1-0.5c-1.1,0-1.5,0.7-1.5,2.3v3.1h-1.1V102z"/>
	<path fill="#485F71" d="M41.2,102.9h-0.6v-1h0.6v-2.2h1.1v2.2h1.1v1h-1.1v5.2h-1.1V102.9z"/>
	<path fill="#485F71" d="M52.9,107.3c-0.6,0.7-1.3,1-2.2,1c-1.7,0-3-1.4-3-3.3c0-1.9,1.3-3.2,3-3.2c0.9,0,1.6,0.3,2.2,1v-5.6H54
		v10.9h-1.1V107.3z M50.9,107.4c1.2,0,2.1-1,2.1-2.3c0-1.3-0.9-2.3-2.1-2.3c-1.2,0-2.1,1-2.1,2.2C48.9,106.4,49.8,107.4,50.9,107.4z
		"/>
	<path fill="#485F71" d="M61.6,106.6c-0.7,1.2-1.6,1.8-2.9,1.8c-1.8,0-3.1-1.3-3.1-3.3c0-1.9,1.2-3.3,3-3.3c1.8,0,3,1.3,3,3.3v0.2
		h-4.9c0.1,1.3,0.9,2.1,2,2.1c0.8,0,1.3-0.3,1.9-1.3L61.6,106.6z M60.5,104.4c-0.2-1-0.9-1.6-1.8-1.6c-0.9,0-1.7,0.7-1.8,1.6H60.5z"
		/>
	<path fill="#485F71" d="M63.3,102h1.1v0.8c0.5-0.7,1-0.9,1.8-0.9c0.8,0,1.4,0.3,1.8,0.9c0.2,0.4,0.3,0.9,0.3,1.7v3.9h-1.1v-3.7
		c0-0.7,0-1-0.2-1.2c-0.2-0.3-0.6-0.5-1.1-0.5c-1.1,0-1.5,0.7-1.5,2.3v3.1h-1.1V102z"/>
	<path fill="#485F71" d="M70.8,106.4c0.3,0.8,0.7,1,1.2,1c0.6,0,1-0.4,1-1c0-0.5-0.2-0.7-1-1c-1.4-0.6-1.8-1-1.8-1.8
		c0-1,0.8-1.7,1.8-1.7c0.8,0,1.3,0.4,1.7,1.1l-0.9,0.5c-0.2-0.4-0.5-0.6-0.9-0.6c-0.4,0-0.8,0.3-0.8,0.7c0,0.4,0.2,0.6,1,0.9
		c0.7,0.3,0.9,0.4,1.2,0.6c0.4,0.3,0.7,0.8,0.7,1.4c0,1.1-0.9,2-2.1,2c-1,0-1.8-0.5-2.2-1.6L70.8,106.4z"/>
	<path fill="#485F71" d="M75.3,99.6c0-0.4,0.3-0.8,0.8-0.8s0.8,0.3,0.8,0.8s-0.3,0.8-0.8,0.8S75.3,100,75.3,99.6z M75.6,102h1.1v6.2
		h-1.1V102z"/>
	<path fill="#485F71" d="M78.7,102.9H78v-1h0.6v-2.2h1.1v2.2h1.1v1h-1.1v5.2h-1.1V102.9z"/>
	<path fill="#485F71" d="M81.5,102h1.2l2.2,4.5l2-4.5h1.2l-4.6,9.7h-1.2l2-4.1L81.5,102z"/>
</g>
<g>
	<path fill="#485F71" d="M125.4,98.2h1.2l2.7,7.5l3.1-8l3,8l2.9-7.5h1.2l-4.2,10.5l-3-8l-3.1,8L125.4,98.2z"/>
	<path fill="#485F71" d="M145.4,106.6c-0.7,1.2-1.6,1.8-2.9,1.8c-1.8,0-3.1-1.3-3.1-3.3c0-1.9,1.2-3.3,3-3.3c1.8,0,3,1.3,3,3.3v0.2
		h-4.9c0.1,1.3,0.9,2.1,2,2.1c0.8,0,1.3-0.3,1.9-1.3L145.4,106.6z M144.4,104.4c-0.2-1-0.9-1.6-1.8-1.6c-0.9,0-1.7,0.7-1.8,1.6
		H144.4z"/>
	<path fill="#485F71" d="M146.9,99.6c0-0.4,0.3-0.8,0.8-0.8s0.8,0.3,0.8,0.8c0,0.4-0.3,0.8-0.8,0.8S146.9,100,146.9,99.6z
		 M147.1,102h1.1v6.2h-1.1V102z"/>
	<path fill="#485F71" d="M151,108.8c0,0.5,0.1,0.8,0.3,1c0.3,0.5,1,0.8,1.7,0.8c1.3,0,2-0.8,2-2.4v-0.9c-0.6,0.7-1.4,1-2.2,1
		c-1.7,0-3-1.4-3-3.3c0-1.9,1.3-3.3,3-3.3c0.9,0,1.5,0.3,2.1,1V102h1.1v6.1c0,1.2-0.1,1.8-0.6,2.4c-0.5,0.7-1.4,1.2-2.5,1.2
		c-1.8,0-3-1.1-3-2.8H151z M153,107.4c1.2,0,2.1-0.9,2.1-2.3c0-1.4-0.9-2.3-2.1-2.3c-1.2,0-2,1-2,2.3
		C150.9,106.4,151.8,107.4,153,107.4z"/>
	<path fill="#485F71" d="M158.1,97.2h1.1v5.4c0.5-0.6,1-0.9,1.8-0.9s1.4,0.3,1.8,0.9c0.3,0.4,0.4,0.8,0.4,1.7v3.9h-1.1v-3.8
		c0-1.1-0.4-1.6-1.3-1.6c-0.6,0-1.1,0.3-1.3,0.7c-0.2,0.4-0.3,0.8-0.3,1.5v3.1h-1.1V97.2z"/>
	<path fill="#485F71" d="M165.2,102.9h-0.6v-1h0.6v-2.2h1.1v2.2h1.1v1h-1.1v5.2h-1.1V102.9z"/>
	<path fill="#485F71" d="M176.9,107.3c-0.6,0.7-1.3,1-2.2,1c-1.7,0-3-1.4-3-3.3c0-1.9,1.3-3.2,3-3.2c0.9,0,1.6,0.3,2.2,1v-5.6h1.1
		v10.9h-1.1V107.3z M174.9,107.4c1.2,0,2.1-1,2.1-2.3c0-1.3-0.9-2.3-2.1-2.3c-1.2,0-2.1,1-2.1,2.2
		C172.8,106.4,173.7,107.4,174.9,107.4z"/>
	<path fill="#485F71" d="M185.5,106.6c-0.7,1.2-1.6,1.8-2.9,1.8c-1.8,0-3.1-1.3-3.1-3.3c0-1.9,1.2-3.3,3-3.3c1.8,0,3,1.3,3,3.3v0.2
		h-4.9c0.1,1.3,0.9,2.1,2,2.1c0.8,0,1.3-0.3,1.9-1.3L185.5,106.6z M184.4,104.4c-0.2-1-0.9-1.6-1.8-1.6c-0.9,0-1.7,0.7-1.8,1.6
		H184.4z"/>
	<path fill="#485F71" d="M187.2,102h1.1v0.8c0.5-0.7,1-0.9,1.8-0.9c0.8,0,1.4,0.3,1.8,0.9c0.2,0.4,0.3,0.9,0.3,1.7v3.9h-1.1v-3.7
		c0-0.7,0-1-0.2-1.2c-0.2-0.3-0.6-0.5-1.1-0.5c-1.1,0-1.5,0.7-1.5,2.3v3.1h-1.1V102z"/>
	<path fill="#485F71" d="M194.7,106.4c0.3,0.8,0.7,1,1.2,1c0.6,0,1-0.4,1-1c0-0.5-0.2-0.7-1-1c-1.4-0.6-1.8-1-1.8-1.8
		c0-1,0.8-1.7,1.8-1.7c0.8,0,1.3,0.4,1.7,1.1l-0.9,0.5c-0.2-0.4-0.5-0.6-0.9-0.6c-0.4,0-0.8,0.3-0.8,0.7c0,0.4,0.2,0.6,1,0.9
		c0.7,0.3,0.9,0.4,1.2,0.6c0.5,0.3,0.7,0.8,0.7,1.4c0,1.1-0.9,2-2.1,2c-1,0-1.8-0.5-2.2-1.6L194.7,106.4z"/>
	<path fill="#485F71" d="M199.3,99.6c0-0.4,0.3-0.8,0.8-0.8s0.8,0.3,0.8,0.8c0,0.4-0.3,0.8-0.8,0.8S199.3,100,199.3,99.6z
		 M199.5,102h1.1v6.2h-1.1V102z"/>
	<path fill="#485F71" d="M202.6,102.9H202v-1h0.6v-2.2h1.1v2.2h1.1v1h-1.1v5.2h-1.1V102.9z"/>
	<path fill="#485F71" d="M205.4,102h1.2l2.2,4.5l2-4.5h1.2l-4.6,9.7h-1.2l2-4.1L205.4,102z"/>
</g>
<g>
	<g>
		<path fill="#24D1ED" d="M58.8,117.5l-1-0.7l1.4-2.1l1,0.7L58.8,117.5z M61.6,113.3l-1-0.7l1.4-2.1l1,0.7L61.6,113.3z"/>
	</g>
</g>
<g>
	<g>
		<path fill="#24D1ED" d="M74.4,93.8l-1-0.7l1.4-2.1l1,0.7L74.4,93.8z M77.2,89.7l-1-0.7l1.4-2.1l1,0.7L77.2,89.7z M79.9,85.5
			l-1-0.7l1.4-2.1l1,0.7L79.9,85.5z M82.7,81.4l-1-0.7l1.4-2.1l1,0.7L82.7,81.4z M85.5,77.2l-1-0.7l1.4-2.1l1,0.7L85.5,77.2z
			 M88.3,73.1l-1-0.7l1.4-2.1l1,0.7L88.3,73.1z M91.1,68.9l-1-0.7l1.4-2.1l1,0.7L91.1,68.9z M93.9,64.8l-1-0.7l1.4-2.1l1,0.7
			L93.9,64.8z M96.7,60.6l-1-0.7l1.4-2.1l1,0.7L96.7,60.6z M99.5,56.5l-1-0.7l1.4-2.1l1,0.7L99.5,56.5z M102.3,52.3l-1-0.7l1.4-2.1
			l1,0.7L102.3,52.3z M105.1,48.2l-1-0.7l1.4-2.1l1,0.7L105.1,48.2z M107.9,44.1l-1-0.7l1.4-2.1l1,0.7L107.9,44.1z"/>
	</g>
</g>
<g>
	<g>
		<g>
			<g>
				<rect x="117.6" y="120.2" fill="#FFFFFF" width="12.5" height="13.7"/>
			</g>
		</g>
		<g>
			<g>
				<rect x="130.1" y="120.2" fill="#FFFFFF" width="12.5" height="13.7"/>
			</g>
		</g>
		<g>
			<g>
				<rect x="142.6" y="120.2" fill="#FFF4B2" width="12.5" height="13.7"/>
			</g>
		</g>
		<g>
			<g>
				<rect x="155.1" y="120.2" fill="#FFF4B2" width="12.5" height="13.7"/>
			</g>
		</g>
		<g>
			<g>
				<rect x="167.6" y="120.2" fill="#FFFFFF" width="12.5" height="13.7"/>
			</g>
		</g>
		<g>
			<g>
				<rect x="180.1" y="120.2" fill="#FFFFFF" width="12.5" height="13.7"/>
			</g>
		</g>
		<g>
			<g>
				<rect x="192.6" y="120.2" fill="#FFFFFF" width="12.5" height="13.7"/>
			</g>
		</g>
		<g>
			<g>
				<rect x="205.1" y="120.2" fill="#FFFFFF" width="12.5" height="13.7"/>
			</g>
		</g>
	</g>
	<g>
		<g>
			<g>
				<rect x="117.6" y="133.8" fill="#FEB24C" width="12.5" height="13.7"/>
			</g>
		</g>
		<g>
			<g>
				<rect x="130.1" y="133.8" fill="#FED976" width="12.5" height="13.7"/>
			</g>
		</g>
		<g>
			<g>
				<rect x="142.6" y="133.8" fill="#FED976" width="12.5" height="13.7"/>
			</g>
		</g>
		<g>
			<g>
				<rect x="155.1" y="133.8" fill="#FED976" width="12.5" height="13.7"/>
			</g>
		</g>
		<g>
			<g>
				<rect x="167.6" y="133.8" fill="#FED976" width="12.5" height="13.7"/>
			</g>
		</g>
		<g>
			<g>
				<rect x="180.1" y="133.8" fill="#FFF4B2" width="12.5" height="13.7"/>
			</g>
		</g>
		<g>
			<g>
				<rect x="192.6" y="133.8" fill="#FED976" width="12.5" height="13.7"/>
			</g>
		</g>
		<g>
			<g>
				<rect x="205.1" y="133.8" fill="#FFF4B2" width="12.5" height="13.7"/>
			</g>
		</g>
	</g>
	<g>
		<g>
			<g>
				<rect x="117.6" y="147.5" fill="#FEB24C" width="12.5" height="13.7"/>
			</g>
		</g>
		<g>
			<g>
				<rect x="130.1" y="147.5" fill="#FEB24C" width="12.5" height="13.7"/>
			</g>
		</g>
		<g>
			<g>
				<rect x="142.6" y="147.5" fill="#D38751" width="12.5" height="13.7"/>
			</g>
		</g>
		<g>
			<g>
				<rect x="155.1" y="147.5" fill="#D38751" width="12.5" height="13.7"/>
			</g>
		</g>
		<g>
			<g>
				<rect x="167.6" y="147.5" fill="#762A5D" width="12.5" height="13.7"/>
			</g>
		</g>
		<g>
			<g>
				<rect x="180.1" y="147.5" fill="#D38751" width="12.5" height="13.7"/>
			</g>
		</g>
		<g>
			<g>
				<rect x="192.6" y="147.5" fill="#FEB24C" width="12.5" height="13.7"/>
			</g>
		</g>
		<g>
			<g>
				<rect x="205.1" y="147.5" fill="#D38751" width="12.5" height="13.7"/>
			</g>
		</g>
	</g>
	<g>
		<g>
			<g>
				<rect x="117.6" y="161.2" fill="#FEB24C" width="12.5" height="13.7"/>
			</g>
		</g>
		<g>
			<g>
				<rect x="130.1" y="161.2" fill="#A05458" width="12.5" height="13.7"/>
			</g>
		</g>
		<g>
			<g>
				<rect x="142.6" y="161.2" fill="#762A5D" width="12.5" height="13.7"/>
			</g>
		</g>
		<g>
			<g>
				<rect x="155.1" y="161.2" fill="#762A5D" width="12.5" height="13.7"/>
			</g>
		</g>
		<g>
			<g>
				<rect x="167.6" y="161.2" fill="#A05458" width="12.5" height="13.7"/>
			</g>
		</g>
		<g>
			<g>
				<rect x="180.1" y="161.2" fill="#A05458" width="12.5" height="13.7"/>
			</g>
		</g>
		<g>
			<g>
				<rect x="192.6" y="161.2" fill="#762A5D" width="12.5" height="13.7"/>
			</g>
		</g>
		<g>
			<g>
				<rect x="205.1" y="161.2" fill="#A05458" width="12.5" height="13.7"/>
			</g>
		</g>
	</g>
	<g>
		<g>
			<path fill="#24D1ED" d="M180.1,120.2v54.7h-12.5v-54.7H180.1 M183.2,117h-3.1h-12.5h-3.1v3.1v54.7v3.1h3.1h12.5h3.1v-3.1v-54.7
				V117L183.2,117z"/>
		</g>
	</g>
</g>
<g>
	<g>
		<g>
			<g>
				<rect x="0" y="120.2" fill="#FEB24C" width="12.5" height="13.7"/>
			</g>
		</g>
		<g>
			<g>
				<rect x="12.5" y="120.2" fill="#F03B1F" width="12.5" height="13.7"/>
			</g>
		</g>
		<g>
			<g>
				<rect x="25" y="120.2" fill="#F03B1F" width="12.5" height="13.7"/>
			</g>
		</g>
		<g>
			<g>
				<rect x="37.5" y="120.2" fill="#FD8D3B" width="12.5" height="13.7"/>
			</g>
		</g>
		<g>
			<g>
				<rect x="50" y="120.2" fill="#F03B1F" width="12.5" height="13.7"/>
			</g>
		</g>
		<g>
			<g>
				<rect x="62.5" y="120.2" fill="#F03B1F" width="12.5" height="13.7"/>
			</g>
		</g>
		<g>
			<g>
				<rect x="75" y="120.2" fill="#FD8D3B" width="12.5" height="13.7"/>
			</g>
		</g>
		<g>
			<g>
				<rect x="87.5" y="120.2" fill="#FFF4B2" width="12.5" height="13.7"/>
			</g>
		</g>
	</g>
	<g>
		<g>
			<g>
				<rect x="0" y="133.8" fill="#FEB24C" width="12.5" height="13.7"/>
			</g>
		</g>
		<g>
			<g>
				<rect x="12.5" y="133.8" fill="#FEB24C" width="12.5" height="13.7"/>
			</g>
		</g>
		<g>
			<g>
				<rect x="25" y="133.8" fill="#FEB24C" width="12.5" height="13.7"/>
			</g>
		</g>
		<g>
			<g>
				<rect x="37.5" y="133.8" fill="#FD8D3B" width="12.5" height="13.7"/>
			</g>
		</g>
		<g>
			<g>
				<rect x="50" y="133.8" fill="#F03B1F" width="12.5" height="13.7"/>
			</g>
		</g>
		<g>
			<g>
				<rect x="62.5" y="133.8" fill="#B20026" width="12.5" height="13.7"/>
			</g>
		</g>
		<g>
			<g>
				<rect x="75" y="133.8" fill="#F03B1F" width="12.5" height="13.7"/>
			</g>
		</g>
		<g>
			<g>
				<rect x="87.5" y="133.8" fill="#FD8D3B" width="12.5" height="13.7"/>
			</g>
		</g>
	</g>
	<g>
		<g>
			<g>
				<rect x="0" y="147.5" fill="#FED976" width="12.5" height="13.7"/>
			</g>
		</g>
		<g>
			<g>
				<rect x="12.5" y="147.5" fill="#FED976" width="12.5" height="13.7"/>
			</g>
		</g>
		<g>
			<g>
				<rect x="25" y="147.5" fill="#FED976" width="12.5" height="13.7"/>
			</g>
		</g>
		<g>
			<g>
				<rect x="37.5" y="147.5" fill="#FED976" width="12.5" height="13.7"/>
			</g>
		</g>
		<g>
			<g>
				<rect x="50" y="147.5" fill="#FED976" width="12.5" height="13.7"/>
			</g>
		</g>
		<g>
			<g>
				<rect x="62.5" y="147.5" fill="#FED976" width="12.5" height="13.7"/>
			</g>
		</g>
		<g>
			<g>
				<rect x="75" y="147.5" fill="#FED976" width="12.5" height="13.7"/>
			</g>
		</g>
		<g>
			<g>
				<rect x="87.5" y="147.5" fill="#FED976" width="12.5" height="13.7"/>
			</g>
		</g>
	</g>
	<g>
		<g>
			<g>
				<rect x="0" y="161.2" fill="#FFFFFF" width="12.5" height="13.7"/>
			</g>
		</g>
		<g>
			<g>
				<rect x="12.5" y="161.2" fill="#FFFFFF" width="12.5" height="13.7"/>
			</g>
		</g>
		<g>
			<g>
				<rect x="25" y="161.2" fill="#FFF7C5" width="12.5" height="13.7"/>
			</g>
		</g>
		<g>
			<g>
				<rect x="37.5" y="161.2" fill="#FFF7C5" width="12.5" height="13.7"/>
			</g>
		</g>
		<g>
			<g>
				<rect x="50" y="161.2" fill="#FEE298" width="12.5" height="13.7"/>
			</g>
		</g>
		<g>
			<g>
				<rect x="62.5" y="161.2" fill="#FEE298" width="12.5" height="13.7"/>
			</g>
		</g>
		<g>
			<g>
				<rect x="75" y="161.2" fill="#FEE298" width="12.5" height="13.7"/>
			</g>
		</g>
		<g>
			<g>
				<rect x="87.5" y="161.2" fill="#FEE298" width="12.5" height="13.7"/>
			</g>
		</g>
	</g>
	<g>
		<g>
			<path fill="#24D1ED" d="M62.5,120.2v54.7H50v-54.7H62.5 M65.6,117h-3.1H50h-3.1v3.1v54.7v3.1H50h12.5h3.1v-3.1v-54.7V117
				L65.6,117z"/>
		</g>
	</g>
</g>
<g>
	<g>
		<path fill="#939A9E" d="M133,14l3.5,7.7l3.6-7.8l1.4,9.7h-1l-0.9-6.4l-3.1,6.8l-3.1-6.8l-0.9,6.4h-1L133,14z"/>
	</g>
	<g>
		<path fill="#939A9E" d="M148.5,22.2c-0.6,1.1-1.5,1.6-2.6,1.6c-1.7,0-2.8-1.2-2.8-3c0-1.8,1.1-3,2.8-3c1.6,0,2.7,1.2,2.7,3V21
			h-4.5c0.1,1.2,0.8,1.9,1.8,1.9c0.8,0,1.2-0.3,1.8-1.2L148.5,22.2z M147.5,20.2c-0.2-0.9-0.8-1.5-1.7-1.5c-0.8,0-1.5,0.6-1.7,1.5
			H147.5z"/>
	</g>
	<g>
		<path fill="#939A9E" d="M154.4,22.9c-0.5,0.7-1.2,1-2,1c-1.6,0-2.8-1.3-2.8-3c0-1.7,1.2-3,2.7-3c0.8,0,1.4,0.3,2,0.9V18h1v5.7h-1
			V22.9z M152.6,22.9c1.1,0,1.9-0.9,1.9-2.1c0-1.2-0.8-2.1-1.9-2.1c-1.1,0-1.9,0.9-1.9,2.1C150.7,22,151.5,22.9,152.6,22.9z"/>
	</g>
	<g>
		<path fill="#939A9E" d="M157.7,22c0.3,0.7,0.6,0.9,1.1,0.9c0.5,0,0.9-0.4,0.9-0.9c0-0.4-0.2-0.6-0.9-0.9c-1.3-0.6-1.7-0.9-1.7-1.7
			c0-0.9,0.7-1.6,1.7-1.6c0.7,0,1.2,0.3,1.6,1l-0.8,0.4c-0.2-0.4-0.5-0.6-0.8-0.6c-0.4,0-0.7,0.3-0.7,0.6c0,0.3,0.2,0.5,0.9,0.8
			c0.6,0.3,0.8,0.4,1.1,0.5c0.4,0.3,0.6,0.7,0.6,1.3c0,1-0.9,1.9-2,1.9c-0.9,0-1.6-0.5-2-1.5L157.7,22z"/>
	</g>
	<g>
		<path fill="#939A9E" d="M166.6,21.4c0,0.8-0.1,1.3-0.5,1.7c-0.4,0.5-1,0.7-1.7,0.7c-0.7,0-1.3-0.3-1.7-0.7
			c-0.4-0.4-0.5-0.9-0.5-1.7V18h1v3.3c0,0.5,0.1,0.8,0.2,1.1c0.2,0.4,0.6,0.6,1.1,0.6c0.5,0,0.9-0.2,1.1-0.6
			c0.1-0.2,0.2-0.5,0.2-1.1V18h1V21.4z"/>
	</g>
	<g>
		<path fill="#939A9E" d="M168.5,18h1v0.6c0.5-0.6,0.8-0.8,1.3-0.8c0.3,0,0.5,0.1,0.9,0.2l-0.5,0.9c-0.2-0.2-0.4-0.2-0.6-0.2
			c-0.4,0-0.7,0.2-0.9,0.5c-0.2,0.3-0.2,0.7-0.2,1.4v3h-1V18z"/>
	</g>
	<g>
		<path fill="#939A9E" d="M177.4,22.2c-0.6,1.1-1.5,1.6-2.6,1.6c-1.7,0-2.8-1.2-2.8-3c0-1.8,1.1-3,2.8-3c1.6,0,2.7,1.2,2.7,3V21H173
			c0.1,1.2,0.8,1.9,1.8,1.9c0.8,0,1.2-0.3,1.8-1.2L177.4,22.2z M176.4,20.2c-0.2-0.9-0.8-1.5-1.7-1.5c-0.8,0-1.5,0.6-1.7,1.5H176.4z
			"/>
	</g>
	<g>
		<path fill="#939A9E" d="M179,18h1v0.6c0.4-0.5,0.8-0.8,1.4-0.8c0.7,0,1.2,0.3,1.6,0.9c0.3-0.6,0.9-0.9,1.7-0.9
			c0.7,0,1.2,0.3,1.5,0.8c0.2,0.4,0.3,0.8,0.3,1.5v3.6h-1v-3.5c0-1-0.3-1.5-1-1.5c-0.8,0-1.2,0.6-1.2,1.8v3.2h-1v-3.4
			c0-1-0.4-1.6-1.1-1.6c-0.4,0-0.8,0.2-1,0.6c-0.1,0.3-0.2,0.7-0.2,1.2v3.1h-1V18z"/>
	</g>
	<g>
		<path fill="#939A9E" d="M193.4,22.2c-0.6,1.1-1.5,1.6-2.6,1.6c-1.7,0-2.8-1.2-2.8-3c0-1.8,1.1-3,2.8-3c1.6,0,2.7,1.2,2.7,3V21H189
			c0.1,1.2,0.8,1.9,1.8,1.9c0.8,0,1.2-0.3,1.8-1.2L193.4,22.2z M192.4,20.2c-0.2-0.9-0.8-1.5-1.7-1.5c-0.8,0-1.5,0.6-1.7,1.5H192.4z
			"/>
	</g>
	<g>
		<path fill="#939A9E" d="M194.9,18h1v0.7c0.5-0.6,0.9-0.8,1.7-0.8c0.7,0,1.3,0.3,1.6,0.8c0.2,0.4,0.3,0.8,0.3,1.5v3.5h-1v-3.4
			c0-0.6,0-0.9-0.2-1.1c-0.2-0.3-0.6-0.5-1-0.5c-1,0-1.4,0.6-1.4,2.1v2.8h-1V18z"/>
	</g>
	<g>
		<path fill="#939A9E" d="M201.4,18.9h-0.6V18h0.6v-2.1h1V18h1v0.9h-1v4.8h-1V18.9z"/>
	</g>
</g>
<g>
	<g>
		<path fill="#24D1ED" d="M173.3,118.5l-1.6-1.9l1-0.8l1.6,1.9L173.3,118.5z M170,114.7l-1.6-1.9l1-0.8l1.6,1.9L170,114.7z"/>
	</g>
</g>
<g>
	<g>
		<path fill="#24D1ED" d="M152,93.5l-1.6-1.9l1-0.8l1.6,1.9L152,93.5z M148.8,89.7l-1.6-1.9l1-0.8l1.6,1.9L148.8,89.7z M145.5,85.9
			l-1.6-1.9l1-0.8l1.6,1.9L145.5,85.9z M142.3,82.1l-1.6-1.9l1-0.8l1.6,1.9L142.3,82.1z M139.1,78.2l-1.6-1.9l1-0.8l1.6,1.9
			L139.1,78.2z M135.8,74.4l-1.6-1.9l1-0.8l1.6,1.9L135.8,74.4z M132.6,70.6l-1.6-1.9l1-0.8l1.6,1.9L132.6,70.6z M129.4,66.8
			l-1.6-1.9l1-0.8l1.6,1.9L129.4,66.8z M126.1,63l-1.6-1.9l1-0.8l1.6,1.9L126.1,63z M122.9,59.2l-1.6-1.9l1-0.8l1.6,1.9L122.9,59.2z
			 M119.6,55.4l-1.6-1.9l1-0.8l1.6,1.9L119.6,55.4z M116.4,51.6l-1.6-1.9l1-0.8l1.6,1.9L116.4,51.6z M113.2,47.8l-1.6-1.9l1-0.8
			l1.6,1.9L113.2,47.8z M109.9,43.9l-1.6-1.9l1-0.8l1.6,1.9L109.9,43.9z"/>
	</g>
</g>
<g>
	<g>
		<g>
			<circle fill="#24D1ED" cx="30.1" cy="57.5" r="3.1"/>
		</g>
	</g>
	<g>
		<g>
			<circle fill="#24D1ED" cx="54" cy="50.3" r="3.1"/>
		</g>
	</g>
	<g>
		<g>
			<circle fill="#24D1ED" cx="77.6" cy="52" r="3.1"/>
		</g>
	</g>
	<g>
		<g>
			<circle fill="#24D1ED" cx="96.8" cy="46.6" r="3.1"/>
		</g>
	</g>
	<g>
		<g>
			<circle fill="#24D1ED" cx="108.8" cy="41.6" r="3.1"/>
		</g>
	</g>
	<g>
		<g>
			<circle fill="#24D1ED" cx="142.5" cy="48.5" r="3.1"/>
		</g>
	</g>
	<g>
		<g>
			<circle fill="#24D1ED" cx="156.8" cy="59.3" r="3.1"/>
		</g>
	</g>
	<g>
		<g>
			<circle fill="#24D1ED" cx="169.6" cy="70.9" r="3.1"/>
		</g>
	</g>
	<g>
		<g>
			<polygon fill="#24D1ED" points="169.2,71.3 156.4,59.8 142.2,49.1 108.9,42.3 97,47.2 77.7,52.6 77.6,52.6 54.1,50.9 30.3,58.1 
				30,56.9 53.9,49.6 54.1,49.6 77.6,51.3 96.6,46 108.7,41 142.8,48 157.2,58.8 170,70.4 			"/>
		</g>
	</g>
</g>
<g>
	<path fill="#222A2F" d="M112.9,165.7l-1.2-0.7c0,0-0.1,0-0.1,0l-0.6,0.9l0,0c-0.1,0-0.1,0-0.2,0.1l-0.1,0.2l-1.8-1
		c-0.1-0.1-0.3-0.1-0.5-0.1h-1.6c-0.2,0-0.4,0.1-0.5,0.3l-1,2.1c0,0.1-0.1,0.2-0.1,0.3v6.1c0,0.5,0.4,0.9,0.9,0.9h5.9
		c0.5,0,0.9-0.4,0.9-0.9V168c0-0.3-0.2-0.6-0.5-0.8l0.1-0.2c0-0.1,0-0.1,0-0.2l-0.1,0l0.4-0.9C113,165.8,113,165.8,112.9,165.7z
		 M109.9,167.1c0,0.1-0.1,0.2-0.2,0.2h-3.4c-0.1,0-0.2-0.1-0.1-0.2l0.6-1.2c0-0.1,0.1-0.1,0.1-0.1h1.5c0,0,0.1,0,0.1,0l1.4,0.8
		c0,0,0.1,0.1,0.1,0.1V167.1z"/>
</g>
<g>
	<g>
		<polygon fill="#222A2F" points="111.4,128.7 112.3,128.2 110.6,127 		"/>
	</g>
	<g>
		<path fill="#222A2F" d="M105.2,127.8c0.1,0,0.9,0.2,0.9,0.2l0.2,0.3l-1.8,0.4l-0.3-0.3L105.2,127.8z"/>
	</g>
	<g>
		<polygon fill="#222A2F" points="108.8,127.9 109.7,125.6 109.5,125.6 108.6,125.8 107.9,127.5 		"/>
	</g>
	<g>
		<polygon fill="#222A2F" points="113.6,123 112.4,124.2 113.9,125.3 114.2,125.1 114,124.1 113.8,123.2 		"/>
	</g>
	<g>
		<circle fill="#222A2F" cx="108.6" cy="123.1" r="0.3"/>
	</g>
	<g>
		<circle fill="#222A2F" cx="105.1" cy="123.1" r="0.3"/>
	</g>
	<g>
		<circle fill="#222A2F" cx="106.2" cy="124.2" r="0.3"/>
	</g>
	<g>
		<circle fill="#222A2F" cx="107.1" cy="123.7" r="0.3"/>
	</g>
	<g>
		<circle fill="#222A2F" cx="107.9" cy="124.5" r="0.3"/>
	</g>
	<g>
		<circle fill="#222A2F" cx="111.1" cy="125.6" r="0.3"/>
	</g>
	<g>
		<circle fill="#222A2F" cx="112.9" cy="126.7" r="0.3"/>
	</g>
	<g>
		<circle fill="#222A2F" cx="106.8" cy="125.9" r="0.3"/>
	</g>
	<g>
		<circle fill="#222A2F" cx="104.6" cy="125.9" r="0.6"/>
	</g>
	<g>
		<path fill="#222A2F" d="M106.9,120.2c0.1,0,1.2,0.4,1.2,0.4v0.3l-1.8,0.8l-0.5-0.2v-0.7L106.9,120.2z"/>
	</g>
	<g>
		<path fill="#222A2F" d="M110.4,123.7c0.3-0.5,0.6-1.5,0.6-1.5s-0.3-1.2-1-1.3L110.4,123.7z"/>
	</g>
</g>
<g>
	<g>
		<polygon fill="#222A2F" points="108.4,141.9 108.3,142.3 107.8,142.6 105.7,140.4 105.8,140.1 105,139.2 105,139.1 		"/>
	</g>
	<g>
		<polygon fill="#222A2F" points="107.3,138.7 110.9,142.8 110.8,143 107.2,139.2 107.2,138.9 		"/>
	</g>
	<g>
		<g>
			<path fill="#222A2F" d="M110.7,137.1c-0.8,0-1.4,0.6-1.4,1.4c0,0.8,0.6,1.4,1.4,1.4c0.8,0,1.4-0.6,1.4-1.4
				S111.4,137.1,110.7,137.1z M110.7,139.1c-0.3,0-0.6-0.3-0.6-0.6s0.3-0.6,0.6-0.6c0.3,0,0.6,0.3,0.6,0.6
				C111.3,138.8,111,139.1,110.7,139.1z"/>
		</g>
	</g>
	<g>
		<polygon fill="#222A2F" points="108.6,134.5 109,134.8 108.4,136.8 107.6,137.1 105.7,135.9 106.5,134.6 107.7,134.9 		"/>
	</g>
	<g>
		<path fill="#222A2F" d="M113.7,139.9l0.7,0.7l-0.2,1.6c0,0-2.4-0.1-2.5-0.3c-0.1-0.2-0.4-0.9-0.4-0.9L113.7,139.9z"/>
	</g>
	<g>
		<g>
			<path fill="#222A2F" d="M104.9,141.9c-0.6,0-1.2,0.5-1.2,1.2c0,0.6,0.5,1.2,1.2,1.2c0.6,0,1.2-0.5,1.2-1.2
				C106,142.4,105.5,141.9,104.9,141.9z M104.9,143.9c-0.5,0-0.9-0.4-0.9-0.9s0.4-0.9,0.9-0.9c0.5,0,0.9,0.4,0.9,0.9
				S105.4,143.9,104.9,143.9z"/>
		</g>
	</g>
</g>
<g>
	<path fill="#222A2F" d="M113.7,151.9l-0.7-0.5l-0.1,0l-0.7-0.5l-0.1,0.1l-0.1,0.1l0,0c0,0,0,0,0,0l0,0c0,0,0,0,0,0l0,0l-0.1,0.1
		l0,0c0,0,0,0,0,0l0,0c0,0,0,0,0,0l0,0l-0.2,0.2c0,0-0.1,0-0.1,0c0,0-0.1,0.1-0.1,0.1s-0.1-0.1-0.2,0c-0.1,0.1-0.1,0.2-0.1,0.2
		s-0.1,0-0.1,0.1c0,0,0.2,0.1,0.2,0.1l-0.3,0.4c0,0-2.1,0.2-2.8,1.1c-0.8,0.9-0.9,1.6-0.9,1.6l-2.8,4c0,0,2.1-0.1,2.2,0
		c0.1,0.1,0.8-1.1,0.8-1.1s1.5-0.2,1.6-0.2c0.1,0,1.3-0.9,1.3-0.9s0.2,1.1,0.5,1.4l0.3-0.5c0,0,0.6-0.3,1.2-1.4s0.1-3.1,0.1-3.1
		l0.3-0.4c0,0,0.2,0.2,0.2,0.1c0,0,0-0.1,0-0.1s0.1-0.1,0.1-0.2c0.1-0.1,0-0.2,0-0.2s0-0.1,0.1-0.1c0,0,0-0.1,0-0.1l0.2-0.2l0,0
		c0,0,0,0,0,0l0,0c0,0,0,0,0,0l0,0l0.1-0.1l0,0c0,0,0,0,0,0l0,0c0,0,0,0,0,0l0,0L113.7,151.9L113.7,151.9z"/>
</g>
<path fill="#24D1ED" d="M122.1,30.7c-0.3-1.2-1.9-6.7-3.9-12.3c-1.9-5.4-7.6-15-8.9-17.3c0.1-0.1,0.2-0.3,0.2-0.5
	c0-0.3-0.3-0.6-0.6-0.6c-0.3,0-0.6,0.3-0.6,0.6c0,0.2,0.1,0.4,0.3,0.5v1h-2l2,1.5v2.2l-2.1,2.5L101.2,23V12h-0.6v1.8L96.1,27h3.7
	l-1.1,3h1.9v1.5H96v1.3c0,0.9,0.8,1.7,1.7,1.7h20.6c0.5,0,0.9-0.2,1.3-0.4l4.3-3.2v-0.4L122.1,30.7z M108.6,31.5h-7.3V30h7.3V31.5z
	 M109.2,1.3c0.6,1.9,2.2,7.6,2.4,11.8c0.6,9-1.7,13.8-2.4,15.1V1.3z M109.3,31.5L109.3,31.5l0-3.1c0.8-0.2,4.1-0.8,6.4-0.4
	c3.2,0.6,5.5,2.1,6.3,2.7L109.3,31.5z"/>
</svg>
