<?xml version="1.0" encoding="utf-8"?>
<!-- Generator: Adobe Illustrator 17.1.0, SVG Export Plug-In . SVG Version: 6.00 Build 0)  -->
<!DOCTYPE svg PUBLIC "-//W3C//DTD SVG 1.1//EN" "http://www.w3.org/Graphics/SVG/1.1/DTD/svg11.dtd">
<svg version="1.1" id="Layer_1" xmlns="http://www.w3.org/2000/svg" xmlns:xlink="http://www.w3.org/1999/xlink" x="0px" y="0px"
	 viewBox="0 0 174.1 192" enable-background="new 0 0 174.1 192" xml:space="preserve">
<g>
	<g>
		<path fill="#24D1ED" d="M47,94l-0.8-0.6l1.1-1.7l0.8,0.6L47,94z M49.2,90.7l-0.8-0.6l1.1-1.7l0.8,0.6L49.2,90.7z"/>
	</g>
</g>
<g>
	<g>
		<path fill="#24D1ED" d="M59.5,75.1l-0.8-0.6l1.1-1.7l0.8,0.6L59.5,75.1z M61.7,71.8l-0.8-0.6l1.1-1.7l0.8,0.6L61.7,71.8z
			 M63.9,68.5l-0.8-0.6l1.1-1.7l0.8,0.6L63.9,68.5z M66.2,65.1l-0.8-0.6l1.1-1.7l0.8,0.6L66.2,65.1z M68.4,61.8l-0.8-0.6l1.1-1.7
			l0.8,0.6L68.4,61.8z M70.7,58.5l-0.8-0.6l1.1-1.7l0.8,0.6L70.7,58.5z M72.9,55.2l-0.8-0.6l1.1-1.7l0.8,0.6L72.9,55.2z M75.1,51.9
			l-0.8-0.6l1.1-1.7l0.8,0.6L75.1,51.9z M77.4,48.6L76.5,48l1.1-1.7l0.8,0.6L77.4,48.6z M79.6,45.2l-0.8-0.6l1.1-1.7l0.8,0.6
			L79.6,45.2z M81.8,41.9L81,41.4l1.1-1.7l0.8,0.6L81.8,41.9z M84.1,38.6l-0.8-0.6l1.1-1.7l0.8,0.6L84.1,38.6z M86.3,35.3l-0.8-0.6
			l1.1-1.7l0.8,0.6L86.3,35.3z"/>
	</g>
</g>
<g>
	<g>
		<path fill="#939A9E" d="M102.3,79h0.9l2,5.5l2.3-5.9l2.2,5.9l2.2-5.5h0.9l-3.1,7.7l-2.2-5.9l-2.3,5.9L102.3,79z"/>
	</g>
	<g>
		<path fill="#939A9E" d="M117,85.1c-0.5,0.9-1.2,1.3-2.1,1.3c-1.3,0-2.2-1-2.2-2.4c0-1.4,0.9-2.4,2.2-2.4c1.3,0,2.2,1,2.2,2.4v0.1
			h-3.6c0,0.9,0.6,1.5,1.5,1.5c0.6,0,1-0.3,1.4-1L117,85.1z M116.2,83.5c-0.1-0.7-0.7-1.2-1.3-1.2c-0.7,0-1.2,0.5-1.3,1.2H116.2z"/>
	</g>
	<g>
		<path fill="#939A9E" d="M118,80c0-0.3,0.3-0.5,0.6-0.5c0.3,0,0.6,0.3,0.6,0.6c0,0.3-0.3,0.6-0.6,0.6C118.3,80.6,118,80.3,118,80z
			 M118.2,81.7h0.8v4.6h-0.8V81.7z"/>
	</g>
	<g>
		<path fill="#939A9E" d="M121.1,86.8c0,0.4,0.1,0.6,0.2,0.8c0.2,0.4,0.7,0.6,1.2,0.6c1,0,1.5-0.6,1.5-1.8v-0.7
			c-0.4,0.5-1,0.8-1.6,0.8c-1.2,0-2.2-1-2.2-2.4c0-1.4,0.9-2.4,2.2-2.4c0.6,0,1.1,0.2,1.6,0.8v-0.6h0.8v4.5c0,0.9-0.1,1.3-0.4,1.8
			c-0.4,0.5-1.1,0.8-1.8,0.8c-1.3,0-2.2-0.8-2.2-2.1H121.1z M122.5,85.7c0.9,0,1.5-0.7,1.5-1.7c0-1-0.6-1.7-1.5-1.7
			c-0.9,0-1.5,0.7-1.5,1.7C121,85,121.6,85.7,122.5,85.7z"/>
	</g>
	<g>
		<path fill="#939A9E" d="M126.3,78.3h0.8v4c0.4-0.5,0.8-0.6,1.3-0.6s1.1,0.2,1.3,0.6c0.2,0.3,0.3,0.6,0.3,1.2v2.8h-0.8v-2.8
			c0-0.8-0.3-1.2-0.9-1.2c-0.5,0-0.8,0.2-1,0.5c-0.1,0.3-0.2,0.6-0.2,1.1v2.3h-0.8V78.3z"/>
	</g>
	<g>
		<path fill="#939A9E" d="M131.4,82.5H131v-0.7h0.5v-1.7h0.8v1.7h0.8v0.7h-0.8v3.8h-0.8V82.5z"/>
	</g>
	<g>
		<path fill="#939A9E" d="M140,85.7c-0.4,0.5-0.9,0.8-1.6,0.8c-1.3,0-2.2-1-2.2-2.4c0-1.4,0.9-2.4,2.2-2.4c0.6,0,1.1,0.2,1.6,0.7
			v-4.1h0.8v8H140V85.7z M138.6,85.7c0.9,0,1.5-0.7,1.5-1.7c0-1-0.6-1.7-1.5-1.7c-0.9,0-1.5,0.7-1.5,1.6
			C137.1,85,137.7,85.7,138.6,85.7z"/>
	</g>
	<g>
		<path fill="#939A9E" d="M146.4,85.1c-0.5,0.9-1.2,1.3-2.1,1.3c-1.3,0-2.2-1-2.2-2.4c0-1.4,0.9-2.4,2.2-2.4c1.3,0,2.2,1,2.2,2.4
			v0.1h-3.6c0,0.9,0.6,1.5,1.5,1.5c0.6,0,1-0.3,1.4-1L146.4,85.1z M145.6,83.5c-0.1-0.7-0.7-1.2-1.3-1.2c-0.7,0-1.2,0.5-1.3,1.2
			H145.6z"/>
	</g>
	<g>
		<path fill="#939A9E" d="M147.6,81.7h0.8v0.6c0.4-0.5,0.7-0.7,1.3-0.7c0.5,0,1.1,0.2,1.3,0.6c0.2,0.3,0.3,0.6,0.3,1.2v2.8h-0.8
			v-2.7c0-0.5,0-0.7-0.2-0.9c-0.1-0.2-0.4-0.4-0.8-0.4c-0.8,0-1.1,0.5-1.1,1.7v2.3h-0.8V81.7z"/>
	</g>
	<g>
		<path fill="#939A9E" d="M153.1,85c0.3,0.5,0.5,0.7,0.9,0.7c0.4,0,0.7-0.3,0.7-0.7c0-0.3-0.2-0.5-0.7-0.7c-1.1-0.5-1.3-0.7-1.3-1.3
			c0-0.7,0.6-1.3,1.3-1.3c0.6,0,1,0.3,1.3,0.8l-0.6,0.3c-0.2-0.3-0.4-0.5-0.6-0.5c-0.3,0-0.6,0.2-0.6,0.5c0,0.3,0.2,0.4,0.7,0.6
			c0.5,0.2,0.7,0.3,0.9,0.4c0.3,0.2,0.5,0.6,0.5,1c0,0.8-0.7,1.5-1.6,1.5c-0.8,0-1.3-0.4-1.6-1.2L153.1,85z"/>
	</g>
	<g>
		<path fill="#939A9E" d="M156.4,80c0-0.3,0.3-0.5,0.6-0.5s0.6,0.3,0.6,0.6c0,0.3-0.3,0.6-0.6,0.6S156.4,80.3,156.4,80z M156.6,81.7
			h0.8v4.6h-0.8V81.7z"/>
	</g>
	<g>
		<path fill="#939A9E" d="M158.9,82.5h-0.5v-0.7h0.5v-1.7h0.8v1.7h0.8v0.7h-0.8v3.8h-0.8V82.5z"/>
	</g>
	<g>
		<path fill="#939A9E" d="M161,81.7h0.9l1.6,3.3l1.5-3.3h0.9l-3.4,7.1h-0.9l1.5-3L161,81.7z"/>
	</g>
</g>
<g>
	<g>
		<path fill="#939A9E" d="M17.4,84.4c-0.7,0.5-1.4,0.7-2.2,0.7c-2.1,0-3.8-1.7-3.8-3.8c0-2.1,1.7-3.8,3.8-3.8c0.8,0,1.4,0.2,2.2,0.7
			v1c-0.7-0.7-1.4-1-2.2-1c-1.6,0-3,1.4-3,3.1c0,1.6,1.3,3,3,3c0.8,0,1.5-0.3,2.2-1V84.4z"/>
	</g>
	<g>
		<path fill="#939A9E" d="M20.8,80.3c1.4,0,2.4,1.1,2.4,2.4c0,1.4-1.1,2.4-2.4,2.4c-1.4,0-2.4-1.1-2.4-2.4
			C18.4,81.4,19.4,80.3,20.8,80.3z M20.8,84.4c0.9,0,1.6-0.7,1.6-1.7c0-1-0.7-1.7-1.6-1.7c-0.9,0-1.6,0.7-1.6,1.7
			C19.2,83.7,19.8,84.4,20.8,84.4z"/>
	</g>
	<g>
		<path fill="#939A9E" d="M28,83.2c0,0.7-0.1,1-0.4,1.4c-0.3,0.4-0.8,0.6-1.4,0.6c-0.6,0-1.1-0.2-1.4-0.6c-0.3-0.3-0.4-0.7-0.4-1.4
			v-2.8h0.8v2.7c0,0.4,0,0.7,0.1,0.8c0.2,0.3,0.5,0.5,0.9,0.5c0.4,0,0.7-0.2,0.9-0.5c0.1-0.2,0.1-0.4,0.1-0.8v-2.7H28V83.2z"/>
	</g>
	<g>
		<path fill="#939A9E" d="M29.5,80.4h0.8V81c0.4-0.5,0.7-0.7,1.3-0.7c0.5,0,1.1,0.2,1.3,0.6c0.2,0.3,0.3,0.6,0.3,1.2V85h-0.8v-2.7
			c0-0.5,0-0.7-0.2-0.9c-0.1-0.2-0.4-0.4-0.8-0.4c-0.8,0-1.1,0.5-1.1,1.7V85h-0.8V80.4z"/>
	</g>
	<g>
		<path fill="#939A9E" d="M34.7,81.2h-0.5v-0.7h0.5v-1.7h0.8v1.7h0.8v0.7h-0.8V85h-0.8V81.2z"/>
	</g>
	<g>
		<path fill="#939A9E" d="M43.3,84.4c-0.4,0.5-0.9,0.8-1.6,0.8c-1.3,0-2.2-1-2.2-2.4c0-1.4,0.9-2.4,2.2-2.4c0.6,0,1.1,0.2,1.6,0.7
			V77H44v8h-0.8V84.4z M41.8,84.4c0.9,0,1.5-0.7,1.5-1.7c0-1-0.6-1.7-1.5-1.7c-0.9,0-1.5,0.7-1.5,1.6C40.3,83.7,40.9,84.4,41.8,84.4
			z"/>
	</g>
	<g>
		<path fill="#939A9E" d="M49.6,83.8c-0.5,0.9-1.2,1.3-2.1,1.3c-1.3,0-2.2-1-2.2-2.4c0-1.4,0.9-2.4,2.2-2.4s2.2,1,2.2,2.4v0.1h-3.6
			c0,0.9,0.6,1.5,1.5,1.5c0.6,0,1-0.3,1.4-1L49.6,83.8z M48.8,82.2c-0.1-0.7-0.7-1.2-1.3-1.2c-0.7,0-1.2,0.5-1.3,1.2H48.8z"/>
	</g>
	<g>
		<path fill="#939A9E" d="M50.8,80.4h0.8V81c0.4-0.5,0.7-0.7,1.3-0.7c0.5,0,1.1,0.2,1.3,0.6c0.2,0.3,0.3,0.6,0.3,1.2V85h-0.8v-2.7
			c0-0.5,0-0.7-0.2-0.9c-0.1-0.2-0.4-0.4-0.8-0.4c-0.8,0-1.1,0.5-1.1,1.7V85h-0.8V80.4z"/>
	</g>
	<g>
		<path fill="#939A9E" d="M56.3,83.7c0.3,0.6,0.5,0.7,0.9,0.7c0.4,0,0.7-0.3,0.7-0.7c0-0.3-0.2-0.5-0.7-0.7
			c-1.1-0.5-1.3-0.7-1.3-1.3c0-0.7,0.6-1.3,1.3-1.3c0.6,0,1,0.3,1.3,0.8l-0.6,0.3c-0.2-0.3-0.4-0.5-0.6-0.5c-0.3,0-0.5,0.2-0.5,0.5
			c0,0.3,0.2,0.4,0.7,0.6c0.5,0.2,0.7,0.3,0.9,0.4c0.3,0.2,0.5,0.6,0.5,1c0,0.8-0.7,1.5-1.6,1.5c-0.8,0-1.3-0.4-1.6-1.2L56.3,83.7z"
			/>
	</g>
	<g>
		<path fill="#939A9E" d="M59.7,78.7c0-0.3,0.3-0.5,0.6-0.5c0.3,0,0.6,0.3,0.6,0.6s-0.3,0.6-0.6,0.6C59.9,79.3,59.7,79,59.7,78.7z
			 M59.8,80.4h0.8V85h-0.8V80.4z"/>
	</g>
	<g>
		<path fill="#939A9E" d="M62.1,81.2h-0.5v-0.7h0.5v-1.7h0.8v1.7h0.8v0.7h-0.8V85h-0.8V81.2z"/>
	</g>
	<g>
		<path fill="#939A9E" d="M64.2,80.4h0.9l1.6,3.3l1.5-3.3h0.9l-3.4,7.1h-0.9l1.5-3L64.2,80.4z"/>
	</g>
</g>
<g opacity="0.15">
	<g>
		<g>
			<g>
				<rect x="0" y="148" fill="#F03B1F" width="10" height="11"/>
			</g>
		</g>
		<g>
			<g>
				<rect x="10" y="148" fill="#F03B1F" width="10" height="11"/>
			</g>
		</g>
		<g>
			<g>
				<rect x="20" y="148" fill="#F03B1F" width="10" height="11"/>
			</g>
		</g>
		<g>
			<g>
				<rect x="30" y="148" fill="#F03B1F" width="10" height="11"/>
			</g>
		</g>
		<g>
			<g>
				<rect x="40" y="148" fill="#F03B1F" width="10" height="11"/>
			</g>
		</g>
		<g>
			<g>
				<rect x="50" y="148" fill="#F03B1F" width="10" height="11"/>
			</g>
		</g>
		<g>
			<g>
				<rect x="60" y="148" fill="#F03B1F" width="10" height="11"/>
			</g>
		</g>
		<g>
			<g>
				<rect x="70" y="148" fill="#FD8D3B" width="10" height="11"/>
			</g>
		</g>
	</g>
	<g>
		<g>
			<g>
				<rect x="0" y="159" fill="#FD8D3B" width="10" height="11"/>
			</g>
		</g>
		<g>
			<g>
				<rect x="10" y="159" fill="#FD8D3B" width="10" height="11"/>
			</g>
		</g>
		<g>
			<g>
				<rect x="20" y="159" fill="#FD8D3B" width="10" height="11"/>
			</g>
		</g>
		<g>
			<g>
				<rect x="30" y="159" fill="#F03B1F" width="10" height="11"/>
			</g>
		</g>
		<g>
			<g>
				<rect x="40" y="159" fill="#FD8D3B" width="10" height="11"/>
			</g>
		</g>
		<g>
			<g>
				<rect x="50" y="159" fill="#FD8D3B" width="10" height="11"/>
			</g>
		</g>
		<g>
			<g>
				<rect x="60" y="159" fill="#FD8D3B" width="10" height="11"/>
			</g>
		</g>
		<g>
			<g>
				<rect x="70" y="159" fill="#FD8D3B" width="10" height="11"/>
			</g>
		</g>
	</g>
	<g>
		<g>
			<g>
				<rect x="0" y="170" fill="#FED976" width="10" height="11"/>
			</g>
		</g>
		<g>
			<g>
				<rect x="10" y="170" fill="#FED976" width="10" height="11"/>
			</g>
		</g>
		<g>
			<g>
				<rect x="20" y="170" fill="#FFF4B2" width="10" height="11"/>
			</g>
		</g>
		<g>
			<g>
				<rect x="30" y="170" fill="#FED976" width="10" height="11"/>
			</g>
		</g>
		<g>
			<g>
				<rect x="40" y="170" fill="#FFF4B2" width="10" height="11"/>
			</g>
		</g>
		<g>
			<g>
				<rect x="50" y="170" fill="#FFF4B2" width="10" height="11"/>
			</g>
		</g>
		<g>
			<g>
				<rect x="60" y="170" fill="#FFF4B2" width="10" height="11"/>
			</g>
		</g>
		<g>
			<g>
				<rect x="70" y="170" fill="#FFF4B2" width="10" height="11"/>
			</g>
		</g>
	</g>
	<g>
		<g>
			<g>
				<rect x="0" y="181" fill="#FFF4B2" width="10" height="11"/>
			</g>
		</g>
		<g>
			<g>
				<rect x="10" y="181" fill="#FFF4B2" width="10" height="11"/>
			</g>
		</g>
		<g>
			<g>
				<rect x="20" y="181" fill="#FFF4B2" width="10" height="11"/>
			</g>
		</g>
		<g>
			<g>
				<rect x="30" y="181" fill="#FFF4B2" width="10" height="11"/>
			</g>
		</g>
		<g>
			<g>
				<rect x="40" y="181" fill="#FFF4B2" width="10" height="11"/>
			</g>
		</g>
		<g>
			<g>
				<rect x="50" y="181" fill="#FFF4B2" width="10" height="11"/>
			</g>
		</g>
		<g>
			<g>
				<rect x="60" y="181" fill="#FFF4B2" width="10" height="11"/>
			</g>
		</g>
		<g>
			<g>
				<rect x="70" y="181" fill="#FFF4B2" width="10" height="11"/>
			</g>
		</g>
	</g>
</g>
<g opacity="0.15">
	<g>
		<g>
			<g>
				<rect x="94.1" y="148" fill="#FFF4B2" width="10" height="11"/>
			</g>
		</g>
		<g>
			<g>
				<rect x="104.1" y="148" fill="#FFF4B2" width="10" height="11"/>
			</g>
		</g>
		<g>
			<g>
				<rect x="114.1" y="148" fill="#FFF4B2" width="10" height="11"/>
			</g>
		</g>
		<g>
			<g>
				<rect x="124.1" y="148" fill="#FFF4B2" width="10" height="11"/>
			</g>
		</g>
		<g>
			<g>
				<rect x="134.1" y="148" fill="#FFF4B2" width="10" height="11"/>
			</g>
		</g>
		<g>
			<g>
				<rect x="144.1" y="148" fill="#FFF4B2" width="10" height="11"/>
			</g>
		</g>
		<g>
			<g>
				<rect x="154.1" y="148" fill="#FFF4B2" width="10" height="11"/>
			</g>
		</g>
		<g>
			<g>
				<rect x="164.1" y="148" fill="#FFF4B2" width="10" height="11"/>
			</g>
		</g>
	</g>
	<g>
		<g>
			<g>
				<rect x="94.1" y="159" fill="#FED976" width="10" height="11"/>
			</g>
		</g>
		<g>
			<g>
				<rect x="104.1" y="159" fill="#FED976" width="10" height="11"/>
			</g>
		</g>
		<g>
			<g>
				<rect x="114.1" y="159" fill="#FED976" width="10" height="11"/>
			</g>
		</g>
		<g>
			<g>
				<rect x="124.1" y="159" fill="#FED976" width="10" height="11"/>
			</g>
		</g>
		<g>
			<g>
				<rect x="134.1" y="159" fill="#FEB24C" width="10" height="11"/>
			</g>
		</g>
		<g>
			<g>
				<rect x="144.1" y="159" fill="#FEB24C" width="10" height="11"/>
			</g>
		</g>
		<g>
			<g>
				<rect x="154.1" y="159" fill="#FEB24C" width="10" height="11"/>
			</g>
		</g>
		<g>
			<g>
				<rect x="164.1" y="159" fill="#FEB24C" width="10" height="11"/>
			</g>
		</g>
	</g>
	<g>
		<g>
			<g>
				<rect x="94.1" y="170" fill="#D38751" width="10" height="11"/>
			</g>
		</g>
		<g>
			<g>
				<rect x="104.1" y="170" fill="#D38751" width="10" height="11"/>
			</g>
		</g>
		<g>
			<g>
				<rect x="114.1" y="170" fill="#D38751" width="10" height="11"/>
			</g>
		</g>
		<g>
			<g>
				<rect x="124.1" y="170" fill="#D38751" width="10" height="11"/>
			</g>
		</g>
		<g>
			<g>
				<rect x="134.1" y="170" fill="#D38751" width="10" height="11"/>
			</g>
		</g>
		<g>
			<g>
				<rect x="144.1" y="170" fill="#D38751" width="10" height="11"/>
			</g>
		</g>
		<g>
			<g>
				<rect x="154.1" y="170" fill="#D38751" width="10" height="11"/>
			</g>
		</g>
		<g>
			<g>
				<rect x="164.1" y="170" fill="#D38751" width="10" height="11"/>
			</g>
		</g>
	</g>
	<g>
		<g>
			<g>
				<rect x="94.1" y="181" fill="#A05458" width="10" height="11"/>
			</g>
		</g>
		<g>
			<g>
				<rect x="104.1" y="181" fill="#A05458" width="10" height="11"/>
			</g>
		</g>
		<g>
			<g>
				<rect x="114.1" y="181" fill="#A05458" width="10" height="11"/>
			</g>
		</g>
		<g>
			<g>
				<rect x="124.1" y="181" fill="#762A5D" width="10" height="11"/>
			</g>
		</g>
		<g>
			<g>
				<rect x="134.1" y="181" fill="#762A5D" width="10" height="11"/>
			</g>
		</g>
		<g>
			<g>
				<rect x="144.1" y="181" fill="#762A5D" width="10" height="11"/>
			</g>
		</g>
		<g>
			<g>
				<rect x="154.1" y="181" fill="#762A5D" width="10" height="11"/>
			</g>
		</g>
		<g>
			<g>
				<rect x="164.1" y="181" fill="#A05458" width="10" height="11"/>
			</g>
		</g>
	</g>
</g>
<g opacity="0.7">
	<g>
		<rect x="39.9" y="156.6" fill="#222A2F" width="94" height="28"/>
	</g>
</g>
<g>
	<g>
		<g>
			<g>
				<rect x="94.1" y="96.2" fill="#FFFFFF" width="10" height="10.9"/>
			</g>
		</g>
		<g>
			<g>
				<rect x="104.1" y="96.2" fill="#FFFFFF" width="10" height="10.9"/>
			</g>
		</g>
		<g>
			<g>
				<rect x="114.1" y="96.2" fill="#FFF4B2" width="10" height="10.9"/>
			</g>
		</g>
		<g>
			<g>
				<rect x="124.1" y="96.2" fill="#FFF4B2" width="10" height="10.9"/>
			</g>
		</g>
		<g>
			<g>
				<rect x="134.1" y="96.2" fill="#FFFFFF" width="10" height="10.9"/>
			</g>
		</g>
		<g>
			<g>
				<rect x="144.1" y="96.2" fill="#FFFFFF" width="10" height="10.9"/>
			</g>
		</g>
		<g>
			<g>
				<rect x="154.1" y="96.2" fill="#FFFFFF" width="10" height="10.9"/>
			</g>
		</g>
		<g>
			<g>
				<rect x="164.1" y="96.2" fill="#FFFFFF" width="10" height="10.9"/>
			</g>
		</g>
	</g>
	<g>
		<g>
			<g>
				<rect x="94.1" y="107.1" fill="#FEB24C" width="10" height="10.9"/>
			</g>
		</g>
		<g>
			<g>
				<rect x="104.1" y="107.1" fill="#FED976" width="10" height="10.9"/>
			</g>
		</g>
		<g>
			<g>
				<rect x="114.1" y="107.1" fill="#FED976" width="10" height="10.9"/>
			</g>
		</g>
		<g>
			<g>
				<rect x="124.1" y="107.1" fill="#FED976" width="10" height="10.9"/>
			</g>
		</g>
		<g>
			<g>
				<rect x="134.1" y="107.1" fill="#FED976" width="10" height="10.9"/>
			</g>
		</g>
		<g>
			<g>
				<rect x="144.1" y="107.1" fill="#FFF4B2" width="10" height="10.9"/>
			</g>
		</g>
		<g>
			<g>
				<rect x="154.1" y="107.1" fill="#FED976" width="10" height="10.9"/>
			</g>
		</g>
		<g>
			<g>
				<rect x="164.1" y="107.1" fill="#FFF4B2" width="10" height="10.9"/>
			</g>
		</g>
	</g>
	<g>
		<g>
			<g>
				<rect x="94.1" y="118" fill="#FEB24C" width="10" height="10.9"/>
			</g>
		</g>
		<g>
			<g>
				<rect x="104.1" y="118" fill="#FEB24C" width="10" height="10.9"/>
			</g>
		</g>
		<g>
			<g>
				<rect x="114.1" y="118" fill="#D38751" width="10" height="10.9"/>
			</g>
		</g>
		<g>
			<g>
				<rect x="124.1" y="118" fill="#D38751" width="10" height="10.9"/>
			</g>
		</g>
		<g>
			<g>
				<rect x="134.1" y="118" fill="#762A5D" width="10" height="10.9"/>
			</g>
		</g>
		<g>
			<g>
				<rect x="144.1" y="118" fill="#D38751" width="10" height="10.9"/>
			</g>
		</g>
		<g>
			<g>
				<rect x="154.1" y="118" fill="#FEB24C" width="10" height="10.9"/>
			</g>
		</g>
		<g>
			<g>
				<rect x="164.1" y="118" fill="#D38751" width="10" height="10.9"/>
			</g>
		</g>
	</g>
	<g>
		<g>
			<g>
				<rect x="94.1" y="129" fill="#FEB24C" width="10" height="10.9"/>
			</g>
		</g>
		<g>
			<g>
				<rect x="104.1" y="129" fill="#A05458" width="10" height="10.9"/>
			</g>
		</g>
		<g>
			<g>
				<rect x="114.1" y="129" fill="#762A5D" width="10" height="10.9"/>
			</g>
		</g>
		<g>
			<g>
				<rect x="124.1" y="129" fill="#762A5D" width="10" height="10.9"/>
			</g>
		</g>
		<g>
			<g>
				<rect x="134.1" y="129" fill="#A05458" width="10" height="10.9"/>
			</g>
		</g>
		<g>
			<g>
				<rect x="144.1" y="129" fill="#A05458" width="10" height="10.9"/>
			</g>
		</g>
		<g>
			<g>
				<rect x="154.1" y="129" fill="#762A5D" width="10" height="10.9"/>
			</g>
		</g>
		<g>
			<g>
				<rect x="164.1" y="129" fill="#A05458" width="10" height="10.9"/>
			</g>
		</g>
	</g>
	<g>
		<g>
			<path fill="#24D1ED" d="M144.1,96.2v43.8h-10V96.2H144.1 M146.6,93.7h-2.5h-10h-2.5v2.5v43.8v2.5h2.5h10h2.5v-2.5V96.2V93.7
				L146.6,93.7z"/>
		</g>
	</g>
</g>
<g>
	<g>
		<g>
			<g>
				<rect x="0" y="96.2" fill="#FEB24C" width="10" height="10.9"/>
			</g>
		</g>
		<g>
			<g>
				<rect x="10" y="96.2" fill="#F03B1F" width="10" height="10.9"/>
			</g>
		</g>
		<g>
			<g>
				<rect x="20" y="96.2" fill="#F03B1F" width="10" height="10.9"/>
			</g>
		</g>
		<g>
			<g>
				<rect x="30" y="96.2" fill="#FD8D3B" width="10" height="10.9"/>
			</g>
		</g>
		<g>
			<g>
				<rect x="40" y="96.2" fill="#F03B1F" width="10" height="10.9"/>
			</g>
		</g>
		<g>
			<g>
				<rect x="50" y="96.2" fill="#F03B1F" width="10" height="10.9"/>
			</g>
		</g>
		<g>
			<g>
				<rect x="60" y="96.2" fill="#FD8D3B" width="10" height="10.9"/>
			</g>
		</g>
		<g>
			<g>
				<rect x="70" y="96.2" fill="#FFF4B2" width="10" height="10.9"/>
			</g>
		</g>
	</g>
	<g>
		<g>
			<g>
				<rect x="0" y="107.1" fill="#FEB24C" width="10" height="10.9"/>
			</g>
		</g>
		<g>
			<g>
				<rect x="10" y="107.1" fill="#FEB24C" width="10" height="10.9"/>
			</g>
		</g>
		<g>
			<g>
				<rect x="20" y="107.1" fill="#FEB24C" width="10" height="10.9"/>
			</g>
		</g>
		<g>
			<g>
				<rect x="30" y="107.1" fill="#FD8D3B" width="10" height="10.9"/>
			</g>
		</g>
		<g>
			<g>
				<rect x="40" y="107.1" fill="#F03B1F" width="10" height="10.9"/>
			</g>
		</g>
		<g>
			<g>
				<rect x="50" y="107.1" fill="#B20026" width="10" height="10.9"/>
			</g>
		</g>
		<g>
			<g>
				<rect x="60" y="107.1" fill="#F03B1F" width="10" height="10.9"/>
			</g>
		</g>
		<g>
			<g>
				<rect x="70" y="107.1" fill="#FD8D3B" width="10" height="10.9"/>
			</g>
		</g>
	</g>
	<g>
		<g>
			<g>
				<rect x="0" y="118" fill="#FED976" width="10" height="10.9"/>
			</g>
		</g>
		<g>
			<g>
				<rect x="10" y="118" fill="#FED976" width="10" height="10.9"/>
			</g>
		</g>
		<g>
			<g>
				<rect x="20" y="118" fill="#FED976" width="10" height="10.9"/>
			</g>
		</g>
		<g>
			<g>
				<rect x="30" y="118" fill="#FED976" width="10" height="10.9"/>
			</g>
		</g>
		<g>
			<g>
				<rect x="40" y="118" fill="#FED976" width="10" height="10.9"/>
			</g>
		</g>
		<g>
			<g>
				<rect x="50" y="118" fill="#FED976" width="10" height="10.9"/>
			</g>
		</g>
		<g>
			<g>
				<rect x="60" y="118" fill="#FED976" width="10" height="10.9"/>
			</g>
		</g>
		<g>
			<g>
				<rect x="70" y="118" fill="#FED976" width="10" height="10.9"/>
			</g>
		</g>
	</g>
	<g>
		<g>
			<g>
				<rect x="0" y="129" fill="#FFFFFF" width="10" height="10.9"/>
			</g>
		</g>
		<g>
			<g>
				<rect x="10" y="129" fill="#FFFFFF" width="10" height="10.9"/>
			</g>
		</g>
		<g>
			<g>
				<rect x="20" y="129" fill="#FFF7C5" width="10" height="10.9"/>
			</g>
		</g>
		<g>
			<g>
				<rect x="30" y="129" fill="#FFF7C5" width="10" height="10.9"/>
			</g>
		</g>
		<g>
			<g>
				<rect x="40" y="129" fill="#FEE298" width="10" height="10.9"/>
			</g>
		</g>
		<g>
			<g>
				<rect x="50" y="129" fill="#FEE298" width="10" height="10.9"/>
			</g>
		</g>
		<g>
			<g>
				<rect x="60" y="129" fill="#FEE298" width="10" height="10.9"/>
			</g>
		</g>
		<g>
			<g>
				<rect x="70" y="129" fill="#FEE298" width="10" height="10.9"/>
			</g>
		</g>
	</g>
	<g>
		<g>
			<path fill="#24D1ED" d="M50,96.2v43.8H40V96.2H50 M52.5,93.7H50H40h-2.5v2.5v43.8v2.5H40h10h2.5v-2.5V96.2V93.7L52.5,93.7z"/>
		</g>
	</g>
</g>
<g>
	<g>
		<path fill="#939A9E" d="M63.3,167.6c-0.7,0.5-1.4,0.7-2.2,0.7c-2.1,0-3.8-1.7-3.8-3.8c0-2.1,1.7-3.8,3.8-3.8
			c0.8,0,1.4,0.2,2.2,0.7v1c-0.7-0.7-1.4-1-2.2-1c-1.6,0-3,1.4-3,3.1c0,1.6,1.3,3,3,3c0.8,0,1.5-0.3,2.2-1V167.6z"/>
	</g>
	<g>
		<path fill="#939A9E" d="M66.7,163.5c1.4,0,2.4,1.1,2.4,2.4c0,1.4-1.1,2.4-2.4,2.4c-1.4,0-2.4-1.1-2.4-2.4
			C64.2,164.6,65.3,163.5,66.7,163.5z M66.6,167.6c0.9,0,1.6-0.7,1.6-1.7c0-1-0.7-1.7-1.6-1.7c-0.9,0-1.6,0.7-1.6,1.7
			C65.1,166.9,65.7,167.6,66.6,167.6z"/>
	</g>
	<g>
		<path fill="#939A9E" d="M70.3,163.6h0.8v0.5c0.3-0.4,0.6-0.6,1.1-0.6c0.6,0,1,0.3,1.3,0.7c0.3-0.5,0.7-0.7,1.3-0.7
			c0.5,0,1,0.2,1.2,0.6c0.2,0.3,0.3,0.6,0.3,1.2v2.9h-0.8v-2.8c0-0.8-0.2-1.2-0.8-1.2c-0.7,0-1,0.5-1,1.4v2.5h-0.8v-2.7
			c0-0.8-0.3-1.3-0.8-1.3c-0.3,0-0.7,0.2-0.8,0.5c-0.1,0.2-0.2,0.5-0.2,1v2.5h-0.8V163.6z"/>
	</g>
	<g>
		<path fill="#939A9E" d="M78.5,170.7h-0.8v-7.1h0.8l0,0.6c0.5-0.5,0.9-0.8,1.6-0.8c1.3,0,2.2,1,2.2,2.4c0,1.4-0.9,2.4-2.2,2.4
			c-0.6,0-1.1-0.2-1.6-0.8V170.7z M80,167.6c0.8,0,1.5-0.7,1.5-1.7c0-1-0.6-1.7-1.5-1.7c-0.9,0-1.5,0.7-1.5,1.7
			C78.5,166.9,79.1,167.6,80,167.6z"/>
	</g>
	<g>
		<path fill="#939A9E" d="M87,167.5c-0.4,0.5-0.9,0.8-1.6,0.8c-1.3,0-2.2-1-2.2-2.4c0-1.4,0.9-2.4,2.2-2.4c0.7,0,1.1,0.2,1.6,0.8
			v-0.6h0.8v4.6H87V167.5z M85.5,167.6c0.9,0,1.5-0.7,1.5-1.7c0-1-0.6-1.7-1.5-1.7c-0.9,0-1.5,0.7-1.5,1.6
			C84,166.9,84.7,167.6,85.5,167.6z"/>
	</g>
	<g>
		<path fill="#939A9E" d="M89.3,163.6h0.8v0.5c0.4-0.5,0.6-0.6,1-0.6c0.3,0,0.4,0,0.7,0.2l-0.4,0.7c-0.2-0.1-0.3-0.2-0.5-0.2
			c-0.3,0-0.6,0.2-0.7,0.4c-0.1,0.2-0.2,0.5-0.2,1.1v2.4h-0.8V163.6z"/>
	</g>
	<g>
		<path fill="#939A9E" d="M96.4,167c-0.5,0.9-1.2,1.3-2.1,1.3c-1.3,0-2.2-1-2.2-2.4c0-1.4,0.9-2.4,2.2-2.4c1.3,0,2.2,1,2.2,2.4v0.1
			h-3.6c0,0.9,0.6,1.5,1.5,1.5c0.6,0,1-0.3,1.4-1L96.4,167z M95.7,165.4c-0.1-0.7-0.7-1.2-1.3-1.2c-0.7,0-1.2,0.5-1.3,1.2H95.7z"/>
	</g>
	<g>
		<path fill="#939A9E" d="M99.8,163.6h0.9l1.4,3.1l1.4-3.4l1.4,3.4l1.4-3.1h0.9l-2.3,4.9l-1.4-3.4l-1.4,3.4L99.8,163.6z"/>
	</g>
	<g>
		<path fill="#939A9E" d="M107.8,161.9c0-0.3,0.3-0.6,0.6-0.6c0.3,0,0.6,0.3,0.6,0.6c0,0.3-0.3,0.6-0.6,0.6
			C108,162.4,107.8,162.2,107.8,161.9z M107.9,163.6h0.8v4.6h-0.8V163.6z"/>
	</g>
	<g>
		<path fill="#939A9E" d="M110.2,164.3h-0.5v-0.7h0.5V162h0.8v1.7h0.8v0.7H111v3.8h-0.8V164.3z"/>
	</g>
	<g>
		<path fill="#939A9E" d="M112.6,160.2h0.8v4c0.4-0.5,0.8-0.6,1.3-0.6c0.5,0,1.1,0.2,1.3,0.6c0.2,0.3,0.3,0.6,0.3,1.2v2.8h-0.8v-2.8
			c0-0.8-0.3-1.2-0.9-1.2c-0.5,0-0.8,0.2-1,0.5c-0.1,0.3-0.2,0.6-0.2,1.1v2.3h-0.8V160.2z"/>
	</g>
	<g>
		<path fill="#939A9E" d="M44.5,174.6h0.8v0.5c0.4-0.5,0.7-0.7,1.3-0.7c0.5,0,1.1,0.2,1.3,0.6c0.2,0.3,0.3,0.6,0.3,1.2v2.8h-0.8
			v-2.7c0-0.5,0-0.7-0.2-0.9c-0.1-0.2-0.4-0.4-0.8-0.4c-0.8,0-1.1,0.5-1.1,1.7v2.3h-0.8V174.6z"/>
	</g>
	<g>
		<path fill="#939A9E" d="M53.2,177.4c0,0.7-0.1,1-0.4,1.4c-0.3,0.4-0.8,0.6-1.4,0.6c-0.6,0-1.1-0.2-1.4-0.6
			c-0.3-0.3-0.4-0.7-0.4-1.4v-2.8h0.8v2.7c0,0.4,0,0.7,0.1,0.8c0.2,0.3,0.5,0.5,0.9,0.5c0.4,0,0.7-0.2,0.9-0.5
			c0.1-0.2,0.1-0.4,0.1-0.8v-2.7h0.8V177.4z"/>
	</g>
	<g>
		<path fill="#939A9E" d="M54.7,174.6h0.8v0.5c0.3-0.4,0.6-0.6,1.1-0.6c0.6,0,1,0.3,1.3,0.7c0.3-0.5,0.7-0.7,1.3-0.7
			c0.5,0,1,0.2,1.2,0.6c0.2,0.3,0.3,0.6,0.3,1.2v2.9h-0.8v-2.8c0-0.8-0.2-1.2-0.8-1.2c-0.7,0-1,0.5-1,1.4v2.5h-0.8v-2.7
			c0-0.8-0.3-1.3-0.8-1.3c-0.3,0-0.7,0.2-0.8,0.5c-0.1,0.2-0.2,0.5-0.2,1v2.5h-0.8V174.6z"/>
	</g>
	<g>
		<path fill="#939A9E" d="M66.3,178c-0.5,0.9-1.2,1.3-2.1,1.3c-1.3,0-2.2-1-2.2-2.4c0-1.4,0.9-2.4,2.2-2.4c1.3,0,2.2,1,2.2,2.4v0.1
			h-3.6c0,0.9,0.6,1.5,1.5,1.5c0.6,0,1-0.3,1.4-1L66.3,178z M65.5,176.4c-0.1-0.7-0.7-1.2-1.3-1.2c-0.7,0-1.2,0.5-1.3,1.2H65.5z"/>
	</g>
	<g>
		<path fill="#939A9E" d="M67.5,174.6h0.8v0.5c0.4-0.5,0.6-0.6,1-0.6c0.3,0,0.4,0,0.7,0.2l-0.4,0.7c-0.2-0.1-0.3-0.2-0.5-0.2
			c-0.3,0-0.6,0.2-0.7,0.4c-0.1,0.2-0.2,0.5-0.2,1.1v2.4h-0.8V174.6z"/>
	</g>
	<g>
		<path fill="#939A9E" d="M70.7,172.9c0-0.3,0.3-0.6,0.6-0.6c0.3,0,0.6,0.3,0.6,0.6c0,0.3-0.3,0.6-0.6,0.6
			C70.9,173.4,70.7,173.2,70.7,172.9z M70.8,174.6h0.8v4.6h-0.8V174.6z"/>
	</g>
	<g>
		<path fill="#939A9E" d="M76.7,178.8c-0.6,0.4-0.9,0.5-1.5,0.5c-1.4,0-2.4-1-2.4-2.4c0-1.4,1.1-2.4,2.4-2.4c0.5,0,0.9,0.1,1.4,0.4
			v1c-0.5-0.5-0.9-0.7-1.4-0.7c-0.9,0-1.6,0.7-1.6,1.7c0,1,0.7,1.7,1.6,1.7c0.6,0,1-0.2,1.5-0.8V178.8z"/>
	</g>
	<g>
		<path fill="#939A9E" d="M81.4,178.5c-0.4,0.5-0.9,0.8-1.6,0.8c-1.3,0-2.2-1-2.2-2.4c0-1.4,0.9-2.4,2.2-2.4c0.7,0,1.1,0.2,1.6,0.8
			v-0.6h0.8v4.6h-0.8V178.5z M79.9,178.6c0.9,0,1.5-0.7,1.5-1.7c0-1-0.6-1.7-1.5-1.7c-0.9,0-1.5,0.7-1.5,1.6
			C78.4,177.9,79.1,178.6,79.9,178.6z"/>
	</g>
	<g>
		<path fill="#939A9E" d="M83.7,171.2h0.8v8h-0.8V171.2z"/>
	</g>
	<g>
		<path fill="#939A9E" d="M88.7,174.6h0.8v0.5c0.3-0.4,0.6-0.6,1.1-0.6c0.6,0,1,0.3,1.3,0.7c0.3-0.5,0.7-0.7,1.3-0.7
			c0.5,0,1,0.2,1.2,0.6c0.2,0.3,0.3,0.6,0.3,1.2v2.9h-0.8v-2.8c0-0.8-0.2-1.2-0.8-1.2c-0.7,0-1,0.5-1,1.4v2.5h-0.8v-2.7
			c0-0.8-0.3-1.3-0.8-1.3c-0.3,0-0.7,0.2-0.8,0.5c-0.1,0.2-0.2,0.5-0.2,1v2.5h-0.8V174.6z"/>
	</g>
	<g>
		<path fill="#939A9E" d="M98.3,174.5c1.4,0,2.4,1.1,2.4,2.4c0,1.4-1.1,2.4-2.4,2.4c-1.4,0-2.4-1.1-2.4-2.4
			C95.9,175.6,97,174.5,98.3,174.5z M98.3,178.6c0.9,0,1.6-0.7,1.6-1.7c0-1-0.7-1.7-1.6-1.7c-0.9,0-1.6,0.7-1.6,1.7
			C96.7,177.9,97.3,178.6,98.3,178.6z"/>
	</g>
	<g>
		<path fill="#939A9E" d="M105.4,178.5c-0.4,0.5-0.9,0.8-1.6,0.8c-1.3,0-2.2-1-2.2-2.4c0-1.4,0.9-2.4,2.2-2.4c0.6,0,1.1,0.2,1.6,0.7
			v-4.1h0.8v8h-0.8V178.5z M103.9,178.6c0.9,0,1.5-0.7,1.5-1.7c0-1-0.6-1.7-1.5-1.7c-0.9,0-1.5,0.7-1.5,1.6
			C102.4,177.9,103.1,178.6,103.9,178.6z"/>
	</g>
	<g>
		<path fill="#939A9E" d="M111.7,178c-0.5,0.9-1.2,1.3-2.1,1.3c-1.3,0-2.2-1-2.2-2.4c0-1.4,0.9-2.4,2.2-2.4c1.3,0,2.2,1,2.2,2.4v0.1
			h-3.6c0,0.9,0.6,1.5,1.5,1.5c0.6,0,1-0.3,1.4-1L111.7,178z M110.9,176.4c-0.1-0.7-0.7-1.2-1.3-1.2c-0.7,0-1.2,0.5-1.3,1.2H110.9z"
			/>
	</g>
	<g>
		<path fill="#939A9E" d="M113,171.2h0.8v8H113V171.2z"/>
	</g>
	<g>
		<path fill="#939A9E" d="M115.2,171.2h0.8v8h-0.8V171.2z"/>
	</g>
	<g>
		<path fill="#939A9E" d="M117.4,172.9c0-0.3,0.3-0.6,0.6-0.6c0.3,0,0.6,0.3,0.6,0.6c0,0.3-0.3,0.6-0.6,0.6
			C117.6,173.4,117.4,173.2,117.4,172.9z M117.5,174.6h0.8v4.6h-0.8V174.6z"/>
	</g>
	<g>
		<path fill="#939A9E" d="M119.8,174.6h0.8v0.5c0.4-0.5,0.7-0.7,1.3-0.7c0.5,0,1.1,0.2,1.3,0.6c0.2,0.3,0.3,0.6,0.3,1.2v2.8h-0.8
			v-2.7c0-0.5,0-0.7-0.2-0.9c-0.1-0.2-0.4-0.4-0.8-0.4c-0.8,0-1.1,0.5-1.1,1.7v2.3h-0.8V174.6z"/>
	</g>
	<g>
		<path fill="#939A9E" d="M125.5,179.6c0,0.4,0.1,0.6,0.2,0.8c0.2,0.4,0.7,0.6,1.2,0.6c1,0,1.5-0.6,1.5-1.8v-0.7
			c-0.4,0.5-1,0.8-1.6,0.8c-1.2,0-2.2-1-2.2-2.4c0-1.4,0.9-2.4,2.2-2.4c0.6,0,1.1,0.2,1.6,0.8v-0.6h0.8v4.5c0,0.9-0.1,1.3-0.4,1.8
			c-0.4,0.5-1.1,0.8-1.8,0.8c-1.3,0-2.2-0.8-2.2-2.1H125.5z M127,178.6c0.9,0,1.5-0.7,1.5-1.7c0-1-0.6-1.7-1.5-1.7
			c-0.9,0-1.5,0.7-1.5,1.7C125.5,177.9,126.1,178.6,127,178.6z"/>
	</g>
</g>
<g>
	<g>
		<path fill="#485F71" d="M106.4,11.2l2.8,6.2l2.9-6.2l1.1,7.8h-0.8l-0.7-5.1l-2.5,5.4l-2.5-5.4L106,19h-0.8L106.4,11.2z"/>
	</g>
	<g>
		<path fill="#485F71" d="M118.8,17.8c-0.5,0.9-1.2,1.3-2.1,1.3c-1.3,0-2.2-1-2.2-2.4c0-1.4,0.9-2.4,2.2-2.4c1.3,0,2.2,1,2.2,2.4
			v0.1h-3.6c0,0.9,0.6,1.5,1.5,1.5c0.6,0,1-0.3,1.4-1L118.8,17.8z M118,16.2c-0.1-0.7-0.7-1.2-1.3-1.2c-0.7,0-1.2,0.5-1.3,1.2H118z"
			/>
	</g>
	<g>
		<path fill="#485F71" d="M123.5,18.3c-0.4,0.5-0.9,0.8-1.6,0.8c-1.3,0-2.2-1-2.2-2.4c0-1.4,0.9-2.4,2.2-2.4c0.7,0,1.1,0.2,1.6,0.8
			v-0.6h0.8V19h-0.8V18.3z M122.1,18.4c0.9,0,1.5-0.7,1.5-1.7c0-1-0.6-1.7-1.5-1.7c-0.9,0-1.5,0.7-1.5,1.7
			C120.6,17.7,121.2,18.4,122.1,18.4z"/>
	</g>
	<g>
		<path fill="#485F71" d="M126.1,17.7c0.3,0.5,0.5,0.7,0.9,0.7c0.4,0,0.7-0.3,0.7-0.7c0-0.3-0.2-0.5-0.7-0.7
			c-1.1-0.5-1.3-0.7-1.3-1.3c0-0.7,0.6-1.3,1.3-1.3c0.6,0,1,0.3,1.3,0.8l-0.6,0.3c-0.2-0.3-0.4-0.5-0.6-0.5c-0.3,0-0.5,0.2-0.5,0.5
			c0,0.3,0.2,0.4,0.7,0.6c0.5,0.2,0.7,0.3,0.9,0.4c0.3,0.2,0.5,0.6,0.5,1c0,0.8-0.7,1.5-1.6,1.5c-0.8,0-1.3-0.4-1.6-1.2L126.1,17.7z
			"/>
	</g>
	<g>
		<path fill="#485F71" d="M133.3,17.2c0,0.7-0.1,1-0.4,1.4c-0.3,0.4-0.8,0.6-1.4,0.6c-0.6,0-1.1-0.2-1.4-0.6
			c-0.3-0.3-0.4-0.7-0.4-1.4v-2.7h0.8v2.7c0,0.4,0,0.7,0.1,0.8c0.2,0.3,0.5,0.5,0.9,0.5c0.4,0,0.7-0.2,0.9-0.5
			c0.1-0.2,0.1-0.4,0.1-0.8v-2.7h0.8V17.2z"/>
	</g>
	<g>
		<path fill="#485F71" d="M134.8,14.4h0.8v0.5c0.4-0.5,0.6-0.6,1-0.6c0.3,0,0.4,0,0.7,0.2l-0.4,0.7c-0.2-0.1-0.3-0.2-0.5-0.2
			c-0.3,0-0.6,0.2-0.7,0.4c-0.1,0.2-0.2,0.6-0.2,1.1V19h-0.8V14.4z"/>
	</g>
	<g>
		<path fill="#485F71" d="M141.9,17.8c-0.5,0.9-1.2,1.3-2.1,1.3c-1.3,0-2.2-1-2.2-2.4c0-1.4,0.9-2.4,2.2-2.4c1.3,0,2.2,1,2.2,2.4
			v0.1h-3.6c0,0.9,0.6,1.5,1.5,1.5c0.6,0,1-0.3,1.4-1L141.9,17.8z M141.1,16.2c-0.1-0.7-0.7-1.2-1.3-1.2c-0.7,0-1.2,0.5-1.3,1.2
			H141.1z"/>
	</g>
	<g>
		<path fill="#485F71" d="M143.2,14.4h0.8v0.5c0.3-0.4,0.6-0.6,1.1-0.6c0.6,0,1,0.3,1.3,0.7c0.3-0.5,0.7-0.7,1.3-0.7
			c0.5,0,1,0.2,1.2,0.6c0.2,0.3,0.3,0.6,0.3,1.2V19h-0.8v-2.8c0-0.8-0.2-1.2-0.8-1.2c-0.7,0-1,0.5-1,1.4V19h-0.8v-2.7
			c0-0.8-0.3-1.3-0.8-1.3c-0.3,0-0.7,0.2-0.8,0.5c-0.1,0.2-0.2,0.5-0.2,1V19h-0.8V14.4z"/>
	</g>
	<g>
		<path fill="#485F71" d="M154.7,17.8c-0.5,0.9-1.2,1.3-2.1,1.3c-1.3,0-2.2-1-2.2-2.4c0-1.4,0.9-2.4,2.2-2.4c1.3,0,2.2,1,2.2,2.4
			v0.1h-3.6c0,0.9,0.6,1.5,1.5,1.5c0.6,0,1-0.3,1.4-1L154.7,17.8z M153.9,16.2c-0.1-0.7-0.7-1.2-1.3-1.2c-0.7,0-1.2,0.5-1.3,1.2
			H153.9z"/>
	</g>
	<g>
		<path fill="#485F71" d="M155.9,14.4h0.8V15c0.4-0.5,0.7-0.7,1.3-0.7c0.5,0,1.1,0.2,1.3,0.6c0.2,0.3,0.3,0.6,0.3,1.2V19h-0.8v-2.7
			c0-0.5,0-0.7-0.2-0.9c-0.1-0.2-0.4-0.4-0.8-0.4c-0.8,0-1.1,0.5-1.1,1.7V19h-0.8V14.4z"/>
	</g>
	<g>
		<path fill="#485F71" d="M161.1,15.1h-0.5v-0.7h0.5v-1.7h0.8v1.7h0.8v0.7h-0.8V19h-0.8V15.1z"/>
	</g>
</g>
<g>
	<g>
		<path fill="#24D1ED" d="M138.6,94.9l-1.3-1.5l0.8-0.6l1.3,1.5L138.6,94.9z M136,91.8l-1.3-1.5l0.8-0.6l1.3,1.5L136,91.8z"/>
	</g>
</g>
<g>
	<g>
		<path fill="#24D1ED" d="M121.6,74.8l-1.3-1.5l0.8-0.6l1.3,1.5L121.6,74.8z M119,71.8l-1.3-1.5l0.8-0.6l1.3,1.5L119,71.8z
			 M116.4,68.7l-1.3-1.5l0.8-0.6l1.3,1.5L116.4,68.7z M113.8,65.7l-1.3-1.5l0.8-0.6l1.3,1.5L113.8,65.7z M111.2,62.6l-1.3-1.5
			l0.8-0.6L112,62L111.2,62.6z M108.7,59.6l-1.3-1.5l0.8-0.6l1.3,1.5L108.7,59.6z M106.1,56.5l-1.3-1.5l0.8-0.6l1.3,1.5L106.1,56.5z
			 M103.5,53.5l-1.3-1.5l0.8-0.6l1.3,1.5L103.5,53.5z M100.9,50.4l-1.3-1.5l0.8-0.6l1.3,1.5L100.9,50.4z M98.3,47.4L97,45.9l0.8-0.6
			l1.3,1.5L98.3,47.4z M95.7,44.4l-1.3-1.5l0.8-0.6l1.3,1.5L95.7,44.4z M93.1,41.3l-1.3-1.5l0.8-0.6l1.3,1.5L93.1,41.3z M90.5,38.3
			l-1.3-1.5l0.8-0.6l1.3,1.5L90.5,38.3z M87.9,35.2l-1.3-1.5l0.8-0.6l1.3,1.5L87.9,35.2z"/>
	</g>
</g>
<g>
	<g>
		<g>
			<circle fill="#24D1ED" cx="24.1" cy="46" r="2.5"/>
		</g>
	</g>
	<g>
		<g>
			<circle fill="#24D1ED" cx="43.2" cy="40.3" r="2.5"/>
		</g>
	</g>
	<g>
		<g>
			<circle fill="#24D1ED" cx="62.1" cy="41.6" r="2.5"/>
		</g>
	</g>
	<g>
		<g>
			<circle fill="#24D1ED" cx="77.4" cy="37.3" r="2.5"/>
		</g>
	</g>
	<g>
		<g>
			<circle fill="#24D1ED" cx="87" cy="33.4" r="2.5"/>
		</g>
	</g>
	<g>
		<g>
			<circle fill="#24D1ED" cx="114" cy="38.8" r="2.5"/>
		</g>
	</g>
	<g>
		<g>
			<circle fill="#24D1ED" cx="125.4" cy="47.5" r="2.5"/>
		</g>
	</g>
	<g>
		<g>
			<circle fill="#24D1ED" cx="135.6" cy="56.7" r="2.5"/>
		</g>
	</g>
	<g>
		<g>
			<polygon fill="#24D1ED" points="135.3,57.1 125.1,47.9 113.7,39.3 87.1,33.9 77.6,37.8 62.2,42.1 62.1,42.1 43.3,40.8 24.3,46.5 
				24,45.6 43.1,39.8 43.2,39.8 62.1,41.1 77.3,36.9 87,32.8 114.3,38.4 125.7,47.1 136,56.4 			"/>
		</g>
	</g>
</g>
<path fill="#24D1ED" d="M97.9,24.9c-0.3-0.9-1.5-5.4-3.1-9.9c-1.5-4.3-6.1-12-7.1-13.8c0.1-0.1,0.2-0.2,0.2-0.4
	c0-0.3-0.2-0.5-0.5-0.5s-0.5,0.2-0.5,0.5c0,0.2,0.1,0.3,0.2,0.4v0.8h-1.6l1.6,1.2V5l-1.7,2l-4.2,11.7V10h-0.5v1.5L77.1,22h3
	l-0.9,2.4h1.5v1.2H77v1c0,0.8,0.6,1.4,1.4,1.4h16.4c0.4,0,0.8-0.1,1.1-0.3l3.4-2.5v-0.3L97.9,24.9z M87.1,25.6h-5.9v-1.2h5.9V25.6z
	 M87.6,1.4c0.4,1.5,1.7,6.1,2,9.4c0.5,7.2-1.4,11.1-2,12V1.4z M87.6,25.6L87.6,25.6l0-2.5c0.7-0.1,3.3-0.7,5.1-0.3
	c2.5,0.5,4.4,1.7,5,2.1L87.6,25.6z"/>
</svg>
