<?xml version="1.0" encoding="utf-8"?>
<!-- Generator: Adobe Illustrator 17.1.0, SVG Export Plug-In . SVG Version: 6.00 Build 0)  -->
<!DOCTYPE svg PUBLIC "-//W3C//DTD SVG 1.1//EN" "http://www.w3.org/Graphics/SVG/1.1/DTD/svg11.dtd">
<svg version="1.1" id="Layer_1" xmlns="http://www.w3.org/2000/svg" xmlns:xlink="http://www.w3.org/1999/xlink" x="0px" y="0px"
	 viewBox="33.3 77.2 234 145.7" enable-background="new 33.3 77.2 234 145.7" xml:space="preserve">
<g>
	<g>
		<path fill="#222A2F" d="M68.6,198.6l-3.2-1.8c-0.1-0.1-0.2,0-0.3,0.1l-1.6,2.3h-0.1c-0.1-0.1-0.3,0-0.4,0.1l-0.4,0.6l-4.8-2.8
			c-0.4-0.2-0.8-0.3-1.2-0.3h-4.4c-0.6,0-1.2,0.4-1.5,0.9l-2.7,5.7c-0.1,0.2-0.2,0.4-0.2,0.7v16.3c0,1.4,1.1,2.5,2.5,2.5H66
			c1.4,0,2.5-1.1,2.5-2.5v-15.6c0-0.9-0.5-1.7-1.3-2.2l0.3-0.6c0.1-0.2,0-0.3-0.1-0.4l-0.1-0.1l1.2-2.5
			C68.8,198.8,68.8,198.7,68.6,198.6z M60.7,202.3c0,0.2-0.2,0.4-0.4,0.4h-9.1c-0.3,0-0.5-0.3-0.4-0.6l1.5-3.3
			c0.1-0.1,0.2-0.2,0.4-0.2h3.9c0.1,0,0.1,0,0.2,0.1l3.7,2.1c0.1,0.1,0.2,0.2,0.2,0.4V202.3z"/>
	</g>
	<g>
		<g>
			<polygon fill="#222A2F" points="64.5,99.8 66.9,98.5 62.5,95.4 			"/>
		</g>
		<g>
			<path fill="#222A2F" d="M48.1,97.3c0.1,0,2.3,0.5,2.3,0.5l0.4,0.8l-4.9,1.1L45,99.2L48.1,97.3z"/>
		</g>
		<g>
			<polygon fill="#222A2F" points="57.7,97.6 60.1,91.6 59.4,91.6 57,92.1 55.1,96.8 			"/>
		</g>
		<g>
			<polygon fill="#222A2F" points="70.5,84.7 67.2,87.7 71.3,90.8 72,90.2 71.4,87.7 71.1,85.1 			"/>
		</g>
		<g>
			<circle fill="#222A2F" cx="57.2" cy="85" r="0.9"/>
		</g>
		<g>
			<circle fill="#222A2F" cx="47.8" cy="85" r="0.9"/>
		</g>
		<g>
			<circle fill="#222A2F" cx="50.6" cy="87.8" r="0.9"/>
		</g>
		<g>
			<circle fill="#222A2F" cx="53.2" cy="86.4" r="0.9"/>
		</g>
		<g>
			<circle fill="#222A2F" cx="55.3" cy="88.6" r="0.9"/>
		</g>
		<g>
			<circle fill="#222A2F" cx="63.8" cy="91.6" r="0.9"/>
		</g>
		<g>
			<circle fill="#222A2F" cx="68.7" cy="94.5" r="0.9"/>
		</g>
		<g>
			<circle fill="#222A2F" cx="52.3" cy="92.5" r="0.9"/>
		</g>
		<g>
			<circle fill="#222A2F" cx="46.3" cy="92.5" r="1.6"/>
		</g>
		<g>
			<path fill="#222A2F" d="M52.6,77.2c0.3,0.1,3.2,1,3.2,1v0.7l-4.8,2l-1.3-0.6v-1.7L52.6,77.2z"/>
		</g>
		<g>
			<path fill="#222A2F" d="M61.9,86.4c0.9-1.4,1.5-3.9,1.5-3.9s-0.9-3.2-2.7-3.5L61.9,86.4z"/>
		</g>
	</g>
	<g>
		<g>
			<polygon fill="#222A2F" points="56.7,135 56.2,136.1 55.1,136.9 49.4,131.1 49.8,130.3 47.5,127.9 47.6,127.7 			"/>
		</g>
		<g>
			<polygon fill="#222A2F" points="53.7,126.5 63.3,137.4 63.1,138.1 53.5,128 53.3,127 			"/>
		</g>
		<g>
			<g>
				<path fill="#222A2F" d="M62.6,122.2c-2,0-3.7,1.6-3.7,3.7c0,2,1.6,3.7,3.7,3.7c2,0,3.7-1.6,3.7-3.7
					C66.3,123.9,64.7,122.2,62.6,122.2z M62.6,127.6c-0.9,0-1.7-0.8-1.7-1.7c0-0.9,0.8-1.7,1.7-1.7s1.7,0.8,1.7,1.7
					C64.3,126.9,63.5,127.6,62.6,127.6z"/>
			</g>
		</g>
		<g>
			<polygon fill="#222A2F" points="57.2,115.4 58.2,116.2 56.5,121.5 54.3,122.2 49.3,119.1 51.5,115.7 54.7,116.5 			"/>
		</g>
		<g>
			<path fill="#222A2F" d="M70.8,129.6l1.9,1.8l-0.4,4.3c0,0-6.4-0.3-6.7-0.7c-0.2-0.4-1-2.4-1-2.4L70.8,129.6z"/>
		</g>
		<g>
			<g>
				<path fill="#222A2F" d="M47.2,135c-1.7,0-3.1,1.4-3.1,3.1c0,1.7,1.4,3.1,3.1,3.1c1.7,0,3.1-1.4,3.1-3.1S48.9,135,47.2,135z
					 M47.2,140.5c-1.3,0-2.4-1.1-2.4-2.4c0-1.3,1.1-2.4,2.4-2.4c1.3,0,2.4,1.1,2.4,2.4C49.6,139.4,48.5,140.5,47.2,140.5z"/>
			</g>
		</g>
	</g>
	<g>
		<path fill="#222A2F" d="M70.6,161.8l-1.8-1.3l-0.2-0.1l-1.8-1.3l-0.2,0.2l-0.2,0.4l-0.1-0.1h-0.1l-0.1,0.1v0.1l0.1,0.1l-0.2,0.3
			l-0.1-0.1h-0.1l-0.1,0.1v0.1l0.1,0.1l-0.4,0.6c0,0-0.2,0-0.3,0.1c-0.1,0.1-0.2,0.2-0.2,0.2s-0.3-0.3-0.5,0.1
			c-0.2,0.3-0.4,0.6-0.4,0.6s-0.2,0-0.2,0.1s0.6,0.4,0.6,0.4l-0.8,1.1c0,0-5.5,0.6-7.6,3s-2.4,4.2-2.4,4.2l-7.5,10.7
			c0,0,5.6-0.1,5.8,0c0.3,0.3,2.1-2.8,2.1-2.8s4-0.5,4.4-0.5c0.4-0.1,3.4-2.5,3.4-2.5s0.5,3,1.4,3.8l0.9-1.3c0,0,1.6-0.9,3.2-3.7
			s0.2-8.1,0.2-8.1l0.8-1.1c0,0,0.5,0.4,0.6,0.4s0.1-0.3,0.1-0.3s0.2-0.2,0.4-0.6c0.2-0.3-0.1-0.5-0.1-0.5s0.1-0.1,0.2-0.2
			c0-0.1,0-0.3,0-0.3l0.4-0.6l0.1,0.1h0.1l0.1-0.1v-0.1l-0.1-0.1l0.2-0.3l0.1,0.1h0.1l0.1-0.1v-0.1l-0.1-0.1l0.2-0.4L70.6,161.8z"/>
	</g>
	<g>
		<path fill="#808B96" d="M85.3,90.8c0-2.3,1.3-4.1,2.9-4.1s2.9,1.8,2.9,4.1c0,1.1-0.3,2.1-0.8,2.9c-0.5,0.7-1.3,1.2-2.1,1.2
			c-0.8,0-1.6-0.5-2.1-1.3C85.5,92.9,85.3,91.9,85.3,90.8z M90.1,90.8c0-1.9-0.9-3.3-2-3.3s-2,1.4-2,3.3s0.8,3.3,2,3.3
			C89.2,94.1,90.1,92.7,90.1,90.8z"/>
		<path fill="#808B96" d="M92.9,93.8c0.3,0,0.6,0.3,0.6,0.6c0,0.3-0.3,0.6-0.6,0.6c-0.3,0-0.6-0.3-0.6-0.6
			C92.3,94,92.6,93.8,92.9,93.8z"/>
		<path fill="#808B96" d="M95.3,88.8c0.1-0.6,0.2-0.9,0.4-1.2c0.4-0.6,1-0.9,1.8-0.9c1.3,0,2.3,0.9,2.3,2.1c0,0.8-0.4,1.4-1,1.8
			c0.7,0.3,1.1,1.1,1.1,1.9c0,1.4-1.1,2.4-2.5,2.4c-0.9,0-1.7-0.4-2.1-1.1c-0.2-0.3-0.3-0.6-0.3-1.1h0.9c0.1,0.4,0.1,0.6,0.3,0.8
			c0.3,0.4,0.8,0.6,1.3,0.6c0.9,0,1.6-0.7,1.6-1.6c0-0.6-0.3-1.1-0.8-1.3c-0.3-0.1-0.6-0.2-1-0.2v-0.8c0.5,0,0.7-0.1,0.9-0.2
			c0.4-0.2,0.6-0.7,0.6-1.2c0-0.8-0.6-1.4-1.4-1.4c-0.5,0-0.9,0.2-1.1,0.5c-0.1,0.2-0.2,0.3-0.3,0.8L95.3,88.8L95.3,88.8z"/>
		<path fill="#808B96" d="M102.1,88.8c0.1-0.6,0.2-0.9,0.4-1.2c0.4-0.6,1-0.9,1.8-0.9c1.3,0,2.3,0.9,2.3,2.1c0,0.8-0.4,1.4-1,1.8
			c0.7,0.3,1.1,1.1,1.1,1.9c0,1.4-1.1,2.4-2.5,2.4c-0.9,0-1.7-0.4-2.1-1.1c-0.2-0.3-0.3-0.6-0.3-1.1h0.9c0.1,0.4,0.1,0.6,0.3,0.8
			c0.3,0.4,0.8,0.6,1.3,0.6c0.9,0,1.6-0.7,1.6-1.6c0-0.6-0.3-1.1-0.8-1.3c-0.3-0.1-0.5-0.2-0.9-0.2v-0.8c0.5,0,0.7-0.1,0.9-0.2
			c0.4-0.2,0.6-0.7,0.6-1.2c0-0.8-0.6-1.4-1.4-1.4c-0.5,0-0.9,0.2-1.1,0.5c-0.1,0.2-0.2,0.3-0.3,0.8L102.1,88.8L102.1,88.8z"/>
		<path fill="#808B96" d="M107.9,91.9h2.2v0.8h-2.2V91.9z"/>
		<path fill="#808B96" d="M113.2,87.7h-1.3l0.5-0.8h1.8v8h-0.9L113.2,87.7L113.2,87.7z"/>
		<path fill="#808B96" d="M120.6,89.9h0.9v0.5c0.3-0.5,0.7-0.7,1.2-0.7c0.6,0,1.1,0.3,1.4,0.8c0.3-0.5,0.8-0.8,1.5-0.8
			c0.6,0,1.1,0.3,1.3,0.7c0.2,0.3,0.3,0.7,0.3,1.3v3.2h-0.9v-3c0-0.9-0.3-1.3-0.9-1.3c-0.7,0-1.1,0.5-1.1,1.6V95h-0.9v-3
			c0-0.9-0.3-1.4-0.9-1.4c-0.4,0-0.7,0.2-0.9,0.5c-0.1,0.2-0.2,0.6-0.2,1.1v2.7h-0.9L120.6,89.9L120.6,89.9z"/>
		<path fill="#808B96" d="M128.8,89.9h0.9v0.5c0.3-0.5,0.7-0.7,1.2-0.7c0.6,0,1.1,0.3,1.4,0.8c0.3-0.5,0.8-0.8,1.5-0.8
			c0.6,0,1.1,0.3,1.3,0.7c0.2,0.3,0.3,0.7,0.3,1.3v3.2h-0.9v-3c0-0.9-0.3-1.3-0.9-1.3c-0.7,0-1.1,0.5-1.1,1.6V95h-0.9v-3
			c0-0.9-0.3-1.4-0.9-1.4c-0.4,0-0.7,0.2-0.9,0.5c-0.1,0.2-0.2,0.6-0.2,1.1v2.7h-0.9L128.8,89.9L128.8,89.9z"/>
	</g>
	<g>
		<path fill="#808B96" d="M87.9,125.5h-1.3l0.5-0.8h1.8v8H88L87.9,125.5L87.9,125.5z"/>
		<path fill="#808B96" d="M91.5,129.7h2.2v0.8h-2.2V129.7z"/>
		<path fill="#808B96" d="M98.9,124.2v6.3h1v0.8h-1v1.3H98v-1.3h-4.1L98.9,124.2z M98,130.6V127l-2.5,3.6H98z"/>
		<path fill="#808B96" d="M101.9,131.6c0.3,0,0.6,0.3,0.6,0.6s-0.3,0.6-0.6,0.6c-0.3,0-0.6-0.3-0.6-0.6
			C101.3,131.9,101.5,131.6,101.9,131.6z"/>
		<path fill="#808B96" d="M108.5,125.5h-4.4v-0.8h5.9l-5.4,8.2l-0.7-0.5L108.5,125.5z"/>
		<path fill="#808B96" d="M111.1,130.9c0.5,0.8,1,1.1,1.8,1.1c1.1,0,2-0.9,2-2s-0.9-2-2-2c-0.5,0-0.9,0.1-1.5,0.5l1.2-3.8h3.2v0.8
			h-2.6l-0.5,1.7c0.2,0,0.3,0,0.5,0c1.5,0,2.7,1.2,2.7,2.8s-1.2,2.9-2.9,2.9c-1,0-1.9-0.5-2.4-1.4L111.1,130.9z"/>
		<path fill="#808B96" d="M120.6,127.7h0.9v0.5c0.3-0.5,0.7-0.7,1.2-0.7c0.6,0,1.1,0.3,1.4,0.8c0.3-0.5,0.8-0.8,1.5-0.8
			c0.6,0,1.1,0.3,1.3,0.7c0.2,0.3,0.3,0.7,0.3,1.3v3.2h-0.9v-3c0-0.9-0.3-1.3-0.9-1.3c-0.7,0-1.1,0.5-1.1,1.6v2.8h-0.9v-2.9
			c0-0.9-0.3-1.4-0.9-1.4c-0.4,0-0.7,0.2-0.9,0.5c-0.1,0.2-0.2,0.6-0.2,1.1v2.7h-0.9L120.6,127.7L120.6,127.7z"/>
		<path fill="#808B96" d="M128.8,127.7h0.9v0.5c0.3-0.5,0.7-0.7,1.2-0.7c0.6,0,1.1,0.3,1.4,0.8c0.3-0.5,0.8-0.8,1.5-0.8
			c0.6,0,1.1,0.3,1.3,0.7c0.2,0.3,0.3,0.7,0.3,1.3v3.2h-0.9v-3c0-0.9-0.3-1.3-0.9-1.3c-0.7,0-1.1,0.5-1.1,1.6v2.8h-0.9v-2.9
			c0-0.9-0.3-1.4-0.9-1.4c-0.4,0-0.7,0.2-0.9,0.5c-0.1,0.2-0.2,0.6-0.2,1.1v2.7h-0.9L128.8,127.7L128.8,127.7z"/>
	</g>
	<g>
		<path fill="#808B96" d="M89.9,164.8v6.3h1v0.8h-1v1.3H89v-1.3h-4.1L89.9,164.8z M89,171.1v-3.6l-2.5,3.6H89z"/>
		<path fill="#808B96" d="M92.9,172.2c0.3,0,0.6,0.3,0.6,0.6s-0.3,0.6-0.6,0.6c-0.3,0-0.6-0.3-0.6-0.6
			C92.3,172.4,92.6,172.2,92.9,172.2z"/>
		<path fill="#808B96" d="M99.5,166.1h-4.4v-0.8h5.9l-5.4,8.2L95,173L99.5,166.1z"/>
		<path fill="#808B96" d="M102.2,171.4c0.5,0.8,1,1.1,1.8,1.1c1.1,0,2-0.9,2-2s-0.9-2-2-2c-0.5,0-0.9,0.1-1.5,0.5l1.2-3.8h3.2v0.8
			h-2.6l-0.5,1.7c0.2,0,0.3,0,0.5,0c1.5,0,2.7,1.2,2.7,2.8s-1.2,2.9-2.9,2.9c-1,0-1.9-0.5-2.4-1.4L102.2,171.4z"/>
		<path fill="#808B96" d="M107.9,170.3h2.2v0.8h-2.2V170.3z"/>
		<path fill="#808B96" d="M113.5,169.9c1.1-1.2,1.4-1.8,1.4-2.4c0-0.9-0.7-1.5-1.6-1.5c-0.5,0-1.1,0.3-1.3,0.7
			c-0.2,0.3-0.2,0.5-0.3,0.9h-0.9c0.1-0.7,0.2-1,0.4-1.4c0.4-0.7,1.2-1.1,2.1-1.1c1.4,0,2.5,1,2.5,2.4c0,0.9-0.3,1.4-1.7,3l-1.6,1.9
			h3.3v0.8h-5.2L113.5,169.9z"/>
		<path fill="#808B96" d="M117.4,169.2c0-2.3,1.3-4.1,2.9-4.1s2.9,1.8,2.9,4.1c0,1.1-0.3,2.1-0.8,2.9c-0.5,0.7-1.3,1.2-2.1,1.2
			c-0.8,0-1.6-0.5-2.1-1.3C117.6,171.3,117.4,170.3,117.4,169.2z M122.2,169.2c0-1.9-0.9-3.3-2-3.3s-2,1.4-2,3.3
			c0,1.9,0.8,3.3,2,3.3C121.3,172.5,122.2,171.1,122.2,169.2z"/>
		<path fill="#808B96" d="M124.2,169.2c0-2.3,1.3-4.1,2.9-4.1s2.9,1.8,2.9,4.1c0,1.1-0.3,2.1-0.8,2.9c-0.5,0.7-1.3,1.2-2.1,1.2
			c-0.8,0-1.6-0.5-2.1-1.3C124.4,171.3,124.2,170.3,124.2,169.2z M129,169.2c0-1.9-0.9-3.3-2-3.3c-1.1,0-2,1.4-2,3.3
			c0,1.9,0.8,3.3,2,3.3C128.1,172.5,129,171.1,129,169.2z"/>
		<path fill="#808B96" d="M134.3,168.3h0.9v0.5c0.3-0.5,0.7-0.7,1.2-0.7c0.6,0,1.1,0.3,1.4,0.8c0.3-0.5,0.8-0.8,1.5-0.8
			c0.6,0,1.1,0.3,1.3,0.7c0.2,0.3,0.3,0.7,0.3,1.3v3.2H140v-3c0-0.9-0.3-1.3-0.9-1.3c-0.7,0-1.1,0.5-1.1,1.6v2.8h-0.9v-3
			c0-0.9-0.3-1.4-0.9-1.4c-0.4,0-0.7,0.2-0.9,0.5c-0.1,0.2-0.2,0.6-0.2,1.1v2.7h-0.9L134.3,168.3L134.3,168.3z"/>
		<path fill="#808B96" d="M142.4,168.3h0.9v0.5c0.3-0.5,0.7-0.7,1.2-0.7c0.6,0,1.1,0.3,1.4,0.8c0.3-0.5,0.8-0.8,1.5-0.8
			c0.6,0,1.1,0.3,1.3,0.7c0.2,0.3,0.3,0.7,0.3,1.3v3.2h-0.9v-3c0-0.9-0.3-1.3-0.9-1.3c-0.7,0-1.1,0.5-1.1,1.6v2.8h-0.9v-3
			c0-0.9-0.3-1.4-0.9-1.4c-0.4,0-0.7,0.2-0.9,0.5c-0.1,0.2-0.2,0.6-0.2,1.1v2.7h-0.9L142.4,168.3L142.4,168.3z"/>
	</g>
	<g>
		<path fill="#808B96" d="M85.1,209.8l4.2-1.9l-4.2-1.9v-0.9l5.2,2.4v0.8l-5.2,2.4V209.8z"/>
		<path fill="#808B96" d="M94.2,208.6c1.1-1.2,1.4-1.8,1.4-2.4c0-0.9-0.7-1.5-1.6-1.5c-0.5,0-1.1,0.3-1.3,0.7
			c-0.2,0.3-0.2,0.5-0.3,0.9h-0.9c0.1-0.7,0.2-1,0.4-1.4c0.4-0.7,1.2-1.1,2.1-1.1c1.4,0,2.5,1,2.5,2.4c0,0.9-0.3,1.4-1.7,3l-1.6,1.9
			h3.3v0.8h-5.2L94.2,208.6z"/>
		<path fill="#808B96" d="M98.1,207.9c0-2.3,1.3-4.1,2.9-4.1s2.9,1.8,2.9,4.1c0,1.1-0.3,2.1-0.8,2.9c-0.5,0.7-1.3,1.2-2.1,1.2
			c-0.8,0-1.6-0.5-2.1-1.3C98.3,210,98.1,209,98.1,207.9z M102.9,207.9c0-1.9-0.9-3.3-2-3.3s-2,1.4-2,3.3c0,1.9,0.8,3.3,2,3.3
			C102,211.2,102.9,209.8,102.9,207.9z"/>
		<path fill="#808B96" d="M104.9,207.9c0-2.3,1.3-4.1,2.9-4.1s2.9,1.8,2.9,4.1c0,1.1-0.3,2.1-0.8,2.9c-0.5,0.7-1.3,1.2-2.1,1.2
			c-0.8,0-1.6-0.5-2.1-1.3C105.1,210,104.9,209,104.9,207.9z M109.7,207.9c0-1.9-0.9-3.3-2-3.3s-2,1.4-2,3.3c0,1.9,0.8,3.3,2,3.3
			C108.8,211.2,109.7,209.8,109.7,207.9z"/>
		<path fill="#808B96" d="M111.9,207h0.9v0.5c0.3-0.5,0.7-0.7,1.2-0.7c0.6,0,1.1,0.3,1.4,0.8c0.3-0.5,0.8-0.8,1.5-0.8
			c0.6,0,1.1,0.3,1.3,0.7c0.2,0.3,0.3,0.7,0.3,1.3v3.2h-0.9v-3c0-0.9-0.3-1.3-0.9-1.3c-0.7,0-1.1,0.5-1.1,1.6v2.8h-0.9v-3
			c0-0.9-0.3-1.4-0.9-1.4c-0.4,0-0.7,0.2-0.9,0.5c-0.1,0.2-0.2,0.6-0.2,1.1v2.7h-0.9L111.9,207L111.9,207z"/>
		<path fill="#808B96" d="M120.1,207h0.9v0.5c0.3-0.5,0.7-0.7,1.2-0.7c0.6,0,1.1,0.3,1.4,0.8c0.3-0.5,0.8-0.8,1.5-0.8
			c0.6,0,1.1,0.3,1.3,0.7c0.2,0.3,0.3,0.7,0.3,1.3v3.2h-0.9v-3c0-0.9-0.3-1.3-0.9-1.3c-0.7,0-1.1,0.5-1.1,1.6v2.8H123v-3
			c0-0.9-0.3-1.4-0.9-1.4c-0.4,0-0.7,0.2-0.9,0.5c-0.1,0.2-0.2,0.6-0.2,1.1v2.7h-0.9V207z"/>
	</g>
	<g>
		<path fill="#566573" d="M183.4,104l3.6,7.9l3.7-7.9l1.4,9.9H191l-0.9-6.5l-3.2,6.9l-3.1-6.9l-0.9,6.5h-1.1L183.4,104z"/>
		<path fill="#566573" d="M193.8,105.8c0-0.4,0.3-0.7,0.7-0.7s0.7,0.3,0.7,0.7s-0.3,0.7-0.7,0.7S193.8,106.2,193.8,105.8z M194,108
			h1v5.8h-1V108z"/>
		<path fill="#566573" d="M201.5,113.4c-0.7,0.4-1.2,0.6-1.9,0.6c-1.7,0-3.1-1.3-3.1-3s1.3-3.1,3.1-3.1c0.7,0,1.2,0.2,1.8,0.5v1.3
			c-0.6-0.7-1.1-1-1.8-1c-1.1,0-2,0.9-2,2.1s0.9,2.1,2,2.1c0.7,0,1.2-0.3,1.9-1V113.4z"/>
		<path fill="#566573" d="M203,108h1v0.6c0.5-0.6,0.8-0.8,1.3-0.8c0.3,0,0.5,0.1,0.9,0.3l-0.5,0.9c-0.3-0.2-0.4-0.2-0.6-0.2
			c-0.4,0-0.8,0.2-0.9,0.5c-0.2,0.3-0.2,0.7-0.2,1.4v3.1h-1V108z"/>
		<path fill="#566573" d="M209.6,107.9c1.7,0,3.1,1.3,3.1,3.1c0,1.7-1.3,3.1-3.1,3.1c-1.7,0-3.1-1.4-3.1-3.1
			C206.5,109.2,207.9,107.9,209.6,107.9z M209.6,113.1c1.2,0,2.1-0.9,2.1-2.1s-0.9-2.1-2.1-2.1c-1.2,0-2,0.9-2,2.1
			C207.5,112.2,208.4,113.1,209.6,113.1z"/>
		<path fill="#566573" d="M215.2,117.1h-1V108h1v0.8c0.6-0.7,1.2-1,2-1c1.6,0,2.8,1.3,2.8,3.1c0,1.8-1.2,3-2.8,3c-0.8,0-1.5-0.3-2-1
			V117.1z M217.1,113.1c1.1,0,1.9-0.9,1.9-2.1c0-1.3-0.8-2.2-1.9-2.2c-1.1,0-1.9,0.9-1.9,2.2C215.1,112.2,215.9,113.1,217.1,113.1z"
			/>
		<path fill="#566573" d="M221.5,103.6h1v10.2h-1V103.6z"/>
		<path fill="#566573" d="M228.9,113c-0.6,0.7-1.2,1-2,1c-1.6,0-2.8-1.3-2.8-3.1c0-1.8,1.2-3,2.8-3c0.8,0,1.5,0.3,2,1V108h1v5.8h-1
			V113z M227,113.1c1.1,0,1.9-0.9,1.9-2.2c0-1.2-0.8-2.1-1.9-2.1c-1.1,0-1.9,0.9-1.9,2.1C225.1,112.2,225.9,113.1,227,113.1z"/>
		<path fill="#566573" d="M232.2,112.1c0.3,0.7,0.6,0.9,1.2,0.9c0.5,0,1-0.4,1-0.9c0-0.4-0.2-0.6-0.9-1c-1.3-0.6-1.7-0.9-1.7-1.7
			c0-0.9,0.7-1.6,1.7-1.6c0.7,0,1.2,0.3,1.6,1.1l-0.8,0.4c-0.2-0.4-0.5-0.6-0.8-0.6c-0.4,0-0.7,0.3-0.7,0.6c0,0.3,0.2,0.5,0.9,0.8
			s0.8,0.4,1.1,0.6c0.4,0.3,0.6,0.7,0.6,1.3c0,1.1-0.9,1.9-2,1.9c-1,0-1.7-0.5-2-1.5L232.2,112.1z"/>
		<path fill="#566573" d="M236.8,108.9h-0.6V108h0.6v-2.1h1v2.1h1v0.9h-1v4.9h-1V108.9z"/>
		<path fill="#566573" d="M239.5,105.8c0-0.4,0.3-0.7,0.7-0.7s0.7,0.3,0.7,0.7s-0.3,0.7-0.7,0.7S239.5,106.2,239.5,105.8z
			 M239.7,108h1v5.8h-1V108z"/>
		<path fill="#566573" d="M247.2,113.4c-0.7,0.4-1.2,0.6-1.9,0.6c-1.7,0-3.1-1.3-3.1-3s1.3-3.1,3.1-3.1c0.7,0,1.2,0.2,1.8,0.5v1.3
			c-0.6-0.7-1.1-1-1.8-1c-1.1,0-2,0.9-2,2.1s0.9,2.1,2,2.1c0.7,0,1.2-0.3,1.9-1V113.4z"/>
		<path fill="#566573" d="M249.2,112.1c0.3,0.7,0.6,0.9,1.2,0.9c0.5,0,1-0.4,1-0.9c0-0.4-0.2-0.6-0.9-1c-1.3-0.6-1.7-0.9-1.7-1.7
			c0-0.9,0.7-1.6,1.7-1.6c0.7,0,1.2,0.3,1.6,1.1l-0.8,0.4c-0.2-0.4-0.5-0.6-0.8-0.6c-0.4,0-0.7,0.3-0.7,0.6c0,0.3,0.2,0.5,0.9,0.8
			s0.8,0.4,1.1,0.6c0.4,0.3,0.6,0.7,0.6,1.3c0,1.1-0.9,1.9-2,1.9c-1,0-1.7-0.5-2-1.5L249.2,112.1z"/>
	</g>
	<g>
		<path fill="#566573" d="M183.4,163.7l3.6,7.9l3.7-7.9l1.4,9.9H191l-0.9-6.5L187,174l-3.1-6.9l-0.9,6.5h-1.1L183.4,163.7z"/>
		<path fill="#566573" d="M199.2,172.1c-0.6,1.1-1.5,1.7-2.7,1.7c-1.7,0-2.9-1.2-2.9-3s1.1-3.1,2.8-3.1s2.8,1.2,2.8,3.1v0.2h-4.5
			c0.1,1.2,0.8,2,1.8,2c0.8,0,1.2-0.3,1.8-1.2L199.2,172.1z M198.2,170c-0.2-0.9-0.9-1.5-1.7-1.5s-1.6,0.6-1.7,1.5H198.2z"/>
		<path fill="#566573" d="M201.2,171.9c0.3,0.7,0.6,0.9,1.2,0.9c0.5,0,1-0.4,1-0.9c0-0.4-0.2-0.6-0.9-1c-1.3-0.6-1.7-0.9-1.7-1.7
			c0-0.9,0.7-1.6,1.7-1.6c0.7,0,1.2,0.3,1.6,1.1l-0.8,0.4c-0.2-0.4-0.5-0.6-0.8-0.6c-0.4,0-0.7,0.3-0.7,0.6s0.2,0.5,0.9,0.8
			s0.8,0.4,1.1,0.6c0.4,0.3,0.6,0.7,0.6,1.3c0,1.1-0.9,1.9-2,1.9c-1,0-1.7-0.5-2-1.5L201.2,171.9z"/>
		<path fill="#566573" d="M208.3,167.6c1.7,0,3.1,1.3,3.1,3.1c0,1.7-1.3,3.1-3.1,3.1c-1.7,0-3.1-1.4-3.1-3.1
			C205.3,169,206.7,167.6,208.3,167.6z M208.3,172.8c1.2,0,2.1-0.9,2.1-2.1c0-1.2-0.9-2.1-2.1-2.1c-1.2,0-2,0.9-2,2.1
			C206.3,171.9,207.1,172.8,208.3,172.8z"/>
		<path fill="#566573" d="M213.9,176.9h-1v-9.1h1v0.8c0.6-0.7,1.2-1,2-1c1.6,0,2.8,1.3,2.8,3.1s-1.2,3-2.8,3c-0.8,0-1.5-0.3-2-1
			V176.9z M215.8,172.8c1.1,0,1.9-0.9,1.9-2.1c0-1.3-0.8-2.2-1.9-2.2c-1.1,0-1.9,0.9-1.9,2.2C213.9,171.9,214.7,172.8,215.8,172.8z"
			/>
		<path fill="#566573" d="M220.3,163.4h1v10.2h-1V163.4z"/>
		<path fill="#566573" d="M227.6,172.8c-0.6,0.7-1.2,1-2,1c-1.6,0-2.8-1.3-2.8-3.1s1.2-3,2.8-3c0.8,0,1.5,0.3,2,1v-0.8h1v5.8h-1
			V172.8z M225.7,172.8c1.1,0,1.9-0.9,1.9-2.2c0-1.2-0.8-2.1-1.9-2.1c-1.1,0-1.9,0.9-1.9,2.1C223.8,171.9,224.6,172.8,225.7,172.8z"
			/>
		<path fill="#566573" d="M230.9,171.9c0.3,0.7,0.6,0.9,1.2,0.9c0.5,0,1-0.4,1-0.9c0-0.4-0.2-0.6-0.9-1c-1.3-0.6-1.7-0.9-1.7-1.7
			c0-0.9,0.7-1.6,1.7-1.6c0.7,0,1.2,0.3,1.6,1.1l-0.8,0.4c-0.2-0.4-0.5-0.6-0.8-0.6c-0.4,0-0.7,0.3-0.7,0.6s0.2,0.5,0.9,0.8
			s0.8,0.4,1.1,0.6c0.4,0.3,0.6,0.7,0.6,1.3c0,1.1-0.9,1.9-2,1.9c-1,0-1.7-0.5-2-1.5L230.9,171.9z"/>
		<path fill="#566573" d="M235.5,168.7h-0.6v-0.9h0.6v-2.1h1v2.1h1v0.9h-1v4.9h-1V168.7z"/>
		<path fill="#566573" d="M238.3,165.5c0-0.4,0.3-0.7,0.7-0.7s0.7,0.3,0.7,0.7s-0.3,0.7-0.7,0.7C238.6,166.3,238.3,166,238.3,165.5z
			 M238.5,167.8h1v5.8h-1V167.8z"/>
		<path fill="#566573" d="M246,173.1c-0.7,0.4-1.2,0.6-1.9,0.6c-1.7,0-3.1-1.3-3.1-3s1.3-3.1,3.1-3.1c0.7,0,1.2,0.2,1.8,0.5v1.3
			c-0.6-0.7-1.1-1-1.8-1c-1.1,0-2,0.9-2,2.1c0,1.2,0.9,2.1,2,2.1c0.7,0,1.2-0.3,1.9-1V173.1z"/>
		<path fill="#566573" d="M247.9,171.9c0.3,0.7,0.6,0.9,1.2,0.9c0.5,0,1-0.4,1-0.9c0-0.4-0.2-0.6-0.9-1c-1.3-0.6-1.7-0.9-1.7-1.7
			c0-0.9,0.7-1.6,1.7-1.6c0.7,0,1.2,0.3,1.6,1.1l-0.8,0.4c-0.2-0.4-0.5-0.6-0.8-0.6c-0.4,0-0.7,0.3-0.7,0.6s0.2,0.5,0.9,0.8
			s0.8,0.4,1.1,0.6c0.4,0.3,0.6,0.7,0.6,1.3c0,1.1-0.9,1.9-2,1.9c-1,0-1.7-0.5-2-1.5L247.9,171.9z"/>
	</g>
	<g>
		<path fill="#566573" d="M183.4,205l3.6,7.9l3.7-7.9l1.4,9.9H191l-0.9-6.5l-3.2,6.9l-3.1-6.9l-0.9,6.5h-1.1L183.4,205z"/>
		<path fill="#566573" d="M198.5,214c-0.6,0.7-1.2,1-2,1c-1.6,0-2.8-1.3-2.8-3.1s1.2-3,2.8-3c0.8,0,1.5,0.3,2,1V209h1v5.8h-1V214z
			 M196.6,214.1c1.1,0,1.9-0.9,1.9-2.2c0-1.2-0.8-2.1-1.9-2.1c-1.1,0-1.9,0.9-1.9,2.1C194.7,213.2,195.5,214.1,196.6,214.1z"/>
		<path fill="#566573" d="M205.9,214.4c-0.7,0.4-1.2,0.6-1.9,0.6c-1.7,0-3.1-1.3-3.1-3s1.3-3.1,3.1-3.1c0.7,0,1.2,0.2,1.8,0.5v1.3
			c-0.6-0.7-1.1-1-1.8-1c-1.1,0-2,0.9-2,2.1c0,1.2,0.9,2.1,2,2.1c0.7,0,1.2-0.3,1.9-1V214.4z"/>
		<path fill="#566573" d="M207.4,209h1v0.6c0.5-0.6,0.8-0.8,1.3-0.8c0.3,0,0.5,0.1,0.9,0.3l-0.5,0.9c-0.3-0.2-0.4-0.2-0.6-0.2
			c-0.4,0-0.8,0.2-0.9,0.5c-0.2,0.3-0.2,0.7-0.2,1.4v3.1h-1V209z"/>
		<path fill="#566573" d="M214,208.9c1.7,0,3.1,1.3,3.1,3.1c0,1.7-1.3,3.1-3.1,3.1c-1.7,0-3.1-1.4-3.1-3.1
			C211,210.3,212.3,208.9,214,208.9z M214,214.1c1.2,0,2.1-0.9,2.1-2.1c0-1.2-0.9-2.1-2.1-2.1c-1.2,0-2,0.9-2,2.1
			C212,213.2,212.8,214.1,214,214.1z"/>
		<path fill="#566573" d="M219.6,218.1h-1V209h1v0.8c0.6-0.7,1.2-1,2-1c1.6,0,2.8,1.3,2.8,3.1s-1.2,3-2.8,3c-0.8,0-1.5-0.3-2-1
			V218.1z M221.5,214.1c1.1,0,1.9-0.9,1.9-2.1c0-1.3-0.8-2.2-1.9-2.2c-1.1,0-1.9,0.9-1.9,2.2C219.5,213.2,220.4,214.1,221.5,214.1z"
			/>
		<path fill="#566573" d="M226,204.6h1v10.2h-1V204.6z"/>
		<path fill="#566573" d="M233.3,214c-0.6,0.7-1.2,1-2,1c-1.6,0-2.8-1.3-2.8-3.1s1.2-3,2.8-3c0.8,0,1.5,0.3,2,1V209h1v5.8h-1V214z
			 M231.4,214.1c1.1,0,1.9-0.9,1.9-2.2c0-1.2-0.8-2.1-1.9-2.1c-1.1,0-1.9,0.9-1.9,2.1C229.5,213.2,230.3,214.1,231.4,214.1z"/>
		<path fill="#566573" d="M236.6,213.2c0.3,0.7,0.6,0.9,1.2,0.9c0.5,0,1-0.4,1-0.9c0-0.4-0.2-0.6-0.9-1c-1.3-0.6-1.7-0.9-1.7-1.7
			c0-0.9,0.7-1.6,1.7-1.6c0.7,0,1.2,0.3,1.6,1.1l-0.8,0.4c-0.2-0.4-0.5-0.6-0.8-0.6c-0.4,0-0.7,0.3-0.7,0.6s0.2,0.5,0.9,0.8
			s0.8,0.4,1.1,0.6c0.4,0.3,0.6,0.7,0.6,1.3c0,1.1-0.9,1.9-2,1.9c-1,0-1.7-0.5-2-1.5L236.6,213.2z"/>
		<path fill="#566573" d="M241.2,210h-0.6v-1h0.6v-2.1h1v2.1h1v0.9h-1v4.9h-1V210z"/>
		<path fill="#566573" d="M244,206.8c0-0.4,0.3-0.7,0.7-0.7s0.7,0.3,0.7,0.7s-0.3,0.7-0.7,0.7S244,207.2,244,206.8z M244.2,209h1
			v5.8h-1V209z"/>
		<path fill="#566573" d="M251.7,214.4c-0.7,0.4-1.2,0.6-1.9,0.6c-1.7,0-3.1-1.3-3.1-3s1.3-3.1,3.1-3.1c0.7,0,1.2,0.2,1.8,0.5v1.3
			c-0.6-0.7-1.1-1-1.8-1c-1.1,0-2,0.9-2,2.1c0,1.2,0.9,2.1,2,2.1c0.7,0,1.2-0.3,1.9-1V214.4z"/>
		<path fill="#566573" d="M253.6,213.2c0.3,0.7,0.6,0.9,1.2,0.9c0.5,0,1-0.4,1-0.9c0-0.4-0.2-0.6-0.9-1c-1.3-0.6-1.7-0.9-1.7-1.7
			c0-0.9,0.7-1.6,1.7-1.6c0.7,0,1.2,0.3,1.6,1.1l-0.8,0.4c-0.2-0.4-0.5-0.6-0.8-0.6c-0.4,0-0.7,0.3-0.7,0.6s0.2,0.5,0.9,0.8
			s0.8,0.4,1.1,0.6c0.4,0.3,0.6,0.7,0.6,1.3c0,1.1-0.9,1.9-2,1.9c-1,0-1.7-0.5-2-1.5L253.6,213.2z"/>
	</g>
	<g>
		<path fill="#C0C5CA" d="M267.3,149.9h-2v-1h2V149.9z M263.3,149.9h-2v-1h2V149.9z M259.3,149.9h-2v-1h2V149.9z M255.3,149.9h-2v-1
			h2V149.9z M251.3,149.9h-2v-1h2V149.9z M247.3,149.9h-2v-1h2V149.9z M243.3,149.9h-2v-1h2V149.9z M239.3,149.9h-2v-1h2V149.9z
			 M235.3,149.9h-2v-1h2V149.9z M231.3,149.9h-2v-1h2V149.9z M227.3,149.9h-2v-1h2V149.9z M223.3,149.9h-2v-1h2V149.9z M219.3,149.9
			h-2v-1h2V149.9z M215.3,149.9h-2v-1h2V149.9z M211.3,149.9h-2v-1h2V149.9z M207.3,149.9h-2v-1h2V149.9z M203.3,149.9h-2v-1h2
			V149.9z M199.3,149.9h-2v-1h2V149.9z M195.3,149.9h-2v-1h2V149.9z M191.3,149.9h-2v-1h2V149.9z M187.3,149.9h-2v-1h2V149.9z
			 M183.3,149.9h-2v-1h2V149.9z M179.3,149.9h-2v-1h2V149.9z M175.3,149.9h-2v-1h2V149.9z M171.3,149.9h-2v-1h2V149.9z M167.3,149.9
			h-2v-1h2V149.9z M163.3,149.9h-2v-1h2V149.9z M159.3,149.9h-2v-1h2V149.9z M155.3,149.9h-2v-1h2V149.9z M151.3,149.9h-2v-1h2
			V149.9z M147.3,149.9h-2v-1h2V149.9z M143.3,149.9h-2v-1h2V149.9z M139.3,149.9h-2v-1h2V149.9z M135.3,149.9h-2v-1h2V149.9z
			 M131.3,149.9h-2v-1h2V149.9z M127.3,149.9h-2v-1h2V149.9z M123.3,149.9h-2v-1h2V149.9z M119.3,149.9h-2v-1h2V149.9z M115.3,149.9
			h-2v-1h2V149.9z M111.3,149.9h-2v-1h2V149.9z M107.3,149.9h-2v-1h2V149.9z M103.3,149.9h-2v-1h2V149.9z M99.3,149.9h-2v-1h2V149.9
			z M95.3,149.9h-2v-1h2V149.9z M91.3,149.9h-2v-1h2V149.9z M87.3,149.9h-2v-1h2V149.9z M83.3,149.9h-2v-1h2V149.9z M79.3,149.9h-2
			v-1h2V149.9z M75.3,149.9h-2v-1h2V149.9z M71.3,149.9h-2v-1h2V149.9z M67.3,149.9h-2v-1h2V149.9z M63.3,149.9h-2v-1h2V149.9z
			 M59.3,149.9h-2v-1h2V149.9z M55.3,149.9h-2v-1h2V149.9z M51.3,149.9h-2v-1h2V149.9z M47.3,149.9h-2v-1h2V149.9z M43.3,149.9h-2
			v-1h2V149.9z M39.3,149.9h-2v-1h2V149.9z M35.3,149.9h-2v-1h2V149.9z"/>
	</g>
	<g>
		<path fill="#C0C5CA" d="M267.3,189.2h-2v-1h2V189.2z M263.3,189.2h-2v-1h2V189.2z M259.3,189.2h-2v-1h2V189.2z M255.3,189.2h-2v-1
			h2V189.2z M251.3,189.2h-2v-1h2V189.2z M247.3,189.2h-2v-1h2V189.2z M243.3,189.2h-2v-1h2V189.2z M239.3,189.2h-2v-1h2V189.2z
			 M235.3,189.2h-2v-1h2V189.2z M231.3,189.2h-2v-1h2V189.2z M227.3,189.2h-2v-1h2V189.2z M223.3,189.2h-2v-1h2V189.2z M219.3,189.2
			h-2v-1h2V189.2z M215.3,189.2h-2v-1h2V189.2z M211.3,189.2h-2v-1h2V189.2z M207.3,189.2h-2v-1h2V189.2z M203.3,189.2h-2v-1h2
			V189.2z M199.3,189.2h-2v-1h2V189.2z M195.3,189.2h-2v-1h2V189.2z M191.3,189.2h-2v-1h2V189.2z M187.3,189.2h-2v-1h2V189.2z
			 M183.3,189.2h-2v-1h2V189.2z M179.3,189.2h-2v-1h2V189.2z M175.3,189.2h-2v-1h2V189.2z M171.3,189.2h-2v-1h2V189.2z M167.3,189.2
			h-2v-1h2V189.2z M163.3,189.2h-2v-1h2V189.2z M159.3,189.2h-2v-1h2V189.2z M155.3,189.2h-2v-1h2V189.2z M151.3,189.2h-2v-1h2
			V189.2z M147.3,189.2h-2v-1h2V189.2z M143.3,189.2h-2v-1h2V189.2z M139.3,189.2h-2v-1h2V189.2z M135.3,189.2h-2v-1h2V189.2z
			 M131.3,189.2h-2v-1h2V189.2z M127.3,189.2h-2v-1h2V189.2z M123.3,189.2h-2v-1h2V189.2z M119.3,189.2h-2v-1h2V189.2z M115.3,189.2
			h-2v-1h2V189.2z M111.3,189.2h-2v-1h2V189.2z M107.3,189.2h-2v-1h2V189.2z M103.3,189.2h-2v-1h2V189.2z M99.3,189.2h-2v-1h2V189.2
			z M95.3,189.2h-2v-1h2V189.2z M91.3,189.2h-2v-1h2V189.2z M87.3,189.2h-2v-1h2V189.2z M83.3,189.2h-2v-1h2V189.2z M79.3,189.2h-2
			v-1h2V189.2z M75.3,189.2h-2v-1h2V189.2z M71.3,189.2h-2v-1h2V189.2z M67.3,189.2h-2v-1h2V189.2z M63.3,189.2h-2v-1h2V189.2z
			 M59.3,189.2h-2v-1h2V189.2z M55.3,189.2h-2v-1h2V189.2z M51.3,189.2h-2v-1h2V189.2z M47.3,189.2h-2v-1h2V189.2z M43.3,189.2h-2
			v-1h2V189.2z M39.3,189.2h-2v-1h2V189.2z M35.3,189.2h-2v-1h2V189.2z"/>
	</g>
</g>
</svg>
