<?xml version="1.0" encoding="utf-8"?>
<!-- Generator: Adobe Illustrator 17.1.0, SVG Export Plug-In . SVG Version: 6.00 Build 0)  -->
<!DOCTYPE svg PUBLIC "-//W3C//DTD SVG 1.1//EN" "http://www.w3.org/Graphics/SVG/1.1/DTD/svg11.dtd">
<svg version="1.1" id="Layer_1" xmlns="http://www.w3.org/2000/svg" xmlns:xlink="http://www.w3.org/1999/xlink" x="0px" y="0px"
	 viewBox="83.1 116.1 133.9 68.8" enable-background="new 83.1 116.1 133.9 68.8" xml:space="preserve">
<g>
	<g opacity="0.2">
		<polygon fill="#24D1ED" points="195.2,131.3 194.5,122.4 179.5,131.3 		"/>
	</g>
	<g opacity="0.2">
		<path fill="#24D1ED" d="M139.4,163c1.5,0.9,25.4,13,25.4,13l2.4,8.9h-60.6l-8.8-9.5L139.4,163z"/>
	</g>
	<g opacity="0.2">
		<polygon fill="#24D1ED" points="140.4,145.8 133.3,116.1 102,130.3 102.7,136.6 119.4,141.1 136,147.8 		"/>
	</g>
	<g opacity="0.2">
		<polygon fill="#24D1ED" points="130.2,160.7 130.4,165.3 127.6,169.7 98.2,158.4 98.5,155.2 86.5,150.2 86.6,149.1 		"/>
	</g>
	<g opacity="0.4">
		<polygon fill="#24D1ED" points="83.8,131.9 133.5,157.8 133.9,160.6 85,137.8 83.1,134.6 		"/>
	</g>
	<g opacity="0.2">
		<path fill="#24D1ED" d="M158.5,121.8c-8.9-0.1-16.2,7.1-16.3,16s7.1,16.2,16,16.3s16.2-7.1,16.3-16
			C174.6,129.2,167.4,121.9,158.5,121.8z M158.3,145.3c-4.1,0-7.3-3.3-7.3-7.4c0-4.1,3.3-7.3,7.4-7.3c4.1,0,7.3,3.3,7.3,7.4
			C165.7,142.1,162.4,145.3,158.3,145.3z"/>
	</g>
	<g opacity="0.4">
		<polygon fill="#24D1ED" points="182,145.8 187.4,150.5 178.1,179.4 166.2,183.2 138.9,166.3 150.9,147.7 168.2,152.2 		"/>
	</g>
	<g opacity="0.2">
		<polygon fill="#24D1ED" points="193.4,156.5 203.3,164.2 203.6,184.9 171.4,184.9 165.4,173.9 		"/>
	</g>
	<g opacity="0.2">
		<g>
			<path fill="#24D1ED" d="M211,172.8c-3.3,0-6.1,2.7-6.1,6s2.7,6.1,6,6.1s6.1-2.7,6.1-6S214.4,172.9,211,172.8z M210.9,183.6
				c-2.6,0-4.7-2.1-4.7-4.7s2.1-4.7,4.7-4.7c2.6,0,4.7,2.1,4.7,4.7S213.5,183.6,210.9,183.6z"/>
		</g>
	</g>
	<g opacity="0.4">
		<path fill="#24D1ED" d="M132.3,140.6c-0.1,1-1.1,10.6-1.1,10.6l-2.3,0.4l-9.4-14l1-4.3l5.5-1.1L132.3,140.6z"/>
	</g>
	<g opacity="0.4">
		<path fill="#24D1ED" d="M207.9,176.6c-0.4-0.5-4.5-5.2-4.5-5.2L202,172l0.2,10.9l2.1,1.9l3.3-1.5L207.9,176.6z"/>
	</g>
	<g opacity="0.4">
		<path fill="#24D1ED" d="M179.9,145.2c-2,0.7-19.4,5-19.4,5l-3.6,8.7l18.4,15.1l11.3-6.1l5.4-13L179.9,145.2z"/>
	</g>
</g>
</svg>
