<?xml version="1.0" encoding="utf-8"?>
<!-- Generator: Adobe Illustrator 18.1.0, SVG Export Plug-In . SVG Version: 6.00 Build 0)  -->
<svg version="1.1" xmlns="http://www.w3.org/2000/svg" xmlns:xlink="http://www.w3.org/1999/xlink" x="0px" y="0px"
	 viewBox="0 0 680 200.7" enable-background="new 0 0 680 200.7" xml:space="preserve">
<g id="Layer_1">
	<g id="_x34_">
		<rect x="574.1" y="129.1" opacity="0.6" fill="#69747A" width="13.6" height="9.2"/>
		<line fill="none" stroke="#CDD1D3" stroke-miterlimit="10" x1="99.5" y1="189.7" x2="569.7" y2="189.7"/>
		<line fill="none" stroke="#CDD1D3" stroke-miterlimit="10" x1="370.9" y1="139.3" x2="370.9" y2="164.6"/>
		<line fill="none" stroke="#CDD1D3" stroke-miterlimit="10" x1="499.1" y1="139.3" x2="499.1" y2="164.6"/>
		<g>
			
				<line fill="none" stroke="#BBBBBB" stroke-width="0.5371" stroke-linejoin="round" stroke-miterlimit="10" x1="105.1" y1="137.2" x2="569.1" y2="137.2"/>
		</g>
		<path fill="none" stroke="#E6E8E9" stroke-linejoin="round" stroke-miterlimit="10" d="M105,110.4h464.2 M105,83.8h464.2
			 M105,57.2h464.2"/>
		
			<line fill="none" stroke="#69747A" stroke-width="2" stroke-linejoin="round" stroke-miterlimit="10" x1="101.7" y1="137.3" x2="569.1" y2="137.3"/>
		
			<line fill="none" stroke="#37464D" stroke-width="1.4921" stroke-linecap="round" stroke-linejoin="round" stroke-miterlimit="10" x1="81" y1="108.2" x2="94.6" y2="108.2"/>
		<g>
			
				<path fill="none" stroke="#37464D" stroke-width="1.4921" stroke-linecap="round" stroke-linejoin="round" stroke-miterlimit="10" d="
				M102.6,137.3c10.3-5.3,10.7-13.2,30.8-16c20.1-2.8,57.2,0.2,89.7-0.7c32.5-0.9,76.9-2.9,105.1-4.6c28.2-1.8,45.7-3.8,64.1-6.1
				c18.4-2.3,30.8-2.9,46.1-7.5c15.4-4.6,34.2-15.1,46.1-20c11.8-4.8,18-6.3,25.6-9.2c7.7-2.9,10.7-6.6,20.5-8.5
				c9.8-1.9,25.6-1.9,38.4-2.8"/>
			<path opacity="0.6" fill="#69747A" d="M102.6,137.3c7.9-0.1,15.4-0.4,30.8-0.5c20.1-0.2,57.2-0.2,89.7-0.5
				c32.5-0.3,76.9-0.5,105.1-1.6c28.2-1,45.7-3.6,64.1-4.7c15.6-1,33.1,3.4,46.1-2.2c15.4-6.6,34.2-28.2,46.1-37.2
				c11.3-8.4,18.4-14.4,25.6-16.5c6.9-2,11.6,0.9,20.5,3c9.8,2.3,25.2,9.1,38.4,11l0,49"/>
		</g>
		<g>
			<circle fill="#69747A" cx="161.3" cy="189.7" r="8"/>
			<circle fill="#69747A" cx="227.9" cy="189.7" r="8"/>
			<circle fill="#69747A" cx="364.2" cy="189.7" r="8"/>
			<circle fill="#0589D1" cx="406.4" cy="189.7" r="8"/>
			<circle fill="#69747A" cx="443.3" cy="189.7" r="7.5"/>
			<circle fill="#69747A" cx="486.5" cy="189.7" r="7.5"/>
			<circle fill="#69747A" cx="566.3" cy="189.7" r="7.5"/>
			<circle fill="#69747A" cx="540.7" cy="189.7" r="7.5"/>
			<circle fill="#69747A" cx="102.8" cy="189.7" r="7.5"/>
			<circle fill="#69747A" cx="514.7" cy="189.7" r="7.5"/>
		</g>
		<g>
			<line fill="none" stroke="#0589D1" stroke-width="2" stroke-miterlimit="10" x1="405.6" y1="136.3" x2="405.6" y2="58.6"/>
			<path fill="#0589D1" d="M416.9,45.1c-1.2-0.5-2.5-0.6-3.7-0.4l-0.4-1.2h1.9c0.2,0,0.4-0.2,0.4-0.4c0-0.2-0.2-0.4-0.4-0.4h-2.2
				l-0.1-0.4h2.4c0.2,0,0.4-0.2,0.4-0.4c0.1,0,0.1,0,0.1,0.1c0.4,0.2,0.5,0.3,0.8,0.3s0.5-0.8,0.4-1.2c-0.1-0.4,0.1-0.5-0.4-0.5
				c-0.5,0-3.1-0.3-3.8-0.4c-0.6-0.1-0.9-1.6-0.9-2.7c-0.1-1-0.2-1.4-0.2-1.4c0,0.1,0.6,0.6,0.8,0.7c0.2,0.1,1.4-0.8,1.8-1.2
				c0.4-0.4,0.4-0.4,0.4-0.4l0.3,0.1c0,0,0.6-2-0.5-2.9s-3.6-0.9-4.6-0.6c-0.9,0.3-0.8,0.3-0.8,0.3l1.1,1.2l-0.1,0.1
				c0,0-1.2-1-3.7-0.7c-1.7,0.2-4,1.1-5.4,2.8c-1.4,1.7-0.9,2.8-0.6,3.3c0.1,0.2,0.2,0.4,0.5,0.6h-1.9c-0.2,0-0.4,0.2-0.4,0.4v0
				c0,0.2,0.1,0.3,0.3,0.4c0.2,0,0.5,0.1,0.8,0.1l1.7,4.4l-0.8,1c-0.9-0.6-2-0.9-3.2-0.9c-3.5,0-6.3,2.8-6.3,6.3
				c0,3.5,2.8,6.3,6.3,6.3c2.3,0,4.2-1.2,5.3-3c0.4,0.2,2,0.5,2.5,0.6c0.5,0.1,0.7-0.3,0.8-0.5c0.1-0.2-0.6-0.5-1.2-0.9
				c-0.1-0.1-0.2-0.3-0.3-0.5c0.2,0,0.3,0.1,0.5,0.1c1.1,0,1.9-0.9,1.9-1.9c0-0.4-0.1-0.7-0.3-1l5.6-5.9l0.3,1
				c-1.5,0.6-2.7,1.8-3.4,3.4c-1.4,3.2,0.2,6.9,3.4,8.2c3.2,1.4,6.9-0.2,8.2-3.4C421.6,50.1,420.1,46.4,416.9,45.1z M406.3,47.9
				c-0.4-0.5-0.8-1.2-0.8-1.5c0-0.7,0.5-1.7,1.1-2.5c0,0,0.1-0.1,0.1-0.1l3.8-0.2L406.3,47.9z M402.7,43.1l-1.5,0.1l-1.2-3.1
				c0.2,0,0.6-0.1,1-0.2C401.6,40.8,402.3,42.1,402.7,43.1z M401.5,44l1.6-0.1c0.1,0.2,0.2,0.4,0.2,0.5c0.2,0.6-0.4,1.4-0.8,2.3
				L401.5,44z M404.4,49.1c0,0-0.1,0-0.1,0c0.1-0.3,0.1-0.6,0.2-1c0.3,0.2,0.7,0.5,1,0.7l-0.4,0.4C404.8,49.1,404.6,49.1,404.4,49.1
				z M409.1,37.1c0,0,0.7,2.4,1.3,3.5c0.1,0.1,0.2,0.3,0.2,0.4l0.5,1.6l-3.7,0.2c0.8-1,1.9-2.2,1.9-2.6c0-0.6,0-1-0.4-1.3
				c-0.4-0.4-3-1.9-3-1.9S409,37.1,409.1,37.1z M406.4,40.3c0,0-0.6,0.4-1.1,1.4c-0.1-0.5-0.2-1-0.3-1.4
				C406.1,40.3,406.4,40.3,406.4,40.3z M400.7,45.9l0.4-0.6l0.6,1.6C401.4,46.6,401.1,46.3,400.7,45.9z M415.1,45.9l-0.7,2.5
				l-0.8-2.5C414.1,45.8,414.6,45.8,415.1,45.9z M409.7,48.9c0.5-1.2,1.5-2.1,2.6-2.7l1.4,4.2l-4.3,1.2
				C409.3,50.7,409.4,49.8,409.7,48.9z M412.4,55.5c-1.3-0.5-2.2-1.5-2.7-2.7l4.5-1.2l3.3,3.3C416.1,56,414.2,56.3,412.4,55.5z
				 M419.1,52.8c-0.2,0.4-0.4,0.8-0.6,1.1l-3.3-3.3l0,0l0,0l1.2-4.5c0,0,0,0,0.1,0C419,47.3,420.2,50.3,419.1,52.8z"/>
			<g>
				<path fill="#0589D1" d="M358.4,43.3V33.2l-2.1,1.9v-1.3l2.1-1.8h1.2v11.4H358.4z"/>
				<path fill="#0589D1" d="M364,34.5v-2.6h1.4v1.3L364,34.5z"/>
				<path fill="#0589D1" d="M371,43.4c-1.8,0-3.1-1.2-3.1-3.1v-5.3c0-1.9,1.3-3.1,3.1-3.1c1.8,0,3.1,1.2,3.1,3.1v5.3
					C374.1,42.1,372.8,43.4,371,43.4z M373,35c0-1.2-0.7-2.2-2-2.2s-2,0.9-2,2.2v5.2c0,1.2,0.7,2.2,2,2.2s2-0.9,2-2.2V35z"/>
				<path fill="#0589D1" d="M379.4,43.4c-1.8,0-3.1-1.2-3.1-3.1v-5.3c0-1.9,1.3-3.1,3.1-3.1c1.8,0,3.1,1.2,3.1,3.1v5.3
					C382.5,42.1,381.1,43.4,379.4,43.4z M381.3,35c0-1.2-0.7-2.2-2-2.2s-2,0.9-2,2.2v5.2c0,1.2,0.7,2.2,2,2.2s2-0.9,2-2.2V35z"/>
				<path fill="#0589D1" d="M385,34.5v-2.6h1.4v1.3L385,34.5z M387.7,34.5v-2.6h1.4v1.3L387.7,34.5z"/>
			</g>
		</g>
	</g>
</g>
<g id="Layer_2">
	<g>
		<g>
			<path fill="#69747A" d="M68.6,84.7c-0.4,0.4-1,0.7-1.8,0.7c-0.8,0-1.5-0.3-1.9-0.7c-0.4-0.4-0.6-0.9-0.6-1.6h0.9
				c0.1,0.9,0.6,1.4,1.6,1.4c0.5,0,0.9-0.2,1.1-0.4c0.5-0.5,0.5-1.2,0.5-1.9c0-1.1-0.2-2.2-1.6-2.2c-0.8,0-1.4,0.4-1.5,0.9h-0.8
				v-4.9h4.7v0.8h-3.8v2.9c0.4-0.4,0.9-0.6,1.7-0.6c0.7,0,1.2,0.2,1.6,0.6c0.7,0.7,0.8,1.6,0.8,2.5C69.3,83.2,69.3,84.1,68.6,84.7z"
				/>
			<path fill="#69747A" d="M73.5,85.4c-1.5,0-2.5-1-2.5-2.5v-4.3c0-1.5,1.1-2.5,2.5-2.5c1.4,0,2.5,1,2.5,2.5v4.3
				C76,84.4,75,85.4,73.5,85.4z M75.1,78.6c0-1-0.6-1.8-1.6-1.8s-1.6,0.8-1.6,1.8v4.2c0,1,0.6,1.8,1.6,1.8s1.6-0.8,1.6-1.8V78.6z"/>
		</g>
		<g>
			<path fill="#69747A" d="M64.2,111.3v-0.8l3.7-4.6c0.4-0.5,0.5-0.9,0.5-1.4c0-1-0.6-1.7-1.6-1.7c-0.9,0-1.6,0.5-1.6,1.7h-0.9
				c0-1.5,1-2.5,2.5-2.5c1.5,0,2.5,1,2.5,2.5c0,0.7-0.2,1.2-0.7,1.9l-3.2,4.1h4v0.8H64.2z"/>
			<path fill="#69747A" d="M75.4,110.7c-0.4,0.4-1,0.7-1.8,0.7c-0.8,0-1.5-0.3-1.9-0.7c-0.4-0.4-0.6-0.9-0.6-1.6H72
				c0.1,0.9,0.6,1.4,1.6,1.4c0.5,0,0.9-0.2,1.1-0.4c0.5-0.5,0.5-1.2,0.5-1.9c0-1.1-0.2-2.2-1.6-2.2c-0.8,0-1.4,0.4-1.5,0.9h-0.8
				v-4.9h4.7v0.8h-3.8v2.9c0.4-0.4,0.9-0.6,1.7-0.6c0.7,0,1.2,0.2,1.6,0.6c0.7,0.7,0.8,1.6,0.8,2.5C76.1,109.2,76,110.1,75.4,110.7z
				"/>
		</g>
		<g>
			<path fill="#69747A" d="M73.5,140.4c-1.5,0-2.5-1-2.5-2.5v-4.3c0-1.5,1.1-2.5,2.5-2.5c1.4,0,2.5,1,2.5,2.5v4.3
				C76,139.4,75,140.4,73.5,140.4z M75.1,133.6c0-1-0.6-1.8-1.6-1.8c-1,0-1.6,0.8-1.6,1.8v4.2c0,1,0.6,1.8,1.6,1.8
				c1,0,1.6-0.8,1.6-1.8V133.6z"/>
		</g>
		<g>
			<path fill="#69747A" d="M595.2,87.5v-7.6l-1.6,1.4v-1l1.6-1.4h0.9v8.5H595.2z"/>
			<path fill="#69747A" d="M601.6,87.6c-1.5,0-2.4-1-2.4-2.5c0-0.6,0.2-1.2,0.5-1.9l2.1-4.2h0.9l-1.9,3.8c0.3-0.1,0.6-0.2,0.9-0.2
				c1.3,0,2.2,1,2.2,2.4C603.9,86.5,603,87.6,601.6,87.6z M601.6,83.3c-0.9,0-1.5,0.7-1.5,1.7c0,1,0.6,1.7,1.5,1.7s1.5-0.7,1.5-1.7
				C603.1,84.1,602.5,83.3,601.6,83.3z"/>
			<path fill="#69747A" d="M607.8,87.6c-1.3,0-2.3-0.9-2.3-2.4v-4c0-1.4,1-2.4,2.3-2.4c1.3,0,2.3,0.9,2.3,2.4v4
				C610.1,86.6,609.1,87.6,607.8,87.6z M609.3,81.3c0-0.9-0.5-1.6-1.5-1.6s-1.5,0.7-1.5,1.6v3.9c0,0.9,0.5,1.6,1.5,1.6
				s1.5-0.7,1.5-1.6V81.3z"/>
			<path fill="#69747A" d="M614.1,87.6c-1.3,0-2.3-0.9-2.3-2.4v-4c0-1.4,1-2.4,2.3-2.4c1.3,0,2.3,0.9,2.3,2.4v4
				C616.4,86.6,615.4,87.6,614.1,87.6z M615.5,81.3c0-0.9-0.5-1.6-1.5-1.6s-1.5,0.7-1.5,1.6v3.9c0,0.9,0.5,1.6,1.5,1.6
				s1.5-0.7,1.5-1.6V81.3z"/>
		</g>
		<g>
			<path fill="#69747A" d="M595.3,114.5c-1.4,0-2.5-1-2.5-2.4c0-1,0.6-1.7,1.3-2.1c-0.7-0.4-1.1-1-1.1-1.9c0-1.3,1-2.3,2.4-2.3
				c1.4,0,2.4,1,2.4,2.3c0,0.9-0.4,1.5-1.1,1.9c0.7,0.4,1.3,1.1,1.3,2.1C597.8,113.6,596.7,114.5,595.3,114.5z M595.3,110.4
				c-0.9,0-1.7,0.7-1.7,1.7c0,0.9,0.7,1.7,1.7,1.7s1.7-0.7,1.7-1.7C596.9,111.2,596.2,110.4,595.3,110.4z M595.3,106.6
				c-0.9,0-1.5,0.6-1.5,1.5c0,0.9,0.6,1.5,1.5,1.5c0.9,0,1.5-0.6,1.5-1.5C596.8,107.3,596.2,106.6,595.3,106.6z"/>
			<path fill="#69747A" d="M601.5,114.5c-1.3,0-2.3-0.9-2.3-2.4v-4c0-1.4,1-2.4,2.3-2.4c1.3,0,2.3,0.9,2.3,2.4v4
				C603.9,113.6,602.9,114.5,601.5,114.5z M603,108.3c0-0.9-0.5-1.6-1.5-1.6c-0.9,0-1.5,0.7-1.5,1.6v3.9c0,0.9,0.5,1.6,1.5,1.6
				c0.9,0,1.5-0.7,1.5-1.6V108.3z"/>
			<path fill="#69747A" d="M607.8,114.5c-1.3,0-2.3-0.9-2.3-2.4v-4c0-1.4,1-2.4,2.3-2.4c1.3,0,2.3,0.9,2.3,2.4v4
				C610.1,113.6,609.1,114.5,607.8,114.5z M609.3,108.3c0-0.9-0.5-1.6-1.5-1.6s-1.5,0.7-1.5,1.6v3.9c0,0.9,0.5,1.6,1.5,1.6
				s1.5-0.7,1.5-1.6V108.3z"/>
		</g>
		<g>
			<path fill="#69747A" d="M595.3,141.5c-1.3,0-2.3-0.9-2.3-2.4v-4c0-1.4,1-2.4,2.3-2.4c1.3,0,2.3,0.9,2.3,2.4v4
				C597.6,140.6,596.6,141.5,595.3,141.5z M596.8,135.3c0-0.9-0.5-1.6-1.5-1.6c-0.9,0-1.5,0.7-1.5,1.6v3.9c0,0.9,0.5,1.6,1.5,1.6
				c0.9,0,1.5-0.7,1.5-1.6V135.3z"/>
		</g>
		<g>
			<path fill="#69747A" d="M221.6,160v-10h1.1v9h5.1v1H221.6z"/>
			<path fill="#69747A" d="M233.3,160v-0.7c-0.5,0.5-1.1,0.7-2,0.7c-1,0-1.5-0.2-1.9-0.6c-0.4-0.3-0.5-0.9-0.5-1.4
				c0-1.2,0.9-2,2.4-2h2.1v-0.7c0-1-0.5-1.5-1.8-1.5c-0.9,0-1.3,0.2-1.7,0.8l-0.7-0.6c0.6-0.8,1.3-1,2.4-1c1.9,0,2.8,0.8,2.8,2.3
				v4.7H233.3z M233.3,156.8h-1.9c-1,0-1.6,0.4-1.6,1.2c0,0.8,0.5,1.2,1.6,1.2c0.6,0,1.1-0.1,1.5-0.5c0.2-0.2,0.4-0.6,0.4-1.2V156.8
				z"/>
			<path fill="#69747A" d="M241.4,159.4c-0.4,0.4-1,0.6-1.7,0.6c-0.8,0-1.4-0.2-1.9-0.9v3.9h-1v-10h1v0.8c0.6-0.7,1.2-0.9,1.9-0.9
				c0.7,0,1.3,0.2,1.7,0.6c0.7,0.7,0.8,1.8,0.8,2.9S242.1,158.7,241.4,159.4z M239.5,153.9c-1.5,0-1.7,1.3-1.7,2.6s0.2,2.6,1.7,2.6
				c1.5,0,1.7-1.3,1.7-2.6S241,153.9,239.5,153.9z"/>
			<path fill="#69747A" d="M250.2,160v-8.9l-1.9,1.6v-1.1l1.9-1.6h1v10H250.2z"/>
		</g>
		<g>
			<path fill="#69747A" d="M52.7,195v-10h6.2v1h-5.1v3.5h4.4v1h-4.4v3.6h5.1v1H52.7z"/>
			<path fill="#69747A" d="M63.2,195h-0.9l-2.5-6.9h1.1l1.9,5.5l1.9-5.5h1.1L63.2,195z"/>
			<path fill="#69747A" d="M67.7,191.8c0,1.5,0.7,2.4,2,2.4c0.8,0,1.3-0.2,1.8-0.8l0.7,0.6c-0.7,0.7-1.4,1.1-2.5,1.1
				c-1.8,0-3-1.1-3-3.5c0-2.2,1.1-3.5,2.8-3.5c1.8,0,2.8,1.3,2.8,3.3v0.4H67.7z M71.1,189.9c-0.3-0.6-0.9-1-1.6-1
				c-0.7,0-1.3,0.4-1.6,1c-0.2,0.4-0.2,0.6-0.2,1.1h3.7C71.3,190.5,71.3,190.2,71.1,189.9z"/>
			<path fill="#69747A" d="M78.9,195v-4.2c0-1.2-0.7-1.8-1.7-1.8s-1.7,0.6-1.7,1.8v4.2h-1v-6.9h1v0.8c0.5-0.6,1.2-0.8,1.9-0.8
				c0.7,0,1.3,0.2,1.8,0.6c0.5,0.5,0.7,1.1,0.7,1.9v4.4H78.9z"/>
			<path fill="#69747A" d="M84.2,195c-1.2,0-1.8-0.8-1.8-1.8v-4.3h-0.9v-0.8h0.9v-2.1h1v2.1H85v0.8h-1.5v4.2c0,0.6,0.3,1,0.9,1H85
				v0.9H84.2z"/>
			<path fill="#69747A" d="M89.1,195c-1.2,0-2.1-0.3-2.8-1l0.7-0.7c0.5,0.6,1.3,0.8,2.1,0.8c1.1,0,1.8-0.4,1.8-1.2
				c0-0.6-0.3-0.9-1.1-1l-1.1-0.1c-1.3-0.1-2.1-0.7-2.1-1.8c0-1.3,1.1-2,2.5-2c1,0,1.8,0.2,2.5,0.7l-0.7,0.7
				c-0.5-0.4-1.1-0.5-1.8-0.5c-1,0-1.5,0.4-1.5,1.1c0,0.6,0.4,0.9,1.2,1l1.1,0.1c1.2,0.1,2,0.6,2,1.9C91.9,194.3,90.7,195,89.1,195z
				"/>
		</g>
		<g>
			<path fill="#69747A" d="M423.3,160v-10h1.1v9h5.1v1H423.3z"/>
			<path fill="#69747A" d="M435,160v-0.7c-0.5,0.5-1.1,0.7-2,0.7c-1,0-1.5-0.2-1.9-0.6c-0.4-0.3-0.5-0.9-0.5-1.4c0-1.2,0.9-2,2.4-2
				h2.1v-0.7c0-1-0.5-1.5-1.8-1.5c-0.9,0-1.3,0.2-1.7,0.8l-0.7-0.6c0.6-0.8,1.3-1,2.4-1c1.9,0,2.8,0.8,2.8,2.3v4.7H435z M435,156.8
				h-1.9c-1,0-1.6,0.4-1.6,1.2c0,0.8,0.5,1.2,1.6,1.2c0.6,0,1.1-0.1,1.5-0.5c0.2-0.2,0.4-0.6,0.4-1.2V156.8z"/>
			<path fill="#69747A" d="M443.1,159.4c-0.4,0.4-1,0.6-1.7,0.6c-0.8,0-1.4-0.2-1.9-0.9v3.9h-1v-10h1v0.8c0.6-0.7,1.2-0.9,1.9-0.9
				c0.7,0,1.3,0.2,1.7,0.6c0.7,0.7,0.8,1.8,0.8,2.9S443.8,158.7,443.1,159.4z M441.2,153.9c-1.5,0-1.7,1.3-1.7,2.6s0.2,2.6,1.7,2.6
				c1.5,0,1.7-1.3,1.7-2.6S442.7,153.9,441.2,153.9z"/>
			<path fill="#69747A" d="M449.3,160v-0.9l3.9-5c0.4-0.5,0.6-0.9,0.6-1.5c0-1.1-0.6-1.8-1.7-1.8c-0.9,0-1.7,0.5-1.7,1.8h-1
				c0-1.6,1.1-2.7,2.7-2.7c1.6,0,2.7,1.1,2.7,2.7c0,0.8-0.3,1.3-0.8,2l-3.5,4.5h4.3v0.9H449.3z"/>
		</g>
		<g>
			<path fill="#69747A" d="M521.8,160v-10h1.1v9h5.1v1H521.8z"/>
			<path fill="#69747A" d="M533.5,160v-0.7c-0.5,0.5-1.1,0.7-2,0.7c-1,0-1.5-0.2-1.9-0.6c-0.4-0.3-0.5-0.9-0.5-1.4
				c0-1.2,0.9-2,2.4-2h2.1v-0.7c0-1-0.5-1.5-1.8-1.5c-0.9,0-1.3,0.2-1.7,0.8l-0.7-0.6c0.6-0.8,1.3-1,2.4-1c1.9,0,2.8,0.8,2.8,2.3
				v4.7H533.5z M533.5,156.8h-1.9c-1,0-1.6,0.4-1.6,1.2c0,0.8,0.5,1.2,1.6,1.2c0.6,0,1.1-0.1,1.5-0.5c0.2-0.2,0.4-0.6,0.4-1.2V156.8
				z"/>
			<path fill="#69747A" d="M541.6,159.4c-0.4,0.4-1,0.6-1.7,0.6c-0.8,0-1.4-0.2-1.9-0.9v3.9h-1v-10h1v0.8c0.6-0.7,1.2-0.9,1.9-0.9
				c0.7,0,1.3,0.2,1.7,0.6c0.7,0.7,0.8,1.8,0.8,2.9S542.3,158.7,541.6,159.4z M539.7,153.9c-1.5,0-1.7,1.3-1.7,2.6s0.2,2.6,1.7,2.6
				c1.5,0,1.7-1.3,1.7-2.6S541.2,153.9,539.7,153.9z"/>
			<path fill="#69747A" d="M550.4,160.1c-1.6,0-2.8-0.8-2.9-2.6h1c0.1,1.2,1,1.7,1.9,1.7c1.1,0,1.9-0.7,1.9-1.9c0-1.2-0.6-1.9-2-1.9
				h-0.2v-0.9h0.2c1.2,0,1.8-0.7,1.8-1.8c0-1.2-0.8-1.8-1.7-1.8c-1.1,0-1.7,0.6-1.8,1.7h-1c0.1-1.6,1.3-2.6,2.8-2.6
				c1.6,0,2.7,1.1,2.7,2.7c0,1.1-0.4,1.8-1.3,2.2c1,0.4,1.5,1.2,1.5,2.4C553.3,159.1,552,160.1,550.4,160.1z"/>
		</g>
		<g>
			<path fill="#69747A" d="M593,60.5v-0.8l3.4-4.3c0.3-0.4,0.5-0.8,0.5-1.3c0-0.9-0.6-1.5-1.5-1.5c-0.8,0-1.5,0.4-1.5,1.5H593
				c0-1.3,0.9-2.3,2.4-2.3c1.4,0,2.4,0.9,2.4,2.3c0,0.7-0.2,1.1-0.7,1.7l-3,3.8h3.7v0.8H593z"/>
			<path fill="#69747A" d="M603.1,59.1v1.4h-0.9v-1.4h-3.4v-0.8L602,52h0.9l-3.1,6.4h2.5v-2.4h0.9v2.4h1v0.8H603.1z"/>
			<path fill="#69747A" d="M607.8,60.6c-1.3,0-2.3-0.9-2.3-2.4v-4c0-1.4,1-2.4,2.3-2.4c1.3,0,2.3,0.9,2.3,2.4v4
				C610.1,59.6,609.1,60.6,607.8,60.6z M609.3,54.3c0-0.9-0.5-1.6-1.5-1.6s-1.5,0.7-1.5,1.6v3.9c0,0.9,0.5,1.6,1.5,1.6
				s1.5-0.7,1.5-1.6V54.3z"/>
			<path fill="#69747A" d="M614.1,60.6c-1.3,0-2.3-0.9-2.3-2.4v-4c0-1.4,1-2.4,2.3-2.4c1.3,0,2.3,0.9,2.3,2.4v4
				C616.4,59.6,615.4,60.6,614.1,60.6z M615.5,54.3c0-0.9-0.5-1.6-1.5-1.6s-1.5,0.7-1.5,1.6v3.9c0,0.9,0.5,1.6,1.5,1.6
				s1.5-0.7,1.5-1.6V54.3z"/>
		</g>
		<g>
			<path fill="#69747A" d="M66.2,61.4h-1l3.2-8.4h-3.2v1.5h-0.9v-2.3h5.1v0.8L66.2,61.4z"/>
			<path fill="#69747A" d="M75.4,60.8c-0.4,0.4-1,0.7-1.8,0.7c-0.8,0-1.5-0.3-1.9-0.7c-0.4-0.4-0.6-0.9-0.6-1.6H72
				c0.1,0.9,0.6,1.4,1.6,1.4c0.5,0,0.9-0.2,1.1-0.4c0.5-0.5,0.5-1.2,0.5-1.9c0-1.1-0.2-2.2-1.6-2.2c-0.8,0-1.4,0.4-1.5,0.9h-0.8
				v-4.9h4.7v0.8h-3.8v2.9c0.4-0.4,0.9-0.6,1.7-0.6c0.7,0,1.2,0.2,1.6,0.6c0.7,0.7,0.8,1.6,0.8,2.5C76.1,59.2,76,60.1,75.4,60.8z"/>
		</g>
		<g>
			<path fill="#69747A" d="M602.5,158.1h-1l-2.2-8l-2.2,8h-1l-2.5-10h1.1l1.9,8l2.2-8h1l2.2,8l1.9-8h1.1L602.5,158.1z"/>
			<path fill="#69747A" d="M610,158.1v-0.7c-0.5,0.5-1.1,0.7-2,0.7c-1,0-1.5-0.2-1.9-0.6c-0.4-0.3-0.5-0.9-0.5-1.4
				c0-1.2,0.9-2,2.4-2h2.1v-0.7c0-1-0.5-1.5-1.8-1.5c-0.9,0-1.3,0.2-1.7,0.8l-0.7-0.6c0.6-0.8,1.3-1,2.4-1c1.9,0,2.8,0.8,2.8,2.3
				v4.7H610z M610,154.9h-1.9c-1,0-1.6,0.4-1.6,1.2c0,0.8,0.5,1.2,1.6,1.2c0.6,0,1.1-0.1,1.5-0.5c0.2-0.2,0.3-0.6,0.3-1.2V154.9z"/>
			<path fill="#69747A" d="M615.4,158.1c-1.2,0-1.8-0.8-1.8-1.8v-4.3h-0.9v-0.8h0.9v-2.1h1v2.1h1.5v0.8h-1.5v4.2c0,0.6,0.3,1,0.9,1
				h0.5v0.9H615.4z"/>
			<path fill="#69747A" d="M620,158.1c-1.2,0-1.8-0.8-1.8-1.8v-4.3h-0.9v-0.8h0.9v-2.1h1v2.1h1.5v0.8h-1.5v4.2c0,0.6,0.3,1,0.9,1
				h0.5v0.9H620z"/>
		</g>
		<g>
			<path fill="#69747A" d="M597.5,36.2h-2.6v4.1h-1.1v-10h3.7c1.8,0,3.1,1.1,3.1,2.9C600.5,35.1,599.3,36.2,597.5,36.2z M597.4,31.3
				h-2.6v4h2.6c1.2,0,2.1-0.7,2.1-2C599.5,32,598.6,31.3,597.4,31.3z"/>
			<path fill="#69747A" d="M606.7,39.6c-0.5,0.5-1.1,0.8-2,0.8c-0.8,0-1.5-0.3-2-0.8c-0.7-0.7-0.8-1.7-0.8-2.7s0.1-2,0.8-2.7
				c0.5-0.5,1.1-0.8,2-0.8c0.8,0,1.5,0.3,2,0.8c0.7,0.7,0.8,1.7,0.8,2.7S607.4,38.9,606.7,39.6z M606,34.8c-0.3-0.3-0.8-0.5-1.3-0.5
				s-0.9,0.2-1.2,0.5c-0.5,0.5-0.6,1.3-0.6,2.1c0,0.8,0,1.6,0.6,2.1c0.3,0.3,0.8,0.5,1.2,0.5s0.9-0.2,1.3-0.5
				c0.5-0.5,0.5-1.4,0.5-2.1C606.5,36.1,606.5,35.3,606,34.8z"/>
			<path fill="#69747A" d="M616.1,40.3h-0.9l-1.8-5.4l-1.8,5.4h-0.9l-2.2-6.9h1.1l1.6,5.5l1.8-5.5h0.9l1.8,5.5l1.6-5.5h1.1
				L616.1,40.3z"/>
			<path fill="#69747A" d="M620.2,37.2c0,1.5,0.7,2.4,2,2.4c0.8,0,1.3-0.2,1.8-0.8l0.7,0.6c-0.7,0.7-1.4,1.1-2.5,1.1
				c-1.8,0-3-1.1-3-3.5c0-2.2,1.1-3.5,2.8-3.5c1.8,0,2.8,1.3,2.8,3.3v0.4H620.2z M623.6,35.3c-0.3-0.6-0.9-1-1.6-1
				c-0.7,0-1.3,0.4-1.6,1c-0.2,0.4-0.2,0.6-0.2,1.1h3.7C623.8,35.9,623.8,35.6,623.6,35.3z"/>
			<path fill="#69747A" d="M630.8,34.8c-0.4-0.4-0.7-0.5-1.2-0.5c-1,0-1.7,0.8-1.7,1.8v4.2h-1v-6.9h1v0.8c0.4-0.6,1.1-0.9,1.9-0.9
				c0.7,0,1.2,0.2,1.7,0.6L630.8,34.8z"/>
		</g>
		<g>
			<path fill="#69747A" d="M50.2,158.1l-2.2-3.5l-1.3,1.5v2h-1v-10h1v6.7l3.1-3.6H51l-2.3,2.6l2.7,4.3H50.2z"/>
			<path fill="#69747A" d="M62,158.1v-4.2c0-1.2-0.7-1.8-1.7-1.8c-1,0-1.7,0.6-1.7,1.7v4.4h-1v-4.2c0-1.2-0.7-1.8-1.7-1.8
				s-1.7,0.6-1.7,1.8v4.2h-1v-6.9h1v0.8c0.5-0.6,1.2-0.8,1.9-0.8c1,0,1.7,0.4,2.1,1.1c0.5-0.8,1.3-1.1,2.3-1.1
				c0.7,0,1.4,0.2,1.8,0.6c0.5,0.5,0.7,1.1,0.7,1.9v4.4H62z"/>
			<path fill="#69747A" d="M65.2,159.1h-1l4-12h1L65.2,159.1z"/>
			<path fill="#69747A" d="M74.8,158.1v-4.3c0-1.2-0.6-1.8-1.7-1.8s-1.7,0.6-1.7,1.8v4.3h-1v-10h1v3.8c0.5-0.6,1.1-0.8,1.9-0.8
				c1.6,0,2.5,1,2.5,2.5v4.4H74.8z"/>
		</g>
		<g>
			<path fill="#69747A" d="M41.8,40.4c-1.5,0-2.5-0.4-3.4-1.3l0.7-0.7c0.8,0.8,1.6,1.1,2.7,1.1c1.5,0,2.4-0.7,2.4-1.8
				c0-0.5-0.2-1-0.5-1.2c-0.3-0.3-0.6-0.4-1.3-0.5l-1.2-0.2c-0.8-0.1-1.4-0.4-1.8-0.8c-0.5-0.4-0.8-1.1-0.8-1.9
				c0-1.7,1.2-2.8,3.2-2.8c1.3,0,2.1,0.3,3,1.1l-0.7,0.7c-0.6-0.6-1.3-0.9-2.3-0.9c-1.3,0-2.1,0.7-2.1,1.9c0,0.5,0.1,0.9,0.4,1.2
				c0.3,0.3,0.8,0.4,1.3,0.5l1.2,0.2c0.9,0.1,1.4,0.3,1.8,0.7c0.5,0.5,0.8,1.1,0.8,2C45.2,39.4,43.9,40.4,41.8,40.4z"/>
			<path fill="#69747A" d="M51.9,39.8c-0.4,0.4-1,0.6-1.7,0.6c-0.8,0-1.4-0.2-1.9-0.9v3.9h-1v-10h1v0.8c0.6-0.7,1.2-0.9,1.9-0.9
				c0.7,0,1.3,0.2,1.7,0.6c0.7,0.7,0.8,1.8,0.8,2.9S52.6,39.1,51.9,39.8z M50,34.3c-1.5,0-1.7,1.3-1.7,2.6s0.2,2.6,1.7,2.6
				c1.5,0,1.7-1.3,1.7-2.6S51.5,34.3,50,34.3z"/>
			<path fill="#69747A" d="M55.5,37.2c0,1.5,0.7,2.4,2,2.4c0.8,0,1.3-0.2,1.8-0.8l0.7,0.6c-0.7,0.7-1.4,1.1-2.5,1.1
				c-1.8,0-3-1.1-3-3.5c0-2.2,1.1-3.5,2.8-3.5c1.8,0,2.8,1.3,2.8,3.3v0.4H55.5z M59,35.3c-0.3-0.6-0.9-1-1.6-1c-0.7,0-1.3,0.4-1.6,1
				c-0.2,0.4-0.2,0.6-0.2,1.1h3.7C59.2,35.9,59.1,35.6,59,35.3z"/>
			<path fill="#69747A" d="M63,37.2c0,1.5,0.7,2.4,2,2.4c0.8,0,1.3-0.2,1.8-0.8l0.7,0.6c-0.7,0.7-1.4,1.1-2.5,1.1
				c-1.8,0-3-1.1-3-3.5c0-2.2,1.1-3.5,2.8-3.5c1.8,0,2.8,1.3,2.8,3.3v0.4H63z M66.4,35.3c-0.3-0.6-0.9-1-1.6-1c-0.7,0-1.3,0.4-1.6,1
				C63,35.6,63,35.9,63,36.4h3.7C66.6,35.9,66.6,35.6,66.4,35.3z"/>
			<path fill="#69747A" d="M73.9,40.3v-0.8c-0.6,0.7-1.2,0.9-2,0.9c-0.7,0-1.3-0.2-1.7-0.6c-0.7-0.7-0.8-1.8-0.8-2.9
				s0.2-2.2,0.8-2.9c0.4-0.4,1-0.6,1.7-0.6c0.8,0,1.4,0.2,1.9,0.9v-3.9h1v10H73.9z M72.1,34.3c-1.5,0-1.7,1.3-1.7,2.6
				s0.2,2.6,1.7,2.6c1.5,0,1.7-1.3,1.7-2.6S73.6,34.3,72.1,34.3z"/>
		</g>
	</g>
</g>
</svg>
