<?xml version="1.0" encoding="utf-8"?>
<!-- Generator: Adobe Illustrator 18.1.0, SVG Export Plug-In . SVG Version: 6.00 Build 0)  -->
<svg version="1.1" id="Layer_1" xmlns="http://www.w3.org/2000/svg" xmlns:xlink="http://www.w3.org/1999/xlink" x="0px" y="0px"
	 viewBox="0 0 680 170" enable-background="new 0 0 680 170" xml:space="preserve">
<g id="_x32_">
	<line fill="none" stroke="#CDD1D3" stroke-miterlimit="10" x1="99.5" y1="159" x2="569.7" y2="159"/>
	<g>
		<path fill="#69747A" d="M632.4,58.4h-2.6v4.1h-1.1v-10h3.7c1.8,0,3.1,1.1,3.1,2.9C635.5,57.2,634.2,58.4,632.4,58.4z M632.3,53.5
			h-2.6v4h2.6c1.2,0,2.1-0.7,2.1-2C634.4,54.1,633.6,53.5,632.3,53.5z"/>
		<path fill="#69747A" d="M643,61.6c-0.6,0.6-1.4,1-2.5,1c-1,0-1.9-0.4-2.5-1c-0.9-0.9-1-1.8-1-4.1s0.1-3.2,1-4.1
			c0.6-0.6,1.5-1,2.5-1c1,0,1.9,0.4,2.5,1c0.9,0.9,1,1.8,1,4.1S644,60.7,643,61.6z M642.3,54.1c-0.5-0.5-1.1-0.7-1.7-0.7
			c-0.7,0-1.3,0.2-1.7,0.7c-0.6,0.6-0.7,1.4-0.7,3.4s0.1,2.8,0.7,3.4c0.5,0.5,1.1,0.7,1.7,0.7c0.7,0,1.3-0.2,1.7-0.7
			c0.6-0.6,0.7-1.4,0.7-3.4S642.9,54.7,642.3,54.1z"/>
		<path fill="#69747A" d="M654.2,62.5h-1l-2.2-8l-2.2,8h-1l-2.5-10h1.1l1.9,8l2.2-8h1l2.2,8l1.9-8h1.1L654.2,62.5z"/>
		<path fill="#69747A" d="M658.4,62.5v-10h6.2v1h-5.1V57h4.4v1h-4.4v3.6h5.1v1H658.4z"/>
		<path fill="#69747A" d="M672.5,62.5l-2.3-4.4h-2.4v4.4h-1.1v-10h3.8c1.7,0,3,1.1,3,2.8c0,1.5-0.9,2.4-2.2,2.7l2.4,4.5H672.5z
			 M670.5,53.5h-2.7v3.7h2.7c1.2,0,2-0.6,2-1.8S671.7,53.5,670.5,53.5z"/>
		<path fill="#69747A" d="M636.5,79.3h-1l-2.2-8l-2.2,8h-1l-2.5-10h1.1l1.9,8l2.2-8h1l2.2,8l1.9-8h1.1L636.5,79.3z"/>
		<path fill="#69747A" d="M644,79.3v-0.7c-0.5,0.5-1.1,0.7-2,0.7c-1,0-1.5-0.2-1.9-0.6c-0.4-0.3-0.5-0.9-0.5-1.4c0-1.2,0.9-2,2.4-2
			h2.1v-0.7c0-1-0.5-1.5-1.8-1.5c-0.9,0-1.3,0.2-1.7,0.8l-0.7-0.6c0.6-0.8,1.3-1,2.4-1c1.9,0,2.8,0.8,2.8,2.3v4.7H644z M644,76.1
			h-1.9c-1,0-1.6,0.4-1.6,1.2c0,0.8,0.5,1.2,1.6,1.2c0.6,0,1.1-0.1,1.5-0.5c0.2-0.2,0.3-0.6,0.3-1.2V76.1z"/>
		<path fill="#69747A" d="M649.4,79.3c-1.2,0-1.8-0.8-1.8-1.8v-4.3h-0.9v-0.8h0.9v-2.1h1v2.1h1.5v0.8h-1.5v4.2c0,0.6,0.3,1,0.9,1
			h0.5v0.9H649.4z"/>
		<path fill="#69747A" d="M654,79.3c-1.2,0-1.8-0.8-1.8-1.8v-4.3h-0.9v-0.8h0.9v-2.1h1v2.1h1.5v0.8h-1.5v4.2c0,0.6,0.3,1,0.9,1h0.5
			v0.9H654z"/>
	</g>
	<g>
		<path fill="#69747A" d="M9.3,62.6c-1.5,0-2.5-0.4-3.4-1.3l0.7-0.7c0.8,0.8,1.6,1.1,2.7,1.1c1.5,0,2.4-0.7,2.4-1.8
			c0-0.5-0.2-1-0.5-1.2c-0.3-0.3-0.6-0.4-1.3-0.5l-1.2-0.2c-0.8-0.1-1.4-0.4-1.8-0.8c-0.5-0.4-0.8-1.1-0.8-1.9
			c0-1.7,1.2-2.8,3.2-2.8c1.3,0,2.1,0.3,3,1.1l-0.7,0.7c-0.6-0.6-1.3-0.9-2.3-0.9c-1.3,0-2.1,0.7-2.1,1.9c0,0.5,0.1,0.9,0.4,1.2
			C8,56.6,8.4,56.8,9,56.9l1.2,0.2c0.9,0.1,1.4,0.3,1.8,0.7c0.5,0.5,0.8,1.1,0.8,2C12.8,61.5,11.4,62.6,9.3,62.6z"/>
		<path fill="#69747A" d="M19.5,62c-0.4,0.4-1,0.6-1.7,0.6c-0.8,0-1.4-0.2-1.9-0.9v3.9h-1v-10h1v0.8c0.6-0.7,1.2-0.9,1.9-0.9
			c0.7,0,1.3,0.2,1.7,0.6c0.7,0.7,0.8,1.8,0.8,2.9S20.1,61.3,19.5,62z M17.6,56.4c-1.5,0-1.7,1.3-1.7,2.6s0.2,2.6,1.7,2.6
			c1.5,0,1.7-1.3,1.7-2.6S19.1,56.4,17.6,56.4z"/>
		<path fill="#69747A" d="M23.1,59.3c0,1.5,0.7,2.4,2,2.4c0.8,0,1.3-0.2,1.8-0.8l0.7,0.6c-0.7,0.7-1.4,1.1-2.5,1.1
			c-1.8,0-3-1.1-3-3.5c0-2.2,1.1-3.5,2.8-3.5c1.8,0,2.8,1.3,2.8,3.3v0.4H23.1z M26.5,57.4c-0.3-0.6-0.9-1-1.6-1
			c-0.7,0-1.3,0.4-1.6,1c-0.2,0.4-0.2,0.6-0.2,1.1h3.7C26.7,58,26.7,57.8,26.5,57.4z"/>
		<path fill="#69747A" d="M30.5,59.3c0,1.5,0.7,2.4,2,2.4c0.8,0,1.3-0.2,1.8-0.8l0.7,0.6c-0.7,0.7-1.4,1.1-2.5,1.1
			c-1.8,0-3-1.1-3-3.5c0-2.2,1.1-3.5,2.8-3.5c1.8,0,2.8,1.3,2.8,3.3v0.4H30.5z M33.9,57.4c-0.3-0.6-0.9-1-1.6-1
			c-0.7,0-1.3,0.4-1.6,1c-0.2,0.4-0.2,0.6-0.2,1.1h3.7C34.1,58,34.1,57.8,33.9,57.4z"/>
		<path fill="#69747A" d="M41.4,62.5v-0.8c-0.6,0.7-1.2,0.9-2,0.9c-0.7,0-1.3-0.2-1.7-0.6c-0.7-0.7-0.8-1.8-0.8-2.9s0.2-2.2,0.8-2.9
			c0.4-0.4,1-0.6,1.7-0.6c0.8,0,1.4,0.2,1.9,0.9v-3.9h1v10H41.4z M39.7,56.4c-1.5,0-1.7,1.3-1.7,2.6s0.2,2.6,1.7,2.6
			c1.5,0,1.7-1.3,1.7-2.6S41.2,56.4,39.7,56.4z"/>
		<path fill="#69747A" d="M16.8,79.3l-2.2-3.5l-1.3,1.5v2h-1v-10h1V76l3.1-3.6h1.3L15.3,75l2.7,4.3H16.8z"/>
		<path fill="#69747A" d="M28.6,79.3v-4.2c0-1.2-0.7-1.8-1.7-1.8c-1,0-1.7,0.6-1.7,1.7v4.4h-1v-4.2c0-1.2-0.7-1.8-1.7-1.8
			s-1.7,0.6-1.7,1.8v4.2h-1v-6.9h1v0.8c0.5-0.6,1.2-0.8,1.9-0.8c1,0,1.7,0.4,2.1,1.1c0.5-0.8,1.3-1.1,2.3-1.1c0.7,0,1.4,0.2,1.8,0.6
			c0.5,0.5,0.7,1.1,0.7,1.9v4.4H28.6z"/>
		<path fill="#69747A" d="M31.8,80.3h-1l4-12h1L31.8,80.3z"/>
		<path fill="#69747A" d="M41.5,79.3V75c0-1.2-0.6-1.8-1.7-1.8s-1.7,0.6-1.7,1.8v4.3h-1v-10h1v3.8c0.5-0.6,1.1-0.8,1.9-0.8
			c1.6,0,2.5,1,2.5,2.5v4.4H41.5z"/>
	</g>
	<g>
		<path fill="#69747A" d="M68.6,54.1c-0.4,0.4-1,0.7-1.8,0.7c-0.8,0-1.5-0.3-1.9-0.7c-0.4-0.4-0.6-0.9-0.6-1.6h0.9
			c0.1,0.9,0.6,1.4,1.6,1.4c0.5,0,0.9-0.2,1.1-0.4c0.5-0.5,0.5-1.2,0.5-1.9c0-1.1-0.2-2.2-1.6-2.2c-0.8,0-1.4,0.4-1.5,0.9h-0.8v-4.9
			h4.7v0.8h-3.8v2.9c0.4-0.4,0.9-0.6,1.7-0.6c0.7,0,1.2,0.2,1.6,0.6c0.7,0.7,0.8,1.6,0.8,2.5C69.3,52.5,69.3,53.4,68.6,54.1z"/>
		<path fill="#69747A" d="M73.5,54.8c-1.5,0-2.5-1-2.5-2.5v-4.3c0-1.5,1.1-2.5,2.5-2.5c1.4,0,2.5,1,2.5,2.5v4.3
			C76,53.7,75,54.8,73.5,54.8z M75.1,47.9c0-1-0.6-1.8-1.6-1.8s-1.6,0.8-1.6,1.8v4.2c0,1,0.6,1.8,1.6,1.8s1.6-0.8,1.6-1.8V47.9z"/>
	</g>
	<g>
		<path fill="#69747A" d="M64.2,80.7v-0.8l3.7-4.6c0.4-0.5,0.5-0.9,0.5-1.4c0-1-0.6-1.7-1.6-1.7c-0.9,0-1.6,0.5-1.6,1.7h-0.9
			c0-1.5,1-2.5,2.5-2.5c1.5,0,2.5,1,2.5,2.5c0,0.7-0.2,1.2-0.7,1.9l-3.2,4.1h4v0.8H64.2z"/>
		<path fill="#69747A" d="M75.4,80.1c-0.4,0.4-1,0.7-1.8,0.7c-0.8,0-1.5-0.3-1.9-0.7c-0.4-0.4-0.6-0.9-0.6-1.6H72
			c0.1,0.9,0.6,1.4,1.6,1.4c0.5,0,0.9-0.2,1.1-0.4c0.5-0.5,0.5-1.2,0.5-1.9c0-1.1-0.2-2.2-1.6-2.2c-0.8,0-1.4,0.4-1.5,0.9h-0.8v-4.9
			h4.7v0.8h-3.8v2.9c0.4-0.4,0.9-0.6,1.7-0.6c0.7,0,1.2,0.2,1.6,0.6c0.7,0.7,0.8,1.6,0.8,2.5C76.1,78.5,76,79.4,75.4,80.1z"/>
	</g>
	<g>
		<path fill="#69747A" d="M73.5,109.7c-1.5,0-2.5-1-2.5-2.5v-4.3c0-1.5,1.1-2.5,2.5-2.5c1.4,0,2.5,1,2.5,2.5v4.3
			C76,108.7,75,109.7,73.5,109.7z M75.1,102.9c0-1-0.6-1.8-1.6-1.8c-1,0-1.6,0.8-1.6,1.8v4.2c0,1,0.6,1.8,1.6,1.8
			c1,0,1.6-0.8,1.6-1.8V102.9z"/>
	</g>
	<g>
		<path fill="#69747A" d="M595.2,56.8v-7.6l-1.6,1.4v-1l1.6-1.4h0.9v8.5H595.2z"/>
		<path fill="#69747A" d="M601.6,56.9c-1.5,0-2.4-1-2.4-2.5c0-0.6,0.2-1.2,0.5-1.9l2.1-4.2h0.9l-1.9,3.8c0.3-0.1,0.6-0.2,0.9-0.2
			c1.3,0,2.2,1,2.2,2.4C603.9,55.8,603,56.9,601.6,56.9z M601.6,52.7c-0.9,0-1.5,0.7-1.5,1.7c0,1,0.6,1.7,1.5,1.7s1.5-0.7,1.5-1.7
			C603.1,53.5,602.5,52.7,601.6,52.7z"/>
		<path fill="#69747A" d="M607.8,56.9c-1.3,0-2.3-0.9-2.3-2.4v-4c0-1.4,1-2.4,2.3-2.4c1.3,0,2.3,0.9,2.3,2.4v4
			C610.1,56,609.1,56.9,607.8,56.9z M609.3,50.6c0-0.9-0.5-1.6-1.5-1.6s-1.5,0.7-1.5,1.6v3.9c0,0.9,0.5,1.6,1.5,1.6s1.5-0.7,1.5-1.6
			V50.6z"/>
		<path fill="#69747A" d="M614.1,56.9c-1.3,0-2.3-0.9-2.3-2.4v-4c0-1.4,1-2.4,2.3-2.4c1.3,0,2.3,0.9,2.3,2.4v4
			C616.4,56,615.4,56.9,614.1,56.9z M615.5,50.6c0-0.9-0.5-1.6-1.5-1.6s-1.5,0.7-1.5,1.6v3.9c0,0.9,0.5,1.6,1.5,1.6s1.5-0.7,1.5-1.6
			V50.6z"/>
	</g>
	<g>
		<path fill="#69747A" d="M595.3,83.9c-1.4,0-2.5-1-2.5-2.4c0-1,0.6-1.7,1.3-2.1c-0.7-0.4-1.1-1-1.1-1.9c0-1.3,1-2.3,2.4-2.3
			c1.4,0,2.4,1,2.4,2.3c0,0.9-0.4,1.5-1.1,1.9c0.7,0.4,1.3,1.1,1.3,2.1C597.8,82.9,596.7,83.9,595.3,83.9z M595.3,79.8
			c-0.9,0-1.7,0.7-1.7,1.7c0,0.9,0.7,1.7,1.7,1.7s1.7-0.7,1.7-1.7C596.9,80.5,596.2,79.8,595.3,79.8z M595.3,76
			c-0.9,0-1.5,0.6-1.5,1.5c0,0.9,0.6,1.5,1.5,1.5c0.9,0,1.5-0.6,1.5-1.5C596.8,76.6,596.2,76,595.3,76z"/>
		<path fill="#69747A" d="M601.5,83.9c-1.3,0-2.3-0.9-2.3-2.4v-4c0-1.4,1-2.4,2.3-2.4c1.3,0,2.3,0.9,2.3,2.4v4
			C603.9,82.9,602.9,83.9,601.5,83.9z M603,77.6c0-0.9-0.5-1.6-1.5-1.6c-0.9,0-1.5,0.7-1.5,1.6v3.9c0,0.9,0.5,1.6,1.5,1.6
			c0.9,0,1.5-0.7,1.5-1.6V77.6z"/>
		<path fill="#69747A" d="M607.8,83.9c-1.3,0-2.3-0.9-2.3-2.4v-4c0-1.4,1-2.4,2.3-2.4c1.3,0,2.3,0.9,2.3,2.4v4
			C610.1,82.9,609.1,83.9,607.8,83.9z M609.3,77.6c0-0.9-0.5-1.6-1.5-1.6s-1.5,0.7-1.5,1.6v3.9c0,0.9,0.5,1.6,1.5,1.6
			s1.5-0.7,1.5-1.6V77.6z"/>
	</g>
	<g>
		<path fill="#69747A" d="M595.3,110.9c-1.3,0-2.3-0.9-2.3-2.4v-4c0-1.4,1-2.4,2.3-2.4c1.3,0,2.3,0.9,2.3,2.4v4
			C597.6,109.9,596.6,110.9,595.3,110.9z M596.8,104.6c0-0.9-0.5-1.6-1.5-1.6c-0.9,0-1.5,0.7-1.5,1.6v3.9c0,0.9,0.5,1.6,1.5,1.6
			c0.9,0,1.5-0.7,1.5-1.6V104.6z"/>
	</g>
	<g>
		<path fill="#69747A" d="M221.6,127.3v-10h1.1v9h5.1v1H221.6z"/>
		<path fill="#69747A" d="M233.3,127.3v-0.7c-0.5,0.5-1.1,0.7-2,0.7c-1,0-1.5-0.2-1.9-0.6c-0.4-0.3-0.5-0.9-0.5-1.4
			c0-1.2,0.9-2,2.4-2h2.1v-0.7c0-1-0.5-1.5-1.8-1.5c-0.9,0-1.3,0.2-1.7,0.8l-0.7-0.6c0.6-0.8,1.3-1,2.4-1c1.9,0,2.8,0.8,2.8,2.3v4.7
			H233.3z M233.3,124.1h-1.9c-1,0-1.6,0.4-1.6,1.2c0,0.8,0.5,1.2,1.6,1.2c0.6,0,1.1-0.1,1.5-0.5c0.2-0.2,0.4-0.6,0.4-1.2V124.1z"/>
		<path fill="#69747A" d="M241.4,126.8c-0.4,0.4-1,0.6-1.7,0.6c-0.8,0-1.4-0.2-1.9-0.9v3.9h-1v-10h1v0.8c0.6-0.7,1.2-0.9,1.9-0.9
			c0.7,0,1.3,0.2,1.7,0.6c0.7,0.7,0.8,1.8,0.8,2.9S242.1,126.1,241.4,126.8z M239.5,121.2c-1.5,0-1.7,1.3-1.7,2.6s0.2,2.6,1.7,2.6
			c1.5,0,1.7-1.3,1.7-2.6S241,121.2,239.5,121.2z"/>
		<path fill="#69747A" d="M250.2,127.3v-8.9l-1.9,1.6v-1.1l1.9-1.6h1v10H250.2z"/>
	</g>
	<g>
		<path fill="#69747A" d="M52.7,164.3v-10h6.2v1h-5.1v3.5h4.4v1h-4.4v3.6h5.1v1H52.7z"/>
		<path fill="#69747A" d="M63.2,164.3h-0.9l-2.5-6.9h1.1l1.9,5.5l1.9-5.5h1.1L63.2,164.3z"/>
		<path fill="#69747A" d="M67.7,161.1c0,1.5,0.7,2.4,2,2.4c0.8,0,1.3-0.2,1.8-0.8l0.7,0.6c-0.7,0.7-1.4,1.1-2.5,1.1
			c-1.8,0-3-1.1-3-3.5c0-2.2,1.1-3.5,2.8-3.5c1.8,0,2.8,1.3,2.8,3.3v0.4H67.7z M71.1,159.2c-0.3-0.6-0.9-1-1.6-1
			c-0.7,0-1.3,0.4-1.6,1c-0.2,0.4-0.2,0.6-0.2,1.1h3.7C71.3,159.8,71.3,159.6,71.1,159.2z"/>
		<path fill="#69747A" d="M78.9,164.3V160c0-1.2-0.7-1.8-1.7-1.8s-1.7,0.6-1.7,1.8v4.2h-1v-6.9h1v0.8c0.5-0.6,1.2-0.8,1.9-0.8
			c0.7,0,1.3,0.2,1.8,0.6c0.5,0.5,0.7,1.1,0.7,1.9v4.4H78.9z"/>
		<path fill="#69747A" d="M84.2,164.3c-1.2,0-1.8-0.8-1.8-1.8v-4.3h-0.9v-0.8h0.9v-2.1h1v2.1H85v0.8h-1.5v4.2c0,0.6,0.3,1,0.9,1H85
			v0.9H84.2z"/>
		<path fill="#69747A" d="M89.1,164.4c-1.2,0-2.1-0.3-2.8-1l0.7-0.7c0.5,0.6,1.3,0.8,2.1,0.8c1.1,0,1.8-0.4,1.8-1.2
			c0-0.6-0.3-0.9-1.1-1l-1.1-0.1c-1.3-0.1-2.1-0.7-2.1-1.8c0-1.3,1.1-2,2.5-2c1,0,1.8,0.2,2.5,0.7l-0.7,0.7
			c-0.5-0.4-1.1-0.5-1.8-0.5c-1,0-1.5,0.4-1.5,1.1c0,0.6,0.4,0.9,1.2,1l1.1,0.1c1.2,0.1,2,0.6,2,1.9
			C91.9,163.6,90.7,164.4,89.1,164.4z"/>
	</g>
	<g>
		<path fill="#69747A" d="M423.3,127.3v-10h1.1v9h5.1v1H423.3z"/>
		<path fill="#69747A" d="M435,127.3v-0.7c-0.5,0.5-1.1,0.7-2,0.7c-1,0-1.5-0.2-1.9-0.6c-0.4-0.3-0.5-0.9-0.5-1.4c0-1.2,0.9-2,2.4-2
			h2.1v-0.7c0-1-0.5-1.5-1.8-1.5c-0.9,0-1.3,0.2-1.7,0.8l-0.7-0.6c0.6-0.8,1.3-1,2.4-1c1.9,0,2.8,0.8,2.8,2.3v4.7H435z M435,124.1
			h-1.9c-1,0-1.6,0.4-1.6,1.2c0,0.8,0.5,1.2,1.6,1.2c0.6,0,1.1-0.1,1.5-0.5c0.2-0.2,0.4-0.6,0.4-1.2V124.1z"/>
		<path fill="#69747A" d="M443.1,126.8c-0.4,0.4-1,0.6-1.7,0.6c-0.8,0-1.4-0.2-1.9-0.9v3.9h-1v-10h1v0.8c0.6-0.7,1.2-0.9,1.9-0.9
			c0.7,0,1.3,0.2,1.7,0.6c0.7,0.7,0.8,1.8,0.8,2.9S443.8,126.1,443.1,126.8z M441.2,121.2c-1.5,0-1.7,1.3-1.7,2.6s0.2,2.6,1.7,2.6
			c1.5,0,1.7-1.3,1.7-2.6S442.7,121.2,441.2,121.2z"/>
		<path fill="#69747A" d="M449.3,127.3v-0.9l3.9-5c0.4-0.5,0.6-0.9,0.6-1.5c0-1.1-0.6-1.8-1.7-1.8c-0.9,0-1.7,0.5-1.7,1.8h-1
			c0-1.6,1.1-2.7,2.7-2.7c1.6,0,2.7,1.1,2.7,2.7c0,0.8-0.3,1.3-0.8,2l-3.5,4.5h4.3v0.9H449.3z"/>
	</g>
	<g>
		<path fill="#69747A" d="M521.8,127.3v-10h1.1v9h5.1v1H521.8z"/>
		<path fill="#69747A" d="M533.5,127.3v-0.7c-0.5,0.5-1.1,0.7-2,0.7c-1,0-1.5-0.2-1.9-0.6c-0.4-0.3-0.5-0.9-0.5-1.4
			c0-1.2,0.9-2,2.4-2h2.1v-0.7c0-1-0.5-1.5-1.8-1.5c-0.9,0-1.3,0.2-1.7,0.8l-0.7-0.6c0.6-0.8,1.3-1,2.4-1c1.9,0,2.8,0.8,2.8,2.3v4.7
			H533.5z M533.5,124.1h-1.9c-1,0-1.6,0.4-1.6,1.2c0,0.8,0.5,1.2,1.6,1.2c0.6,0,1.1-0.1,1.5-0.5c0.2-0.2,0.4-0.6,0.4-1.2V124.1z"/>
		<path fill="#69747A" d="M541.6,126.8c-0.4,0.4-1,0.6-1.7,0.6c-0.8,0-1.4-0.2-1.9-0.9v3.9h-1v-10h1v0.8c0.6-0.7,1.2-0.9,1.9-0.9
			c0.7,0,1.3,0.2,1.7,0.6c0.7,0.7,0.8,1.8,0.8,2.9S542.3,126.1,541.6,126.8z M539.7,121.2c-1.5,0-1.7,1.3-1.7,2.6s0.2,2.6,1.7,2.6
			c1.5,0,1.7-1.3,1.7-2.6S541.2,121.2,539.7,121.2z"/>
		<path fill="#69747A" d="M550.4,127.4c-1.6,0-2.8-0.8-2.9-2.6h1c0.1,1.2,1,1.7,1.9,1.7c1.1,0,1.9-0.7,1.9-1.9c0-1.2-0.6-1.9-2-1.9
			h-0.2v-0.9h0.2c1.2,0,1.8-0.7,1.8-1.8c0-1.2-0.8-1.8-1.7-1.8c-1.1,0-1.7,0.6-1.8,1.7h-1c0.1-1.6,1.3-2.6,2.8-2.6
			c1.6,0,2.7,1.1,2.7,2.7c0,1.1-0.4,1.8-1.3,2.2c1,0.4,1.5,1.2,1.5,2.4C553.3,126.4,552,127.4,550.4,127.4z"/>
	</g>
	<g>
		<path fill="none" stroke="#BBBBBB" stroke-width="0.5371" stroke-linejoin="round" stroke-miterlimit="10" d="M593,12.6"/>
	</g>
	<line fill="none" stroke="#CDD1D3" stroke-miterlimit="10" x1="370.9" y1="108.6" x2="370.9" y2="133.9"/>
	<line fill="none" stroke="#CDD1D3" stroke-miterlimit="10" x1="499.1" y1="108.6" x2="499.1" y2="133.9"/>
	
		<line fill="none" stroke="#37464D" stroke-width="1.4921" stroke-linecap="round" stroke-linejoin="round" stroke-miterlimit="10" x1="2" y1="91.4" x2="43.7" y2="91.4"/>
	<rect x="624.9" y="86.6" opacity="0.6" fill="#69747A" width="48.1" height="9.6"/>
	<g>
		
			<line fill="none" stroke="#BBBBBB" stroke-width="0.5371" stroke-linejoin="round" stroke-miterlimit="10" x1="105.1" y1="106.6" x2="569.1" y2="106.6"/>
	</g>
	<path fill="none" stroke="#E6E8E9" stroke-linejoin="round" stroke-miterlimit="10" d="M105,79.8h464.2 M105,53.1h464.2 M105,26.5
		h464.2"/>
	
		<line fill="none" stroke="#69747A" stroke-width="2" stroke-linejoin="round" stroke-miterlimit="10" x1="101.7" y1="106.6" x2="569.1" y2="106.6"/>
	<line fill="none" stroke="#0589D1" stroke-width="2" stroke-miterlimit="10" x1="78" y1="90.5" x2="94.6" y2="90.5"/>
	<line fill="none" stroke="#0589D1" stroke-width="2" stroke-miterlimit="10" x1="574.1" y1="105.5" x2="584.5" y2="105.5"/>
	<g>
		<path fill="#69747A" d="M593,29.8v-0.8l3.4-4.3c0.3-0.4,0.5-0.8,0.5-1.3c0-0.9-0.6-1.5-1.5-1.5c-0.8,0-1.5,0.4-1.5,1.5H593
			c0-1.3,0.9-2.3,2.4-2.3c1.4,0,2.4,0.9,2.4,2.3c0,0.7-0.2,1.1-0.7,1.7l-3,3.8h3.7v0.8H593z"/>
		<path fill="#69747A" d="M603.1,28.5v1.4h-0.9v-1.4h-3.4v-0.8l3.1-6.4h0.9l-3.1,6.4h2.5v-2.4h0.9v2.4h1v0.8H603.1z"/>
		<path fill="#69747A" d="M607.8,29.9c-1.3,0-2.3-0.9-2.3-2.4v-4c0-1.4,1-2.4,2.3-2.4c1.3,0,2.3,0.9,2.3,2.4v4
			C610.1,29,609.1,29.9,607.8,29.9z M609.3,23.6c0-0.9-0.5-1.6-1.5-1.6s-1.5,0.7-1.5,1.6v3.9c0,0.9,0.5,1.6,1.5,1.6s1.5-0.7,1.5-1.6
			V23.6z"/>
		<path fill="#69747A" d="M614.1,29.9c-1.3,0-2.3-0.9-2.3-2.4v-4c0-1.4,1-2.4,2.3-2.4c1.3,0,2.3,0.9,2.3,2.4v4
			C616.4,29,615.4,29.9,614.1,29.9z M615.5,23.6c0-0.9-0.5-1.6-1.5-1.6s-1.5,0.7-1.5,1.6v3.9c0,0.9,0.5,1.6,1.5,1.6s1.5-0.7,1.5-1.6
			V23.6z"/>
	</g>
	<g>
		<path fill="#69747A" d="M66.2,30.7h-1l3.2-8.4h-3.2v1.5h-0.9v-2.3h5.1v0.8L66.2,30.7z"/>
		<path fill="#69747A" d="M75.4,30.1c-0.4,0.4-1,0.7-1.8,0.7c-0.8,0-1.5-0.3-1.9-0.7c-0.4-0.4-0.6-0.9-0.6-1.6H72
			c0.1,0.9,0.6,1.4,1.6,1.4c0.5,0,0.9-0.2,1.1-0.4c0.5-0.5,0.5-1.2,0.5-1.9c0-1.1-0.2-2.2-1.6-2.2c-0.8,0-1.4,0.4-1.5,0.9h-0.8v-4.9
			h4.7v0.8h-3.8v2.9c0.4-0.4,0.9-0.6,1.7-0.6c0.7,0,1.2,0.2,1.6,0.6c0.7,0.7,0.8,1.6,0.8,2.5C76.1,28.6,76,29.4,75.4,30.1z"/>
	</g>
	<g>
		
			<path fill="none" stroke="#37464D" stroke-width="1.4921" stroke-linecap="round" stroke-linejoin="round" stroke-miterlimit="10" d="
			M102.6,106.6c10.3-5.3,10.7-13.2,30.8-16c20.1-2.8,57.2,0.2,89.7-0.7C255.5,89,300,87,328.2,85.2c28.2-1.8,45.7-3.8,64.1-6.1
			c18.4-2.3,30.8-2.9,46.1-7.5c15.4-4.6,34.2-15.1,46.1-20c11.8-4.8,18-6.3,25.6-9.2c7.7-2.9,10.7-6.6,20.5-8.5
			c9.8-1.9,25.6-1.9,38.4-2.8"/>
		<path opacity="0.6" fill="#69747A" d="M102.6,106.6c7.9-0.1,15.4-0.4,30.8-0.5c20.1-0.2,57.2-0.2,89.7-0.5
			c32.5-0.3,76.9-0.5,105.1-1.6c28.2-1,45.7-3.6,64.1-4.7c15.6-1,33.1,3.4,46.1-2.2c15.4-6.6,34.2-28.2,46.1-37.2
			c11.3-8.4,18.4-14.4,25.6-16.5c6.9-2,11.6,0.9,20.5,3c9.8,2.3,25.2,9.1,38.4,11l0,49"/>
	</g>
	<g>
		<circle fill="#69747A" cx="161.3" cy="159" r="8"/>
		<circle fill="#0589D1" cx="227.9" cy="159" r="8"/>
		<circle fill="#69747A" cx="320.2" cy="159" r="8"/>
		<circle fill="#69747A" cx="406.4" cy="159" r="8"/>
		<circle fill="#69747A" cx="443.3" cy="159" r="7.5"/>
		<circle fill="#69747A" cx="486.5" cy="159" r="7.5"/>
		<circle fill="#69747A" cx="566.3" cy="159" r="7.5"/>
		<circle fill="#69747A" cx="540.7" cy="159" r="7.5"/>
		<circle fill="#69747A" cx="102.8" cy="159" r="7.5"/>
		<circle fill="#69747A" cx="514.7" cy="159" r="7.5"/>
	</g>
	<g>
		<line fill="none" stroke="#0589D1" stroke-width="2" stroke-miterlimit="10" x1="228.6" y1="105.6" x2="228.6" y2="28"/>
		<path fill="#0589D1" d="M239.9,14.4c-1.2-0.5-2.5-0.6-3.7-0.4l-0.4-1.2h1.9c0.2,0,0.4-0.2,0.4-0.4s-0.2-0.4-0.4-0.4h-2.2l-0.1-0.4
			h2.4c0.2,0,0.4-0.2,0.4-0.4c0.1,0,0.1,0,0.1,0.1c0.4,0.2,0.5,0.3,0.8,0.3s0.5-0.8,0.4-1.2c-0.1-0.4,0.1-0.5-0.4-0.5
			c-0.5,0-3.1-0.3-3.8-0.4c-0.6-0.1-0.9-1.6-0.9-2.7c-0.1-1-0.2-1.4-0.2-1.4c0,0.1,0.6,0.6,0.8,0.7c0.2,0.1,1.4-0.8,1.8-1.2
			s0.4-0.4,0.4-0.4l0.3,0.1c0,0,0.6-2-0.5-2.9s-3.6-0.9-4.6-0.6c-0.9,0.3-0.8,0.3-0.8,0.3l1.1,1.2l-0.1,0.1c0,0-1.2-1-3.7-0.7
			c-1.7,0.2-4,1.1-5.4,2.8c-1.4,1.7-0.9,2.8-0.6,3.3c0.1,0.2,0.2,0.4,0.5,0.6h-1.9c-0.2,0-0.4,0.2-0.4,0.4v0c0,0.2,0.1,0.3,0.3,0.4
			c0.2,0,0.5,0.1,0.8,0.1l1.7,4.4l-0.8,1c-0.9-0.6-2-0.9-3.2-0.9c-3.5,0-6.3,2.8-6.3,6.3c0,3.5,2.8,6.3,6.3,6.3c2.3,0,4.2-1.2,5.3-3
			c0.4,0.2,2,0.5,2.5,0.6c0.5,0.1,0.7-0.3,0.8-0.5c0.1-0.2-0.6-0.5-1.2-0.9c-0.1-0.1-0.2-0.3-0.3-0.5c0.2,0,0.3,0.1,0.5,0.1
			c1.1,0,1.9-0.9,1.9-1.9c0-0.4-0.1-0.7-0.3-1l5.6-5.9l0.3,1c-1.5,0.6-2.7,1.8-3.4,3.4c-1.4,3.2,0.2,6.9,3.4,8.2
			c3.2,1.4,6.9-0.2,8.2-3.4C244.6,19.5,243.1,15.8,239.9,14.4z M229.3,17.2c-0.4-0.5-0.8-1.2-0.8-1.5c0-0.7,0.5-1.7,1.1-2.5
			c0,0,0.1-0.1,0.1-0.1l3.8-0.2L229.3,17.2z M225.7,12.4l-1.5,0.1l-1.2-3.1c0.2,0,0.6-0.1,1-0.2C224.6,10.1,225.3,11.4,225.7,12.4z
			 M224.5,13.3l1.6-0.1c0.1,0.2,0.2,0.4,0.2,0.5c0.2,0.6-0.4,1.4-0.8,2.3L224.5,13.3z M227.4,18.4c0,0-0.1,0-0.1,0
			c0.1-0.3,0.1-0.6,0.2-1c0.3,0.2,0.7,0.5,1,0.7l-0.4,0.4C227.8,18.5,227.6,18.4,227.4,18.4z M232.1,6.5c0,0,0.7,2.4,1.3,3.5
			c0.1,0.1,0.2,0.3,0.2,0.4l0.5,1.6l-3.7,0.2c0.8-1,1.9-2.2,1.9-2.6c0-0.6,0-1-0.4-1.3c-0.4-0.4-3-1.9-3-1.9S232,6.5,232.1,6.5z
			 M229.4,9.7c0,0-0.6,0.4-1.1,1.4c-0.1-0.5-0.2-1-0.3-1.4C229.1,9.7,229.4,9.7,229.4,9.7z M223.7,15.3l0.4-0.6l0.6,1.6
			C224.4,15.9,224.1,15.6,223.7,15.3z M238.1,15.2l-0.7,2.5l-0.8-2.5C237.1,15.1,237.6,15.1,238.1,15.2z M232.7,18.2
			c0.5-1.2,1.5-2.1,2.6-2.7l1.4,4.2l-4.3,1.2C232.3,20,232.4,19.1,232.7,18.2z M235.4,24.9c-1.3-0.5-2.2-1.5-2.7-2.7l4.5-1.2
			l3.3,3.3C239.1,25.3,237.2,25.6,235.4,24.9z M242.1,22.2c-0.2,0.4-0.4,0.8-0.6,1.1l-3.3-3.3l0,0l0,0l1.2-4.5c0,0,0,0,0.1,0
			C242,16.6,243.2,19.6,242.1,22.2z"/>
		<g>
			<path fill="#0589D1" d="M190.9,12.6v-1l4.5-5.7c0.4-0.6,0.6-1.1,0.6-1.7c0-1.2-0.7-2-2-2c-1.1,0-2,0.6-2,2.1h-1.2
				c0-1.8,1.2-3.1,3.1-3.1c1.9,0,3.1,1.2,3.1,3.1c0,0.9-0.3,1.5-0.9,2.3l-4,5.1h4.9v1H190.9z"/>
			<path fill="#0589D1" d="M204.7,11.9c-0.5,0.5-1.3,0.8-2.3,0.8c-1,0-1.8-0.3-2.3-0.8c-0.5-0.5-0.7-1.2-0.8-2h1.2
				c0.1,1.1,0.7,1.8,1.9,1.8c0.6,0,1.1-0.2,1.4-0.5c0.6-0.6,0.6-1.5,0.6-2.3c0-1.4-0.3-2.8-1.9-2.8c-1,0-1.7,0.4-1.9,1.1h-1v-6h5.8
				v1h-4.7v3.6c0.4-0.5,1.2-0.8,2-0.8c0.8,0,1.5,0.3,2,0.7c0.8,0.8,0.9,2,0.9,3.1C205.6,10,205.5,11.1,204.7,11.9z"/>
			<path fill="#0589D1" d="M208,3.8V1.2h1.4v1.3L208,3.8z M210.7,3.8V1.2h1.4v1.3L210.7,3.8z"/>
		</g>
	</g>
</g>
</svg>
