<?xml version="1.0" encoding="utf-8"?>
<!-- Generator: Adobe Illustrator 18.1.0, SVG Export Plug-In . SVG Version: 6.00 Build 0)  -->
<svg version="1.1" xmlns="http://www.w3.org/2000/svg" xmlns:xlink="http://www.w3.org/1999/xlink" x="0px" y="0px"
	 viewBox="0 0 680 180" enable-background="new 0 0 680 180" xml:space="preserve">
<g id="Layer_1">
	<line fill="none" stroke="#E6E8E9" stroke-miterlimit="10" x1="595" y1="115.6" x2="595" y2="38"/>
	<line fill="none" stroke="#E6E8E9" stroke-miterlimit="10" x1="83.4" y1="115.6" x2="83.4" y2="38"/>
	<line fill="none" stroke="#CDD1D3" stroke-miterlimit="10" x1="104" y1="169" x2="574.3" y2="169"/>
</g>
<g id="_x30__1_">
</g>
<g id="_x31__1_">
	<rect x="588.2" y="114.9" fill="#9BA3A6" width="13.6" height="1.7"/>
	<line fill="none" stroke="#CDD1D3" stroke-miterlimit="10" x1="375.5" y1="118.6" x2="375.5" y2="143.9"/>
	<line fill="none" stroke="#CDD1D3" stroke-miterlimit="10" x1="503.7" y1="118.6" x2="503.7" y2="143.9"/>
	
		<line fill="none" stroke="#BBBBBB" stroke-width="0.5371" stroke-linejoin="round" stroke-miterlimit="10" x1="109.6" y1="116.6" x2="573.7" y2="116.6"/>
	<path fill="none" stroke="#E6E8E9" stroke-linejoin="round" stroke-miterlimit="10" d="M109.5,89.8h464.2 M109.5,63.1h464.2
		 M109.5,36.5h464.2"/>
	
		<line fill="none" stroke="#69747A" stroke-width="2" stroke-linejoin="round" stroke-miterlimit="10" x1="106.3" y1="116.6" x2="573.7" y2="116.6"/>
	
		<line fill="none" stroke="#37464D" stroke-width="1.4921" stroke-linecap="round" stroke-linejoin="round" stroke-miterlimit="10" x1="76.6" y1="102.5" x2="90.2" y2="102.5"/>
	
		<path fill="none" stroke="#37464D" stroke-width="1.4921" stroke-linecap="round" stroke-linejoin="round" stroke-miterlimit="10" d="
		M107.2,116.6c10.3-5.3,10.7-13.2,30.8-16c20.1-2.8,57.2,0.2,89.7-0.7c32.5-0.9,76.9-2.9,105.1-4.6c28.2-1.8,45.7-3.8,64.1-6.1
		c18.4-2.3,30.8-2.9,46.1-7.5c15.4-4.6,34.2-15.1,46.1-20c11.8-4.8,18-6.3,25.6-9.2c7.7-2.9,10.7-6.6,20.5-8.5
		c9.8-1.9,25.6-1.9,38.4-2.8"/>
	<path opacity="0.6" fill="#69747A" d="M107.2,116.6c7.9-0.1,15.4-0.4,30.8-0.5c20.1-0.2,57.2-0.2,89.7-0.5
		c32.5-0.3,76.9-0.5,105.1-1.6c28.2-1,45.7-3.6,64.1-4.7c15.6-1,33.1,3.4,46.1-2.2C458.3,100.6,477.1,79,489,70
		c11.3-8.4,18.4-14.4,25.6-16.5c6.9-2,11.6,0.9,20.5,3c9.8,2.3,25.2,9.1,38.4,11v49"/>
	<circle fill="#0589D1" cx="165.8" cy="169" r="5"/>
	<circle fill="#CDD1D3" cx="232.5" cy="169" r="5"/>
	<circle fill="#CDD1D3" cx="368.8" cy="169" r="5"/>
	<circle fill="#CDD1D3" cx="410.9" cy="169" r="5"/>
	<circle fill="#CDD1D3" cx="447.8" cy="169" r="5"/>
	<circle fill="#CDD1D3" cx="491.1" cy="169" r="5"/>
	<circle fill="#CDD1D3" cx="570.9" cy="169" r="5"/>
	<circle fill="#CDD1D3" cx="545.2" cy="169" r="5"/>
	<circle fill="#CDD1D3" cx="107.3" cy="169" r="5"/>
	<circle fill="#CDD1D3" cx="519.2" cy="169" r="5"/>
	<line fill="none" stroke="#0589D1" stroke-width="2" stroke-miterlimit="10" x1="164.2" y1="116.6" x2="164.2" y2="36.6"/>
	<path fill="#0589D1" d="M175.4,23c-1.2-0.5-2.5-0.6-3.7-0.4l-0.4-1.2h1.9c0.2,0,0.4-0.2,0.4-0.4s-0.2-0.4-0.4-0.4h-2.2l-0.1-0.4
		h2.4c0.2,0,0.4-0.2,0.4-0.4c0.1,0,0.1,0,0.1,0.1c0.4,0.2,0.5,0.3,0.8,0.3s0.5-0.8,0.4-1.2c-0.1-0.4,0.1-0.5-0.4-0.5
		c-0.5,0-3.1-0.3-3.8-0.4c-0.6-0.1-0.9-1.6-0.9-2.7c-0.1-1-0.2-1.4-0.2-1.4c0,0.1,0.6,0.6,0.8,0.7c0.2,0.1,1.4-0.8,1.8-1.2
		c0.4-0.4,0.4-0.4,0.4-0.4L173,13c0,0,0.6-2-0.5-2.9c-1.1-0.9-3.6-0.9-4.6-0.6c-0.9,0.3-0.8,0.3-0.8,0.3l1.1,1.2l-0.1,0.1
		c0,0-1.2-1-3.7-0.7c-1.7,0.2-4,1.1-5.4,2.8c-1.4,1.7-0.9,2.8-0.6,3.3c0.1,0.2,0.2,0.4,0.5,0.6h-1.9c-0.2,0-0.4,0.2-0.4,0.4v0
		c0,0.2,0.1,0.3,0.3,0.4c0.2,0,0.5,0.1,0.8,0.1l1.7,4.4l-0.8,1c-0.9-0.6-2-0.9-3.2-0.9c-3.5,0-6.3,2.8-6.3,6.3
		c0,3.5,2.8,6.3,6.3,6.3c2.3,0,4.2-1.2,5.3-3c0.4,0.2,2,0.5,2.5,0.6c0.5,0.1,0.7-0.3,0.8-0.5c0.1-0.2-0.6-0.5-1.2-0.9
		c-0.1-0.1-0.2-0.3-0.3-0.5c0.2,0,0.3,0.1,0.5,0.1c1.1,0,1.9-0.9,1.9-1.9c0-0.4-0.1-0.7-0.3-1l5.6-5.9l0.3,1
		c-1.5,0.6-2.7,1.8-3.4,3.4c-1.4,3.2,0.2,6.9,3.4,8.2c3.2,1.4,6.9-0.2,8.2-3.4C180.1,28.1,178.6,24.4,175.4,23z M164.9,25.8
		c-0.4-0.5-0.8-1.2-0.8-1.5c0-0.7,0.5-1.7,1.1-2.5c0,0,0.1-0.1,0.1-0.1l3.8-0.2L164.9,25.8z M161.3,21l-1.5,0.1l-1.2-3.1
		c0.2,0,0.6-0.1,1-0.2C160.1,18.7,160.8,20,161.3,21z M160.1,21.9l1.6-0.1c0.1,0.2,0.2,0.4,0.2,0.5c0.2,0.6-0.4,1.4-0.8,2.3
		L160.1,21.9z M162.9,27c0,0-0.1,0-0.1,0c0.1-0.3,0.1-0.6,0.2-1c0.3,0.2,0.7,0.5,1,0.7l-0.4,0.4C163.4,27.1,163.2,27,162.9,27z
		 M167.7,15.1c0,0,0.7,2.4,1.3,3.5c0.1,0.1,0.2,0.3,0.2,0.4l0.5,1.6l-3.7,0.2c0.8-1,1.9-2.2,1.9-2.6c0-0.6,0-1-0.4-1.3s-3-1.9-3-1.9
		S167.5,15.1,167.7,15.1z M165,18.3c0,0-0.6,0.4-1.1,1.4c-0.1-0.5-0.2-1-0.3-1.4C164.6,18.3,165,18.3,165,18.3z M159.3,23.9l0.4-0.6
		l0.6,1.6C160,24.6,159.7,24.2,159.3,23.9z M173.6,23.8l-0.7,2.5l-0.8-2.5C172.6,23.7,173.1,23.7,173.6,23.8z M168.3,26.9
		c0.5-1.2,1.5-2.1,2.6-2.7l1.4,4.2l-4.3,1.2C167.8,28.7,167.9,27.7,168.3,26.9z M171,33.5c-1.3-0.5-2.2-1.5-2.7-2.7l4.5-1.2l3.3,3.3
		C174.7,33.9,172.8,34.2,171,33.5z M177.7,30.8c-0.2,0.4-0.4,0.8-0.6,1.1l-3.3-3.3l0,0l0,0l1.2-4.5c0,0,0,0,0.1,0
		C177.5,25.2,178.7,28.2,177.7,30.8z"/>
</g>
<g id="_x32__1_">
</g>
<g id="_x33__1_">
</g>
<g id="_x34__1_">
</g>
<g id="_x35__1_">
</g>
<g id="_x36__1_">
</g>
<g id="_x37__1_">
</g>
<g id="_x38__1_">
	<g>
		<path fill="#0589D1" d="M114.8,27.6c-2,0-3.7-1.3-3.7-3.6v-5.1c0-2.3,1.7-3.6,3.7-3.6c2,0,3.7,1.3,3.7,3.6V24
			C118.5,26.3,116.8,27.6,114.8,27.6z M116.3,18.9c0-1-0.6-1.6-1.5-1.6c-0.9,0-1.5,0.6-1.5,1.6v5c0,1,0.6,1.6,1.5,1.6
			c0.9,0,1.5-0.6,1.5-1.6V18.9z"/>
		<path fill="#0589D1" d="M121,22.9v-2.5h2.5v2.5H121z M121,27.5V25h2.5v2.5H121z"/>
		<path fill="#0589D1" d="M128.9,27.5v-9.7l-2.5,2.1v-2.4l2.5-2.1h2.2v12.1H128.9z"/>
		<path fill="#0589D1" d="M134.9,27.5v-2l4.5-5.3c0.4-0.5,0.6-0.9,0.6-1.5c0-0.9-0.5-1.5-1.5-1.5c-0.7,0-1.5,0.4-1.5,1.5h-2.2
			c0-2.2,1.6-3.5,3.7-3.5c2.1,0,3.7,1.3,3.7,3.5c0,1.2-0.5,1.8-1.3,2.8l-3.4,3.9h4.7v2H134.9z"/>
	</g>
</g>
<g id="_x39__1_">
</g>
<g id="Layer_2">
	<line fill="none" stroke="#CDD1D3" stroke-miterlimit="10" x1="375.5" y1="117.4" x2="375.5" y2="143.9"/>
	<line fill="none" stroke="#CDD1D3" stroke-miterlimit="10" x1="503.7" y1="117.4" x2="503.7" y2="143.9"/>
	<path fill="#69747A" d="M54.2,64.1c-0.4,0.4-1,0.7-1.8,0.7c-0.8,0-1.5-0.3-1.9-0.7c-0.4-0.4-0.6-0.9-0.6-1.6h0.9
		c0.1,0.9,0.6,1.4,1.6,1.4c0.5,0,0.9-0.2,1.1-0.4c0.5-0.5,0.5-1.2,0.5-1.9c0-1.1-0.2-2.2-1.6-2.2c-0.8,0-1.4,0.4-1.5,0.9H50v-4.9
		h4.7v0.8h-3.8v2.9c0.4-0.4,0.9-0.6,1.7-0.6c0.7,0,1.2,0.2,1.6,0.6c0.7,0.7,0.8,1.6,0.8,2.5C54.9,62.5,54.8,63.4,54.2,64.1z"/>
	<path fill="#69747A" d="M59.1,64.8c-1.5,0-2.5-1-2.5-2.5v-4.3c0-1.5,1.1-2.5,2.5-2.5c1.4,0,2.5,1,2.5,2.5v4.3
		C61.6,63.7,60.5,64.8,59.1,64.8z M60.7,57.9c0-1-0.6-1.8-1.6-1.8s-1.6,0.8-1.6,1.8v4.2c0,1,0.6,1.8,1.6,1.8s1.6-0.8,1.6-1.8V57.9z"
		/>
	<path fill="#69747A" d="M49.8,90.7v-0.8l3.7-4.6c0.4-0.5,0.5-0.9,0.5-1.4c0-1-0.6-1.7-1.6-1.7c-0.9,0-1.6,0.5-1.6,1.7h-0.9
		c0-1.5,1-2.5,2.5-2.5c1.5,0,2.5,1,2.5,2.5c0,0.7-0.2,1.2-0.7,1.9l-3.2,4.1h4v0.8H49.8z"/>
	<path fill="#69747A" d="M61,90.1c-0.4,0.4-1,0.7-1.8,0.7c-0.8,0-1.5-0.3-1.9-0.7c-0.4-0.4-0.6-0.9-0.6-1.6h0.9
		c0.1,0.9,0.6,1.4,1.6,1.4c0.5,0,0.9-0.2,1.1-0.4c0.5-0.5,0.5-1.2,0.5-1.9c0-1.1-0.2-2.2-1.6-2.2c-0.8,0-1.4,0.4-1.5,0.9h-0.8v-4.9
		h4.7v0.8h-3.8v2.9c0.4-0.4,0.9-0.6,1.7-0.6c0.7,0,1.2,0.2,1.6,0.6c0.7,0.7,0.8,1.6,0.8,2.5C61.7,88.5,61.6,89.4,61,90.1z"/>
	<path fill="#69747A" d="M59.1,119.7c-1.5,0-2.5-1-2.5-2.5v-4.3c0-1.5,1.1-2.5,2.5-2.5c1.4,0,2.5,1,2.5,2.5v4.3
		C61.6,118.7,60.5,119.7,59.1,119.7z M60.7,112.9c0-1-0.6-1.8-1.6-1.8c-1,0-1.6,0.8-1.6,1.8v4.2c0,1,0.6,1.8,1.6,1.8
		c1,0,1.6-0.8,1.6-1.8V112.9z"/>
	<path fill="#69747A" d="M620.8,66.8v-7.6l-1.6,1.4v-1l1.6-1.4h0.9v8.5H620.8z"/>
	<path fill="#69747A" d="M627.1,66.9c-1.5,0-2.4-1-2.4-2.5c0-0.6,0.2-1.2,0.5-1.9l2.1-4.2h0.9l-1.9,3.8c0.3-0.1,0.6-0.2,0.9-0.2
		c1.3,0,2.2,1,2.2,2.4C629.5,65.8,628.6,66.9,627.1,66.9z M627.1,62.7c-0.9,0-1.5,0.7-1.5,1.7c0,1,0.6,1.7,1.5,1.7s1.5-0.7,1.5-1.7
		C628.6,63.5,628.1,62.7,627.1,62.7z"/>
	<path fill="#69747A" d="M633.4,66.9c-1.3,0-2.3-0.9-2.3-2.4v-4c0-1.4,1-2.4,2.3-2.4c1.3,0,2.3,0.9,2.3,2.4v4
		C635.7,66,634.7,66.9,633.4,66.9z M634.8,60.6c0-0.9-0.5-1.6-1.5-1.6s-1.5,0.7-1.5,1.6v3.9c0,0.9,0.5,1.6,1.5,1.6s1.5-0.7,1.5-1.6
		V60.6z"/>
	<path fill="#69747A" d="M639.6,66.9c-1.3,0-2.3-0.9-2.3-2.4v-4c0-1.4,1-2.4,2.3-2.4c1.3,0,2.3,0.9,2.3,2.4v4
		C642,66,641,66.9,639.6,66.9z M641.1,60.6c0-0.9-0.5-1.6-1.5-1.6s-1.5,0.7-1.5,1.6v3.9c0,0.9,0.5,1.6,1.5,1.6s1.5-0.7,1.5-1.6V60.6
		z"/>
	<path fill="#69747A" d="M620.8,93.9c-1.4,0-2.5-1-2.5-2.4c0-1,0.6-1.7,1.3-2.1c-0.7-0.4-1.1-1-1.1-1.9c0-1.3,1-2.3,2.4-2.3
		c1.4,0,2.4,1,2.4,2.3c0,0.9-0.4,1.5-1.1,1.9c0.7,0.4,1.3,1.1,1.3,2.1C623.4,92.9,622.3,93.9,620.8,93.9z M620.8,89.8
		c-0.9,0-1.7,0.7-1.7,1.7c0,0.9,0.7,1.7,1.7,1.7s1.7-0.7,1.7-1.7C622.5,90.5,621.8,89.8,620.8,89.8z M620.8,86
		c-0.9,0-1.5,0.6-1.5,1.5c0,0.9,0.6,1.5,1.5,1.5c0.9,0,1.5-0.6,1.5-1.5C622.3,86.6,621.7,86,620.8,86z"/>
	<path fill="#69747A" d="M627.1,93.9c-1.3,0-2.3-0.9-2.3-2.4v-4c0-1.4,1-2.4,2.3-2.4c1.3,0,2.3,0.9,2.3,2.4v4
		C629.4,92.9,628.4,93.9,627.1,93.9z M628.6,87.6c0-0.9-0.5-1.6-1.5-1.6c-0.9,0-1.5,0.7-1.5,1.6v3.9c0,0.9,0.5,1.6,1.5,1.6
		c0.9,0,1.5-0.7,1.5-1.6V87.6z"/>
	<path fill="#69747A" d="M633.4,93.9c-1.3,0-2.3-0.9-2.3-2.4v-4c0-1.4,1-2.4,2.3-2.4c1.3,0,2.3,0.9,2.3,2.4v4
		C635.7,92.9,634.7,93.9,633.4,93.9z M634.8,87.6c0-0.9-0.5-1.6-1.5-1.6s-1.5,0.7-1.5,1.6v3.9c0,0.9,0.5,1.6,1.5,1.6
		s1.5-0.7,1.5-1.6V87.6z"/>
	<path fill="#69747A" d="M620.8,120.9c-1.3,0-2.3-0.9-2.3-2.4v-4c0-1.4,1-2.4,2.3-2.4c1.3,0,2.3,0.9,2.3,2.4v4
		C623.2,119.9,622.2,120.9,620.8,120.9z M622.3,114.6c0-0.9-0.5-1.6-1.5-1.6c-0.9,0-1.5,0.7-1.5,1.6v3.9c0,0.9,0.5,1.6,1.5,1.6
		c0.9,0,1.5-0.7,1.5-1.6V114.6z"/>
	<path fill="#69747A" d="M226.1,139.3v-10h1.1v9h5.1v1H226.1z"/>
	<path fill="#69747A" d="M237.9,139.3v-0.7c-0.5,0.5-1.1,0.7-2,0.7c-1,0-1.5-0.2-1.9-0.6c-0.4-0.3-0.5-0.9-0.5-1.4
		c0-1.2,0.9-2,2.4-2h2.1v-0.7c0-1-0.5-1.5-1.8-1.5c-0.9,0-1.3,0.2-1.7,0.8l-0.7-0.6c0.6-0.8,1.3-1,2.4-1c1.9,0,2.8,0.8,2.8,2.3v4.7
		H237.9z M237.9,136.1H236c-1,0-1.6,0.4-1.6,1.2c0,0.8,0.5,1.2,1.6,1.2c0.6,0,1.1-0.1,1.5-0.5c0.2-0.2,0.4-0.6,0.4-1.2V136.1z"/>
	<path fill="#69747A" d="M246,138.8c-0.4,0.4-1,0.6-1.7,0.6c-0.8,0-1.4-0.2-1.9-0.9v3.9h-1v-10h1v0.8c0.6-0.7,1.2-0.9,1.9-0.9
		c0.7,0,1.3,0.2,1.7,0.6c0.7,0.7,0.8,1.8,0.8,2.9S246.7,138.1,246,138.8z M244.1,133.2c-1.5,0-1.7,1.3-1.7,2.6s0.2,2.6,1.7,2.6
		c1.5,0,1.7-1.3,1.7-2.6S245.6,133.2,244.1,133.2z"/>
	<path fill="#69747A" d="M254.8,139.3v-8.9l-1.9,1.6v-1.1l1.9-1.6h1v10H254.8z"/>
	<path fill="#69747A" d="M427.9,139.3v-10h1.1v9h5.1v1H427.9z"/>
	<path fill="#69747A" d="M439.6,139.3v-0.7c-0.5,0.5-1.1,0.7-2,0.7c-1,0-1.5-0.2-1.9-0.6c-0.4-0.3-0.5-0.9-0.5-1.4
		c0-1.2,0.9-2,2.4-2h2.1v-0.7c0-1-0.5-1.5-1.8-1.5c-0.9,0-1.3,0.2-1.7,0.8l-0.7-0.6c0.6-0.8,1.3-1,2.4-1c1.9,0,2.8,0.8,2.8,2.3v4.7
		H439.6z M439.6,136.1h-1.9c-1,0-1.6,0.4-1.6,1.2c0,0.8,0.5,1.2,1.6,1.2c0.6,0,1.1-0.1,1.5-0.5c0.2-0.2,0.4-0.6,0.4-1.2V136.1z"/>
	<path fill="#69747A" d="M447.7,138.8c-0.4,0.4-1,0.6-1.7,0.6c-0.8,0-1.4-0.2-1.9-0.9v3.9h-1v-10h1v0.8c0.6-0.7,1.2-0.9,1.9-0.9
		c0.7,0,1.3,0.2,1.7,0.6c0.7,0.7,0.8,1.8,0.8,2.9S448.4,138.1,447.7,138.8z M445.8,133.2c-1.5,0-1.7,1.3-1.7,2.6s0.2,2.6,1.7,2.6
		c1.5,0,1.7-1.3,1.7-2.6S447.3,133.2,445.8,133.2z"/>
	<path fill="#69747A" d="M453.9,139.3v-0.9l3.9-5c0.4-0.5,0.6-0.9,0.6-1.5c0-1.1-0.6-1.8-1.7-1.8c-0.9,0-1.7,0.5-1.7,1.8h-1
		c0-1.6,1.1-2.7,2.7-2.7c1.6,0,2.7,1.1,2.7,2.7c0,0.8-0.3,1.3-0.8,2l-3.5,4.5h4.3v0.9H453.9z"/>
	<path fill="#69747A" d="M526.3,139.3v-10h1.1v9h5.1v1H526.3z"/>
	<path fill="#69747A" d="M538.1,139.3v-0.7c-0.5,0.5-1.1,0.7-2,0.7c-1,0-1.5-0.2-1.9-0.6c-0.4-0.3-0.5-0.9-0.5-1.4
		c0-1.2,0.9-2,2.4-2h2.1v-0.7c0-1-0.5-1.5-1.8-1.5c-0.9,0-1.3,0.2-1.7,0.8l-0.7-0.6c0.6-0.8,1.3-1,2.4-1c1.9,0,2.8,0.8,2.8,2.3v4.7
		H538.1z M538.1,136.1h-1.9c-1,0-1.6,0.4-1.6,1.2c0,0.8,0.5,1.2,1.6,1.2c0.6,0,1.1-0.1,1.5-0.5c0.2-0.2,0.4-0.6,0.4-1.2V136.1z"/>
	<path fill="#69747A" d="M546.2,138.8c-0.4,0.4-1,0.6-1.7,0.6c-0.8,0-1.4-0.2-1.9-0.9v3.9h-1v-10h1v0.8c0.6-0.7,1.2-0.9,1.9-0.9
		c0.7,0,1.3,0.2,1.7,0.6c0.7,0.7,0.8,1.8,0.8,2.9S546.9,138.1,546.2,138.8z M544.3,133.2c-1.5,0-1.7,1.3-1.7,2.6s0.2,2.6,1.7,2.6
		c1.5,0,1.7-1.3,1.7-2.6S545.8,133.2,544.3,133.2z"/>
	<path fill="#69747A" d="M554.9,139.4c-1.6,0-2.8-0.8-2.9-2.6h1c0.1,1.2,1,1.7,1.9,1.7c1.1,0,1.9-0.7,1.9-1.9c0-1.2-0.6-1.9-2-1.9
		h-0.2v-0.9h0.2c1.2,0,1.8-0.7,1.8-1.8c0-1.2-0.8-1.8-1.7-1.8c-1.1,0-1.7,0.6-1.8,1.7h-1c0.1-1.6,1.3-2.6,2.8-2.6
		c1.6,0,2.7,1.1,2.7,2.7c0,1.1-0.4,1.8-1.3,2.2c1,0.4,1.5,1.2,1.5,2.4C557.9,138.4,556.5,139.4,554.9,139.4z"/>
	<path fill="#69747A" d="M618.5,39.8v-0.8l3.4-4.3c0.3-0.4,0.5-0.8,0.5-1.3c0-0.9-0.6-1.5-1.5-1.5c-0.8,0-1.5,0.4-1.5,1.5h-0.9
		c0-1.3,0.9-2.3,2.4-2.3c1.4,0,2.4,0.9,2.4,2.3c0,0.7-0.2,1.1-0.7,1.7l-3,3.8h3.7v0.8H618.5z"/>
	<path fill="#69747A" d="M628.7,38.5v1.4h-0.9v-1.4h-3.4v-0.8l3.1-6.4h0.9l-3.1,6.4h2.5v-2.4h0.9v2.4h1v0.8H628.7z"/>
	<path fill="#69747A" d="M633.4,39.9c-1.3,0-2.3-0.9-2.3-2.4v-4c0-1.4,1-2.4,2.3-2.4c1.3,0,2.3,0.9,2.3,2.4v4
		C635.7,39,634.7,39.9,633.4,39.9z M634.8,33.6c0-0.9-0.5-1.6-1.5-1.6s-1.5,0.7-1.5,1.6v3.9c0,0.9,0.5,1.6,1.5,1.6s1.5-0.7,1.5-1.6
		V33.6z"/>
	<path fill="#69747A" d="M639.6,39.9c-1.3,0-2.3-0.9-2.3-2.4v-4c0-1.4,1-2.4,2.3-2.4c1.3,0,2.3,0.9,2.3,2.4v4
		C642,39,641,39.9,639.6,39.9z M641.1,33.6c0-0.9-0.5-1.6-1.5-1.6s-1.5,0.7-1.5,1.6v3.9c0,0.9,0.5,1.6,1.5,1.6s1.5-0.7,1.5-1.6V33.6
		z"/>
	<path fill="#69747A" d="M51.8,40.7h-1l3.2-8.4h-3.2v1.5h-0.9v-2.3H55v0.8L51.8,40.7z"/>
	<path fill="#69747A" d="M61,40.1c-0.4,0.4-1,0.7-1.8,0.7c-0.8,0-1.5-0.3-1.9-0.7c-0.4-0.4-0.6-0.9-0.6-1.6h0.9
		c0.1,0.9,0.6,1.4,1.6,1.4c0.5,0,0.9-0.2,1.1-0.4c0.5-0.5,0.5-1.2,0.5-1.9c0-1.1-0.2-2.2-1.6-2.2c-0.8,0-1.4,0.4-1.5,0.9h-0.8v-4.9
		h4.7v0.8h-3.8v2.9c0.4-0.4,0.9-0.6,1.7-0.6c0.7,0,1.2,0.2,1.6,0.6c0.7,0.7,0.8,1.6,0.8,2.5C61.7,38.6,61.6,39.4,61,40.1z"/>
	<path fill="#69747A" d="M628.1,137.4h-1l-2.2-8l-2.2,8h-1l-2.5-10h1.1l1.9,8l2.2-8h1l2.2,8l1.9-8h1.1L628.1,137.4z"/>
	<path fill="#69747A" d="M635.6,137.4v-0.7c-0.5,0.5-1.1,0.7-2,0.7c-1,0-1.5-0.2-1.9-0.6c-0.4-0.3-0.5-0.9-0.5-1.4
		c0-1.2,0.9-2,2.4-2h2.1v-0.7c0-1-0.5-1.5-1.8-1.5c-0.9,0-1.3,0.2-1.7,0.8l-0.7-0.6c0.6-0.8,1.3-1,2.4-1c1.9,0,2.8,0.8,2.8,2.3v4.7
		H635.6z M635.6,134.2h-1.9c-1,0-1.6,0.4-1.6,1.2c0,0.8,0.5,1.2,1.6,1.2c0.6,0,1.1-0.1,1.5-0.5c0.2-0.2,0.3-0.6,0.3-1.2V134.2z"/>
	<path fill="#69747A" d="M641,137.4c-1.2,0-1.8-0.8-1.8-1.8v-4.3h-0.9v-0.8h0.9v-2.1h1v2.1h1.5v0.8h-1.5v4.2c0,0.6,0.3,1,0.9,1h0.5
		v0.9H641z"/>
	<path fill="#69747A" d="M645.6,137.4c-1.2,0-1.8-0.8-1.8-1.8v-4.3H643v-0.8h0.9v-2.1h1v2.1h1.5v0.8h-1.5v4.2c0,0.6,0.3,1,0.9,1h0.5
		v0.9H645.6z"/>
	<path fill="#69747A" d="M623,15.6h-2.6v4.1h-1.1v-10h3.7c1.8,0,3.1,1.1,3.1,2.9C626.1,14.4,624.8,15.6,623,15.6z M622.9,10.7h-2.6
		v4h2.6c1.2,0,2.1-0.7,2.1-2C625,11.3,624.2,10.7,622.9,10.7z"/>
	<path fill="#69747A" d="M632.2,19c-0.5,0.5-1.1,0.8-2,0.8c-0.8,0-1.5-0.3-2-0.8c-0.7-0.7-0.8-1.7-0.8-2.7s0.1-2,0.8-2.7
		c0.5-0.5,1.1-0.8,2-0.8c0.8,0,1.5,0.3,2,0.8c0.7,0.7,0.8,1.7,0.8,2.7S632.9,18.3,632.2,19z M631.5,14.1c-0.3-0.3-0.8-0.5-1.3-0.5
		s-0.9,0.2-1.2,0.5c-0.5,0.5-0.6,1.3-0.6,2.1c0,0.8,0,1.6,0.6,2.1c0.3,0.3,0.8,0.5,1.2,0.5s0.9-0.2,1.3-0.5c0.5-0.5,0.5-1.4,0.5-2.1
		C632.1,15.5,632,14.6,631.5,14.1z"/>
	<path fill="#69747A" d="M641.7,19.7h-0.9l-1.8-5.4l-1.8,5.4h-0.9l-2.2-6.9h1.1l1.6,5.5l1.8-5.5h0.9l1.8,5.5l1.6-5.5h1.1L641.7,19.7
		z"/>
	<path fill="#69747A" d="M645.7,16.5c0,1.5,0.7,2.4,2,2.4c0.8,0,1.3-0.2,1.8-0.8l0.7,0.6c-0.7,0.7-1.4,1.1-2.5,1.1
		c-1.8,0-3-1.1-3-3.5c0-2.2,1.1-3.5,2.8-3.5c1.8,0,2.8,1.3,2.8,3.3v0.4H645.7z M649.2,14.6c-0.3-0.6-0.9-1-1.6-1
		c-0.7,0-1.3,0.4-1.6,1c-0.2,0.4-0.2,0.6-0.2,1.1h3.7C649.3,15.2,649.3,15,649.2,14.6z"/>
	<path fill="#69747A" d="M656.4,14.1c-0.4-0.4-0.7-0.5-1.2-0.5c-1,0-1.7,0.8-1.7,1.8v4.2h-1v-6.9h1v0.8c0.4-0.6,1.1-0.9,1.9-0.9
		c0.7,0,1.2,0.2,1.7,0.6L656.4,14.1z"/>
	<path fill="#69747A" d="M35.7,137.4l-2.2-3.5l-1.3,1.5v2h-1v-10h1v6.7l3.1-3.6h1.3l-2.3,2.6l2.7,4.3H35.7z"/>
	<path fill="#69747A" d="M47.6,137.4v-4.2c0-1.2-0.7-1.8-1.7-1.8c-1,0-1.7,0.6-1.7,1.7v4.4h-1v-4.2c0-1.2-0.7-1.8-1.7-1.8
		s-1.7,0.6-1.7,1.8v4.2h-1v-6.9h1v0.8c0.5-0.6,1.2-0.8,1.9-0.8c1,0,1.7,0.4,2.1,1.1c0.5-0.8,1.3-1.1,2.3-1.1c0.7,0,1.4,0.2,1.8,0.6
		c0.5,0.5,0.7,1.1,0.7,1.9v4.4H47.6z"/>
	<path fill="#69747A" d="M50.7,138.4h-1l4-12h1L50.7,138.4z"/>
	<path fill="#69747A" d="M60.4,137.4v-4.3c0-1.2-0.6-1.8-1.7-1.8s-1.7,0.6-1.7,1.8v4.3h-1v-10h1v3.8c0.5-0.6,1.1-0.8,1.9-0.8
		c1.6,0,2.5,1,2.5,2.5v4.4H60.4z"/>
	<path fill="#69747A" d="M27.4,19.8c-1.5,0-2.5-0.4-3.4-1.3l0.7-0.7c0.8,0.8,1.6,1.1,2.7,1.1c1.5,0,2.4-0.7,2.4-1.8
		c0-0.5-0.2-1-0.5-1.2c-0.3-0.3-0.6-0.4-1.3-0.5l-1.2-0.2c-0.8-0.1-1.4-0.4-1.8-0.8c-0.5-0.4-0.8-1.1-0.8-1.9c0-1.7,1.2-2.8,3.2-2.8
		c1.3,0,2.1,0.3,3,1.1l-0.7,0.7c-0.6-0.6-1.3-0.9-2.3-0.9c-1.3,0-2.1,0.7-2.1,1.9c0,0.5,0.1,0.9,0.4,1.2c0.3,0.3,0.8,0.4,1.3,0.5
		l1.2,0.2c0.9,0.1,1.4,0.3,1.8,0.7c0.5,0.5,0.8,1.1,0.8,2C30.8,18.7,29.5,19.8,27.4,19.8z"/>
	<path fill="#69747A" d="M37.5,19.2c-0.4,0.4-1,0.6-1.7,0.6c-0.8,0-1.4-0.2-1.9-0.9v3.9h-1v-10h1v0.8c0.6-0.7,1.2-0.9,1.9-0.9
		c0.7,0,1.3,0.2,1.7,0.6c0.7,0.7,0.8,1.8,0.8,2.9S38.2,18.5,37.5,19.2z M35.6,13.6c-1.5,0-1.7,1.3-1.7,2.6s0.2,2.6,1.7,2.6
		c1.5,0,1.7-1.3,1.7-2.6S37.1,13.6,35.6,13.6z"/>
	<path fill="#69747A" d="M41.1,16.5c0,1.5,0.7,2.4,2,2.4c0.8,0,1.3-0.2,1.8-0.8l0.7,0.6c-0.7,0.7-1.4,1.1-2.5,1.1
		c-1.8,0-3-1.1-3-3.5c0-2.2,1.1-3.5,2.8-3.5c1.8,0,2.8,1.3,2.8,3.3v0.4H41.1z M44.5,14.6c-0.3-0.6-0.9-1-1.6-1c-0.7,0-1.3,0.4-1.6,1
		c-0.2,0.4-0.2,0.6-0.2,1.1h3.7C44.7,15.2,44.7,15,44.5,14.6z"/>
	<path fill="#69747A" d="M48.5,16.5c0,1.5,0.7,2.4,2,2.4c0.8,0,1.3-0.2,1.8-0.8l0.7,0.6c-0.7,0.7-1.4,1.1-2.5,1.1
		c-1.8,0-3-1.1-3-3.5c0-2.2,1.1-3.5,2.8-3.5c1.8,0,2.8,1.3,2.8,3.3v0.4H48.5z M52,14.6c-0.3-0.6-0.9-1-1.6-1c-0.7,0-1.3,0.4-1.6,1
		c-0.2,0.4-0.2,0.6-0.2,1.1h3.7C52.1,15.2,52.1,15,52,14.6z"/>
	<path fill="#69747A" d="M59.4,19.7v-0.8c-0.6,0.7-1.2,0.9-2,0.9c-0.7,0-1.3-0.2-1.7-0.6c-0.7-0.7-0.8-1.8-0.8-2.9s0.2-2.2,0.8-2.9
		c0.4-0.4,1-0.6,1.7-0.6c0.8,0,1.4,0.2,1.9,0.9V9.7h1v10H59.4z M57.7,13.6c-1.5,0-1.7,1.3-1.7,2.6s0.2,2.6,1.7,2.6
		c1.5,0,1.7-1.3,1.7-2.6S59.2,13.6,57.7,13.6z"/>
	<path fill="#69747A" d="M18.8,172.3v-10h6.6v1.7h-4.6v2.3h3.9v1.7h-3.9v2.4h4.6v1.7H18.8z"/>
	<path fill="#69747A" d="M30.3,172.3h-1.4l-2.7-7.3h1.9l1.5,4.5L31,165H33L30.3,172.3z"/>
	<path fill="#69747A" d="M35.3,169.2c0,1,0.6,1.6,1.6,1.6c0.8,0,1.2-0.2,1.7-0.7l1.1,1.1c-0.7,0.8-1.5,1.1-2.8,1.1
		c-1.7,0-3.4-0.8-3.4-3.7c0-2.4,1.3-3.7,3.2-3.7c2,0,3.2,1.5,3.2,3.5v0.8H35.3z M37.9,167.2c-0.2-0.4-0.6-0.8-1.2-0.8
		c-0.6,0-1,0.3-1.2,0.8c-0.1,0.3-0.2,0.5-0.2,0.8h2.8C38.1,167.7,38.1,167.5,37.9,167.2z"/>
	<path fill="#69747A" d="M45.8,172.3v-4.4c0-1-0.6-1.3-1.2-1.3c-0.6,0-1.2,0.3-1.2,1.3v4.4h-1.8V165h1.8v0.7
		c0.5-0.5,1.1-0.8,1.8-0.8c0.7,0,1.3,0.2,1.7,0.6c0.6,0.6,0.7,1.3,0.7,2.1v4.7H45.8z"/>
	<path fill="#69747A" d="M51.9,172.3c-1.5,0-2.1-1.1-2.1-2.1v-3.6H49v-1.4h0.8v-2.2h1.8v2.2h1.3v1.4h-1.3v3.5c0,0.4,0.2,0.7,0.6,0.7
		h0.7v1.5H51.9z"/>
	<path fill="#69747A" d="M56.8,172.4c-1.1,0-2.2-0.1-3.1-1.1l1.2-1.2c0.6,0.6,1.4,0.7,1.9,0.7c0.6,0,1.3-0.2,1.3-0.8
		c0-0.4-0.2-0.6-0.8-0.7l-1.2-0.1c-1.3-0.1-2.1-0.7-2.1-2c0-1.5,1.3-2.3,2.8-2.3c1.1,0,2.1,0.2,2.8,0.9l-1.1,1.1
		c-0.4-0.4-1.1-0.5-1.7-0.5c-0.7,0-1,0.3-1,0.7s0.2,0.6,0.8,0.6l1.1,0.1c1.4,0.1,2.2,0.9,2.2,2.1C59.9,171.6,58.6,172.4,56.8,172.4z
		"/>
	
		<line fill="none" stroke="#69747A" stroke-width="2" stroke-linejoin="round" stroke-miterlimit="10" x1="583.6" y1="116.6" x2="606.4" y2="116.6"/>
	
		<line fill="none" stroke="#69747A" stroke-width="2" stroke-linejoin="round" stroke-miterlimit="10" x1="72" y1="116.6" x2="94.8" y2="116.6"/>
	
		<line fill="none" stroke="#69747A" stroke-width="2" stroke-linejoin="round" stroke-miterlimit="10" x1="106.3" y1="116.6" x2="573.7" y2="116.6"/>
</g>
</svg>
