<?xml version="1.0" encoding="utf-8"?>
<!-- Generator: Adobe Illustrator 18.1.0, SVG Export Plug-In . SVG Version: 6.00 Build 0)  -->
<svg version="1.1" xmlns="http://www.w3.org/2000/svg" xmlns:xlink="http://www.w3.org/1999/xlink" x="0px" y="0px"
	 viewBox="0 0 680 180" enable-background="new 0 0 680 180" xml:space="preserve">
<g id="Layer_1">
	<line fill="none" stroke="#E6E8E9" stroke-miterlimit="10" x1="590.4" y1="115.6" x2="590.4" y2="38"/>
	<line fill="none" stroke="#E6E8E9" stroke-miterlimit="10" x1="78.8" y1="115.6" x2="78.8" y2="38"/>
	<line fill="none" stroke="#CDD1D3" stroke-miterlimit="10" x1="99.5" y1="169" x2="569.7" y2="169"/>
</g>
<g id="_x30__1_">
</g>
<g id="_x31__1_">
</g>
<g id="_x32__1_">
	<rect x="583.6" y="114.4" fill="#9BA3A6" width="13.6" height="1.9"/>
	<line fill="none" stroke="#CDD1D3" stroke-miterlimit="10" x1="370.9" y1="118.6" x2="370.9" y2="143.9"/>
	<line fill="none" stroke="#CDD1D3" stroke-miterlimit="10" x1="499.1" y1="118.6" x2="499.1" y2="143.9"/>
	
		<line fill="none" stroke="#BBBBBB" stroke-width="0.5371" stroke-linejoin="round" stroke-miterlimit="10" x1="105.1" y1="116.6" x2="569.1" y2="116.6"/>
	<path fill="none" stroke="#E6E8E9" stroke-linejoin="round" stroke-miterlimit="10" d="M105,89.8h464.2 M105,63.1h464.2 M105,36.5
		h464.2"/>
	
		<line fill="none" stroke="#69747A" stroke-width="2" stroke-linejoin="round" stroke-miterlimit="10" x1="101.7" y1="116.6" x2="569.1" y2="116.6"/>
	
		<line fill="none" stroke="#37464D" stroke-width="1.4921" stroke-linecap="round" stroke-linejoin="round" stroke-miterlimit="10" x1="72" y1="100.5" x2="85.6" y2="100.5"/>
	
		<path fill="none" stroke="#37464D" stroke-width="1.4921" stroke-linecap="round" stroke-linejoin="round" stroke-miterlimit="10" d="
		M102.6,116.6c10.3-5.3,10.7-13.2,30.8-16c20.1-2.8,57.2,0.2,89.7-0.7C255.5,99,300,97,328.2,95.2c28.2-1.8,45.7-3.8,64.1-6.1
		c18.4-2.3,30.8-2.9,46.1-7.5c15.4-4.6,34.2-15.1,46.1-20c11.8-4.8,18-6.3,25.6-9.2c7.7-2.9,10.7-6.6,20.5-8.5
		c9.8-1.9,25.6-1.9,38.4-2.8"/>
	<path opacity="0.6" fill="#69747A" d="M102.6,116.6c7.9-0.1,15.4-0.4,30.8-0.5c20.1-0.2,57.2-0.2,89.7-0.5
		c32.5-0.3,76.9-0.5,105.1-1.6c28.2-1,45.7-3.6,64.1-4.7c15.6-1,33.1,3.4,46.1-2.2c15.4-6.6,34.2-28.2,46.1-37.2
		c11.3-8.4,18.4-14.4,25.6-16.5c6.9-2,11.6,0.9,20.5,3c9.8,2.3,25.2,9.1,38.4,11v49"/>
	<circle fill="#CDD1D3" cx="161.3" cy="169" r="5"/>
	<circle fill="#0589D1" cx="227.9" cy="169" r="5"/>
	<circle fill="#CDD1D3" cx="364.2" cy="169" r="5"/>
	<circle fill="#CDD1D3" cx="406.4" cy="169" r="5"/>
	<circle fill="#CDD1D3" cx="443.3" cy="169" r="5"/>
	<circle fill="#CDD1D3" cx="486.5" cy="169" r="5"/>
	<circle fill="#CDD1D3" cx="566.3" cy="169" r="5"/>
	<circle fill="#CDD1D3" cx="540.7" cy="169" r="5"/>
	<circle fill="#CDD1D3" cx="102.8" cy="169" r="5"/>
	<circle fill="#CDD1D3" cx="514.7" cy="169" r="5"/>
	<line fill="none" stroke="#0589D1" stroke-width="2" stroke-miterlimit="10" x1="228.6" y1="116.6" x2="228.6" y2="36.6"/>
	<path fill="#0589D1" d="M239.9,23c-1.2-0.5-2.5-0.6-3.7-0.4l-0.4-1.2h1.9c0.2,0,0.4-0.2,0.4-0.4s-0.2-0.4-0.4-0.4h-2.2l-0.1-0.4
		h2.4c0.2,0,0.4-0.2,0.4-0.4c0.1,0,0.1,0,0.1,0.1c0.4,0.2,0.5,0.3,0.8,0.3s0.5-0.8,0.4-1.2c-0.1-0.4,0.1-0.5-0.4-0.5
		c-0.5,0-3.1-0.3-3.8-0.4c-0.6-0.1-0.9-1.6-0.9-2.7c-0.1-1-0.2-1.4-0.2-1.4c0,0.1,0.6,0.6,0.8,0.7c0.2,0.1,1.4-0.8,1.8-1.2
		c0.4-0.4,0.4-0.4,0.4-0.4l0.3,0.1c0,0,0.6-2-0.5-2.9c-1.1-0.9-3.6-0.9-4.6-0.6c-0.9,0.3-0.8,0.3-0.8,0.3l1.1,1.2l-0.1,0.1
		c0,0-1.2-1-3.7-0.7c-1.7,0.2-4,1.1-5.4,2.8c-1.4,1.7-0.9,2.8-0.6,3.3c0.1,0.2,0.2,0.4,0.5,0.6h-1.9c-0.2,0-0.4,0.2-0.4,0.4v0
		c0,0.2,0.1,0.3,0.3,0.4c0.2,0,0.5,0.1,0.8,0.1l1.7,4.4l-0.8,1c-0.9-0.6-2-0.9-3.2-0.9c-3.5,0-6.3,2.8-6.3,6.3
		c0,3.5,2.8,6.3,6.3,6.3c2.3,0,4.2-1.2,5.3-3c0.4,0.2,2,0.5,2.5,0.6c0.5,0.1,0.7-0.3,0.8-0.5s-0.6-0.5-1.2-0.9
		c-0.1-0.1-0.2-0.3-0.3-0.5c0.2,0,0.3,0.1,0.5,0.1c1.1,0,1.9-0.9,1.9-1.9c0-0.4-0.1-0.7-0.3-1l5.6-5.9l0.3,1
		c-1.5,0.6-2.7,1.8-3.4,3.4c-1.4,3.2,0.2,6.9,3.4,8.2c3.2,1.4,6.9-0.2,8.2-3.4C244.6,28.1,243.1,24.4,239.9,23z M229.3,25.8
		c-0.4-0.5-0.8-1.2-0.8-1.5c0-0.7,0.5-1.7,1.1-2.5c0,0,0.1-0.1,0.1-0.1l3.8-0.2L229.3,25.8z M225.7,21l-1.5,0.1l-1.2-3.1
		c0.2,0,0.6-0.1,1-0.2C224.6,18.7,225.3,20,225.7,21z M224.5,21.9l1.6-0.1c0.1,0.2,0.2,0.4,0.2,0.5c0.2,0.6-0.4,1.4-0.8,2.3
		L224.5,21.9z M227.4,27c0,0-0.1,0-0.1,0c0.1-0.3,0.1-0.6,0.2-1c0.3,0.2,0.7,0.5,1,0.7l-0.4,0.4C227.8,27.1,227.6,27,227.4,27z
		 M232.1,15.1c0,0,0.7,2.4,1.3,3.5c0.1,0.1,0.2,0.3,0.2,0.4l0.5,1.6l-3.7,0.2c0.8-1,1.9-2.2,1.9-2.6c0-0.6,0-1-0.4-1.3
		c-0.4-0.4-3-1.9-3-1.9S232,15.1,232.1,15.1z M229.4,18.3c0,0-0.6,0.4-1.1,1.4c-0.1-0.5-0.2-1-0.3-1.4
		C229.1,18.3,229.4,18.3,229.4,18.3z M223.7,23.9l0.4-0.6l0.6,1.6C224.4,24.6,224.1,24.2,223.7,23.9z M238.1,23.8l-0.7,2.5l-0.8-2.5
		C237.1,23.7,237.6,23.7,238.1,23.8z M232.7,26.9c0.5-1.2,1.5-2.1,2.6-2.7l1.4,4.2l-4.3,1.2C232.3,28.7,232.4,27.7,232.7,26.9z
		 M235.4,33.5c-1.3-0.5-2.2-1.5-2.7-2.7l4.5-1.2l3.3,3.3C239.1,33.9,237.2,34.2,235.4,33.5z M242.1,30.8c-0.2,0.4-0.4,0.8-0.6,1.1
		l-3.3-3.3l0,0l0,0l1.2-4.5c0,0,0,0,0.1,0C242,25.2,243.2,28.2,242.1,30.8z"/>
</g>
<g id="_x33__1_">
</g>
<g id="_x34__1_">
</g>
<g id="_x35__1_">
</g>
<g id="_x36__1_">
</g>
<g id="_x37__1_">
</g>
<g id="_x38__1_">
	<g>
		<path fill="#0589D1" d="M179.7,27.6c-2,0-3.7-1.3-3.7-3.6v-5.1c0-2.3,1.7-3.6,3.7-3.6c2,0,3.7,1.3,3.7,3.6V24
			C183.4,26.3,181.7,27.6,179.7,27.6z M181.2,18.9c0-1-0.6-1.6-1.5-1.6c-0.9,0-1.5,0.6-1.5,1.6v5c0,1,0.6,1.6,1.5,1.6
			c0.9,0,1.5-0.6,1.5-1.6V18.9z"/>
		<path fill="#0589D1" d="M185.9,22.9v-2.5h2.5v2.5H185.9z M185.9,27.5V25h2.5v2.5H185.9z"/>
		<path fill="#0589D1" d="M190.6,27.5v-2l4.5-5.3c0.4-0.5,0.6-0.9,0.6-1.5c0-0.9-0.5-1.5-1.5-1.5c-0.7,0-1.5,0.4-1.5,1.5h-2.2
			c0-2.2,1.6-3.5,3.7-3.5c2.1,0,3.7,1.3,3.7,3.5c0,1.2-0.5,1.8-1.3,2.8l-3.4,3.9h4.7v2H190.6z"/>
		<path fill="#0589D1" d="M206.1,26.6c-0.5,0.5-1.4,1-2.7,1s-2.2-0.4-2.7-1c-0.7-0.7-0.9-1.6-1-2.5h2.2c0.1,1,0.6,1.5,1.5,1.5
			c0.4,0,0.8-0.1,1.1-0.4c0.4-0.4,0.5-1,0.5-1.8c0-1.4-0.4-2.2-1.5-2.2c-0.9,0-1.3,0.5-1.5,1h-2v-6.8h6.9v2H202V20
			c0.3-0.3,1-0.6,1.8-0.6c1,0,1.8,0.3,2.3,0.8c1,1,1.1,2.1,1.1,3.2C207.2,24.8,207,25.7,206.1,26.6z"/>
	</g>
</g>
<g id="_x39__1_">
</g>
<g id="Layer_2">
	<line fill="none" stroke="#CDD1D3" stroke-miterlimit="10" x1="370.9" y1="117.4" x2="370.9" y2="143.9"/>
	<line fill="none" stroke="#CDD1D3" stroke-miterlimit="10" x1="499.1" y1="117.4" x2="499.1" y2="143.9"/>
	<path fill="#69747A" d="M49.6,64.1c-0.4,0.4-1,0.7-1.8,0.7c-0.8,0-1.5-0.3-1.9-0.7c-0.4-0.4-0.6-0.9-0.6-1.6h0.9
		c0.1,0.9,0.6,1.4,1.6,1.4c0.5,0,0.9-0.2,1.1-0.4c0.5-0.5,0.5-1.2,0.5-1.9c0-1.1-0.2-2.2-1.6-2.2c-0.8,0-1.4,0.4-1.5,0.9h-0.8v-4.9
		h4.7v0.8h-3.8v2.9c0.4-0.4,0.9-0.6,1.7-0.6c0.7,0,1.2,0.2,1.6,0.6c0.7,0.7,0.8,1.6,0.8,2.5C50.3,62.5,50.3,63.4,49.6,64.1z"/>
	<path fill="#69747A" d="M54.5,64.8c-1.5,0-2.5-1-2.5-2.5v-4.3c0-1.5,1.1-2.5,2.5-2.5c1.4,0,2.5,1,2.5,2.5v4.3
		C57,63.7,56,64.8,54.5,64.8z M56.1,57.9c0-1-0.6-1.8-1.6-1.8s-1.6,0.8-1.6,1.8v4.2c0,1,0.6,1.8,1.6,1.8s1.6-0.8,1.6-1.8V57.9z"/>
	<path fill="#69747A" d="M45.2,90.7v-0.8l3.7-4.6c0.4-0.5,0.5-0.9,0.5-1.4c0-1-0.6-1.7-1.6-1.7c-0.9,0-1.6,0.5-1.6,1.7h-0.9
		c0-1.5,1-2.5,2.5-2.5c1.5,0,2.5,1,2.5,2.5c0,0.7-0.2,1.2-0.7,1.9l-3.2,4.1h4v0.8H45.2z"/>
	<path fill="#69747A" d="M56.4,90.1c-0.4,0.4-1,0.7-1.8,0.7c-0.8,0-1.5-0.3-1.9-0.7c-0.4-0.4-0.6-0.9-0.6-1.6H53
		c0.1,0.9,0.6,1.4,1.6,1.4c0.5,0,0.9-0.2,1.1-0.4c0.5-0.5,0.5-1.2,0.5-1.9c0-1.1-0.2-2.2-1.6-2.2c-0.8,0-1.4,0.4-1.5,0.9h-0.8v-4.9
		h4.7v0.8h-3.8v2.9c0.4-0.4,0.9-0.6,1.7-0.6c0.7,0,1.2,0.2,1.6,0.6c0.7,0.7,0.8,1.6,0.8,2.5C57.1,88.5,57,89.4,56.4,90.1z"/>
	<path fill="#69747A" d="M54.5,119.7c-1.5,0-2.5-1-2.5-2.5v-4.3c0-1.5,1.1-2.5,2.5-2.5c1.4,0,2.5,1,2.5,2.5v4.3
		C57,118.7,56,119.7,54.5,119.7z M56.1,112.9c0-1-0.6-1.8-1.6-1.8c-1,0-1.6,0.8-1.6,1.8v4.2c0,1,0.6,1.8,1.6,1.8
		c1,0,1.6-0.8,1.6-1.8V112.9z"/>
	<path fill="#69747A" d="M616.2,66.8v-7.6l-1.6,1.4v-1l1.6-1.4h0.9v8.5H616.2z"/>
	<path fill="#69747A" d="M622.6,66.9c-1.5,0-2.4-1-2.4-2.5c0-0.6,0.2-1.2,0.5-1.9l2.1-4.2h0.9l-1.9,3.8c0.3-0.1,0.6-0.2,0.9-0.2
		c1.3,0,2.2,1,2.2,2.4C624.9,65.8,624,66.9,622.6,66.9z M622.6,62.7c-0.9,0-1.5,0.7-1.5,1.7c0,1,0.6,1.7,1.5,1.7s1.5-0.7,1.5-1.7
		C624.1,63.5,623.5,62.7,622.6,62.7z"/>
	<path fill="#69747A" d="M628.8,66.9c-1.3,0-2.3-0.9-2.3-2.4v-4c0-1.4,1-2.4,2.3-2.4c1.3,0,2.3,0.9,2.3,2.4v4
		C631.1,66,630.1,66.9,628.8,66.9z M630.3,60.6c0-0.9-0.5-1.6-1.5-1.6s-1.5,0.7-1.5,1.6v3.9c0,0.9,0.5,1.6,1.5,1.6s1.5-0.7,1.5-1.6
		V60.6z"/>
	<path fill="#69747A" d="M635.1,66.9c-1.3,0-2.3-0.9-2.3-2.4v-4c0-1.4,1-2.4,2.3-2.4c1.3,0,2.3,0.9,2.3,2.4v4
		C637.4,66,636.4,66.9,635.1,66.9z M636.5,60.6c0-0.9-0.5-1.6-1.5-1.6s-1.5,0.7-1.5,1.6v3.9c0,0.9,0.5,1.6,1.5,1.6s1.5-0.7,1.5-1.6
		V60.6z"/>
	<path fill="#69747A" d="M616.3,93.9c-1.4,0-2.5-1-2.5-2.4c0-1,0.6-1.7,1.3-2.1c-0.7-0.4-1.1-1-1.1-1.9c0-1.3,1-2.3,2.4-2.3
		c1.4,0,2.4,1,2.4,2.3c0,0.9-0.4,1.5-1.1,1.9c0.7,0.4,1.3,1.1,1.3,2.1C618.8,92.9,617.7,93.9,616.3,93.9z M616.3,89.8
		c-0.9,0-1.7,0.7-1.7,1.7c0,0.9,0.7,1.7,1.7,1.7s1.7-0.7,1.7-1.7C617.9,90.5,617.2,89.8,616.3,89.8z M616.3,86
		c-0.9,0-1.5,0.6-1.5,1.5c0,0.9,0.6,1.5,1.5,1.5c0.9,0,1.5-0.6,1.5-1.5C617.8,86.6,617.2,86,616.3,86z"/>
	<path fill="#69747A" d="M622.5,93.9c-1.3,0-2.3-0.9-2.3-2.4v-4c0-1.4,1-2.4,2.3-2.4c1.3,0,2.3,0.9,2.3,2.4v4
		C624.9,92.9,623.9,93.9,622.5,93.9z M624,87.6c0-0.9-0.5-1.6-1.5-1.6c-0.9,0-1.5,0.7-1.5,1.6v3.9c0,0.9,0.5,1.6,1.5,1.6
		c0.9,0,1.5-0.7,1.5-1.6V87.6z"/>
	<path fill="#69747A" d="M628.8,93.9c-1.3,0-2.3-0.9-2.3-2.4v-4c0-1.4,1-2.4,2.3-2.4c1.3,0,2.3,0.9,2.3,2.4v4
		C631.1,92.9,630.1,93.9,628.8,93.9z M630.3,87.6c0-0.9-0.5-1.6-1.5-1.6s-1.5,0.7-1.5,1.6v3.9c0,0.9,0.5,1.6,1.5,1.6
		s1.5-0.7,1.5-1.6V87.6z"/>
	<path fill="#69747A" d="M616.3,120.9c-1.3,0-2.3-0.9-2.3-2.4v-4c0-1.4,1-2.4,2.3-2.4c1.3,0,2.3,0.9,2.3,2.4v4
		C618.6,119.9,617.6,120.9,616.3,120.9z M617.8,114.6c0-0.9-0.5-1.6-1.5-1.6c-0.9,0-1.5,0.7-1.5,1.6v3.9c0,0.9,0.5,1.6,1.5,1.6
		c0.9,0,1.5-0.7,1.5-1.6V114.6z"/>
	<path fill="#69747A" d="M221.6,139.3v-10h1.1v9h5.1v1H221.6z"/>
	<path fill="#69747A" d="M233.3,139.3v-0.7c-0.5,0.5-1.1,0.7-2,0.7c-1,0-1.5-0.2-1.9-0.6c-0.4-0.3-0.5-0.9-0.5-1.4
		c0-1.2,0.9-2,2.4-2h2.1v-0.7c0-1-0.5-1.5-1.8-1.5c-0.9,0-1.3,0.2-1.7,0.8l-0.7-0.6c0.6-0.8,1.3-1,2.4-1c1.9,0,2.8,0.8,2.8,2.3v4.7
		H233.3z M233.3,136.1h-1.9c-1,0-1.6,0.4-1.6,1.2c0,0.8,0.5,1.2,1.6,1.2c0.6,0,1.1-0.1,1.5-0.5c0.2-0.2,0.4-0.6,0.4-1.2V136.1z"/>
	<path fill="#69747A" d="M241.4,138.8c-0.4,0.4-1,0.6-1.7,0.6c-0.8,0-1.4-0.2-1.9-0.9v3.9h-1v-10h1v0.8c0.6-0.7,1.2-0.9,1.9-0.9
		c0.7,0,1.3,0.2,1.7,0.6c0.7,0.7,0.8,1.8,0.8,2.9S242.1,138.1,241.4,138.8z M239.5,133.2c-1.5,0-1.7,1.3-1.7,2.6s0.2,2.6,1.7,2.6
		c1.5,0,1.7-1.3,1.7-2.6S241,133.2,239.5,133.2z"/>
	<path fill="#69747A" d="M250.2,139.3v-8.9l-1.9,1.6v-1.1l1.9-1.6h1v10H250.2z"/>
	<path fill="#69747A" d="M423.3,139.3v-10h1.1v9h5.1v1H423.3z"/>
	<path fill="#69747A" d="M435,139.3v-0.7c-0.5,0.5-1.1,0.7-2,0.7c-1,0-1.5-0.2-1.9-0.6c-0.4-0.3-0.5-0.9-0.5-1.4c0-1.2,0.9-2,2.4-2
		h2.1v-0.7c0-1-0.5-1.5-1.8-1.5c-0.9,0-1.3,0.2-1.7,0.8l-0.7-0.6c0.6-0.8,1.3-1,2.4-1c1.9,0,2.8,0.8,2.8,2.3v4.7H435z M435,136.1
		h-1.9c-1,0-1.6,0.4-1.6,1.2c0,0.8,0.5,1.2,1.6,1.2c0.6,0,1.1-0.1,1.5-0.5c0.2-0.2,0.4-0.6,0.4-1.2V136.1z"/>
	<path fill="#69747A" d="M443.1,138.8c-0.4,0.4-1,0.6-1.7,0.6c-0.8,0-1.4-0.2-1.9-0.9v3.9h-1v-10h1v0.8c0.6-0.7,1.2-0.9,1.9-0.9
		c0.7,0,1.3,0.2,1.7,0.6c0.7,0.7,0.8,1.8,0.8,2.9S443.8,138.1,443.1,138.8z M441.2,133.2c-1.5,0-1.7,1.3-1.7,2.6s0.2,2.6,1.7,2.6
		c1.5,0,1.7-1.3,1.7-2.6S442.7,133.2,441.2,133.2z"/>
	<path fill="#69747A" d="M449.3,139.3v-0.9l3.9-5c0.4-0.5,0.6-0.9,0.6-1.5c0-1.1-0.6-1.8-1.7-1.8c-0.9,0-1.7,0.5-1.7,1.8h-1
		c0-1.6,1.1-2.7,2.7-2.7c1.6,0,2.7,1.1,2.7,2.7c0,0.8-0.3,1.3-0.8,2l-3.5,4.5h4.3v0.9H449.3z"/>
	<path fill="#69747A" d="M521.8,139.3v-10h1.1v9h5.1v1H521.8z"/>
	<path fill="#69747A" d="M533.5,139.3v-0.7c-0.5,0.5-1.1,0.7-2,0.7c-1,0-1.5-0.2-1.9-0.6c-0.4-0.3-0.5-0.9-0.5-1.4
		c0-1.2,0.9-2,2.4-2h2.1v-0.7c0-1-0.5-1.5-1.8-1.5c-0.9,0-1.3,0.2-1.7,0.8l-0.7-0.6c0.6-0.8,1.3-1,2.4-1c1.9,0,2.8,0.8,2.8,2.3v4.7
		H533.5z M533.5,136.1h-1.9c-1,0-1.6,0.4-1.6,1.2c0,0.8,0.5,1.2,1.6,1.2c0.6,0,1.1-0.1,1.5-0.5c0.2-0.2,0.4-0.6,0.4-1.2V136.1z"/>
	<path fill="#69747A" d="M541.6,138.8c-0.4,0.4-1,0.6-1.7,0.6c-0.8,0-1.4-0.2-1.9-0.9v3.9h-1v-10h1v0.8c0.6-0.7,1.2-0.9,1.9-0.9
		c0.7,0,1.3,0.2,1.7,0.6c0.7,0.7,0.8,1.8,0.8,2.9S542.3,138.1,541.6,138.8z M539.7,133.2c-1.5,0-1.7,1.3-1.7,2.6s0.2,2.6,1.7,2.6
		c1.5,0,1.7-1.3,1.7-2.6S541.2,133.2,539.7,133.2z"/>
	<path fill="#69747A" d="M550.4,139.4c-1.6,0-2.8-0.8-2.9-2.6h1c0.1,1.2,1,1.7,1.9,1.7c1.1,0,1.9-0.7,1.9-1.9c0-1.2-0.6-1.9-2-1.9
		h-0.2v-0.9h0.2c1.2,0,1.8-0.7,1.8-1.8c0-1.2-0.8-1.8-1.7-1.8c-1.1,0-1.7,0.6-1.8,1.7h-1c0.1-1.6,1.3-2.6,2.8-2.6
		c1.6,0,2.7,1.1,2.7,2.7c0,1.1-0.4,1.8-1.3,2.2c1,0.4,1.5,1.2,1.5,2.4C553.3,138.4,552,139.4,550.4,139.4z"/>
	<path fill="#69747A" d="M614,39.8v-0.8l3.4-4.3c0.3-0.4,0.5-0.8,0.5-1.3c0-0.9-0.6-1.5-1.5-1.5c-0.8,0-1.5,0.4-1.5,1.5H614
		c0-1.3,0.9-2.3,2.4-2.3c1.4,0,2.4,0.9,2.4,2.3c0,0.7-0.2,1.1-0.7,1.7l-3,3.8h3.7v0.8H614z"/>
	<path fill="#69747A" d="M624.1,38.5v1.4h-0.9v-1.4h-3.4v-0.8l3.1-6.4h0.9l-3.1,6.4h2.5v-2.4h0.9v2.4h1v0.8H624.1z"/>
	<path fill="#69747A" d="M628.8,39.9c-1.3,0-2.3-0.9-2.3-2.4v-4c0-1.4,1-2.4,2.3-2.4c1.3,0,2.3,0.9,2.3,2.4v4
		C631.1,39,630.1,39.9,628.8,39.9z M630.3,33.6c0-0.9-0.5-1.6-1.5-1.6s-1.5,0.7-1.5,1.6v3.9c0,0.9,0.5,1.6,1.5,1.6s1.5-0.7,1.5-1.6
		V33.6z"/>
	<path fill="#69747A" d="M635.1,39.9c-1.3,0-2.3-0.9-2.3-2.4v-4c0-1.4,1-2.4,2.3-2.4c1.3,0,2.3,0.9,2.3,2.4v4
		C637.4,39,636.4,39.9,635.1,39.9z M636.5,33.6c0-0.9-0.5-1.6-1.5-1.6s-1.5,0.7-1.5,1.6v3.9c0,0.9,0.5,1.6,1.5,1.6s1.5-0.7,1.5-1.6
		V33.6z"/>
	<path fill="#69747A" d="M47.2,40.7h-1l3.2-8.4h-3.2v1.5h-0.9v-2.3h5.1v0.8L47.2,40.7z"/>
	<path fill="#69747A" d="M56.4,40.1c-0.4,0.4-1,0.7-1.8,0.7c-0.8,0-1.5-0.3-1.9-0.7c-0.4-0.4-0.6-0.9-0.6-1.6H53
		c0.1,0.9,0.6,1.4,1.6,1.4c0.5,0,0.9-0.2,1.1-0.4c0.5-0.5,0.5-1.2,0.5-1.9c0-1.1-0.2-2.2-1.6-2.2c-0.8,0-1.4,0.4-1.5,0.9h-0.8v-4.9
		h4.7v0.8h-3.8v2.9c0.4-0.4,0.9-0.6,1.7-0.6c0.7,0,1.2,0.2,1.6,0.6c0.7,0.7,0.8,1.6,0.8,2.5C57.1,38.6,57,39.4,56.4,40.1z"/>
	<path fill="#69747A" d="M623.5,137.4h-1l-2.2-8l-2.2,8h-1l-2.5-10h1.1l1.9,8l2.2-8h1l2.2,8l1.9-8h1.1L623.5,137.4z"/>
	<path fill="#69747A" d="M631,137.4v-0.7c-0.5,0.5-1.1,0.7-2,0.7c-1,0-1.5-0.2-1.9-0.6c-0.4-0.3-0.5-0.9-0.5-1.4c0-1.2,0.9-2,2.4-2
		h2.1v-0.7c0-1-0.5-1.5-1.8-1.5c-0.9,0-1.3,0.2-1.7,0.8l-0.7-0.6c0.6-0.8,1.3-1,2.4-1c1.9,0,2.8,0.8,2.8,2.3v4.7H631z M631,134.2
		h-1.9c-1,0-1.6,0.4-1.6,1.2c0,0.8,0.5,1.2,1.6,1.2c0.6,0,1.1-0.1,1.5-0.5c0.2-0.2,0.3-0.6,0.3-1.2V134.2z"/>
	<path fill="#69747A" d="M636.4,137.4c-1.2,0-1.8-0.8-1.8-1.8v-4.3h-0.9v-0.8h0.9v-2.1h1v2.1h1.5v0.8h-1.5v4.2c0,0.6,0.3,1,0.9,1
		h0.5v0.9H636.4z"/>
	<path fill="#69747A" d="M641,137.4c-1.2,0-1.8-0.8-1.8-1.8v-4.3h-0.9v-0.8h0.9v-2.1h1v2.1h1.5v0.8h-1.5v4.2c0,0.6,0.3,1,0.9,1h0.5
		v0.9H641z"/>
	<path fill="#69747A" d="M618.5,15.6h-2.6v4.1h-1.1v-10h3.7c1.8,0,3.1,1.1,3.1,2.9C621.5,14.4,620.3,15.6,618.5,15.6z M618.4,10.7
		h-2.6v4h2.6c1.2,0,2.1-0.7,2.1-2C620.5,11.3,619.6,10.7,618.4,10.7z"/>
	<path fill="#69747A" d="M627.7,19c-0.5,0.5-1.1,0.8-2,0.8c-0.8,0-1.5-0.3-2-0.8c-0.7-0.7-0.8-1.7-0.8-2.7s0.1-2,0.8-2.7
		c0.5-0.5,1.1-0.8,2-0.8c0.8,0,1.5,0.3,2,0.8c0.7,0.7,0.8,1.7,0.8,2.7S628.4,18.3,627.7,19z M627,14.1c-0.3-0.3-0.8-0.5-1.3-0.5
		s-0.9,0.2-1.2,0.5c-0.5,0.5-0.6,1.3-0.6,2.1c0,0.8,0,1.6,0.6,2.1c0.3,0.3,0.8,0.5,1.2,0.5s0.9-0.2,1.3-0.5c0.5-0.5,0.5-1.4,0.5-2.1
		C627.5,15.5,627.5,14.6,627,14.1z"/>
	<path fill="#69747A" d="M637.1,19.7h-0.9l-1.8-5.4l-1.8,5.4h-0.9l-2.2-6.9h1.1l1.6,5.5l1.8-5.5h0.9l1.8,5.5l1.6-5.5h1.1L637.1,19.7
		z"/>
	<path fill="#69747A" d="M641.2,16.5c0,1.5,0.7,2.4,2,2.4c0.8,0,1.3-0.2,1.8-0.8l0.7,0.6c-0.7,0.7-1.4,1.1-2.5,1.1
		c-1.8,0-3-1.1-3-3.5c0-2.2,1.1-3.5,2.8-3.5c1.8,0,2.8,1.3,2.8,3.3v0.4H641.2z M644.6,14.6c-0.3-0.6-0.9-1-1.6-1
		c-0.7,0-1.3,0.4-1.6,1c-0.2,0.4-0.2,0.6-0.2,1.1h3.7C644.8,15.2,644.8,15,644.6,14.6z"/>
	<path fill="#69747A" d="M651.8,14.1c-0.4-0.4-0.7-0.5-1.2-0.5c-1,0-1.7,0.8-1.7,1.8v4.2h-1v-6.9h1v0.8c0.4-0.6,1.1-0.9,1.9-0.9
		c0.7,0,1.2,0.2,1.7,0.6L651.8,14.1z"/>
	<path fill="#69747A" d="M31.2,137.4l-2.2-3.5l-1.3,1.5v2h-1v-10h1v6.7l3.1-3.6H32l-2.3,2.6l2.7,4.3H31.2z"/>
	<path fill="#69747A" d="M43,137.4v-4.2c0-1.2-0.7-1.8-1.7-1.8c-1,0-1.7,0.6-1.7,1.7v4.4h-1v-4.2c0-1.2-0.7-1.8-1.7-1.8
		s-1.7,0.6-1.7,1.8v4.2h-1v-6.9h1v0.8c0.5-0.6,1.2-0.8,1.9-0.8c1,0,1.7,0.4,2.1,1.1c0.5-0.8,1.3-1.1,2.3-1.1c0.7,0,1.4,0.2,1.8,0.6
		c0.5,0.5,0.7,1.1,0.7,1.9v4.4H43z"/>
	<path fill="#69747A" d="M46.2,138.4h-1l4-12h1L46.2,138.4z"/>
	<path fill="#69747A" d="M55.8,137.4v-4.3c0-1.2-0.6-1.8-1.7-1.8s-1.7,0.6-1.7,1.8v4.3h-1v-10h1v3.8c0.5-0.6,1.1-0.8,1.9-0.8
		c1.6,0,2.5,1,2.5,2.5v4.4H55.8z"/>
	<path fill="#69747A" d="M22.8,19.8c-1.5,0-2.5-0.4-3.4-1.3l0.7-0.7c0.8,0.8,1.6,1.1,2.7,1.1c1.5,0,2.4-0.7,2.4-1.8
		c0-0.5-0.2-1-0.5-1.2c-0.3-0.3-0.6-0.4-1.3-0.5l-1.2-0.2c-0.8-0.1-1.4-0.4-1.8-0.8c-0.5-0.4-0.8-1.1-0.8-1.9c0-1.7,1.2-2.8,3.2-2.8
		c1.3,0,2.1,0.3,3,1.1l-0.7,0.7c-0.6-0.6-1.3-0.9-2.3-0.9c-1.3,0-2.1,0.7-2.1,1.9c0,0.5,0.1,0.9,0.4,1.2c0.3,0.3,0.8,0.4,1.3,0.5
		l1.2,0.2c0.9,0.1,1.4,0.3,1.8,0.7c0.5,0.5,0.8,1.1,0.8,2C26.2,18.7,24.9,19.8,22.8,19.8z"/>
	<path fill="#69747A" d="M32.9,19.2c-0.4,0.4-1,0.6-1.7,0.6c-0.8,0-1.4-0.2-1.9-0.9v3.9h-1v-10h1v0.8c0.6-0.7,1.2-0.9,1.9-0.9
		c0.7,0,1.3,0.2,1.7,0.6c0.7,0.7,0.8,1.8,0.8,2.9S33.6,18.5,32.9,19.2z M31,13.6c-1.5,0-1.7,1.3-1.7,2.6s0.2,2.6,1.7,2.6
		c1.5,0,1.7-1.3,1.7-2.6S32.5,13.6,31,13.6z"/>
	<path fill="#69747A" d="M36.5,16.5c0,1.5,0.7,2.4,2,2.4c0.8,0,1.3-0.2,1.8-0.8l0.7,0.6c-0.7,0.7-1.4,1.1-2.5,1.1
		c-1.8,0-3-1.1-3-3.5c0-2.2,1.1-3.5,2.8-3.5c1.8,0,2.8,1.3,2.8,3.3v0.4H36.5z M40,14.6c-0.3-0.6-0.9-1-1.6-1c-0.7,0-1.3,0.4-1.6,1
		c-0.2,0.4-0.2,0.6-0.2,1.1h3.7C40.2,15.2,40.1,15,40,14.6z"/>
	<path fill="#69747A" d="M44,16.5c0,1.5,0.7,2.4,2,2.4c0.8,0,1.3-0.2,1.8-0.8l0.7,0.6c-0.7,0.7-1.4,1.1-2.5,1.1c-1.8,0-3-1.1-3-3.5
		c0-2.2,1.1-3.5,2.8-3.5c1.8,0,2.8,1.3,2.8,3.3v0.4H44z M47.4,14.6c-0.3-0.6-0.9-1-1.6-1c-0.7,0-1.3,0.4-1.6,1
		C44,15,44,15.2,44,15.7h3.7C47.6,15.2,47.6,15,47.4,14.6z"/>
	<path fill="#69747A" d="M54.9,19.7v-0.8c-0.6,0.7-1.2,0.9-2,0.9c-0.7,0-1.3-0.2-1.7-0.6c-0.7-0.7-0.8-1.8-0.8-2.9s0.2-2.2,0.8-2.9
		c0.4-0.4,1-0.6,1.7-0.6c0.8,0,1.4,0.2,1.9,0.9V9.7h1v10H54.9z M53.1,13.6c-1.5,0-1.7,1.3-1.7,2.6s0.2,2.6,1.7,2.6
		c1.5,0,1.7-1.3,1.7-2.6S54.6,13.6,53.1,13.6z"/>
	<path fill="#69747A" d="M14.2,172.3v-10h6.6v1.7h-4.6v2.3h3.9v1.7h-3.9v2.4h4.6v1.7H14.2z"/>
	<path fill="#69747A" d="M25.7,172.3h-1.4l-2.7-7.3h1.9l1.5,4.5l1.5-4.5h1.9L25.7,172.3z"/>
	<path fill="#69747A" d="M30.8,169.2c0,1,0.6,1.6,1.6,1.6c0.8,0,1.2-0.2,1.7-0.7l1.1,1.1c-0.7,0.8-1.5,1.1-2.8,1.1
		c-1.7,0-3.4-0.8-3.4-3.7c0-2.4,1.3-3.7,3.2-3.7c2,0,3.2,1.5,3.2,3.5v0.8H30.8z M33.4,167.2c-0.2-0.4-0.6-0.8-1.2-0.8
		c-0.6,0-1,0.3-1.2,0.8c-0.1,0.3-0.2,0.5-0.2,0.8h2.8C33.5,167.7,33.5,167.5,33.4,167.2z"/>
	<path fill="#69747A" d="M41.2,172.3v-4.4c0-1-0.6-1.3-1.2-1.3c-0.6,0-1.2,0.3-1.2,1.3v4.4H37V165h1.8v0.7c0.5-0.5,1.1-0.8,1.8-0.8
		c0.7,0,1.3,0.2,1.7,0.6c0.6,0.6,0.7,1.3,0.7,2.1v4.7H41.2z"/>
	<path fill="#69747A" d="M47.3,172.3c-1.5,0-2.1-1.1-2.1-2.1v-3.6h-0.8v-1.4h0.8v-2.2H47v2.2h1.3v1.4H47v3.5c0,0.4,0.2,0.7,0.6,0.7
		h0.7v1.5H47.3z"/>
	<path fill="#69747A" d="M52.3,172.4c-1.1,0-2.2-0.1-3.1-1.1l1.2-1.2c0.6,0.6,1.4,0.7,1.9,0.7c0.6,0,1.3-0.2,1.3-0.8
		c0-0.4-0.2-0.6-0.8-0.7l-1.2-0.1c-1.3-0.1-2.1-0.7-2.1-2c0-1.5,1.3-2.3,2.8-2.3c1.1,0,2.1,0.2,2.8,0.9l-1.1,1.1
		c-0.4-0.4-1.1-0.5-1.7-0.5c-0.7,0-1,0.3-1,0.7s0.2,0.6,0.8,0.6l1.1,0.1c1.4,0.1,2.2,0.9,2.2,2.1C55.4,171.6,54,172.4,52.3,172.4z"
		/>
	
		<line fill="none" stroke="#69747A" stroke-width="2" stroke-linejoin="round" stroke-miterlimit="10" x1="579" y1="116.6" x2="601.8" y2="116.6"/>
	
		<line fill="none" stroke="#69747A" stroke-width="2" stroke-linejoin="round" stroke-miterlimit="10" x1="67.5" y1="116.6" x2="90.2" y2="116.6"/>
	
		<line fill="none" stroke="#69747A" stroke-width="2" stroke-linejoin="round" stroke-miterlimit="10" x1="101.7" y1="116.6" x2="569.1" y2="116.6"/>
</g>
</svg>
