<?xml version="1.0" encoding="utf-8"?>
<!-- Generator: Adobe Illustrator 18.1.0, SVG Export Plug-In . SVG Version: 6.00 Build 0)  -->
<svg version="1.1" xmlns="http://www.w3.org/2000/svg" xmlns:xlink="http://www.w3.org/1999/xlink" x="0px" y="0px"
	 viewBox="0 0 680 200.7" enable-background="new 0 0 680 200.7" xml:space="preserve">
<g id="Layer_1">
	<line fill="none" stroke="#E6E8E9" stroke-miterlimit="10" x1="590.4" y1="136.3" x2="590.4" y2="58.6"/>
	<line fill="none" stroke="#E6E8E9" stroke-miterlimit="10" x1="78.8" y1="136.3" x2="78.8" y2="58.6"/>
	<line fill="none" stroke="#CDD1D3" stroke-miterlimit="10" x1="99.5" y1="189.7" x2="569.7" y2="189.7"/>
</g>
<g id="_x30__1_">
</g>
<g id="_x31__1_">
</g>
<g id="_x32__1_">
</g>
<g id="_x33__1_">
</g>
<g id="_x34__1_">
</g>
<g id="_x35__1_">
</g>
<g id="_x36__1_">
</g>
<g id="_x37__1_">
</g>
<g id="_x38__1_">
	<rect x="583.6" y="78.1" fill="#9BA3A6" width="13.6" height="59.1"/>
	<line fill="none" stroke="#CDD1D3" stroke-miterlimit="10" x1="370.9" y1="139.3" x2="370.9" y2="164.6"/>
	<line fill="none" stroke="#CDD1D3" stroke-miterlimit="10" x1="499.1" y1="139.3" x2="499.1" y2="164.6"/>
	
		<line fill="none" stroke="#BBBBBB" stroke-width="0.5371" stroke-linejoin="round" stroke-miterlimit="10" x1="105.1" y1="137.2" x2="569.1" y2="137.2"/>
	<path fill="none" stroke="#E6E8E9" stroke-linejoin="round" stroke-miterlimit="10" d="M105,110.4h464.2 M105,83.8h464.2 M105,57.2
		h464.2"/>
	
		<line fill="none" stroke="#69747A" stroke-width="2" stroke-linejoin="round" stroke-miterlimit="10" x1="101.7" y1="137.3" x2="569.1" y2="137.3"/>
	
		<line fill="none" stroke="#37464D" stroke-width="1.4921" stroke-linecap="round" stroke-linejoin="round" stroke-miterlimit="10" x1="72" y1="64.2" x2="85.6" y2="64.2"/>
	
		<path fill="none" stroke="#37464D" stroke-width="1.4921" stroke-linecap="round" stroke-linejoin="round" stroke-miterlimit="10" d="
		M102.6,137.3c10.3-5.3,10.7-13.2,30.8-16c20.1-2.8,57.2,0.2,89.7-0.7c32.5-0.9,76.9-2.9,105.1-4.6c28.2-1.8,45.7-3.8,64.1-6.1
		c18.4-2.3,30.8-2.9,46.1-7.5c15.4-4.6,34.2-15.1,46.1-20c11.8-4.8,18-6.3,25.6-9.2c7.7-2.9,10.7-6.6,20.5-8.5
		c9.8-1.9,25.6-1.9,38.4-2.8"/>
	<path opacity="0.6" fill="#69747A" d="M102.6,137.3c7.9-0.1,15.4-0.4,30.8-0.5c20.1-0.2,57.2-0.2,89.7-0.5
		c32.5-0.3,76.9-0.5,105.1-1.6c28.2-1,45.7-3.6,64.1-4.7c15.6-1,33.1,3.4,46.1-2.2c15.4-6.6,34.2-28.2,46.1-37.2
		c11.3-8.4,18.4-14.4,25.6-16.5c6.9-2,11.6,0.9,20.5,3c9.8,2.3,25.2,9.1,38.4,11v49"/>
	<circle fill="#CDD1D3" cx="161.3" cy="189.7" r="5"/>
	<circle fill="#CDD1D3" cx="227.9" cy="189.7" r="5"/>
	<circle fill="#CDD1D3" cx="364.2" cy="189.7" r="5"/>
	<circle fill="#CDD1D3" cx="406.4" cy="189.7" r="5"/>
	<circle fill="#CDD1D3" cx="443.3" cy="189.7" r="5"/>
	<circle fill="#CDD1D3" cx="486.5" cy="189.7" r="5"/>
	<circle fill="#CDD1D3" cx="566.3" cy="189.7" r="5"/>
	<circle fill="#0589D1" cx="540.7" cy="189.7" r="5"/>
	<circle fill="#CDD1D3" cx="102.8" cy="189.7" r="5"/>
	<circle fill="#CDD1D3" cx="514.7" cy="189.7" r="5"/>
	<line fill="none" stroke="#0589D1" stroke-width="2" stroke-miterlimit="10" x1="540.6" y1="137.2" x2="540.6" y2="57.3"/>
	<path fill="#0589D1" d="M551.9,43.7c-1.2-0.5-2.5-0.6-3.7-0.4l-0.4-1.2h1.9c0.2,0,0.4-0.2,0.4-0.4c0-0.2-0.2-0.4-0.4-0.4h-2.2
		l-0.1-0.4h2.4c0.2,0,0.4-0.2,0.4-0.4c0.1,0,0.1,0,0.1,0.1c0.4,0.2,0.5,0.3,0.8,0.3c0.2,0,0.5-0.8,0.4-1.2s0.1-0.5-0.4-0.5
		c-0.5,0-3.1-0.3-3.8-0.4c-0.6-0.1-0.9-1.6-0.9-2.7c-0.1-1-0.2-1.4-0.2-1.4c0,0.1,0.6,0.6,0.8,0.7s1.4-0.8,1.8-1.2s0.4-0.4,0.4-0.4
		l0.3,0.1c0,0,0.6-2-0.5-2.9s-3.6-0.9-4.6-0.6c-0.9,0.3-0.8,0.3-0.8,0.3l1.1,1.2l-0.1,0.1c0,0-1.2-1-3.7-0.7c-1.7,0.2-4,1.1-5.4,2.8
		c-1.4,1.7-0.9,2.8-0.6,3.3c0.1,0.2,0.2,0.4,0.5,0.6h-1.9c-0.2,0-0.4,0.2-0.4,0.4v0c0,0.2,0.1,0.3,0.3,0.4c0.2,0,0.5,0.1,0.8,0.1
		l1.7,4.4l-0.8,1c-0.9-0.6-2-0.9-3.2-0.9c-3.5,0-6.3,2.8-6.3,6.3c0,3.5,2.8,6.3,6.3,6.3c2.3,0,4.2-1.2,5.3-3c0.4,0.2,2,0.5,2.5,0.6
		c0.5,0.1,0.7-0.3,0.8-0.5c0.1-0.2-0.6-0.5-1.2-0.9c-0.1-0.1-0.2-0.3-0.3-0.5c0.2,0,0.3,0.1,0.5,0.1c1.1,0,1.9-0.9,1.9-1.9
		c0-0.4-0.1-0.7-0.3-1l5.6-5.9l0.3,1c-1.5,0.6-2.7,1.8-3.4,3.4c-1.4,3.2,0.2,6.9,3.4,8.2c3.2,1.4,6.9-0.2,8.2-3.4
		C556.6,48.7,555.1,45,551.9,43.7z M541.3,46.5c-0.4-0.5-0.8-1.2-0.8-1.5c0-0.7,0.5-1.7,1.1-2.5c0,0,0.1-0.1,0.1-0.1l3.8-0.2
		L541.3,46.5z M537.7,41.7l-1.5,0.1l-1.2-3.1c0.2,0,0.6-0.1,1-0.2C536.6,39.4,537.3,40.7,537.7,41.7z M536.5,42.6l1.6-0.1
		c0.1,0.2,0.2,0.4,0.2,0.5c0.2,0.6-0.4,1.4-0.8,2.3L536.5,42.6z M539.4,47.7c0,0-0.1,0-0.1,0c0.1-0.3,0.1-0.6,0.2-1
		c0.3,0.2,0.7,0.5,1,0.7l-0.4,0.4C539.8,47.7,539.6,47.7,539.4,47.7z M544.1,35.8c0,0,0.7,2.4,1.3,3.5c0.1,0.1,0.2,0.3,0.2,0.4
		l0.5,1.6l-3.7,0.2c0.8-1,1.9-2.2,1.9-2.6c0-0.6,0-1-0.4-1.3c-0.4-0.4-3-1.9-3-1.9S544,35.8,544.1,35.8z M541.4,38.9
		c0,0-0.6,0.4-1.1,1.4c-0.1-0.5-0.2-1-0.3-1.4C541.1,39,541.4,38.9,541.4,38.9z M535.7,44.6l0.4-0.6l0.6,1.6
		C536.4,45.2,536.1,44.9,535.7,44.6z M550.1,44.5l-0.7,2.5l-0.8-2.5C549.1,44.4,549.6,44.4,550.1,44.5z M544.7,47.5
		c0.5-1.2,1.5-2.1,2.6-2.7l1.4,4.2l-4.3,1.2C544.3,49.3,544.4,48.4,544.7,47.5z M547.4,54.2c-1.3-0.5-2.2-1.5-2.7-2.7l4.5-1.2
		l3.3,3.3C551.1,54.6,549.2,54.9,547.4,54.2z M554.1,51.5c-0.2,0.4-0.4,0.8-0.6,1.1l-3.3-3.3l0,0l0,0l1.2-4.5c0,0,0,0,0.1,0
		C554,45.9,555.2,48.9,554.1,51.5z"/>
	<g>
		<path fill="#0589D1" d="M491.5,48.2v-9.7l-2.5,2.1v-2.4l2.5-2.1h2.2v12.1H491.5z"/>
		<path fill="#0589D1" d="M498.1,43.6V41h2.5v2.5H498.1z M498.1,48.2v-2.5h2.5v2.5H498.1z"/>
		<path fill="#0589D1" d="M502.8,48.2v-2l4.5-5.3c0.4-0.5,0.6-0.9,0.6-1.5c0-0.9-0.5-1.5-1.5-1.5c-0.7,0-1.5,0.4-1.5,1.5h-2.2
			c0-2.2,1.6-3.5,3.7-3.5c2.1,0,3.7,1.3,3.7,3.5c0,1.2-0.5,1.8-1.3,2.8l-3.4,3.9h4.7v2H502.8z"/>
		<path fill="#0589D1" d="M515.6,48.3c-2.1,0-3.8-1.3-3.8-3.7c0-1.1,0.5-2.1,1-3.2l2.5-5.2h2.4l-2.5,5c0.3-0.1,0.6-0.2,0.9-0.2
			c1.6,0,3.2,1.3,3.2,3.6C519.4,46.9,517.8,48.3,515.6,48.3z M515.6,42.7c-0.9,0-1.6,0.6-1.6,1.8c0,1.1,0.7,1.8,1.6,1.8
			c0.9,0,1.6-0.6,1.6-1.8C517.2,43.4,516.6,42.7,515.6,42.7z"/>
	</g>
</g>
<g id="_x39__1_">
</g>
<g id="Layer_2">
	<line fill="none" stroke="#CDD1D3" stroke-miterlimit="10" x1="370.9" y1="138.1" x2="370.9" y2="164.6"/>
	<line fill="none" stroke="#CDD1D3" stroke-miterlimit="10" x1="499.1" y1="138.1" x2="499.1" y2="164.6"/>
	<path fill="#69747A" d="M49.6,84.7c-0.4,0.4-1,0.7-1.8,0.7c-0.8,0-1.5-0.3-1.9-0.7c-0.4-0.4-0.6-0.9-0.6-1.6h0.9
		c0.1,0.9,0.6,1.4,1.6,1.4c0.5,0,0.9-0.2,1.1-0.4c0.5-0.5,0.5-1.2,0.5-1.9c0-1.1-0.2-2.2-1.6-2.2c-0.8,0-1.4,0.4-1.5,0.9h-0.8v-4.9
		h4.7v0.8h-3.8v2.9c0.4-0.4,0.9-0.6,1.7-0.6c0.7,0,1.2,0.2,1.6,0.6c0.7,0.7,0.8,1.6,0.8,2.5C50.3,83.2,50.3,84.1,49.6,84.7z"/>
	<path fill="#69747A" d="M54.5,85.4c-1.5,0-2.5-1-2.5-2.5v-4.3c0-1.5,1.1-2.5,2.5-2.5c1.4,0,2.5,1,2.5,2.5v4.3
		C57,84.4,56,85.4,54.5,85.4z M56.1,78.6c0-1-0.6-1.8-1.6-1.8s-1.6,0.8-1.6,1.8v4.2c0,1,0.6,1.8,1.6,1.8s1.6-0.8,1.6-1.8V78.6z"/>
	<path fill="#69747A" d="M45.2,111.3v-0.8l3.7-4.6c0.4-0.5,0.5-0.9,0.5-1.4c0-1-0.6-1.7-1.6-1.7c-0.9,0-1.6,0.5-1.6,1.7h-0.9
		c0-1.5,1-2.5,2.5-2.5c1.5,0,2.5,1,2.5,2.5c0,0.7-0.2,1.2-0.7,1.9l-3.2,4.1h4v0.8H45.2z"/>
	<path fill="#69747A" d="M56.4,110.7c-0.4,0.4-1,0.7-1.8,0.7c-0.8,0-1.5-0.3-1.9-0.7c-0.4-0.4-0.6-0.9-0.6-1.6H53
		c0.1,0.9,0.6,1.4,1.6,1.4c0.5,0,0.9-0.2,1.1-0.4c0.5-0.5,0.5-1.2,0.5-1.9c0-1.1-0.2-2.2-1.6-2.2c-0.8,0-1.4,0.4-1.5,0.9h-0.8v-4.9
		h4.7v0.8h-3.8v2.9c0.4-0.4,0.9-0.6,1.7-0.6c0.7,0,1.2,0.2,1.6,0.6c0.7,0.7,0.8,1.6,0.8,2.5C57.1,109.2,57,110.1,56.4,110.7z"/>
	<path fill="#69747A" d="M54.5,140.4c-1.5,0-2.5-1-2.5-2.5v-4.3c0-1.5,1.1-2.5,2.5-2.5c1.4,0,2.5,1,2.5,2.5v4.3
		C57,139.4,56,140.4,54.5,140.4z M56.1,133.6c0-1-0.6-1.8-1.6-1.8c-1,0-1.6,0.8-1.6,1.8v4.2c0,1,0.6,1.8,1.6,1.8
		c1,0,1.6-0.8,1.6-1.8V133.6z"/>
	<path fill="#69747A" d="M616.2,87.5v-7.6l-1.6,1.4v-1l1.6-1.4h0.9v8.5H616.2z"/>
	<path fill="#69747A" d="M622.6,87.6c-1.5,0-2.4-1-2.4-2.5c0-0.6,0.2-1.2,0.5-1.9l2.1-4.2h0.9l-1.9,3.8c0.3-0.1,0.6-0.2,0.9-0.2
		c1.3,0,2.2,1,2.2,2.4C624.9,86.5,624,87.6,622.6,87.6z M622.6,83.3c-0.9,0-1.5,0.7-1.5,1.7c0,1,0.6,1.7,1.5,1.7s1.5-0.7,1.5-1.7
		C624.1,84.1,623.5,83.3,622.6,83.3z"/>
	<path fill="#69747A" d="M628.8,87.6c-1.3,0-2.3-0.9-2.3-2.4v-4c0-1.4,1-2.4,2.3-2.4c1.3,0,2.3,0.9,2.3,2.4v4
		C631.1,86.6,630.1,87.6,628.8,87.6z M630.3,81.3c0-0.9-0.5-1.6-1.5-1.6s-1.5,0.7-1.5,1.6v3.9c0,0.9,0.5,1.6,1.5,1.6
		s1.5-0.7,1.5-1.6V81.3z"/>
	<path fill="#69747A" d="M635.1,87.6c-1.3,0-2.3-0.9-2.3-2.4v-4c0-1.4,1-2.4,2.3-2.4c1.3,0,2.3,0.9,2.3,2.4v4
		C637.4,86.6,636.4,87.6,635.1,87.6z M636.5,81.3c0-0.9-0.5-1.6-1.5-1.6s-1.5,0.7-1.5,1.6v3.9c0,0.9,0.5,1.6,1.5,1.6
		s1.5-0.7,1.5-1.6V81.3z"/>
	<path fill="#69747A" d="M616.3,114.5c-1.4,0-2.5-1-2.5-2.4c0-1,0.6-1.7,1.3-2.1c-0.7-0.4-1.1-1-1.1-1.9c0-1.3,1-2.3,2.4-2.3
		c1.4,0,2.4,1,2.4,2.3c0,0.9-0.4,1.5-1.1,1.9c0.7,0.4,1.3,1.1,1.3,2.1C618.8,113.6,617.7,114.5,616.3,114.5z M616.3,110.4
		c-0.9,0-1.7,0.7-1.7,1.7c0,0.9,0.7,1.7,1.7,1.7s1.7-0.7,1.7-1.7C617.9,111.2,617.2,110.4,616.3,110.4z M616.3,106.6
		c-0.9,0-1.5,0.6-1.5,1.5c0,0.9,0.6,1.5,1.5,1.5c0.9,0,1.5-0.6,1.5-1.5C617.8,107.3,617.2,106.6,616.3,106.6z"/>
	<path fill="#69747A" d="M622.5,114.5c-1.3,0-2.3-0.9-2.3-2.4v-4c0-1.4,1-2.4,2.3-2.4c1.3,0,2.3,0.9,2.3,2.4v4
		C624.9,113.6,623.9,114.5,622.5,114.5z M624,108.3c0-0.9-0.5-1.6-1.5-1.6c-0.9,0-1.5,0.7-1.5,1.6v3.9c0,0.9,0.5,1.6,1.5,1.6
		c0.9,0,1.5-0.7,1.5-1.6V108.3z"/>
	<path fill="#69747A" d="M628.8,114.5c-1.3,0-2.3-0.9-2.3-2.4v-4c0-1.4,1-2.4,2.3-2.4c1.3,0,2.3,0.9,2.3,2.4v4
		C631.1,113.6,630.1,114.5,628.8,114.5z M630.3,108.3c0-0.9-0.5-1.6-1.5-1.6s-1.5,0.7-1.5,1.6v3.9c0,0.9,0.5,1.6,1.5,1.6
		s1.5-0.7,1.5-1.6V108.3z"/>
	<path fill="#69747A" d="M616.3,141.5c-1.3,0-2.3-0.9-2.3-2.4v-4c0-1.4,1-2.4,2.3-2.4c1.3,0,2.3,0.9,2.3,2.4v4
		C618.6,140.6,617.6,141.5,616.3,141.5z M617.8,135.3c0-0.9-0.5-1.6-1.5-1.6c-0.9,0-1.5,0.7-1.5,1.6v3.9c0,0.9,0.5,1.6,1.5,1.6
		c0.9,0,1.5-0.7,1.5-1.6V135.3z"/>
	<path fill="#69747A" d="M221.6,160v-10h1.1v9h5.1v1H221.6z"/>
	<path fill="#69747A" d="M233.3,160v-0.7c-0.5,0.5-1.1,0.7-2,0.7c-1,0-1.5-0.2-1.9-0.6c-0.4-0.3-0.5-0.9-0.5-1.4c0-1.2,0.9-2,2.4-2
		h2.1v-0.7c0-1-0.5-1.5-1.8-1.5c-0.9,0-1.3,0.2-1.7,0.8l-0.7-0.6c0.6-0.8,1.3-1,2.4-1c1.9,0,2.8,0.8,2.8,2.3v4.7H233.3z
		 M233.3,156.8h-1.9c-1,0-1.6,0.4-1.6,1.2c0,0.8,0.5,1.2,1.6,1.2c0.6,0,1.1-0.1,1.5-0.5c0.2-0.2,0.4-0.6,0.4-1.2V156.8z"/>
	<path fill="#69747A" d="M241.4,159.4c-0.4,0.4-1,0.6-1.7,0.6c-0.8,0-1.4-0.2-1.9-0.9v3.9h-1v-10h1v0.8c0.6-0.7,1.2-0.9,1.9-0.9
		c0.7,0,1.3,0.2,1.7,0.6c0.7,0.7,0.8,1.8,0.8,2.9S242.1,158.7,241.4,159.4z M239.5,153.9c-1.5,0-1.7,1.3-1.7,2.6s0.2,2.6,1.7,2.6
		c1.5,0,1.7-1.3,1.7-2.6S241,153.9,239.5,153.9z"/>
	<path fill="#69747A" d="M250.2,160v-8.9l-1.9,1.6v-1.1l1.9-1.6h1v10H250.2z"/>
	<path fill="#69747A" d="M423.3,160v-10h1.1v9h5.1v1H423.3z"/>
	<path fill="#69747A" d="M435,160v-0.7c-0.5,0.5-1.1,0.7-2,0.7c-1,0-1.5-0.2-1.9-0.6c-0.4-0.3-0.5-0.9-0.5-1.4c0-1.2,0.9-2,2.4-2
		h2.1v-0.7c0-1-0.5-1.5-1.8-1.5c-0.9,0-1.3,0.2-1.7,0.8l-0.7-0.6c0.6-0.8,1.3-1,2.4-1c1.9,0,2.8,0.8,2.8,2.3v4.7H435z M435,156.8
		h-1.9c-1,0-1.6,0.4-1.6,1.2c0,0.8,0.5,1.2,1.6,1.2c0.6,0,1.1-0.1,1.5-0.5c0.2-0.2,0.4-0.6,0.4-1.2V156.8z"/>
	<path fill="#69747A" d="M443.1,159.4c-0.4,0.4-1,0.6-1.7,0.6c-0.8,0-1.4-0.2-1.9-0.9v3.9h-1v-10h1v0.8c0.6-0.7,1.2-0.9,1.9-0.9
		c0.7,0,1.3,0.2,1.7,0.6c0.7,0.7,0.8,1.8,0.8,2.9S443.8,158.7,443.1,159.4z M441.2,153.9c-1.5,0-1.7,1.3-1.7,2.6s0.2,2.6,1.7,2.6
		c1.5,0,1.7-1.3,1.7-2.6S442.7,153.9,441.2,153.9z"/>
	<path fill="#69747A" d="M449.3,160v-0.9l3.9-5c0.4-0.5,0.6-0.9,0.6-1.5c0-1.1-0.6-1.8-1.7-1.8c-0.9,0-1.7,0.5-1.7,1.8h-1
		c0-1.6,1.1-2.7,2.7-2.7c1.6,0,2.7,1.1,2.7,2.7c0,0.8-0.3,1.3-0.8,2l-3.5,4.5h4.3v0.9H449.3z"/>
	<path fill="#69747A" d="M521.8,160v-10h1.1v9h5.1v1H521.8z"/>
	<path fill="#69747A" d="M533.5,160v-0.7c-0.5,0.5-1.1,0.7-2,0.7c-1,0-1.5-0.2-1.9-0.6c-0.4-0.3-0.5-0.9-0.5-1.4c0-1.2,0.9-2,2.4-2
		h2.1v-0.7c0-1-0.5-1.5-1.8-1.5c-0.9,0-1.3,0.2-1.7,0.8l-0.7-0.6c0.6-0.8,1.3-1,2.4-1c1.9,0,2.8,0.8,2.8,2.3v4.7H533.5z
		 M533.5,156.8h-1.9c-1,0-1.6,0.4-1.6,1.2c0,0.8,0.5,1.2,1.6,1.2c0.6,0,1.1-0.1,1.5-0.5c0.2-0.2,0.4-0.6,0.4-1.2V156.8z"/>
	<path fill="#69747A" d="M541.6,159.4c-0.4,0.4-1,0.6-1.7,0.6c-0.8,0-1.4-0.2-1.9-0.9v3.9h-1v-10h1v0.8c0.6-0.7,1.2-0.9,1.9-0.9
		c0.7,0,1.3,0.2,1.7,0.6c0.7,0.7,0.8,1.8,0.8,2.9S542.3,158.7,541.6,159.4z M539.7,153.9c-1.5,0-1.7,1.3-1.7,2.6s0.2,2.6,1.7,2.6
		c1.5,0,1.7-1.3,1.7-2.6S541.2,153.9,539.7,153.9z"/>
	<path fill="#69747A" d="M550.4,160.1c-1.6,0-2.8-0.8-2.9-2.6h1c0.1,1.2,1,1.7,1.9,1.7c1.1,0,1.9-0.7,1.9-1.9c0-1.2-0.6-1.9-2-1.9
		h-0.2v-0.9h0.2c1.2,0,1.8-0.7,1.8-1.8c0-1.2-0.8-1.8-1.7-1.8c-1.1,0-1.7,0.6-1.8,1.7h-1c0.1-1.6,1.3-2.6,2.8-2.6
		c1.6,0,2.7,1.1,2.7,2.7c0,1.1-0.4,1.8-1.3,2.2c1,0.4,1.5,1.2,1.5,2.4C553.3,159.1,552,160.1,550.4,160.1z"/>
	<path fill="#69747A" d="M614,60.5v-0.8l3.4-4.3c0.3-0.4,0.5-0.8,0.5-1.3c0-0.9-0.6-1.5-1.5-1.5c-0.8,0-1.5,0.4-1.5,1.5H614
		c0-1.3,0.9-2.3,2.4-2.3c1.4,0,2.4,0.9,2.4,2.3c0,0.7-0.2,1.1-0.7,1.7l-3,3.8h3.7v0.8H614z"/>
	<path fill="#69747A" d="M624.1,59.1v1.4h-0.9v-1.4h-3.4v-0.8L623,52h0.9l-3.1,6.4h2.5v-2.4h0.9v2.4h1v0.8H624.1z"/>
	<path fill="#69747A" d="M628.8,60.6c-1.3,0-2.3-0.9-2.3-2.4v-4c0-1.4,1-2.4,2.3-2.4c1.3,0,2.3,0.9,2.3,2.4v4
		C631.1,59.6,630.1,60.6,628.8,60.6z M630.3,54.3c0-0.9-0.5-1.6-1.5-1.6s-1.5,0.7-1.5,1.6v3.9c0,0.9,0.5,1.6,1.5,1.6
		s1.5-0.7,1.5-1.6V54.3z"/>
	<path fill="#69747A" d="M635.1,60.6c-1.3,0-2.3-0.9-2.3-2.4v-4c0-1.4,1-2.4,2.3-2.4c1.3,0,2.3,0.9,2.3,2.4v4
		C637.4,59.6,636.4,60.6,635.1,60.6z M636.5,54.3c0-0.9-0.5-1.6-1.5-1.6s-1.5,0.7-1.5,1.6v3.9c0,0.9,0.5,1.6,1.5,1.6
		s1.5-0.7,1.5-1.6V54.3z"/>
	<path fill="#69747A" d="M47.2,61.4h-1l3.2-8.4h-3.2v1.5h-0.9v-2.3h5.1v0.8L47.2,61.4z"/>
	<path fill="#69747A" d="M56.4,60.8c-0.4,0.4-1,0.7-1.8,0.7c-0.8,0-1.5-0.3-1.9-0.7c-0.4-0.4-0.6-0.9-0.6-1.6H53
		c0.1,0.9,0.6,1.4,1.6,1.4c0.5,0,0.9-0.2,1.1-0.4c0.5-0.5,0.5-1.2,0.5-1.9c0-1.1-0.2-2.2-1.6-2.2c-0.8,0-1.4,0.4-1.5,0.9h-0.8v-4.9
		h4.7v0.8h-3.8v2.9c0.4-0.4,0.9-0.6,1.7-0.6c0.7,0,1.2,0.2,1.6,0.6c0.7,0.7,0.8,1.6,0.8,2.5C57.1,59.2,57,60.1,56.4,60.8z"/>
	<path fill="#69747A" d="M623.5,158.1h-1l-2.2-8l-2.2,8h-1l-2.5-10h1.1l1.9,8l2.2-8h1l2.2,8l1.9-8h1.1L623.5,158.1z"/>
	<path fill="#69747A" d="M631,158.1v-0.7c-0.5,0.5-1.1,0.7-2,0.7c-1,0-1.5-0.2-1.9-0.6c-0.4-0.3-0.5-0.9-0.5-1.4c0-1.2,0.9-2,2.4-2
		h2.1v-0.7c0-1-0.5-1.5-1.8-1.5c-0.9,0-1.3,0.2-1.7,0.8l-0.7-0.6c0.6-0.8,1.3-1,2.4-1c1.9,0,2.8,0.8,2.8,2.3v4.7H631z M631,154.9
		h-1.9c-1,0-1.6,0.4-1.6,1.2c0,0.8,0.5,1.2,1.6,1.2c0.6,0,1.1-0.1,1.5-0.5c0.2-0.2,0.3-0.6,0.3-1.2V154.9z"/>
	<path fill="#69747A" d="M636.4,158.1c-1.2,0-1.8-0.8-1.8-1.8v-4.3h-0.9v-0.8h0.9v-2.1h1v2.1h1.5v0.8h-1.5v4.2c0,0.6,0.3,1,0.9,1
		h0.5v0.9H636.4z"/>
	<path fill="#69747A" d="M641,158.1c-1.2,0-1.8-0.8-1.8-1.8v-4.3h-0.9v-0.8h0.9v-2.1h1v2.1h1.5v0.8h-1.5v4.2c0,0.6,0.3,1,0.9,1h0.5
		v0.9H641z"/>
	<path fill="#69747A" d="M618.5,36.2h-2.6v4.1h-1.1v-10h3.7c1.8,0,3.1,1.1,3.1,2.9C621.5,35.1,620.3,36.2,618.5,36.2z M618.4,31.3
		h-2.6v4h2.6c1.2,0,2.1-0.7,2.1-2C620.5,32,619.6,31.3,618.4,31.3z"/>
	<path fill="#69747A" d="M627.7,39.6c-0.5,0.5-1.1,0.8-2,0.8c-0.8,0-1.5-0.3-2-0.8c-0.7-0.7-0.8-1.7-0.8-2.7s0.1-2,0.8-2.7
		c0.5-0.5,1.1-0.8,2-0.8c0.8,0,1.5,0.3,2,0.8c0.7,0.7,0.8,1.7,0.8,2.7S628.4,38.9,627.7,39.6z M627,34.8c-0.3-0.3-0.8-0.5-1.3-0.5
		s-0.9,0.2-1.2,0.5c-0.5,0.5-0.6,1.3-0.6,2.1c0,0.8,0,1.6,0.6,2.1c0.3,0.3,0.8,0.5,1.2,0.5s0.9-0.2,1.3-0.5c0.5-0.5,0.5-1.4,0.5-2.1
		C627.5,36.1,627.5,35.3,627,34.8z"/>
	<path fill="#69747A" d="M637.1,40.3h-0.9l-1.8-5.4l-1.8,5.4h-0.9l-2.2-6.9h1.1l1.6,5.5l1.8-5.5h0.9l1.8,5.5l1.6-5.5h1.1L637.1,40.3
		z"/>
	<path fill="#69747A" d="M641.2,37.2c0,1.5,0.7,2.4,2,2.4c0.8,0,1.3-0.2,1.8-0.8l0.7,0.6c-0.7,0.7-1.4,1.1-2.5,1.1
		c-1.8,0-3-1.1-3-3.5c0-2.2,1.1-3.5,2.8-3.5c1.8,0,2.8,1.3,2.8,3.3v0.4H641.2z M644.6,35.3c-0.3-0.6-0.9-1-1.6-1
		c-0.7,0-1.3,0.4-1.6,1c-0.2,0.4-0.2,0.6-0.2,1.1h3.7C644.8,35.9,644.8,35.6,644.6,35.3z"/>
	<path fill="#69747A" d="M651.8,34.8c-0.4-0.4-0.7-0.5-1.2-0.5c-1,0-1.7,0.8-1.7,1.8v4.2h-1v-6.9h1v0.8c0.4-0.6,1.1-0.9,1.9-0.9
		c0.7,0,1.2,0.2,1.7,0.6L651.8,34.8z"/>
	<path fill="#69747A" d="M31.2,158.1l-2.2-3.5l-1.3,1.5v2h-1v-10h1v6.7l3.1-3.6H32l-2.3,2.6l2.7,4.3H31.2z"/>
	<path fill="#69747A" d="M43,158.1v-4.2c0-1.2-0.7-1.8-1.7-1.8c-1,0-1.7,0.6-1.7,1.7v4.4h-1v-4.2c0-1.2-0.7-1.8-1.7-1.8
		s-1.7,0.6-1.7,1.8v4.2h-1v-6.9h1v0.8c0.5-0.6,1.2-0.8,1.9-0.8c1,0,1.7,0.4,2.1,1.1c0.5-0.8,1.3-1.1,2.3-1.1c0.7,0,1.4,0.2,1.8,0.6
		c0.5,0.5,0.7,1.1,0.7,1.9v4.4H43z"/>
	<path fill="#69747A" d="M46.2,159.1h-1l4-12h1L46.2,159.1z"/>
	<path fill="#69747A" d="M55.8,158.1v-4.3c0-1.2-0.6-1.8-1.7-1.8s-1.7,0.6-1.7,1.8v4.3h-1v-10h1v3.8c0.5-0.6,1.1-0.8,1.9-0.8
		c1.6,0,2.5,1,2.5,2.5v4.4H55.8z"/>
	<path fill="#69747A" d="M22.8,40.4c-1.5,0-2.5-0.4-3.4-1.3l0.7-0.7c0.8,0.8,1.6,1.1,2.7,1.1c1.5,0,2.4-0.7,2.4-1.8
		c0-0.5-0.2-1-0.5-1.2c-0.3-0.3-0.6-0.4-1.3-0.5l-1.2-0.2c-0.8-0.1-1.4-0.4-1.8-0.8c-0.5-0.4-0.8-1.1-0.8-1.9c0-1.7,1.2-2.8,3.2-2.8
		c1.3,0,2.1,0.3,3,1.1l-0.7,0.7c-0.6-0.6-1.3-0.9-2.3-0.9c-1.3,0-2.1,0.7-2.1,1.9c0,0.5,0.1,0.9,0.4,1.2c0.3,0.3,0.8,0.4,1.3,0.5
		l1.2,0.2c0.9,0.1,1.4,0.3,1.8,0.7c0.5,0.5,0.8,1.1,0.8,2C26.2,39.4,24.9,40.4,22.8,40.4z"/>
	<path fill="#69747A" d="M32.9,39.8c-0.4,0.4-1,0.6-1.7,0.6c-0.8,0-1.4-0.2-1.9-0.9v3.9h-1v-10h1v0.8c0.6-0.7,1.2-0.9,1.9-0.9
		c0.7,0,1.3,0.2,1.7,0.6c0.7,0.7,0.8,1.8,0.8,2.9S33.6,39.1,32.9,39.8z M31,34.3c-1.5,0-1.7,1.3-1.7,2.6s0.2,2.6,1.7,2.6
		c1.5,0,1.7-1.3,1.7-2.6S32.5,34.3,31,34.3z"/>
	<path fill="#69747A" d="M36.5,37.2c0,1.5,0.7,2.4,2,2.4c0.8,0,1.3-0.2,1.8-0.8l0.7,0.6c-0.7,0.7-1.4,1.1-2.5,1.1
		c-1.8,0-3-1.1-3-3.5c0-2.2,1.1-3.5,2.8-3.5c1.8,0,2.8,1.3,2.8,3.3v0.4H36.5z M40,35.3c-0.3-0.6-0.9-1-1.6-1c-0.7,0-1.3,0.4-1.6,1
		c-0.2,0.4-0.2,0.6-0.2,1.1h3.7C40.2,35.9,40.1,35.6,40,35.3z"/>
	<path fill="#69747A" d="M44,37.2c0,1.5,0.7,2.4,2,2.4c0.8,0,1.3-0.2,1.8-0.8l0.7,0.6c-0.7,0.7-1.4,1.1-2.5,1.1c-1.8,0-3-1.1-3-3.5
		c0-2.2,1.1-3.5,2.8-3.5c1.8,0,2.8,1.3,2.8,3.3v0.4H44z M47.4,35.3c-0.3-0.6-0.9-1-1.6-1c-0.7,0-1.3,0.4-1.6,1
		C44,35.6,44,35.9,44,36.4h3.7C47.6,35.9,47.6,35.6,47.4,35.3z"/>
	<path fill="#69747A" d="M54.9,40.3v-0.8c-0.6,0.7-1.2,0.9-2,0.9c-0.7,0-1.3-0.2-1.7-0.6c-0.7-0.7-0.8-1.8-0.8-2.9s0.2-2.2,0.8-2.9
		c0.4-0.4,1-0.6,1.7-0.6c0.8,0,1.4,0.2,1.9,0.9v-3.9h1v10H54.9z M53.1,34.3c-1.5,0-1.7,1.3-1.7,2.6s0.2,2.6,1.7,2.6
		c1.5,0,1.7-1.3,1.7-2.6S54.6,34.3,53.1,34.3z"/>
	<path fill="#69747A" d="M14.2,193v-10h6.6v1.7h-4.6v2.3h3.9v1.7h-3.9v2.4h4.6v1.7H14.2z"/>
	<path fill="#69747A" d="M25.7,193h-1.4l-2.7-7.3h1.9l1.5,4.5l1.5-4.5h1.9L25.7,193z"/>
	<path fill="#69747A" d="M30.8,189.9c0,1,0.6,1.6,1.6,1.6c0.8,0,1.2-0.2,1.7-0.7l1.1,1.1c-0.7,0.8-1.5,1.1-2.8,1.1
		c-1.7,0-3.4-0.8-3.4-3.7c0-2.4,1.3-3.7,3.2-3.7c2,0,3.2,1.5,3.2,3.5v0.8H30.8z M33.4,187.9c-0.2-0.4-0.6-0.8-1.2-0.8
		c-0.6,0-1,0.3-1.2,0.8c-0.1,0.3-0.2,0.5-0.2,0.8h2.8C33.5,188.3,33.5,188.1,33.4,187.9z"/>
	<path fill="#69747A" d="M41.2,193v-4.4c0-1-0.6-1.3-1.2-1.3c-0.6,0-1.2,0.3-1.2,1.3v4.4H37v-7.3h1.8v0.7c0.5-0.5,1.1-0.8,1.8-0.8
		c0.7,0,1.3,0.2,1.7,0.6c0.6,0.6,0.7,1.3,0.7,2.1v4.7H41.2z"/>
	<path fill="#69747A" d="M47.3,193c-1.5,0-2.1-1.1-2.1-2.1v-3.6h-0.8v-1.4h0.8v-2.2H47v2.2h1.3v1.4H47v3.5c0,0.4,0.2,0.7,0.6,0.7
		h0.7v1.5H47.3z"/>
	<path fill="#69747A" d="M52.3,193.1c-1.1,0-2.2-0.1-3.1-1.1l1.2-1.2c0.6,0.6,1.4,0.7,1.9,0.7c0.6,0,1.3-0.2,1.3-0.8
		c0-0.4-0.2-0.6-0.8-0.7l-1.2-0.1c-1.3-0.1-2.1-0.7-2.1-2c0-1.5,1.3-2.3,2.8-2.3c1.1,0,2.1,0.2,2.8,0.9l-1.1,1.1
		c-0.4-0.4-1.1-0.5-1.7-0.5c-0.7,0-1,0.3-1,0.7s0.2,0.6,0.8,0.6l1.1,0.1c1.4,0.1,2.2,0.9,2.2,2.1C55.4,192.3,54,193.1,52.3,193.1z"
		/>
	
		<line fill="none" stroke="#69747A" stroke-width="2" stroke-linejoin="round" stroke-miterlimit="10" x1="579" y1="137.3" x2="601.8" y2="137.3"/>
	
		<line fill="none" stroke="#69747A" stroke-width="2" stroke-linejoin="round" stroke-miterlimit="10" x1="67.5" y1="137.3" x2="90.2" y2="137.3"/>
	
		<line fill="none" stroke="#69747A" stroke-width="2" stroke-linejoin="round" stroke-miterlimit="10" x1="101.7" y1="137.3" x2="569.1" y2="137.3"/>
</g>
</svg>
