<?xml version="1.0" encoding="utf-8"?>
<!-- Generator: Adobe Illustrator 18.1.0, SVG Export Plug-In . SVG Version: 6.00 Build 0)  -->
<svg version="1.1" xmlns="http://www.w3.org/2000/svg" xmlns:xlink="http://www.w3.org/1999/xlink" x="0px" y="0px"
	 viewBox="0 0 260 260" enable-background="new 0 0 260 260" xml:space="preserve">
<g id="Guide">
</g>
<g id="Layer_3">
</g>
<g id="Layer_1">
	<g>
		<g>
			<path fill="#FFFFFF" stroke="#0589D1" stroke-width="2" stroke-linejoin="round" d="M123.4,62.5c-4.9,0-8.8,0.6-8.8,1.4
				c0,0.4,0,1.6,0,2.1c0,0.3,0.5,0.5,1.3,0.7v7.5h15v-7.5c0.8-0.2,1.3-0.5,1.3-0.7c0-0.4,0-1.6,0-2.1
				C132.3,63.1,128.3,62.5,123.4,62.5z"/>
			<path fill="#FFFFFF" stroke="#0589D1" stroke-width="2" stroke-linejoin="round" d="M149.3,158.7c-1.9-6.8-5.2-10.3-5.6-16.8
				c-0.3-6.5,4.8-12.3,4.8-18.5c0-6.2,1.7-10.5,0-20.2s-11.8-15.3-11.8-15.3v-2.5v-2.8h2.2v-8.5c-3-1.8-13.7-2-15.5-2
				c-1.8,0-12.5,0.2-15.5,2v8.5h2.2v2.8v2.5c0,0-10.2,5.7-11.8,15.3c-1.7,9.7,0,14,0,20.2c0,6.2,5.2,12,4.8,18.5s-3.6,10-5.6,16.8
				c-1.9,6.8,0,47.7,0,52.2s6.7,9.3,21.6,9.3h8.7c14.8,0,21.6-4.8,21.6-9.3S151.3,165.6,149.3,158.7z"/>
			<path fill="#FFFFFF" stroke="#0589D1" stroke-width="2" stroke-linejoin="round" d="M108.8,82.6c0,0,10.3,0,14.6,0
				c4.4,0,13.3,0,13.3,0"/>
			<path fill="#FFFFFF" stroke="#0589D1" stroke-width="2" stroke-linejoin="round" d="M110.1,87.8c0,0-2,1.8,13.3,1.3"/>
			<line fill="none" stroke="#0589D1" stroke-width="2" stroke-linejoin="round" x1="98.3" y1="102.1" x2="148.4" y2="102.1"/>
			<line fill="none" stroke="#0589D1" stroke-width="2" stroke-linejoin="round" x1="98.3" y1="126.1" x2="148.4" y2="126.1"/>
		</g>
		<g>
			<path fill="#FFFFFF" stroke="#0589D1" stroke-width="2" stroke-linejoin="round" d="M156.3,226.1c4.4,0,8.1-1.1,10.5-1.9
				c1.6-0.6,2.7-2.2,2.7-3.9V186c0-0.7-0.2-1.5-0.7-2.1l-5.6-7.7c-0.4-0.6-0.7-1.3-0.7-2.1v-6.4h-8.3H146v6.4c0,0.7-0.2,1.5-0.7,2.1
				l-5.6,7.7c-0.4,0.6-0.7,1.3-0.7,2.1v34.2c0,1.7,1.1,3.3,2.7,3.9c2.3,0.9,6.1,1.9,10.5,1.9H156.3z"/>
			<polyline fill="none" stroke="#0589D1" stroke-width="2" stroke-linejoin="round" points="139.2,185 148.5,199.9 148.5,226.1 			
				"/>
			<line fill="none" stroke="#0589D1" stroke-width="2" stroke-linejoin="round" x1="146" y1="174.2" x2="161.8" y2="174.2"/>
		</g>
	</g>
</g>
</svg>
