<?xml version="1.0" encoding="utf-8"?>
<!-- Generator: Adobe Illustrator 18.1.0, SVG Export Plug-In . SVG Version: 6.00 Build 0)  -->
<svg version="1.1" xmlns="http://www.w3.org/2000/svg" xmlns:xlink="http://www.w3.org/1999/xlink" x="0px" y="0px"
	 viewBox="0 0 260 260" enable-background="new 0 0 260 260" xml:space="preserve">
<g id="Guide">
</g>
<g id="Layer_3">
</g>
<g id="Layer_1">
	<g>
		<g>
			<path fill="#FFFFFF" stroke="#0589D1" stroke-width="2" stroke-linejoin="round" d="M205.9,181.7c0,0,14.6-6.4,19.6-9
				c5-2.6,5.2-4.6,7.2-6.1c2-1.5,6.4-0.1,7.2,2.7s-1,4.3,0,4.5c1,0.3,2.4,1.7,0.2,4.1c-2.2,2.4-5.6,1.2-10.2,1.2
				c-4.6,0-19.4,8.6-19.4,8.6L205.9,181.7z"/>
			<path fill="#FFFFFF" stroke="#0589D1" stroke-width="2" stroke-linejoin="round" d="M211.9,202.7c0,0,5.6,7.8,6.2,11.2
				c0.6,3.4-12.6,9-19.2,13.3c-6.6,4.3-62,4.7-73,3.9s-28.2-8-22.4-28.4c5.8-20.4,16.6-33,39.2-35.4s41,1.2,52.2,13.4
				C206.1,192.9,211.9,202.7,211.9,202.7z"/>
			<path fill="#FFFFFF" stroke="#0589D1" stroke-width="2" stroke-linejoin="round" d="M214.7,182.7c0,0-11.2-7.6-28-6
				s-26.8,11-32,23.2c-5.2,12.2-1,25,14.8,25.2s28.8-11.2,38-22.8c9.2-11.6,8.4-9.2,8.7-14C216.5,183.5,214.7,182.7,214.7,182.7z"/>
			<path fill="#FFFFFF" stroke="#0589D1" stroke-width="2" stroke-linejoin="round" d="M135.1,180.7c0,0,4,7.4-3.2,14.8
				c-7.2,7.4-4,5.6,0,14.6c4,9,2,18.2-8.2,17s-18.8-14.6-11.2-26.3s21.8-20.1,21.8-20.1H135.1z"/>
		</g>
		<g>
			<path fill="#FFFFFF" stroke="#0589D1" stroke-width="2" stroke-linejoin="round" d="M85.8,104.8c0,0-10-4.5-11.7-3.5
				c-1.7,0.9-1.7,3.5-7.8,7.2c-6.5,4-5.8,8.4-5,9C62.2,117.9,85.8,104.8,85.8,104.8z"/>
			<path fill="#FFFFFF" stroke="#0589D1" stroke-width="2" stroke-linejoin="round" d="M133,97.5c0,0-9.9-9.8-16.2-12.7
				s-5.1-4-5.9-1.6c-0.7,2.4-6.5,6.6-20.3,14.2s-15.9,10.8-17,11.3c-1.2,0.5,0,4,0,4L133,97.5z"/>
			<line fill="none" stroke="#0589D1" stroke-width="2" stroke-linejoin="round" x1="109.6" y1="85.1" x2="123.9" y2="97.4"/>
			<line fill="none" stroke="#0589D1" stroke-width="2" stroke-linejoin="round" x1="103.1" y1="90.5" x2="114.4" y2="98.7"/>
			<line fill="none" stroke="#0589D1" stroke-width="2" stroke-linejoin="round" x1="94.8" y1="95.1" x2="103.1" y2="99.8"/>
			<path fill="#FFFFFF" stroke="#0589D1" stroke-width="2" stroke-linejoin="round" d="M86,145.3c0,0-4.6-0.3-12.9,1.5
				s-5.4-2.9-2.8-5.5s9.2-7.9,12.7-6.3S86,145.3,86,145.3z"/>
			<path fill="#FFFFFF" stroke="#0589D1" stroke-width="2" stroke-linejoin="round" d="M174.8,118.3c0,0-15-19.5-41.8-20.8
				s-55,7.9-64.8,14.2s-11.7,6.6-17.1,1.1c-9.5-9.8-22.3-10.2-26-10.7c-1.8-0.3,5,5.3,8.2,11.8c3.1,6.4,5.5,9.5,5.6,11.8
				c0.3,4.5-3.9,6-4.9,14.2c-1.1,8.5-11.4,14.1,2.3,10.3c12.3-3.4,9.1-18,24-13.5c14.5,4.3,20.8,13,53.6,9.6s53.5-14.5,57.3-18.4
				c3.8-3.9,5.2-0.6,3.8-3.9C173.5,120.7,174.8,118.3,174.8,118.3z"/>
			<path fill="#FFFFFF" stroke="#0589D1" stroke-width="2" stroke-linejoin="round" d="M135.3,138.6c0,0-7.9,16.9-13.5,19.8
				s-9.5,1.3-15-1.3s3.4-13.7,8.7-16.4"/>
			<circle fill="#FFFFFF" stroke="#0589D1" stroke-width="2" stroke-linejoin="round" cx="155" cy="112.5" r="2.1"/>
			<path fill="none" stroke="#0589D1" stroke-width="2" stroke-linejoin="round" d="M144.2,107.8c0,1.6-3,18.2,3.1,24.3"/>
		</g>
	</g>
</g>
</svg>
