<?xml version="1.0" encoding="utf-8"?>
<!-- Generator: Adobe Illustrator 18.1.0, SVG Export Plug-In . SVG Version: 6.00 Build 0)  -->
<svg version="1.1" xmlns="http://www.w3.org/2000/svg" xmlns:xlink="http://www.w3.org/1999/xlink" x="0px" y="0px"
	 viewBox="0 0 260 210" enable-background="new 0 0 260 210" xml:space="preserve">
<g id="Guide">
</g>
<g id="Layer_3">
</g>
<g id="Layer_1">
	<g>
		<path fill="#FFFFFF" stroke="#F16600" stroke-width="2" stroke-linejoin="round" d="M208.5,156.2c-0.3-0.1-0.7,0-1.2,0.1l0.3-0.2
			l-36.8-5.9l-9.9,8.1l37.8,6l0,0c1.6,0.2,5.1-1.4,7.8-3.6C209.1,158.5,210.1,156.4,208.5,156.2z"/>
		<path fill="#FFFFFF" stroke="#F16600" stroke-width="2" stroke-linejoin="round" d="M168.7,154.7c-2.8,2.2-6.3,3.8-7.9,3.6
			c-1.6-0.3-0.7-2.3,2.1-4.5c2.8-2.2,6.3-3.8,7.9-3.6C172.4,150.4,171.4,152.5,168.7,154.7z"/>
	</g>
	<g>
		<path fill="#FFFFFF" stroke="#F16600" stroke-width="2" stroke-linejoin="round" d="M175.3,140.6c-0.3,0.1-0.6,0.4-1,0.7l0.1-0.3
			l-35.1,12.7l-4.8,11.9l35.9-13.1l0,0c1.5-0.6,3.8-3.7,5.1-6.9C177,142.2,176.8,140,175.3,140.6z"/>
		<path fill="#FFFFFF" stroke="#F16600" stroke-width="2" stroke-linejoin="round" d="M139.7,158.5c-1.3,3.3-3.6,6.4-5.1,6.9
			c-1.5,0.6-1.7-1.7-0.3-4.9c1.3-3.3,3.6-6.4,5.1-6.9C140.9,153.1,141.1,155.3,139.7,158.5z"/>
	</g>
	<g>
		<path fill="#FFFFFF" stroke="#F16600" stroke-width="2" stroke-linejoin="round" d="M211.9,145c-0.3,0.2-0.5,0.5-0.8,0.9l0-0.3
			l-30.2,21.9l-1.3,12.7l31-22.4l0,0c1.3-1,2.6-4.6,3-8.1C213.9,146.1,213.2,144,211.9,145z"/>
		<path fill="#FFFFFF" stroke="#F16600" stroke-width="2" stroke-linejoin="round" d="M182.6,172c-0.4,3.5-1.7,7.1-3,8.1
			c-1.3,0.9-2.1-1.1-1.7-4.7s1.7-7.1,3-8.1S183,168.5,182.6,172z"/>
	</g>
	<g>
		<path fill="#FFFFFF" stroke="#F16600" stroke-width="2" stroke-linejoin="round" d="M178.2,161.6c0.3,0.2,0.7,0.3,1.1,0.5
			l-0.3,0.1l30.2,21.8l12.5-2.7l-31-22.4l0,0c-1.3-0.9-5.2-1.1-8.6-0.3C178.7,159.3,176.9,160.7,178.2,161.6z"/>
		<path fill="#FFFFFF" stroke="#F16600" stroke-width="2" stroke-linejoin="round" d="M213.1,180.9c3.5-0.7,7.3-0.6,8.6,0.4
			c1.3,0.9-0.4,2.3-3.9,3.1s-7.3,0.6-8.6-0.4C207.9,183,209.6,181.7,213.1,180.9z"/>
	</g>
	<g>
		<path fill="#FFFFFF" stroke="#F16600" stroke-width="2" stroke-linejoin="round" d="M192,159.5c0.3,0,0.7-0.1,1.2-0.3l-0.2,0.3
			l37.3,0l8.5-9.5l-38.2,0l0,0c-1.6,0-4.8,2.2-7.2,4.8C191,157.4,190.4,159.5,192,159.5z"/>
		<path fill="#FFFFFF" stroke="#F16600" stroke-width="2" stroke-linejoin="round" d="M231.6,154.7c2.4-2.6,5.6-4.8,7.2-4.8
			c1.6,0,1,2.1-1.4,4.8c-2.4,2.6-5.6,4.8-7.2,4.8C228.6,159.5,229.2,157.3,231.6,154.7z"/>
	</g>
	<g>
		<path fill="#FFFFFF" stroke="#F16600" stroke-width="2" stroke-linejoin="round" d="M192,157.5c0.3,0.1,0.7,0.2,1.2,0.2l-0.3,0.2
			l34.2,14.9l11.6-5.3l-35.1-15.2l0,0c-1.5-0.6-5.3,0.1-8.5,1.5C192,155.1,190.6,156.8,192,157.5z"/>
		<path fill="#FFFFFF" stroke="#F16600" stroke-width="2" stroke-linejoin="round" d="M230.2,168.9c3.2-1.5,7-2.1,8.5-1.5
			c1.5,0.6,0.1,2.4-3.1,3.8c-3.2,1.5-7,2.1-8.5,1.5C225.6,172.1,227,170.4,230.2,168.9z"/>
	</g>
	<g>
		<path fill="#FFFFFF" stroke="#F16600" stroke-width="2" stroke-linejoin="round" d="M195.6,143.1c0.3-0.1,0.6-0.4,1-0.7l-0.1,0.3
			l34.4-14.4l4.2-12.1L199.9,131l0,0c-1.5,0.7-3.6,3.8-4.8,7.1C193.9,141.5,194.2,143.7,195.6,143.1z"/>
		<path fill="#FFFFFF" stroke="#F16600" stroke-width="2" stroke-linejoin="round" d="M230.3,123.5c1.2-3.3,3.3-6.5,4.8-7.2
			c1.5-0.6,1.7,1.6,0.6,4.9c-1.2,3.3-3.3,6.5-4.8,7.2C229.4,129,229.1,126.8,230.3,123.5z"/>
	</g>
	<g>
		<path fill="#FFFFFF" stroke="#F16600" stroke-width="2" stroke-linejoin="round" d="M133.9,160.6c0.2-0.2,0.5-0.6,0.7-1l0,0.3
			l27-25.8l-0.4-12.8l-27.7,26.4l0,0c-1.2,1.2-2,4.9-1.9,8.4C131.7,159.8,132.8,161.8,133.9,160.6z"/>
		<path fill="#FFFFFF" stroke="#F16600" stroke-width="2" stroke-linejoin="round" d="M159.3,129.9c-0.1-3.5,0.8-7.3,1.9-8.4
			c1.2-1.1,2.2,0.8,2.3,4.4c0.1,3.5-0.8,7.3-1.9,8.4C160.4,135.4,159.4,133.4,159.3,129.9z"/>
	</g>
	<g>
		<path fill="#FFFFFF" stroke="#F16600" stroke-width="2" stroke-linejoin="round" d="M167.9,146.3c0.3,0.1,0.7,0.2,1.2,0.3
			l-0.3,0.2l33.8,15.8l11.7-5l-34.6-16.2l0,0c-1.5-0.7-5.3-0.1-8.5,1.3C167.9,144,166.4,145.7,167.9,146.3z"/>
		<path fill="#FFFFFF" stroke="#F16600" stroke-width="2" stroke-linejoin="round" d="M205.8,158.8c3.3-1.4,7.1-1.9,8.5-1.3
			c1.5,0.7,0,2.4-3.3,3.7c-3.3,1.4-7.1,1.9-8.5,1.3C201.1,161.8,202.5,160.2,205.8,158.8z"/>
	</g>
	<g>
		<path fill="#FFFFFF" stroke="#F16600" stroke-width="2" stroke-linejoin="round" d="M132.4,141.5c0.3,0.1,0.7,0,1.2-0.1l-0.3,0.2
			l36.8,5.9l9.9-8.1l-37.8-6.1l0,0c-1.6-0.2-5.1,1.4-7.8,3.6C131.7,139.2,130.8,141.2,132.4,141.5z"/>
		<path fill="#FFFFFF" stroke="#F16600" stroke-width="2" stroke-linejoin="round" d="M172.2,143c2.8-2.2,6.3-3.8,7.9-3.6
			c1.6,0.3,0.7,2.3-2.1,4.5c-2.8,2.2-6.3,3.8-7.9,3.6C168.5,147.3,169.5,145.3,172.2,143z"/>
	</g>
	<g>
		<path fill="#FFFFFF" stroke="#F16600" stroke-width="2" stroke-linejoin="round" d="M215.7,140.5c-0.3-0.1-0.7,0-1.2,0l0.3-0.2
			l-36.5-7.5l-10.3,7.6l37.4,7.7l0,0c1.6,0.3,5.1-1.1,8-3.2C216.2,142.8,217.3,140.9,215.7,140.5z"/>
		<path fill="#FFFFFF" stroke="#F16600" stroke-width="2" stroke-linejoin="round" d="M176,137.2c-2.8,2.1-6.4,3.5-8,3.2
			c-1.6-0.3-0.6-2.3,2.3-4.4c2.8-2.1,6.4-3.5,8-3.2C179.9,133.2,178.8,135.1,176,137.2z"/>
	</g>
	<g>
		<path fill="#FFFFFF" stroke="#F16600" stroke-width="2" stroke-linejoin="round" d="M183,180.3c-0.2-0.2-0.6-0.4-1-0.6l0.3,0
			l-26.4-26.3l-12.8,0.7l27.1,27l0,0c1.2,1.1,4.9,1.9,8.4,1.7C182.2,182.5,184.1,181.4,183,180.3z"/>
		<path fill="#FFFFFF" stroke="#F16600" stroke-width="2" stroke-linejoin="round" d="M151.6,155.7c-3.5,0.2-7.3-0.6-8.5-1.7
			c-1.1-1.1,0.8-2.2,4.3-2.4c3.5-0.2,7.3,0.6,8.5,1.7C157.1,154.4,155.1,155.5,151.6,155.7z"/>
	</g>
	<g>
		<path fill="#FFFFFF" stroke="#F16600" stroke-width="2" stroke-linejoin="round" d="M187.4,150.7c0.2-0.2,0.4-0.6,0.6-1.1l0.1,0.3
			l24.2-28.4l-1.7-12.7L185.7,138l0,0c-1,1.3-1.5,5.1-1,8.5C185.1,150,186.3,151.9,187.4,150.7z"/>
		<path fill="#FFFFFF" stroke="#F16600" stroke-width="2" stroke-linejoin="round" d="M209.4,117.4c-0.5-3.5,0-7.3,1-8.6
			c1-1.2,2.3,0.6,2.7,4.1c0.5,3.5,0,7.3-1,8.6C211.1,122.8,209.9,120.9,209.4,117.4z"/>
	</g>
	<g>
		<path fill="#FFFFFF" stroke="#F16600" stroke-width="2" stroke-linejoin="round" d="M208.5,126.8c-0.3-0.1-0.7-0.2-1.2-0.2
			l0.3-0.2l-34.5-14.2l-11.5,5.6l35.4,14.5l0,0c1.5,0.6,5.3-0.2,8.4-1.7C208.6,129.2,210,127.5,208.5,126.8z"/>
		<path fill="#FFFFFF" stroke="#F16600" stroke-width="2" stroke-linejoin="round" d="M170.1,116.2c-3.2,1.5-7,2.3-8.5,1.7
			s-0.1-2.4,3.1-3.9s7-2.3,8.5-1.7S173.3,114.7,170.1,116.2z"/>
	</g>
	<path fill="#FFFFFF" stroke="#F16600" stroke-width="2" stroke-linejoin="round" d="M84.6,75.1h3.2c0,0-2.5,7.6-1.6,11.4
		c0.9,3.8,6.6,16.1,4.4,21.5c-2.2,5.4-2.8,25.6-6,34.2c-3.2,8.5-8.2,25.3-16.8,33.9s-7.3,9.8-16.8,11.7s-11.4,2.8-15.5,4.1
		c-4.1,1.3-5.4,1.3-6.6,0c-1.3-1.3-0.6-2.5,2.2-3.8s5.7-2.8,5.7-7.9s-4.1-9.8,0.9-32.9s11.4-38.9,17.1-47.2s16.5-10,24.1-14.9
		C86.4,80.3,84.6,75.1,84.6,75.1z"/>
	<path fill="#FFFFFF" stroke="#F16600" stroke-width="2" stroke-linejoin="round" d="M111.1,80.1c0,0,3.8,0.3,3.2,5.4
		c-0.6,5.1-2.2,29.4,1.6,40.2c3.8,10.8,13.6,18.7,4.4,40.5s-17.1,17.4-18.4,20.9c-1.3,3.5-2.2,3.5-4.1,3.2c-1.9-0.3-4.7,2.8-4.7,0.1
		s0.9-4.6-2.5-8c-3.5-3.5-21.5-16.5-16.1-40.2c5.4-23.7,12.3-38.9,22.5-49.1s7.5-8.3,10.1-10.1C111.1,80.1,111.1,80.1,111.1,80.1z"
		/>
</g>
</svg>
