<?xml version="1.0" encoding="utf-8"?>
<!-- Generator: Adobe Illustrator 18.1.0, SVG Export Plug-In . SVG Version: 6.00 Build 0)  -->
<svg version="1.1" xmlns="http://www.w3.org/2000/svg" xmlns:xlink="http://www.w3.org/1999/xlink" x="0px" y="0px"
	 viewBox="0 0 260 210" enable-background="new 0 0 260 210" xml:space="preserve">
<g id="Guide">
</g>
<g id="Layer_3">
</g>
<g id="Layer_1">
	<g>
		<g>
			<path fill="#FFFFFF" stroke="#B55001" stroke-width="2" d="M99.5,141.6l7-5.9c3.3-2.8,3.8-13.2-3.3-16.8s-11.4,2.3-14.3,1.6
				c-2.9-0.8-1.3-0.1-1.3-0.1l-0.3,0.2c0,0-0.4-1.7-0.1,1.3c0.3,3-6.3,6.4-3.8,13.9C85.8,143.2,96.1,144.5,99.5,141.6z"/>
			<path fill="#FFFFFF" stroke="#B55001" stroke-width="2" d="M93.3,151.6l7,5.9c3.3,2.8,13.7,1.6,16.1-6c2.4-7.5-4.2-10.9-3.9-13.9
				s-0.1-1.3-0.1-1.3l-0.3-0.2c0,0,1.6-0.7-1.3,0.1c-2.9,0.8-7.3-5.1-14.3-1.5C89.5,138.4,89.8,148.7,93.3,151.6z"/>
			<g>
				<path fill="#FFFFFF" stroke="#B55001" stroke-width="2" d="M142.6,95.2c0,0-20.3,10.1-24,23.7c-3.6,13.6,2.9,16.1,2.9,16.1
					s5.7,4.1,14.9-6.6C145.7,117.7,142.6,95.2,142.6,95.2z"/>
				<path fill="#FFFFFF" stroke="#B55001" stroke-width="2" d="M141.8,96.6c0,0-16.9,18.2-18.9,28.8c-2.1,10.6-1.3,9.5-1.3,9.5"/>
				<path fill="#FFFFFF" stroke="#B55001" stroke-width="2" d="M123.4,133.9c-1.6,0.3,7.9-1.9,13.1-19.9c5-17.6,5.3-17.5,5.3-17.5"
					/>
			</g>
			<g>
				<path fill="#FFFFFF" stroke="#B55001" stroke-width="2" d="M103.9,126.9c0,0,8.3,21.1,21.5,26c13.2,4.8,16.2-1.5,16.2-1.5
					s4.5-5.4-5.2-15.5C126.6,125.8,103.9,126.9,103.9,126.9z"/>
				<path fill="#FFFFFF" stroke="#B55001" stroke-width="2" d="M105.3,127.8c0,0,16.6,18.4,27,21.4c10.4,3,9.3,2.2,9.3,2.2"/>
				<path fill="#FFFFFF" stroke="#B55001" stroke-width="2" d="M140.8,149.4c0.2,1.6-1.1-8.1-18.6-14.8c-17.1-6.5-16.9-6.8-16.9-6.8
					"/>
			</g>
			<g>
				<path fill="#FFFFFF" stroke="#B55001" stroke-width="2" d="M189.4,116.1c0,0-20.3,10.1-24,23.7c-3.6,13.6,2.9,16.1,2.9,16.1
					s5.7,4.1,14.9-6.6C192.5,138.6,189.4,116.1,189.4,116.1z"/>
				<path fill="#FFFFFF" stroke="#B55001" stroke-width="2" d="M188.6,117.6c0,0-16.9,18.2-18.9,28.8c-2.1,10.6-1.3,9.5-1.3,9.5"/>
				<path fill="#FFFFFF" stroke="#B55001" stroke-width="2" d="M170.2,154.9c-1.6,0.3,7.9-1.9,13.1-19.9c5-17.6,5.3-17.5,5.3-17.5"
					/>
			</g>
			<g>
				<path fill="#FFFFFF" stroke="#B55001" stroke-width="2" d="M142.6,136.3c0,0,10.1,20.3,23.7,24c13.6,3.6,16.1-2.9,16.1-2.9
					s4.1-5.7-6.6-14.9C165.1,133.2,142.6,136.3,142.6,136.3z"/>
				<path fill="#FFFFFF" stroke="#B55001" stroke-width="2" d="M144,137c0,0,18.2,16.9,28.8,18.9c10.6,2.1,9.5,1.3,9.5,1.3"/>
				<path fill="#FFFFFF" stroke="#B55001" stroke-width="2" d="M181.4,155.4c0.3,1.6-1.9-7.9-19.9-13.1c-17.6-5-17.5-5.3-17.5-5.3"
					/>
			</g>
			<path fill="#FFFFFF" stroke="#B55001" stroke-width="2" stroke-miterlimit="10" d="M178.5,91.5c0,0-13.3-2.9-18.8,2.4
				c-5.5,5.3-11.4,14.1-7.5,22c3.9,7.9,11.9,9.5,12.5,5.7c0.6-3.8-3.5-12.2,0-14.4c3.5-2.3,5.9-0.1,12.1,0s9.1-2,8.6-8.5
				C185,92.2,178.5,91.5,178.5,91.5z"/>
			<path fill="#FFFFFF" stroke="#B55001" stroke-width="2" stroke-miterlimit="10" d="M153.3,177.3c0,0,11.4-7.3,11.6-15
				c0.2-7.6-1.9-18-10.2-20.8c-8.3-2.8-15.1,1.6-12.9,4.8s11.1,6.1,10.2,10.2c-0.9,4.1-4.1,4.3-8.6,8.6s-5,7.8-0.1,12.1
				C148.2,181.3,153.3,177.3,153.3,177.3z"/>
			<g>
				<path fill="#FFFFFF" stroke="#B55001" stroke-width="2" d="M134,174.8c0.7,0,2.2-1.1,2.2-3.3c0-2.2-2.7-6.4-2.7-6.4
					s-2.7,4.2-2.7,6.4c0,2.2,1.4,3.3,2.2,3.3H134z"/>
				<path fill="#FFFFFF" stroke="#B55001" stroke-width="2" d="M124.6,184.1c0.7,0,2.2-1.1,2.2-3.3s-2.7-6.4-2.7-6.4
					s-2.7,4.2-2.7,6.4s1.4,3.3,2.2,3.3H124.6z"/>
				<path fill="#FFFFFF" stroke="#B55001" stroke-width="2" d="M117.3,168.6c-0.3,0.7,0.3,2.4,2.3,3.2c2,0.8,6.9-0.2,6.9-0.2
					s-3-4-5-4.8c-2-0.8-3.6,0.1-3.9,0.8L117.3,168.6z"/>
			</g>
			<g>
				<path fill="#FFFFFF" stroke="#B55001" stroke-width="2" d="M81.3,151.6c0.7,0,2.2-1.1,2.2-3.3s-2.7-6.4-2.7-6.4
					s-2.7,4.2-2.7,6.4s1.4,3.3,2.2,3.3H81.3z"/>
				<path fill="#FFFFFF" stroke="#B55001" stroke-width="2" d="M71.9,161c0.7,0,2.2-1.1,2.2-3.3c0-2.2-2.7-6.4-2.7-6.4
					s-2.7,4.2-2.7,6.4c0,2.2,1.4,3.3,2.2,3.3H71.9z"/>
				<path fill="#FFFFFF" stroke="#B55001" stroke-width="2" d="M64.6,145.5c-0.3,0.7,0.3,2.4,2.3,3.2c2,0.8,6.9-0.2,6.9-0.2
					s-3-4-5-4.8c-2-0.8-3.6,0.1-3.9,0.8L64.6,145.5z"/>
			</g>
			<g>
				<path fill="#FFFFFF" stroke="#B55001" stroke-width="2" d="M143.6,129.3c3,0,9.8,2.1,11.3,5.8c1.5,3.7-2.4,12.3-4.4,15.1
					c-2.8,3.9-9.2,6.1-9.2,6.1s-6.4-2.2-9.2-6.1c-1.9-2.7-5.9-11.4-4.4-15.1c1.5-3.7,8.3-5.8,11.3-5.8H143.6z"/>
				<path fill="#FFFFFF" stroke="#B55001" stroke-width="2" d="M128.4,133.8c0,0,3.3,4.5,12.8,4.5c9.3,0,12-5.3,12-5.3"/>
			</g>
			<g>
				<path fill="#FFFFFF" stroke="#B55001" stroke-width="2" d="M186.8,134.7c0,0-13.3,18.4-10.1,32.1c3.1,13.7,10.1,12.8,10.1,12.8
					s7,0.9,10.1-12.8C200,153.2,186.8,134.7,186.8,134.7z"/>
				<path fill="#FFFFFF" stroke="#B55001" stroke-width="2" d="M186.8,136.4c0,0-6.4,24-3.3,34.3c3.1,10.3,3.3,9,3.3,9"/>
				<path fill="#FFFFFF" stroke="#B55001" stroke-width="2" d="M188,177.9c-1.2,1,6.1-5.3,2.2-23.7c-3.8-17.9-3.5-17.9-3.5-17.9"/>
			</g>
			<g>
				<path fill="#FFFFFF" stroke="#B55001" stroke-width="2" d="M103.8,159.7c-0.4-3.7-4.4-9.4-6.4-8.4c-2,1-6.5,4.5-6.8,7.6
					c-1,13.1,12.1,12.4,13.5,6.5S103.8,159.7,103.8,159.7z"/>
				<path fill="#FFFFFF" stroke="#B55001" stroke-width="2" d="M87.3,175.7c0,0,1.1,2,7.5,0c6.4-2,9.8-5.3,11.3-10.4
					c1.4-4.9,0.1-12.7-3.5-11.5c0,0-1.5,10.8-6.5,13c0,0,1.1-9.4-1.3-13.3c-2.4-3.9-3.4-2.7-3.4-2.7s-7,2.4-8,11.5
					C82.6,171.4,87.3,175.7,87.3,175.7z"/>
			</g>
		</g>
	</g>
</g>
</svg>
