<?xml version="1.0" encoding="utf-8"?>
<!-- Generator: Adobe Illustrator 18.1.0, SVG Export Plug-In . SVG Version: 6.00 Build 0)  -->
<svg version="1.1" xmlns="http://www.w3.org/2000/svg" xmlns:xlink="http://www.w3.org/1999/xlink" x="0px" y="0px"
	 viewBox="0 0 260 210" enable-background="new 0 0 260 210" xml:space="preserve">
<g id="Guide">
</g>
<g id="Layer_3">
</g>
<g id="Layer_1">
	<g>
		<path fill="#FFFFFF" stroke="#F16600" stroke-width="2" stroke-linejoin="round" d="M61.3,141.8c-3.5,3.9-3.5,9.4-8.9,9.4
			s-9.9-4.4-9.9-9.9s4.4-7.6,9.9-7.6S65,137.8,61.3,141.8z"/>
		<path fill="#FFFFFF" stroke="#F16600" stroke-width="2" stroke-linejoin="round" d="M57.3,109.3c0,0-2.1-0.8-4.2,0.5
			c-2.1,1.4-3.9,2.4-4.8,4.8c-0.9,2.4-0.2,3.8,4.5,6.2c4.6,2.4,6.9,2.8,12.8,1.9c5.9-0.9,7.5-2.1,6-4.5c-1.5-2.4-4-2.3-4.9-4.5
			s-4.5-4.3-6.1-4.5C58.9,109.1,57.3,109.3,57.3,109.3z"/>
		<path fill="none" stroke="#F16600" stroke-width="2" stroke-linejoin="round" d="M67.2,115.6c0,0-2,2.4-5.2,1.6
			c-3.1-0.8-4.8-5.5-8-4.4c-3.2,1.1-5.2,0.9-5.2,0.9"/>
		<path fill="none" stroke="#F16600" stroke-width="2" stroke-linejoin="round" d="M64,123c-0.2,0-2.4-2.1-5-4.5
			c-2.6-2.4-5.7-1.1-6.4-2.1c-0.8-0.9-0.8-2.7-0.8-2.7"/>
		<path fill="none" stroke="#F16600" stroke-width="2" stroke-linejoin="round" d="M61.6,117c0,0,2.2,2.6,6.1,1.9
			c3.9-0.7,4.2-0.2,4.2-0.2"/>
		<path fill="#FFFFFF" stroke="#F16600" stroke-width="2" stroke-linejoin="round" d="M83.9,122.5c-0.5,0.2-5.6,3.6-12.4,5.8
			c-6.7,2.3-17.8,11.6-12.8,22.7s22.8,16,31.3,8.7c8.5-7.3,13.4-21.5,8.2-29.3c-5.1-7.8-7.2-8.4-11-8.5
			C83.4,121.8,83.9,122.5,83.9,122.5z"/>
		<path fill="none" stroke="#F16600" stroke-width="2" stroke-linejoin="round" d="M79.5,128.8c-0.2-0.9,3.1-0.7,6.8-1.6
			c3.7-1,5.3,0.8,8.8,7.1c3.6,6.3-0.7,16.4-5.4,19.6s-15.3,5.8-20.6,0.1s1.4-24.3,2.5-25.5"/>
		<path fill="none" stroke="#F16600" stroke-width="2" stroke-linejoin="round" d="M72.5,140.2c2.6,1.8,10.6-10.7,14.3-6.2
			c3.6,4.5,4.5,7.3,1.3,11.8c-3.2,4.5-7.1,5.2-11.1,5.8s-6.3-7.1-5.1-11.3s1.6-5,3.4-6s4.9-6.8,6.5-9.1c1.6-2.3,2.9-3.1,2.9-3.1"/>
		<path fill="#FFFFFF" stroke="#F16600" stroke-width="2" stroke-linejoin="round" d="M38.1,157.9c0,0-1.5,1.6-1.1,4.1
			c0.5,2.5,0.8,4.5,2.7,6.2c1.9,1.7,3.4,1.5,7.4-1.8s5.2-5.3,6.6-11.2c1.4-5.8,0.9-7.8-1.9-7.3c-2.8,0.5-3.6,2.8-6,2.9
			c-2.4,0.1-5.7,2.6-6.4,4C38.5,156.4,38.1,157.9,38.1,157.9z"/>
		<path fill="none" stroke="#F16600" stroke-width="2" stroke-linejoin="round" d="M47.6,151.1c0,0,1.4,2.8-0.4,5.4
			c-1.9,2.6-6.9,2.4-7.1,5.8c-0.2,3.4-1.2,5.2-1.2,5.2"/>
		<path fill="none" stroke="#F16600" stroke-width="2" stroke-linejoin="round" d="M53.3,156.8c-0.1,0.2-2.8,1.4-6.1,3
			c-3.2,1.6-3.1,4.8-4.3,5.2c-1.2,0.4-2.8-0.2-2.8-0.2"/>
		<path fill="none" stroke="#F16600" stroke-width="2" stroke-linejoin="round" d="M46.8,156.8c0,0,3.2-1.1,4-5c0.8-3.9,1.3-4,1.3-4
			"/>
		<path fill="#FFFFFF" stroke="#F16600" stroke-width="2" stroke-linejoin="round" d="M109.3,141.4c-3.5,3.9-3.5,9.4-8.9,9.4
			c-5.5,0-9.9-4.4-9.9-9.9s4.4-7.6,9.9-7.6C105.9,133.4,113,137.3,109.3,141.4z"/>
		<path fill="#FFFFFF" stroke="#F16600" stroke-width="2" stroke-linejoin="round" d="M80.7,112.6c-3.2-4.2-8.6-5.2-7.5-10.6
			c1.1-5.4,6.2-8.8,11.6-7.8s6.6,5.8,5.5,11.2S83.9,117,80.7,112.6z"/>
		<g>
			<path fill="#FFFFFF" stroke="#F16600" stroke-width="2" stroke-linejoin="round" d="M70.1,183.6c0,0,0.8,2.1,3.2,2.7
				c2.4,0.6,4.4,1.3,6.8,0.3c2.3-1,2.9-2.4,1.6-7.5c-1.3-5.1-2.5-7-7.2-10.8s-6.6-4.2-7.4-1.4c-0.8,2.7,1,4.5,0,6.7
				c-1,2.2-0.2,6.3,0.8,7.6S70.1,183.6,70.1,183.6z"/>
			<path fill="none" stroke="#F16600" stroke-width="2" stroke-linejoin="round" d="M68.1,172.1c0,0,3.1-0.1,4.7,2.7
				c1.5,2.8-0.9,7.2,2.1,8.9c3,1.7,4.2,3.3,4.2,3.3"/>
			<path fill="none" stroke="#F16600" stroke-width="2" stroke-linejoin="round" d="M73,175.3c0,0,0.4-3.3-2.7-5.8
				c-3.1-2.5-3-2.9-3-2.9"/>
		</g>
		<g>
			<path fill="#FFFFFF" stroke="#F16600" stroke-width="2" stroke-linejoin="round" d="M127.3,158.9c0.5-0.1,6.2-2.5,13.2-3.6
				c7-1.1,19.6-8.3,16.6-20.1c-2.9-11.8-19.7-19.8-29.3-14.1c-9.7,5.7-16.9,18.8-13.2,27.4c3.7,8.6,5.6,9.6,9.4,10.3
				C127.7,159.6,127.3,158.9,127.3,158.9z"/>
			<path fill="none" stroke="#F16600" stroke-width="2" stroke-linejoin="round" d="M132.8,153.4c0,0.9-3.2,0.1-7,0.4
				c-3.8,0.3-5-1.7-7.5-8.5c-2.4-6.8,3.6-16,8.8-18.3s16.1-3,20.3,3.6c4.2,6.6-5.7,23.6-6.9,24.7"/>
			<path fill="none" stroke="#F16600" stroke-width="2" stroke-linejoin="round" d="M141.6,143.5c-2.2-2.3-12.4,8.7-15.1,3.6
				c-2.8-5.1-3.2-8,0.8-11.8c3.9-3.9,7.9-3.9,11.9-3.8c4,0.1,4.9,8.1,3,12c-1.9,4-2.4,4.7-4.4,5.3s-6,5.8-8,7.9
				c-2,2-3.4,2.6-3.4,2.6"/>
		</g>
		<path fill="#FFFFFF" stroke="#F16600" stroke-width="2" stroke-linejoin="round" d="M230.9,92.8c0,0-4.5,12.3-4.8,18.6
			c-0.3,6.4,8.3,25.1,2.1,37c-13.8,26.4-48.4,36.9-78.3,41.7c-25.8,4.1-53.6,0.7-62.2-3.3s-6.4-4.5-5.6-7.1
			c0.8-2.6,12.2-17.6,35.3-21.7s62.9-8.8,80.2-23.7s17.6-17.1,20.7-25.5c3.1-8.4,1.7-18.1,1.7-18.1L230.9,92.8z"/>
		
			<ellipse transform="matrix(0.9808 0.1952 -0.1952 0.9808 22.2497 -42.2384)" fill="#FFFFFF" stroke="#F16600" stroke-width="2" cx="225.4" cy="91.7" rx="5.6" ry="3.2"/>
		<path fill="none" stroke="#F16600" stroke-width="2" d="M226.3,109.1c0,0-11.7,36.9-40.8,47c-29.2,10.1-77.5,16.8-91.2,21.1
			c-10,3.2-12.5,5.6-12.9,5.8"/>
		<g>
			<path fill="#FFFFFF" stroke="#F16600" stroke-width="2" stroke-linejoin="round" d="M91.7,97.3c0,0-2.1-0.8-4.2,0.5
				c-2.1,1.4-3.9,2.4-4.8,4.8c-0.9,2.4-0.2,3.8,4.5,6.2s6.9,2.8,12.8,1.9c5.9-0.9,7.5-2.1,6-4.5c-1.5-2.4-4-2.3-4.9-4.5
				c-1-2.2-4.5-4.3-6.1-4.5C93.4,97.2,91.7,97.3,91.7,97.3z"/>
			<path fill="none" stroke="#F16600" stroke-width="2" stroke-linejoin="round" d="M101.6,103.6c0,0-2,2.4-5.2,1.6s-4.8-5.5-8-4.4
				c-3.2,1.1-5.2,0.9-5.2,0.9"/>
			<path fill="none" stroke="#F16600" stroke-width="2" stroke-linejoin="round" d="M98.4,111c-0.2,0-2.4-2.1-5-4.5
				c-2.6-2.4-5.7-1.1-6.4-2.1c-0.8-0.9-0.8-2.7-0.8-2.7"/>
			<path fill="none" stroke="#F16600" stroke-width="2" stroke-linejoin="round" d="M96,105.1c0,0,2.2,2.6,6.1,1.9s4.2-0.2,4.2-0.2"
				/>
		</g>
	</g>
</g>
</svg>
