<?xml version="1.0" encoding="utf-8"?>
<!-- Generator: Adobe Illustrator 18.1.0, SVG Export Plug-In . SVG Version: 6.00 Build 0)  -->
<svg version="1.1" xmlns="http://www.w3.org/2000/svg" xmlns:xlink="http://www.w3.org/1999/xlink" x="0px" y="0px"
	 viewBox="0 0 260 210" enable-background="new 0 0 260 210" xml:space="preserve">
<g id="Guide">
</g>
<g id="Layer_3">
</g>
<g id="Layer_1">
	<g>
		<path fill="#FFFFFF" stroke="#B55001" stroke-width="2" d="M216.8,137.2c3.2-12-1.8-21.1-6-24.3c-3.9-2.9-14.3-5.6-25,0.8
			c-10.6,6.4-34.1,19.3-35.9,41.6c-1.3,15.9,7.8,22.3,7.8,22.3l5.3,4c0,0,8.6,7.1,23.6,1.5C207.4,175.2,213.5,149.2,216.8,137.2z"/>
		<path fill="#FFFFFF" stroke="#B55001" stroke-width="2" d="M62.3,143.2c-10.8,6.2-13.6,16.2-12.9,21.4c0.7,4.8,6.2,14.1,18.2,17.1
			c12,3,37.7,10.5,54.8-4c12.2-10.3,10.2-21.3,10.2-21.3l-0.9-6.6c0,0-1.1-11.1-15.6-17.7C95.8,123,73.1,137,62.3,143.2z"/>
		<g>
			<path fill="#FFFFFF" stroke="#B55001" stroke-width="2" d="M158.2,117.3c-4.6-11.5-14.1-15.7-19.5-15.7
				c-4.9,0-14.8,4.2-19.5,15.7s-15.5,35.9-3.5,54.8c8.5,13.5,19.7,13,19.7,13h6.6c0,0,11.2,0.4,19.7-13
				C173.7,153.2,162.9,128.8,158.2,117.3z"/>
			<path fill="#FFFFFF" stroke="#B55001" stroke-width="2" d="M152.7,159.1c0,9.4-6.2,15.6-13.9,15.6c-7.7,0-13.9-6.1-13.9-15.6
				c0-9.4,6.2-18.2,13.9-18.2C146.4,140.9,152.7,149.7,152.7,159.1z"/>
		</g>
	</g>
</g>
</svg>
