<?xml version="1.0" encoding="utf-8"?>
<!-- Generator: Adobe Illustrator 18.1.0, SVG Export Plug-In . SVG Version: 6.00 Build 0)  -->
<svg version="1.1" xmlns="http://www.w3.org/2000/svg" xmlns:xlink="http://www.w3.org/1999/xlink" x="0px" y="0px"
	 viewBox="0 0 260 210" enable-background="new 0 0 260 210" xml:space="preserve">
<g id="Guide">
</g>
<g id="Layer_3">
</g>
<g id="Layer_1">
	<g>
		<path fill="#FFFFFF" stroke="#F16600" stroke-width="2" stroke-linejoin="round" d="M154.1,30.6h-49v11.7c0,0,3.3,60.2,5.1,74.9
			c1.8,14.7,2.7,56.3,2.7,56.3s15.6,6.6,20.5,7.2c4.8,0.6,18.4,0,18.4,0h4.8c0,0,13.5,0.6,18.4,0c4.8-0.6,20.5-7.2,20.5-7.2
			s0.9-41.5,2.7-56.3c1.8-14.7,5.1-74.9,5.1-74.9V30.6H154.1z"/>
		<line fill="none" stroke="#F16600" stroke-width="2" stroke-linejoin="round" x1="105.1" y1="45" x2="203.2" y2="45"/>
		<circle fill="none" stroke="#F16600" stroke-width="2" stroke-linejoin="round" cx="154.1" cy="124.1" r="31.8"/>
		<g>
			<line fill="none" stroke="#F16600" stroke-width="2" stroke-linejoin="round" x1="177.2" y1="132.6" x2="177.2" y2="192.3"/>
			<path fill="#FFFFFF" stroke="#F16600" stroke-width="2" stroke-linejoin="round" d="M180.8,124.1c0,4.7-3.6,8.5-3.6,8.5
				s-3.6-3.8-3.6-8.5s3.6-8.5,3.6-8.5S180.8,119.4,180.8,124.1z"/>
			<path fill="#FFFFFF" stroke="#F16600" stroke-width="2" stroke-linejoin="round" d="M173.4,132c3.3,3.3,3.5,8.5,3.5,8.5
				s-5.2-0.2-8.5-3.5c-3.3-3.3-3.5-8.5-3.5-8.5S170,128.7,173.4,132z"/>
			<path fill="#FFFFFF" stroke="#F16600" stroke-width="2" stroke-linejoin="round" d="M173.4,142.2c3.3,3.3,3.5,8.5,3.5,8.5
				s-5.2-0.2-8.5-3.5c-3.3-3.3-3.5-8.5-3.5-8.5S170,138.9,173.4,142.2z"/>
			<path fill="#FFFFFF" stroke="#F16600" stroke-width="2" stroke-linejoin="round" d="M173.4,152.4c3.3,3.3,3.5,8.5,3.5,8.5
				s-5.2-0.2-8.5-3.5s-3.5-8.5-3.5-8.5S170,149,173.4,152.4z"/>
			<path fill="#FFFFFF" stroke="#F16600" stroke-width="2" stroke-linejoin="round" d="M173.4,162.5c3.3,3.3,3.5,8.5,3.5,8.5
				s-5.2-0.2-8.5-3.5c-3.3-3.3-3.5-8.5-3.5-8.5S170,159.2,173.4,162.5z"/>
			<path fill="#FFFFFF" stroke="#F16600" stroke-width="2" stroke-linejoin="round" d="M181.1,132c-3.3,3.3-3.5,8.5-3.5,8.5
				s5.2-0.2,8.5-3.5c3.3-3.3,3.5-8.5,3.5-8.5S184.4,128.7,181.1,132z"/>
			<path fill="#FFFFFF" stroke="#F16600" stroke-width="2" stroke-linejoin="round" d="M181.1,142.2c-3.3,3.3-3.5,8.5-3.5,8.5
				s5.2-0.2,8.5-3.5c3.3-3.3,3.5-8.5,3.5-8.5S184.4,138.9,181.1,142.2z"/>
			<path fill="#FFFFFF" stroke="#F16600" stroke-width="2" stroke-linejoin="round" d="M181.1,152.4c-3.3,3.3-3.5,8.5-3.5,8.5
				s5.2-0.2,8.5-3.5c3.3-3.3,3.5-8.5,3.5-8.5S184.4,149,181.1,152.4z"/>
			<path fill="#FFFFFF" stroke="#F16600" stroke-width="2" stroke-linejoin="round" d="M181.1,162.5c-3.3,3.3-3.5,8.5-3.5,8.5
				s5.2-0.2,8.5-3.5c3.3-3.3,3.5-8.5,3.5-8.5S184.4,159.2,181.1,162.5z"/>
		</g>
		<path fill="#FFFFFF" stroke="#F16600" stroke-width="2" stroke-linejoin="round" d="M71.7,157.8c0,0-27-25.3-29.2-26.5
			s-5,1.5-4,3.3c1,1.8,30,25.5,30,25.5"/>
		<path fill="#FFFFFF" stroke="#F16600" stroke-width="2" stroke-linejoin="round" d="M130,152.9c0,21.8-17.7,39.5-39.5,39.5
			s-39.5-17.7-39.5-39.5H130z"/>
	</g>
</g>
</svg>
