<?xml version="1.0" encoding="utf-8"?>
<!-- Generator: Adobe Illustrator 18.1.0, SVG Export Plug-In . SVG Version: 6.00 Build 0)  -->
<svg version="1.1" xmlns="http://www.w3.org/2000/svg" xmlns:xlink="http://www.w3.org/1999/xlink" x="0px" y="0px"
	 viewBox="0 0 260 210" enable-background="new 0 0 260 210" xml:space="preserve">
<g id="Guide">
</g>
<g id="Layer_3">
</g>
<g id="Layer_1">
	<g>
		<g>
			<path fill="#FFFFFF" stroke="#0589D1" stroke-width="2" stroke-linejoin="round" d="M193.7,106.8c0,0,17-7.5,22.9-10.5
				c5.8-3,6.1-5.4,8.4-7.1c2.3-1.8,7.5-0.1,8.4,3.2c0.9,3.3-1.2,5,0,5.3s2.8,1.9,0.2,4.7s-6.6,1.4-11.9,1.4c-5.4,0-22.6,10-22.6,10
				L193.7,106.8z"/>
			<path fill="#FFFFFF" stroke="#0589D1" stroke-width="2" stroke-linejoin="round" d="M200.7,131.3c0,0,6.5,9.1,7.2,13.1
				c0.7,4-14.7,10.5-22.4,15.5c-7.7,5-72.4,5.5-85.2,4.5s-32.9-9.3-26.1-33.1c6.8-23.8,19.4-38.5,45.8-41.3s47.9,1.4,60.9,15.6
				C193.9,119.8,200.7,131.3,200.7,131.3z"/>
			<path fill="#FFFFFF" stroke="#0589D1" stroke-width="2" stroke-linejoin="round" d="M204,107.9c0,0-13.1-8.9-32.7-7
				S140,113.8,133.9,128c-6.1,14.2-1.2,29.2,17.3,29.4c18.4,0.2,33.6-13.1,44.4-26.6c10.7-13.5,9.8-10.7,10.1-16.3
				C206.1,108.9,204,107.9,204,107.9z"/>
			<path fill="#FFFFFF" stroke="#0589D1" stroke-width="2" stroke-linejoin="round" d="M111.1,105.6c0,0,4.7,8.6-3.7,17.3
				s-4.7,6.5,0,17s2.3,21.2-9.6,19.8c-11.9-1.4-21.9-17.1-13.1-30.7s25.4-23.5,25.4-23.5H111.1z"/>
		</g>
		<g>
			<path fill="#FFFFFF" stroke="#0589D1" stroke-width="2" stroke-linejoin="round" d="M33.9,151.7c0,0,1.3-1.8,3.6-4.1
				c3.6-3.6,9.7-8.5,17.3-9.6c12.5-1.9,49.5,14.4,65.7,17.2c16.2,2.8,18.9,4.2,19.2,12.2c0.3,8,0.6,12.3-7.8,14.6s-12.6,1-39.6,2.6
				c-28,1.6-34.7,4.2-45.7,1.1c-14.3-4-12.1-6.8-14.9-18.2C29.9,160.5,33.9,151.7,33.9,151.7z"/>
			<path fill="none" stroke="#0589D1" stroke-width="2" stroke-linejoin="round" d="M62.2,171.5c0,0,11.9,1.3,29.3,0.1
				c17.4-1.1,31.6,2,38.6-0.8s7.7-5.5,6.2-8.9S130,157,130,157"/>
			<path fill="none" stroke="#0589D1" stroke-width="2" stroke-linejoin="round" d="M59.3,154.9c-0.9,1-9.4,2.3-10.3-1.3
				c-0.9-3.7-0.3-6.2,4.7-7.3c5-1.1,10.9-1.8,9.7,2.2C62.3,152.6,59.3,154.9,59.3,154.9z"/>
		</g>
		<path fill="none" stroke="#0589D1" stroke-width="2" stroke-linejoin="round" d="M34.4,150.9c0,0-4,8.3-0.8,11.7
			s12.9,11.1,33.5,8.4c21.5-2.8,30.6-1.8,40.6-4.4c11.1-2.8,11.5-4.4,8.3-7.7c-0.7-0.8-10.5-4.2-10.5-4.2l-31.4-10.3
			c-13.3-3.3-17.5-4.9-25.4-0.2s-14.4,9.6-6.8,15.9s7.5,7.9,18.8,7.6s32.5,0.9,32.5,0.9"/>
	</g>
</g>
</svg>
