<?xml version="1.0" encoding="utf-8"?>
<!-- Generator: Adobe Illustrator 18.1.0, SVG Export Plug-In . SVG Version: 6.00 Build 0)  -->
<svg version="1.1" xmlns="http://www.w3.org/2000/svg" xmlns:xlink="http://www.w3.org/1999/xlink" x="0px" y="0px"
	 viewBox="0 0 260 210" enable-background="new 0 0 260 210" xml:space="preserve">
<g id="Guide">
</g>
<g id="Layer_3">
</g>
<g id="Layer_1">
	<g>
		<g>
			<polygon fill="#FFFFFF" stroke="#0589D1" stroke-width="2" stroke-linejoin="round" points="152.9,58.9 211.8,58.9 200.8,35.3 
				141.9,35.3 			"/>
			
				<rect x="189.4" y="58.9" fill="#FFFFFF" stroke="#0589D1" stroke-width="2" stroke-linejoin="round" width="22.4" height="126.9"/>
			
				<rect x="130.5" y="58.9" fill="#FFFFFF" stroke="#0589D1" stroke-width="2" stroke-linejoin="round" width="58.9" height="126.9"/>
			<rect x="141.4" y="26.8" fill="#FFFFFF" stroke="#0589D1" stroke-width="2" stroke-linejoin="round" width="59.3" height="8.9"/>
			<polygon fill="#FFFFFF" stroke="#0589D1" stroke-width="2" stroke-linejoin="round" points="189.4,58.9 130.5,58.9 141.5,35.3 
				200.4,35.3 			"/>
		</g>
		<path fill="#FFFFFF" stroke="#0589D1" stroke-width="2" d="M118.3,163.9c-10.8,2-17.4-2.9-18.8-10.3c-1.4-7.3,3.1-14.3,13.9-16.3
			s23.7,1.8,25.1,9.1C139.8,153.8,129,161.9,118.3,163.9z"/>
		<path fill="#FFFFFF" stroke="#0589D1" stroke-width="2" d="M94.1,145.8c5.7,9.3,3.5,17.3-2.8,21.2c-6.4,3.9-14.5,2.2-20.2-7.1
			c-5.7-9.3-6.9-22.8-0.5-26.7C76.9,129.3,88.4,136.5,94.1,145.8z"/>
		<path fill="#FFFFFF" stroke="#0589D1" stroke-width="2" d="M113.4,151.8c-2.9,10.5-10.3,14.4-17.5,12.4c-7.2-2-11.5-9.1-8.5-19.6
			c2.9-10.5,12-20.5,19.2-18.5C113.8,128,116.3,141.3,113.4,151.8z"/>
		<path fill="#FFFFFF" stroke="#0589D1" stroke-width="2" stroke-linejoin="round" d="M138.2,155.5c0,20.3-16.5,36.8-36.8,36.8
			s-36.8-16.5-36.8-36.8H138.2z"/>
		<path fill="#FFFFFF" stroke="#0589D1" stroke-width="2" d="M77.4,165.3c10.9,0,16.6,6.1,16.6,13.5s-5.7,13.5-16.6,13.5
			s-23-6.1-23-13.5S66.5,165.3,77.4,165.3z"/>
	</g>
</g>
</svg>
