<?xml version="1.0" encoding="utf-8"?>
<!-- Generator: Adobe Illustrator 18.1.0, SVG Export Plug-In . SVG Version: 6.00 Build 0)  -->
<svg version="1.1" xmlns="http://www.w3.org/2000/svg" xmlns:xlink="http://www.w3.org/1999/xlink" x="0px" y="0px"
	 viewBox="0 0 260 210" enable-background="new 0 0 260 210" xml:space="preserve">
<g id="Guide">
</g>
<g id="Layer_3">
</g>
<g id="Layer_1">
	<g>
		<g>
			<path fill="#FFFFFF" stroke="#B55001" stroke-width="2" stroke-linejoin="round" d="M151.3,110.9l-5.2-3.2c0,0-6.6,1.4-7.1,1.7
				c-0.5,0.3-16.5,31.6-16.5,31.6l8.8,6.2l-1.1-3.5L151.3,110.9z"/>
			<path fill="#FFFFFF" stroke="#B55001" stroke-width="2" stroke-linejoin="round" d="M149.3,117.9c0,0-0.2-1.3-1.1-1.6
				c-0.8-0.3-1.7,0-2.4-1c-0.7-1-0.2-1.8-2.1-2.7c-2-1-1.4-1.4-3.2-2c-1.8-0.6-2.5-0.5-3.2-1.2c-0.7-0.7-0.6-0.7-2.9-1.8
				s-2.3-1.5-3-1.9s0.4-0.2-2.1-1.3c-2.5-1.1-3.3-0.6-3.8-1.3s-0.2-1-0.9-1.1c-0.7,0-0.6-0.2-1.4,0.6c-0.8,0.8-1.8,2.5-2.6,4.1
				c-0.8,1.6-1.5,3.6-2.3,4.3c-0.8,0.8-0.1-0.9-1.4,1.3c-1.4,2.2-3.6,3.3-3.5,5.6s0.1,2.3,0.1,2.3s-0.9,1.4-1.5,2.2
				c-0.7,0.7,0.2,1.3-0.2,2.2c-0.4,0.9-1,1.3,0.4,2.2c1.4,0.9,1.8,1.9,2.4,2c0.6,0.1-0.3-0.9,1.3,0.2c1.5,1.1,1.1,1.2,1.8,1.8
				c0.6,0.6,0.9,0.3,2.2,1.3s4.2,2.2,5.3,2.9c1.1,0.7,2,1.2,2.6,2c0.5,0.8,1.8,0.9,2.4,1.5c0.6,0.5,1.1,1,1.9,1.4s0.9,0.8,1.6,1
				c0.7,0.3,1.8-0.3,2.4,0.1c0.5,0.3,1.8,1.1,2.8,1.3c1,0.2,8.7-7.9,10.7-12.2C151.4,125.9,149.3,117.9,149.3,117.9z"/>
			<path fill="#FFFFFF" stroke="#B55001" stroke-width="2" stroke-linejoin="round" d="M130.2,142.1c0,0,49.3,29.2,55.3,33.3
				c6,4.1,7.2,6,7.2,6l0.8,3l9.7,6.6l9.9-16.9l10.4-16.5l-10.1-5.8l-3,0.6c0,0-2.2-0.2-8.5-3.8c-6.3-3.6-54.1-35.3-54.1-35.3
				L130.2,142.1z"/>
			<path fill="#FFFFFF" stroke="#B55001" stroke-width="2" stroke-linejoin="round" d="M145.9,112c0,0-4.3,8.7-8.2,13.3
				c-3.9,4.6-11.9,12.2-11.7,13.6s8.6,12.8,8.6,12.8l2.7-1.6l-1.1-11.3l5.2,0.1l5-2.2l11.4-18.5l-1-8.4L145.9,112z"/>
			<line fill="none" stroke="#B55001" stroke-width="2" stroke-linejoin="round" x1="213.4" y1="151.7" x2="203.3" y2="168"/>
		</g>
		<g>
			<g>
				<path fill="#FFFFFF" stroke="#B55001" stroke-width="2" stroke-linejoin="round" d="M70.2,142.2c0,0.6,0.4,1.1,1.1,1.5l0,0
					c1.1,0.6,2.7,0.4,3.5-0.5l7.6-8.3c0.5-0.5,2-1.9,1.9-3.3c-0.1-1.4,0.2-3.5,0.1-4c-0.1-0.5-0.5-1-1.1-1.3l0,0
					c-1.1-0.6-2.7-0.4-3.5,0.5l-9.6,10.8C70.2,137.6,70.1,141.8,70.2,142.2z"/>
				<path fill="#FFFFFF" stroke="#B55001" stroke-width="2" stroke-linejoin="round" d="M71.2,139.4L71.2,139.4
					c1.2,0.6,2.8,0.4,3.5-0.5l9.1-10c0.8-0.9,0.5-2.1-0.6-2.7l0,0c-1.1-0.6-2.7-0.4-3.5,0.5l-9.1,10
					C69.8,137.6,70.1,138.8,71.2,139.4z"/>
			</g>
			<g>
				<path fill="#FFFFFF" stroke="#B55001" stroke-width="2" stroke-linejoin="round" d="M110.4,141.4c0-3.3-2.6-5.9-5.9-5.9
					s-5.9,2.6-5.9,5.9c0,0.5,0,2.4,0,2.9c0,3.3,2.6,5.9,5.9,5.9s5.9-2.6,5.9-5.9C110.4,143.8,110.4,141.9,110.4,141.4z"/>
				<circle fill="#FFFFFF" stroke="#B55001" stroke-width="2" stroke-linejoin="round" cx="104.5" cy="141.4" r="5.9"/>
			</g>
			<g>
				<path fill="#FFFFFF" stroke="#B55001" stroke-width="2" stroke-linejoin="round" d="M78.7,163.4c0-3.3-2.6-5.9-5.9-5.9
					s-5.9,2.6-5.9,5.9c0,0.5,0,2.4,0,2.9c0,3.3,2.6,5.9,5.9,5.9s5.9-2.6,5.9-5.9C78.7,165.7,78.7,163.8,78.7,163.4z"/>
				<circle fill="#FFFFFF" stroke="#B55001" stroke-width="2" stroke-linejoin="round" cx="72.8" cy="163.4" r="5.9"/>
			</g>
			<g>
				<path fill="#FFFFFF" stroke="#B55001" stroke-width="2" stroke-linejoin="round" d="M82.8,172.1c0-4-2-7.2-4.6-7.2
					s-4.6,3.2-4.6,7.2c0,0.6,0,2.9,0,3.5c0,4,2,7.2,4.6,7.2s4.6-3.2,4.6-7.2C82.8,175,82.8,172.7,82.8,172.1z"/>
				<ellipse fill="#FFFFFF" stroke="#B55001" stroke-width="2" stroke-linejoin="round" cx="78.3" cy="172.1" rx="4.6" ry="7.2"/>
			</g>
			<g>
				<path fill="#FFFFFF" stroke="#B55001" stroke-width="2" stroke-linejoin="round" d="M79.5,159.8c0.3,0.5,0.8,0.8,1.6,0.9l0,0
					c1.3,0.1,2.6-0.8,3-1.9l3.4-10.7c0.2-0.6,1-2.6,0.3-3.8c-0.7-1.2-1.3-3.3-1.6-3.7c-0.3-0.4-0.8-0.7-1.5-0.7l0,0
					c-1.3-0.1-2.6,0.8-3,1.9l-4.2,13.9C77.6,155.6,79.3,159.4,79.5,159.8z"/>
				<path fill="#FFFFFF" stroke="#B55001" stroke-width="2" stroke-linejoin="round" d="M79.3,156.8L79.3,156.8
					c1.3,0.1,2.7-0.8,3-1.9l4.1-12.9c0.4-1.1-0.4-2.1-1.7-2.2l0,0c-1.3-0.1-2.6,0.8-3,1.9l-4.1,12.9
					C77.3,155.8,78.1,156.7,79.3,156.8z"/>
			</g>
			<g>
				<path fill="#FFFFFF" stroke="#B55001" stroke-width="2" stroke-linejoin="round" d="M84.3,187.5c0.3,0.7,0.1,1.5-0.4,2.3l0,0
					c-0.9,1.3-2.8,1.8-4.1,1.2l-12.9-5.9c-0.8-0.4-3.3-1.2-3.9-3c-0.6-1.7-1.6-3-1.8-3.6c-0.2-0.6,0-1.4,0.4-2.1l0,0
					c0.9-1.3,2.8-1.8,4.1-1.2l16.5,7.9C82.3,183.1,84.1,187,84.3,187.5z"/>
				<path fill="#FFFFFF" stroke="#B55001" stroke-width="2" stroke-linejoin="round" d="M82.1,185.8L82.1,185.8
					c-1,1.3-2.8,1.9-4.1,1.3l-15.5-7.1c-1.3-0.6-1.7-2.2-0.8-3.5l0,0c0.9-1.3,2.8-1.8,4.1-1.2l15.5,7.1
					C82.7,183,83,184.5,82.1,185.8z"/>
			</g>
			<g>
				<path fill="#FFFFFF" stroke="#B55001" stroke-width="2" stroke-linejoin="round" d="M117,168.2c-1.4-3-4.9-4.2-7.8-2.9
					c-3,1.4-4.2,4.9-2.9,7.8c0.2,0.4,1,2.1,1.2,2.6c1.4,3,4.9,4.2,7.8,2.9c3-1.4,4.2-4.9,2.9-7.8C117.9,170.4,117.2,168.7,117,168.2
					z"/>
				<circle fill="#FFFFFF" stroke="#B55001" stroke-width="2" stroke-linejoin="round" cx="111.6" cy="170.7" r="5.9"/>
			</g>
			<g>
				<path fill="#FFFFFF" stroke="#B55001" stroke-width="2" stroke-linejoin="round" d="M60.4,148.7c-1.4-3-4.9-4.2-7.8-2.9
					c-3,1.4-4.2,4.9-2.9,7.8c0.2,0.4,1,2.1,1.2,2.6c1.4,3,4.9,4.2,7.8,2.9c3-1.4,4.2-4.9,2.9-7.8C61.4,150.9,60.6,149.2,60.4,148.7z
					"/>
				<circle fill="#FFFFFF" stroke="#B55001" stroke-width="2" stroke-linejoin="round" cx="55" cy="151.2" r="5.9"/>
			</g>
			<g>
				<path fill="#FFFFFF" stroke="#B55001" stroke-width="2" stroke-linejoin="round" d="M103.5,181.2c-1.7-3.6-4.9-5.7-7.2-4.7
					c-2.3,1.1-2.8,4.8-1.1,8.5c0.3,0.5,1.2,2.6,1.5,3.2c1.7,3.6,4.9,5.7,7.2,4.7c2.3-1.1,2.8-4.8,1.1-8.5
					C104.7,183.8,103.7,181.8,103.5,181.2z"/>
				
					<ellipse transform="matrix(0.908 -0.419 0.419 0.908 -67.5816 58.4612)" fill="#FFFFFF" stroke="#B55001" stroke-width="2" stroke-linejoin="round" cx="99.3" cy="183.1" rx="4.6" ry="7.2"/>
			</g>
			<g>
				<path fill="#FFFFFF" stroke="#B55001" stroke-width="2" stroke-linejoin="round" d="M100,168.5c-0.1,0.7-0.5,1.4-1.3,1.9l-0.1,0
					c-1.4,0.8-3.3,0.5-4.2-0.6L85.3,159c-0.5-0.6-2.5-2.5-2.3-4.3c0.1-1.8-0.2-3.4-0.1-4c0.1-0.7,0.6-1.3,1.3-1.7l0.1,0
					c1.4-0.8,3.3-0.5,4.2,0.6l11.6,14.1C100,163.7,100.1,168,100,168.5z"/>
				<path fill="#FFFFFF" stroke="#B55001" stroke-width="2" stroke-linejoin="round" d="M98.7,166.1L98.7,166.1
					c-1.4,0.8-3.3,0.5-4.3-0.6l-11.1-13c-1-1.1-0.6-2.7,0.8-3.5l0.1,0c1.4-0.8,3.3-0.5,4.2,0.6l11.1,13
					C100.5,163.7,100.1,165.3,98.7,166.1z"/>
			</g>
		</g>
		<path fill="#FFFFFF" stroke="#B55001" stroke-width="2" stroke-linejoin="round" d="M112.1,126.8c0.8-1.2,4.7-4.2,6.5-3.9
			c1.7,0.2,4.6-3.3,4.6-3.3s0.5-2,0.8-2.8c0.3-0.8,1.3-1,1.3-1"/>
		<path fill="#FFFFFF" stroke="#B55001" stroke-width="2" stroke-linejoin="round" d="M135.9,108.3c-1.1,1.1-1.6,2.4-1.9,3.7
			c-0.3,1.3-3.2,1.1-3.2,1.1"/>
		<path fill="#FFFFFF" stroke="#B55001" stroke-width="2" stroke-linejoin="round" d="M118.3,111c-0.1,2.7-0.7,6.2-0.8,5.9l-0.8,1.7
			"/>
		<path fill="#FFFFFF" stroke="#B55001" stroke-width="2" stroke-linejoin="round" d="M130.4,133.2c0.6-1.9,3.5-6.6,3.5-8.1
			s1.9-4.2,2.1-4.7"/>
		<path fill="#FFFFFF" stroke="#B55001" stroke-width="2" stroke-linejoin="round" d="M118.7,131.4c1.8-0.5,2.1-3.1,3.3-3.2
			c1.2-0.1,2.7,8.5,3.1,6.8"/>
		<path fill="#FFFFFF" stroke="#B55001" stroke-width="2" stroke-linejoin="round" d="M125.4,103.1c1.2,0.5,1.9,3.5,1.7,4.6
			c-0.2,1.1-1.9,2.4-0.9,3.1c1,0.6,0.9,1.5,0.9,1.5"/>
		<path fill="#FFFFFF" stroke="#B55001" stroke-width="2" stroke-linejoin="round" d="M122.5,120.5l3.8,1.7c0,0,0.9-2,1.9-1.7
			c1,0.3,2.2,0.8,2.2,0.8"/>
	</g>
</g>
</svg>
