<?xml version="1.0"?>
<svg 
 xmlns="http://www.w3.org/2000/svg" 
 xmlns:xlink="http://www.w3.org/1999/xlink">
  <svg:style 
    xmlns:svg="http://www.w3.org/2000/svg" type="text/css">
      .i { display: none; fill: #010101; }
      .i:target { display: block; }
  </svg:style>
 <svg:svg 
  xmlns:svg="http://www.w3.org/2000/svg" 
  class="i" 
  id="start"  
  width="946.3px" 
  height="627.6px" 
  viewBox="0 0 946.3 627.6">
   <path fill="none" stroke="#000000" stroke-width="0.25" stroke-miterlimit="10" d="M635.5,624.1H310.9
		C139.6,624.1,0.7,485.2,0.7,313.8v0C0.7,142.5,139.6,3.6,310.9,3.6h324.5c171.3,0,310.2,138.9,310.2,310.2v0
		C945.7,485.2,806.8,624.1,635.5,624.1z"/>
	<path fill="none" stroke="#000000" stroke-width="0.25" stroke-miterlimit="10" d="M644.5,551.4H301.9
		c-131.2,0-237.6-106.4-237.6-237.6v0c0-131.2,106.4-237.6,237.6-237.6h342.7c131.2,0,237.6,106.4,237.6,237.6v0
		C882.2,445.1,775.8,551.4,644.5,551.4z"/>
	<line fill="none" stroke="#000000" stroke-width="0.5" stroke-miterlimit="10" x1="315" y1="3.6" x2="315" y2="76.2"/>
	<line fill="none" stroke="#000000" stroke-width="0.5" stroke-miterlimit="10" x1="32.8" y1="451.3" x2="90.8" y2="423.2"/>
	<line fill="none" stroke="#000000" stroke-width="0.5" stroke-miterlimit="10" x1="866.4" y1="521" x2="816.4" y2="478"/>
	<text transform="matrix(1 0 0 1 301.6667 93.25)" font-family="'MyriadPro-Regular'" font-size="14">Start</text>
	<circle fill="#0689D1" cx="315" cy="28.1" r="5"/>
	<circle fill="#B55000" cx="315" cy="16.1" r="5"/>
	<text transform="matrix(1 0 0 1 782.6667 470.25)" font-family="'MyriadPro-Regular'" font-size="14">100m</text>
	<text transform="matrix(1 0 0 1 100.6667 418.25)" font-family="'MyriadPro-Regular'" font-size="14">200m</text>
 </svg:svg>

 <svg:svg 
  xmlns:svg="http://www.w3.org/2000/svg" 
  class="i" 
  id="lap1-1" 
  width="946.3px" 
  height="627.6px" 
  viewBox="0 0 946.3 627.6">
  
  <path fill="none" stroke="#000000" stroke-width="0.25" stroke-miterlimit="10" d="M635.5,624.1H310.9
		C139.6,624.1,0.7,485.2,0.7,313.8v0C0.7,142.5,139.6,3.6,310.9,3.6h324.5c171.3,0,310.2,138.9,310.2,310.2v0
		C945.7,485.2,806.8,624.1,635.5,624.1z"/>
	<path fill="none" stroke="#000000" stroke-width="0.25" stroke-miterlimit="10" d="M644.5,551.4H301.9
		c-131.2,0-237.6-106.4-237.6-237.6v0c0-131.2,106.4-237.6,237.6-237.6h342.7c131.2,0,237.6,106.4,237.6,237.6v0
		C882.2,445.1,775.8,551.4,644.5,551.4z"/>
	<line fill="none" stroke="#000000" stroke-width="0.5" stroke-miterlimit="10" x1="315" y1="3.6" x2="315" y2="76.2"/>
	<line fill="none" stroke="#000000" stroke-width="0.5" stroke-miterlimit="10" x1="32.8" y1="451.3" x2="90.8" y2="423.2"/>
	<line fill="none" stroke="#000000" stroke-width="0.5" stroke-miterlimit="10" x1="866.4" y1="521" x2="816.4" y2="478"/>
	<text transform="matrix(1 0 0 1 301.6667 93.25)" font-family="'MyriadPro-Regular'" font-size="14">Start</text>
		<path fill="none" stroke="#0689D1" stroke-width="2" stroke-miterlimit="10" d="M315,28.1c0,0-42.4,38.6-83,52.1
			C73.1,133.2,23.2,300.9,84,423.2"/>

		<path fill="none" stroke="#B55000" stroke-width="2" stroke-miterlimit="10" d="M315,16.1c0,0-42.4,47.6-83,61.1
			C98.9,121.6,42.3,247.5,63.1,359.6"/>

	<circle fill="#0689D1" cx="85.7" cy="426.8" r="5"/>
	<circle fill="#B55000" cx="63.2" cy="363.3" r="5"/>
 </svg:svg> 
 
 <svg:svg 
  xmlns:svg="http://www.w3.org/2000/svg" 
  class="i" 
  id="lap1-2" 
  width="946.3px" 
  height="627.6px" 
  viewBox="0 0 946.3 627.6">
  
  <path fill="none" stroke="#000000" stroke-width="0.25" stroke-miterlimit="10" d="M635.5,624.1H310.9
		C139.6,624.1,0.7,485.2,0.7,313.8v0C0.7,142.5,139.6,3.6,310.9,3.6h324.5c171.3,0,310.2,138.9,310.2,310.2v0
		C945.7,485.2,806.8,624.1,635.5,624.1z"/>
	<path fill="none" stroke="#000000" stroke-width="0.25" stroke-miterlimit="10" d="M644.5,551.4H301.9
		c-131.2,0-237.6-106.4-237.6-237.6v0c0-131.2,106.4-237.6,237.6-237.6h342.7c131.2,0,237.6,106.4,237.6,237.6v0
		C882.2,445.1,775.8,551.4,644.5,551.4z"/>
	<line fill="none" stroke="#000000" stroke-width="0.5" stroke-miterlimit="10" x1="315" y1="3.6" x2="315" y2="76.2"/>
	<line fill="none" stroke="#000000" stroke-width="0.5" stroke-miterlimit="10" x1="32.8" y1="451.3" x2="90.8" y2="423.2"/>
	<line fill="none" stroke="#000000" stroke-width="0.5" stroke-miterlimit="10" x1="866.4" y1="521" x2="816.4" y2="478"/>
	<text transform="matrix(1 0 0 1 301.6667 93.25)" font-family="'MyriadPro-Regular'" font-size="14">Start</text>
		<path fill="none" stroke="#0689D1" stroke-width="2" stroke-miterlimit="10" d="M85.1,425.5c24.6,48.1,66.5,89,125.9,112.7
			c16.6,6.6,43.7,12.5,62.2,15.9c10,1.8,19.5,4,27.9,9.1c17.3,10.7,52.1,30.6,70.3,39c18.3,8.5,42.5,6.9,62.5,9.5l20.9,2.6
			c4.5,0.6,8.9,1,13.4,1.4"/>
		<path fill="none" stroke="#0689D1" stroke-miterlimit="10" d="M315,28.1c0,0-42.4,38.6-83,52.1C72.1,133.5,22.6,303,85.1,425.5"/>
		<path fill="none" stroke="#B55000" stroke-width="2" stroke-miterlimit="10" d="M85.4,425.4c24.6,48.3,66.5,89.2,125.6,112.8
			c16.6,6.6,43.9,14.7,62.2,18.9c9.6,2.2,23.1,12,30.8,17.1c14.6,9.8,52.4,30.6,71.8,35.5c1.6,0.4,3.4,0.8,5.5,1.1"/>
		<path fill="none" stroke="#B55000" stroke-miterlimit="10" d="M315,16.1c0,0-42.4,47.6-83,61.1C71.9,130.6,22.4,302,85.4,425.4"/>
	<circle fill="#0689D1" cx="473.2" cy="616.3" r="5"/>
	<circle fill="#B55000" cx="385" cy="611.7" r="5"/>
 </svg:svg> 

  <svg:svg 
  xmlns:svg="http://www.w3.org/2000/svg" 
  class="i" 
  id="lap1-3" 
  width="946.3px" 
  height="627.6px" 
  viewBox="0 0 946.3 627.6">
  
  <path fill="none" stroke="#000000" stroke-width="0.25" stroke-miterlimit="10" d="M635.5,624.1H310.9
		C139.6,624.1,0.7,485.2,0.7,313.8v0C0.7,142.5,139.6,3.6,310.9,3.6h324.5c171.3,0,310.2,138.9,310.2,310.2v0
		C945.7,485.2,806.8,624.1,635.5,624.1z"/>
	<path fill="none" stroke="#000000" stroke-width="0.25" stroke-miterlimit="10" d="M644.5,551.4H301.9
		c-131.2,0-237.6-106.4-237.6-237.6v0c0-131.2,106.4-237.6,237.6-237.6h342.7c131.2,0,237.6,106.4,237.6,237.6v0
		C882.2,445.1,775.8,551.4,644.5,551.4z"/>
	<line fill="none" stroke="#000000" stroke-width="0.5" stroke-miterlimit="10" x1="315" y1="3.6" x2="315" y2="76.2"/>
	<line fill="none" stroke="#000000" stroke-width="0.5" stroke-miterlimit="10" x1="32.8" y1="451.3" x2="90.8" y2="423.2"/>
	<line fill="none" stroke="#000000" stroke-width="0.5" stroke-miterlimit="10" x1="866.4" y1="521" x2="816.4" y2="478"/>
	<text transform="matrix(1 0 0 1 301.6667 93.25)" font-family="'MyriadPro-Regular'" font-size="14">Start</text>
		<path fill="none" stroke="#0689D1" stroke-miterlimit="10" d="M85.4,426c24.6,47.9,66.5,88.6,125.6,112.3
			c16.6,6.6,43.7,12.5,62.2,15.9c10,1.8,19.5,4,27.9,9.1c17.3,10.7,52.1,30.6,70.3,39c18.3,8.5,42.5,6.9,62.5,9.5l20.9,2.6
			c36.4,4.6,73.3,3.8,109.5-2.4l64.8-7c109.8-12.1,109.1-31.2,130.2-57.7c0,0,28.9-37.7,48.2-54.7c4.3-3.8,8.4-7.7,12.4-11.8"/>
		<path fill="none" stroke="#0689D1" stroke-width="0.5" stroke-miterlimit="10" d="M315,28.1c0,0-42.4,38.6-83,52.1
			C71.9,133.6,22.4,303.5,85.4,426"/>
		<path fill="none" stroke="#B55000" stroke-miterlimit="10" d="M85.4,425.4c24.6,48.3,66.5,89.2,125.6,112.8
			c16.6,6.6,43.9,14.7,62.2,18.9c9.6,2.2,23.1,12,30.8,17.1c14.6,9.8,52.4,30.6,71.8,35.5c19.2,4.9,69.1,6.2,69.1,6.2
			c5.5,0.1,14.5,0.4,20,0.5c0,0,63.1,1.6,99.3-4.6l64.8-7c89-9.8,105.2-26.3,117.9-47.3c6.4-10.6,14.1-20.4,22.9-29.1
			c11-11,26.4-26.1,37.6-35.9c4.3-3.8,8.4-7.7,12.4-11.8"/>
		<path fill="none" stroke="#B55000" stroke-width="0.5" stroke-miterlimit="10" d="M315,16.1c0,0-42.4,47.6-83,61.1
			C71.9,130.6,22.4,302,85.4,425.4"/>
		<path fill="none" stroke="#0689D1" stroke-width="2" stroke-miterlimit="10" d="M819.7,480.8c111.5-114.2,88-331.1-105-401.9
			c-3.4-1.3-7.8-3.5-12.7-6.3"/>
		<path fill="none" stroke="#B55000" stroke-width="2" stroke-miterlimit="10" d="M819.7,480.8c106.9-109.5,88.9-314-79.1-395.9"/>
	<circle fill="#0689D1" cx="698.3" cy="70.6" r="5"/>
	<circle fill="#B55000" cx="736.7" cy="82.8" r="5"/>
 </svg:svg> 

  <svg:svg 
  xmlns:svg="http://www.w3.org/2000/svg" 
  class="i" 
  id="lap2-1" 
  width="946.3px" 
  height="627.6px" 
  viewBox="0 0 946.3 627.6">
  
  <path fill="none" stroke="#000000" stroke-width="0.25" stroke-miterlimit="10" d="M635.5,624.1H310.9
		C139.6,624.1,0.7,485.2,0.7,313.8v0C0.7,142.5,139.6,3.6,310.9,3.6h324.5c171.3,0,310.2,138.9,310.2,310.2v0
		C945.7,485.2,806.8,624.1,635.5,624.1z"/>
	<path fill="none" stroke="#000000" stroke-width="0.25" stroke-miterlimit="10" d="M644.5,551.4H301.9
		c-131.2,0-237.6-106.4-237.6-237.6v0c0-131.2,106.4-237.6,237.6-237.6h342.7c131.2,0,237.6,106.4,237.6,237.6v0
		C882.2,445.1,775.8,551.4,644.5,551.4z"/>
	<line fill="none" stroke="#000000" stroke-width="0.5" stroke-miterlimit="10" x1="315" y1="3.6" x2="315" y2="76.2"/>
	<line fill="none" stroke="#000000" stroke-width="0.5" stroke-miterlimit="10" x1="32.8" y1="451.3" x2="90.8" y2="423.2"/>
	<line fill="none" stroke="#000000" stroke-width="0.5" stroke-miterlimit="10" x1="866.4" y1="521" x2="816.4" y2="478"/>
	<text transform="matrix(1 0 0 1 301.6667 93.25)" font-family="'MyriadPro-Regular'" font-size="14">Start</text>
		<path fill="none" stroke="#0689D1" stroke-width="0.5" stroke-miterlimit="10" d="M85.1,425.5c24.6,48.1,66.5,89,125.9,112.7
			c16.6,6.6,43.7,12.5,62.2,15.9c10,1.8,19.5,4,27.9,9.1c17.3,10.7,52.1,30.6,70.3,39c18.3,8.5,42.5,6.9,62.5,9.5l20.9,2.6
			c36.4,4.6,73.3,3.8,109.5-2.4l64.8-7c109.8-12.1,109.1-31.2,130.2-57.7c0,0,28.9-37.7,48.2-54.7c4.3-3.8,8.4-7.7,12.4-11.8"/>
		<path fill="none" stroke="#0689D1" stroke-miterlimit="10" d="M819.7,480.8c111.5-114.2,88-331.1-105-401.9
			c-19.7-7.2-70.4-46-70.4-46c-19.4-12.7-41.7-20.2-64.9-21.8l-45.2-0.8c-37.5,0.3-54.9-4.7-67.7-3.7c0,0-113.5,11.7-151.5,16.9"/>
	<path id="_x3C_Path_x3E__3_" fill="none" stroke="#0689D1" stroke-width="2" stroke-miterlimit="10" d="M315,23.6
		c0,0-86.4,22.3-111.9,37.2C46.7,152.4,7.5,266.8,59.6,434.1c0.4,1.2,0.8,2.4,1.2,3.7"/>
	<path id="_x3C_Path_x3E__2_" fill="none" stroke="#B55000" stroke-width="2" stroke-miterlimit="10" d="M315,19.6
		c0,0-75.1,21.6-110.9,40.6C90.8,120.7,28.7,191.7,25.3,294.7"/>
	<circle fill="#0689D1" cx="60.8" cy="437.7" r="5"/>
	<circle fill="#B55000" cx="25.1" cy="299.8" r="5"/>
		<path fill="none" stroke="#B55000" stroke-miterlimit="10" d="M819.7,480.8c111.4-114.2,87.1-331.5-101.2-405.6
			C698.9,67.6,667,42.6,667,42.6c-19.4-12.7-54.2-33.9-89.6-34.5l-38.5,1c-12.5,1.2-40.6,0.2-53.3,1.3c0,0-132.7,4-170.6,9.2"/>
		<path fill="none" stroke="#B55000" stroke-width="0.5" stroke-miterlimit="10" d="M85.4,425.4c24.6,48.3,66.5,89.2,125.6,112.8
			c16.6,6.6,43.9,14.7,62.2,18.9c9.6,2.2,23.1,12,30.8,17.1c14.6,9.8,52.4,30.6,71.8,35.5c19.2,4.9,69.1,6.2,69.1,6.2
			c5.5,0.1,14.5,0.4,20,0.5c0,0,63.1,1.6,99.3-4.6l64.8-7c89-9.8,105.2-26.3,117.9-47.3c6.4-10.6,14.1-20.4,22.9-29.1
			c11-11,26.4-26.1,37.6-35.9c4.3-3.8,8.4-7.7,12.4-11.8"/>
 </svg:svg> 
 
<svg:svg 
  xmlns:svg="http://www.w3.org/2000/svg" 
  class="i" 
  id="lap2-2" 
  width="946.3px" 
  height="627.6px" 
  viewBox="0 0 946.3 627.6">
  
  <path fill="none" stroke="#000000" stroke-width="0.25" stroke-miterlimit="10" d="M635.5,624.1H310.9
		C139.6,624.1,0.7,485.2,0.7,313.8v0C0.7,142.5,139.6,3.6,310.9,3.6h324.5c171.3,0,310.2,138.9,310.2,310.2v0
		C945.7,485.2,806.8,624.1,635.5,624.1z"/>
	<path fill="none" stroke="#000000" stroke-width="0.25" stroke-miterlimit="10" d="M644.5,551.4H301.9
		c-131.2,0-237.6-106.4-237.6-237.6v0c0-131.2,106.4-237.6,237.6-237.6h342.7c131.2,0,237.6,106.4,237.6,237.6v0
		C882.2,445.1,775.8,551.4,644.5,551.4z"/>
	<line fill="none" stroke="#000000" stroke-width="0.5" stroke-miterlimit="10" x1="315" y1="3.6" x2="315" y2="76.2"/>
	<line fill="none" stroke="#000000" stroke-width="0.5" stroke-miterlimit="10" x1="32.8" y1="451.3" x2="90.8" y2="423.2"/>
	<line fill="none" stroke="#000000" stroke-width="0.5" stroke-miterlimit="10" x1="866.4" y1="521" x2="816.4" y2="478"/>
	<text transform="matrix(1 0 0 1 301.6667 93.25)" font-family="'MyriadPro-Regular'" font-size="14">Start</text>
	<path fill="none" stroke="#0689D1" stroke-width="2" stroke-miterlimit="10" d="M60.8,437.7C103,570.6,217,623.6,472.7,619.5"/>
	<path fill="none" stroke="#0689D1" stroke-miterlimit="10" d="M315,23.6c0,0-86.4,22.3-111.9,37.2C45.5,153.1,6.9,268.4,60.8,437.7
		"/>
	<path fill="none" stroke="#B55000" stroke-width="2" stroke-miterlimit="10" d="M830.3,543"/>
	<path fill="none" stroke="#B55000" stroke-width="2" stroke-miterlimit="10" d="M52.1,441.7c52.5,148.2,156,175.7,338.4,179.4"/>
	<path fill="none" stroke="#B55000" stroke-miterlimit="10" d="M315,19.6c0,0-75.1,21.6-110.9,40.6c-159.5,85-217.5,191-153.4,377.5
		c0.5,1.3,0.9,2.6,1.4,3.9"/>
	<circle fill="#0689D1" cx="472.7" cy="619.5" r="5"/>
	<circle fill="#B55000" cx="395.4" cy="621.6" r="5"/>
		<path fill="none" stroke="#0689D1" stroke-width="0.5" stroke-miterlimit="10" d="M819.7,480.8c111.5-114.2,88-331.1-105-401.9
			c-19.7-7.2-70.4-46-70.4-46c-19.4-12.7-41.7-20.2-64.9-21.8l-45.2-0.8c-37.5,0.3-54.9-4.7-67.7-3.7c0,0-113.5,11.7-151.5,16.9"/>
		<path fill="none" stroke="#B55000" stroke-width="0.5" stroke-miterlimit="10" d="M819.7,480.8
			c111.4-114.2,87.1-331.5-101.2-405.6C698.9,67.6,667,42.6,667,42.6c-19.4-12.7-54.2-33.9-89.6-34.5l-38.5,1
			c-12.5,1.2-40.6,0.2-53.3,1.3c0,0-132.7,4-170.6,9.2"/>
 </svg:svg>  

<svg:svg 
  xmlns:svg="http://www.w3.org/2000/svg" 
  class="i" 
  id="lap2-3" 
  width="946.3px" 
  height="627.6px" 
  viewBox="0 0 946.3 627.6">
  
  <path fill="none" stroke="#000000" stroke-width="0.25" stroke-miterlimit="10" d="M635.5,624.1H310.9
		C139.6,624.1,0.7,485.2,0.7,313.8v0C0.7,142.5,139.6,3.6,310.9,3.6h324.5c171.3,0,310.2,138.9,310.2,310.2v0
		C945.7,485.2,806.8,624.1,635.5,624.1z"/>
	<path fill="none" stroke="#000000" stroke-width="0.25" stroke-miterlimit="10" d="M644.5,551.4H301.9
		c-131.2,0-237.6-106.4-237.6-237.6v0c0-131.2,106.4-237.6,237.6-237.6h342.7c131.2,0,237.6,106.4,237.6,237.6v0
		C882.2,445.1,775.8,551.4,644.5,551.4z"/>
	<line fill="none" stroke="#000000" stroke-width="0.5" stroke-miterlimit="10" x1="315" y1="3.6" x2="315" y2="76.2"/>
	<line fill="none" stroke="#000000" stroke-width="0.5" stroke-miterlimit="10" x1="32.8" y1="451.3" x2="90.8" y2="423.2"/>
	<line fill="none" stroke="#000000" stroke-width="0.5" stroke-miterlimit="10" x1="866.4" y1="521" x2="816.4" y2="478"/>
	<text transform="matrix(1 0 0 1 301.6667 93.25)" font-family="'MyriadPro-Regular'" font-size="14">Start</text>
	<path fill="none" stroke="#0689D1" stroke-width="2" stroke-miterlimit="10" d="M848.3,505.4C1001,313.8,959-22.4,472.7,7.6"/>
	<path fill="none" stroke="#0689D1" stroke-miterlimit="10" d="M60.8,437.7C103,570.6,217,623.6,472.7,619.5
		C693,616,776.2,595.8,848.3,505.4"/>
	<path fill="none" stroke="#0689D1" stroke-width="0.5" stroke-miterlimit="10" d="M315,23.6c0,0-86.4,22.3-111.9,37.2
		C45.5,153.1,6.9,268.4,60.8,437.7"/>
	<path fill="none" stroke="#B55000" stroke-width="2" stroke-miterlimit="10" d="M518.7,5.9"/>
	<path fill="none" stroke="#B55000" stroke-width="2" stroke-miterlimit="10" d="M857.3,514.4C1013.4,325.6,962.6-0.4,518.7,5.9"/>
	<path fill="none" stroke="#B55000" stroke-miterlimit="10" d="M52.2,441.9c60.1,169.1,185.4,181,420.5,179.6
		c220.3-1.3,310.8-18,384.6-107.1"/>
	<path fill="none" stroke="#B55000" stroke-width="0.5" stroke-miterlimit="10" d="M315,19.6c0,0-75.1,21.6-110.9,40.6
		c-159.5,85-217.5,191-153.4,377.5c0.5,1.4,1,2.8,1.5,4.2"/>
	<circle fill="#0689D1" cx="473.2" cy="7.3" r="3.7"/>
	<circle fill="#B55000" cx="515" cy="5.8" r="3.7"/>  
 </svg:svg> 
 
 <svg:svg 
  xmlns:svg="http://www.w3.org/2000/svg" 
  class="i" 
  id="lap3-1" 
  width="946.3px" 
  height="627.6px" 
  viewBox="0 0 946.3 627.6">
  
  <path fill="none" stroke="#000000" stroke-width="0.25" stroke-miterlimit="10" d="M635.5,624.1H310.9
		C139.6,624.1,0.7,485.2,0.7,313.8v0C0.7,142.5,139.6,3.6,310.9,3.6h324.5c171.3,0,310.2,138.9,310.2,310.2v0
		C945.7,485.2,806.8,624.1,635.5,624.1z"/>
	<path fill="none" stroke="#000000" stroke-width="0.25" stroke-miterlimit="10" d="M644.5,551.4H301.9
		c-131.2,0-237.6-106.4-237.6-237.6v0c0-131.2,106.4-237.6,237.6-237.6h342.7c131.2,0,237.6,106.4,237.6,237.6v0
		C882.2,445.1,775.8,551.4,644.5,551.4z"/>
	<line fill="none" stroke="#000000" stroke-width="0.5" stroke-miterlimit="10" x1="315" y1="3.6" x2="315" y2="76.2"/>
	<line fill="none" stroke="#000000" stroke-width="0.5" stroke-miterlimit="10" x1="32.8" y1="451.3" x2="90.8" y2="423.2"/>
	<line fill="none" stroke="#000000" stroke-width="0.5" stroke-miterlimit="10" x1="866.4" y1="521" x2="816.4" y2="478"/>
	<text transform="matrix(1 0 0 1 301.6667 93.25)" font-family="'MyriadPro-Regular'" font-size="14">Start</text>
	<path fill="none" stroke="#0689D1" stroke-width="2" stroke-miterlimit="10" d="M315,18.3C27.9,58.6-24.2,309.3,43.5,416.3"/>
	<path fill="none" stroke="#B55000" stroke-width="2" stroke-miterlimit="10" d="M315,18.3C76.3,51.8,21,216.9,38.4,340.3"/>
	<circle fill="#0689D1" cx="44" cy="416.3" r="5"/>
	<circle fill="#B55000" cx="37.8" cy="340.3" r="5"/>
	<path fill="none" stroke="#0689D1" stroke-miterlimit="10" d="M848.3,505.4C1001,313.8,959-22.4,472.7,7.6
		C433.3,10.1,315,18.3,315,18.3"/>
	<path fill="none" stroke="#0689D1" stroke-width="0.5" stroke-miterlimit="10" d="M60.8,437.7c27.5,86.4,83.7,140.4,191.2,163.8
		c57.7,12.5,131.5,19.4,220.8,18c222.4-3.5,301.3-21,375.6-114.1"/>
	<path fill="none" stroke="#B55000" stroke-miterlimit="10" d="M857.3,514.4C1018.7,319.3,959-22.4,472.7,7.6
		C433.3,10.1,315,18.3,315,18.3"/>
	<path fill="none" stroke="#B55000" stroke-width="0.5" stroke-miterlimit="10" d="M52.2,441.9c60.1,169.1,185.4,181,420.5,179.6
		c220.3-1.3,310.8-18,384.6-107.1"/>  
 </svg:svg> 

<svg:svg 
  xmlns:svg="http://www.w3.org/2000/svg" 
  class="i" 
  id="lap3-2" 
  width="946.3px" 
  height="627.6px" 
  viewBox="0 0 946.3 627.6">
  
  <path fill="none" stroke="#000000" stroke-width="0.25" stroke-miterlimit="10" d="M635.5,624.1H310.9
		C139.6,624.1,0.7,485.2,0.7,313.8v0C0.7,142.5,139.6,3.6,310.9,3.6h324.5c171.3,0,310.2,138.9,310.2,310.2v0
		C945.7,485.2,806.8,624.1,635.5,624.1z"/>
	<path fill="none" stroke="#000000" stroke-width="0.25" stroke-miterlimit="10" d="M644.5,551.4H301.9
		c-131.2,0-237.6-106.4-237.6-237.6v0c0-131.2,106.4-237.6,237.6-237.6h342.7c131.2,0,237.6,106.4,237.6,237.6v0
		C882.2,445.1,775.8,551.4,644.5,551.4z"/>
	<line fill="none" stroke="#000000" stroke-width="0.5" stroke-miterlimit="10" x1="315" y1="3.6" x2="315" y2="76.2"/>
	<line fill="none" stroke="#000000" stroke-width="0.5" stroke-miterlimit="10" x1="32.8" y1="451.3" x2="90.8" y2="423.2"/>
	<line fill="none" stroke="#000000" stroke-width="0.5" stroke-miterlimit="10" x1="866.4" y1="521" x2="816.4" y2="478"/>
	<text transform="matrix(1 0 0 1 301.6667 93.25)" font-family="'MyriadPro-Regular'" font-size="14">Start</text>
	<path fill="none" stroke="#0689D1" stroke-width="2" stroke-miterlimit="10" d="M60.8,437.7c19.1,18.8,57.5,46.8,78.7,66.3
		c39,35.8,115.3,69.9,150.2,65.9c47.4-5.4,353,4.2,403.5-7.3c54.7-12.5,98.5-37.9,131.3-71"/>
	<path fill="none" stroke="#0689D1" stroke-miterlimit="10" d="M315,18.3C6.3,61.6-30.7,348,60.8,437.7"/>
	<path fill="none" stroke="#B55000" stroke-width="2" stroke-miterlimit="10" d="M69.8,433.7c13.8,23,50.1,58.4,71.8,74.2
		c49.6,36,101.4,62.4,152.1,58.7c54.5-4,349.4,7.4,399.5-4c34.9-8,65.3-21.2,91.3-38.3"/>
	<path fill="none" stroke="#B55000" stroke-miterlimit="10" d="M315,18.3C6.3,61.6,4.3,324.9,69.8,433.7"/>
	<circle fill="#0689D1" cx="827.7" cy="488.8" r="5"/>
	<circle fill="#B55000" cx="788.2" cy="521" r="5"/>
	<path fill="none" stroke="#0689D1" stroke-width="0.5" stroke-miterlimit="10" d="M848.3,505.4C1001,313.8,959-22.4,472.7,7.6
		C433.3,10.1,315,18.3,315,18.3"/>
	<path fill="none" stroke="#B55000" stroke-width="0.5" stroke-miterlimit="10" d="M858,513.5C1018.5,318.2,958.3-22.4,472.7,7.6
		C433.3,10.1,315,18.3,315,18.3"/> 
 </svg:svg> 
 
<svg:svg 
  xmlns:svg="http://www.w3.org/2000/svg" 
  class="i" 
  id="lap3-3" 
  width="946.3px" 
  height="627.6px" 
  viewBox="0 0 946.3 627.6">
  
  <path fill="none" stroke="#000000" stroke-width="0.25" stroke-miterlimit="10" d="M635.5,624.1H310.9
		C139.6,624.1,0.7,485.2,0.7,313.8v0C0.7,142.5,139.6,3.6,310.9,3.6h324.5c171.3,0,310.2,138.9,310.2,310.2v0
		C945.7,485.2,806.8,624.1,635.5,624.1z"/>
	<path fill="none" stroke="#000000" stroke-width="0.25" stroke-miterlimit="10" d="M644.5,551.4H301.9
		c-131.2,0-237.6-106.4-237.6-237.6v0c0-131.2,106.4-237.6,237.6-237.6h342.7c131.2,0,237.6,106.4,237.6,237.6v0
		C882.2,445.1,775.8,551.4,644.5,551.4z"/>
	<line fill="none" stroke="#000000" stroke-width="0.5" stroke-miterlimit="10" x1="315" y1="3.6" x2="315" y2="76.2"/>
	<line fill="none" stroke="#000000" stroke-width="0.5" stroke-miterlimit="10" x1="32.8" y1="451.3" x2="90.8" y2="423.2"/>
	<line fill="none" stroke="#000000" stroke-width="0.5" stroke-miterlimit="10" x1="866.4" y1="521" x2="816.4" y2="478"/>
	<text transform="matrix(1 0 0 1 301.6667 93.25)" font-family="'MyriadPro-Regular'" font-size="14">Start</text>
	<path fill="none" stroke="#0689D1" stroke-miterlimit="10" d="M60.8,437.7c19.1,18.8,57.5,46.8,78.7,66.3
		c39,35.8,115.3,69.9,150.2,65.9c47.4-5.4,353,4.2,403.5-7.3c56.6-12.9,101.6-39.7,134.8-74.6"/>
	<path fill="none" stroke="#B55000" stroke-miterlimit="10" d="M69.8,433.7c13.8,23,50.1,58.4,71.8,74.2
		c49.6,36,101.4,62.4,152.1,58.7c54.5-4,349.4,7.4,399.5-4c56.6-12.9,101.6-39.7,134.8-74.6"/>
	<path fill="none" stroke="#0689D1" stroke-width="2" stroke-miterlimit="10" d="M828,487.9c126.9-133.5,79.7-385-156.3-425.7
		C641.2,57,417.2,62.2,315,60.6"/>
	<path fill="none" stroke="#0689D1" stroke-width="0.5" stroke-miterlimit="10" d="M315,18.3C6.3,61.6-30.7,348,60.8,437.7"/>
	<path fill="none" stroke="#B55000" stroke-width="2" stroke-miterlimit="10" d="M828,487.9c126.9-133.5,79.7-385-156.3-425.7
		c-29.4-5.1-238.8-5.1-345.2-6.5"/>
	<path fill="none" stroke="#B55000" stroke-width="0.5" stroke-miterlimit="10" d="M315,18.3C6.3,61.6,4.3,324.9,69.8,433.7"/>
	<circle fill="#B55000" cx="322.4" cy="55.6" r="5"/>
	<circle fill="#0689D1" cx="315" cy="60.6" r="5"/>
 </svg:svg> 
 
 
</svg>


