<?xml version="1.0" encoding="utf-8"?>
<!-- Generator: Adobe Illustrator 18.1.0, SVG Export Plug-In . SVG Version: 6.00 Build 0)  -->
<svg version="1.1" id="Layer_1" xmlns="http://www.w3.org/2000/svg" xmlns:xlink="http://www.w3.org/1999/xlink" x="0px" y="0px"
	 viewBox="0 0 470 310" enable-background="new 0 0 470 310" xml:space="preserve">
<g id="lap3-2">
	<g>
		<path fill="none" stroke="#9BA3A6" stroke-miterlimit="10" d="M318.7,271.9H150.3c-46.1,0-85.9-26.7-104.9-65.4L17.5,221
			c24.6,51.3,76.9,86.6,137.5,86.6H315c44.7,0,85-19.3,112.8-50l-24.6-21.9C381.9,258.1,351.9,271.9,318.7,271.9z"/>
		<path fill="#E6E8E9" stroke="#9BA3A6" stroke-miterlimit="10" d="M33.5,155.2v-0.3c0-64.5,52.3-116.8,116.8-116.8h6.9V2.3H155
			C70.9,2.3,2.6,70.6,2.6,154.8v0.5c0,23.6,5.3,45.9,14.9,65.8l27.9-14.5C37.8,191,33.5,173.6,33.5,155.2z"/>
		<path fill="#E6E8E9" stroke="#9BA3A6" stroke-miterlimit="10" d="M467.4,154.8C467.4,70.6,399.1,2.3,315,2.3H157.2v35.8h161.5
			c64.5,0,116.8,52.3,116.8,116.8v0.3c0,31.3-12.3,59.7-32.3,80.6l24.6,21.9c24.6-27.1,39.6-63,39.6-102.5V154.8z"/>
		<g>
			<path fill="#828B90" d="M144.8,71.6c-1.5,0-2.5-0.4-3.4-1.3l0.7-0.7c0.8,0.8,1.6,1.1,2.8,1.1c1.5,0,2.4-0.7,2.4-1.9
				c0-0.5-0.2-1-0.5-1.3c-0.3-0.3-0.6-0.4-1.3-0.5l-1.2-0.2c-0.8-0.1-1.4-0.4-1.8-0.8c-0.5-0.5-0.8-1.1-0.8-1.9
				c0-1.7,1.2-2.8,3.2-2.8c1.3,0,2.1,0.3,3,1.1l-0.7,0.7c-0.6-0.6-1.3-0.9-2.4-0.9c-1.4,0-2.1,0.8-2.1,1.9c0,0.5,0.1,0.9,0.5,1.2
				c0.3,0.3,0.8,0.4,1.3,0.5l1.2,0.2c0.9,0.1,1.4,0.3,1.8,0.7c0.5,0.5,0.9,1.1,0.9,2C148.3,70.5,146.9,71.6,144.8,71.6z"/>
			<path fill="#828B90" d="M152.3,71.5c-1.2,0-1.8-0.8-1.8-1.9v-4.3h-0.9v-0.8h0.9v-2.1h1v2.1h1.5v0.8h-1.5v4.3c0,0.6,0.3,1,0.9,1
				h0.5v0.9H152.3z"/>
			<path fill="#828B90" d="M159,71.5v-0.7c-0.6,0.6-1.1,0.8-2,0.8c-1,0-1.5-0.2-2-0.6c-0.4-0.3-0.5-0.9-0.5-1.4c0-1.2,0.9-2,2.4-2
				h2.1v-0.7c0-1-0.5-1.5-1.8-1.5c-0.9,0-1.3,0.2-1.8,0.8l-0.7-0.6c0.6-0.8,1.3-1,2.5-1c1.9,0,2.8,0.8,2.8,2.3v4.7H159z M159,68.3
				H157c-1,0-1.6,0.4-1.6,1.2c0,0.8,0.5,1.2,1.6,1.2c0.6,0,1.1-0.1,1.5-0.5c0.2-0.2,0.4-0.6,0.4-1.2V68.3z"/>
			<path fill="#828B90" d="M166.4,65.8c-0.4-0.4-0.7-0.5-1.2-0.5c-1,0-1.7,0.8-1.7,1.9v4.3h-1v-7h1v0.9c0.4-0.6,1.1-0.9,2-0.9
				c0.7,0,1.2,0.2,1.7,0.7L166.4,65.8z"/>
			<path fill="#828B90" d="M170.4,71.5c-1.2,0-1.8-0.8-1.8-1.9v-4.3h-0.9v-0.8h0.9v-2.1h1v2.1h1.5v0.8h-1.5v4.3c0,0.6,0.3,1,0.9,1
				h0.5v0.9H170.4z"/>
		</g>
		<g>
			<line fill="none" stroke="#CDD1D3" stroke-width="4.5067" stroke-miterlimit="10" x1="157.2" y1="38.1" x2="157.2" y2="2.3"/>
			<line fill="none" stroke="#FFFFFF" stroke-width="0.7511" stroke-miterlimit="10" x1="157.2" y1="38.1" x2="157.2" y2="2.3"/>
		</g>
		<g>
			<line fill="none" stroke="#CDD1D3" stroke-width="4.5067" stroke-miterlimit="10" x1="157.2" y1="50.1" x2="157.2" y2="35.8"/>
			<line fill="none" stroke="#FFFFFF" stroke-width="0.7511" stroke-miterlimit="10" x1="157.2" y1="50.1" x2="157.2" y2="35.8"/>
		</g>
	</g>
	<path fill="none" stroke="#0689D1" stroke-width="2" stroke-miterlimit="10" d="M32.2,216c9.4,9.3,28.3,23,38.7,32.6
		c19.2,17.6,56.7,34.4,73.9,32.4c23.3-2.7,173.6,2.1,198.5-3.6c26.9-6.2,48.4-18.7,64.6-34.9"/>
	<path opacity="0.4" fill="none" stroke="#0689D1" stroke-miterlimit="10" d="M157.2,9.6C5.4,30.9-12.8,171.8,32.2,216"/>
	<path fill="none" stroke="#B55000" stroke-width="2" stroke-miterlimit="10" d="M36.6,214c6.8,11.3,24.6,28.7,35.3,36.5
		c24.4,17.7,49.9,30.7,74.8,28.9c26.8-2,171.9,3.6,196.5-2c17.2-3.9,32.1-10.4,44.9-18.8"/>
	<path opacity="0.4" fill="none" stroke="#B55000" stroke-miterlimit="10" d="M157.2,9.6C5.4,30.9,4.4,160.5,36.6,214"/>
	<circle fill="#0689D1" cx="409.4" cy="241.1" r="3.9"/>
	<circle fill="#B55000" cx="390" cy="257" r="3.9"/>
	<path opacity="0.4" fill="none" stroke="#0689D1" stroke-width="0.5" stroke-miterlimit="10" d="M419.5,249.3
		C494.6,155,474-10.4,234.8,4.3c-19.4,1.2-77.6,5.3-77.6,5.3"/>
	<path opacity="0.4" fill="none" stroke="#B55000" stroke-width="0.5" stroke-miterlimit="10" d="M424.3,253.3
		c78.9-96.1,49.3-263.7-189.5-248.9c-19.4,1.2-77.6,5.3-77.6,5.3"/>
</g>
</svg>
