<?xml version="1.0" encoding="utf-8"?>
<!-- Generator: Adobe Illustrator 18.1.0, SVG Export Plug-In . SVG Version: 6.00 Build 0)  -->
<svg version="1.1" xmlns="http://www.w3.org/2000/svg" xmlns:xlink="http://www.w3.org/1999/xlink" x="0px" y="0px"
	 viewBox="0 0 470 311" enable-background="new 0 0 470 311" xml:space="preserve">
<g id="Layer_7">
	<g>
		<path fill="#EBEDED" stroke="#9BA3A6" stroke-miterlimit="10" d="M318.7,272.7H150.3c-46.1,0-85.9-26.7-104.9-65.4l-27.9,14.5
			c24.6,51.3,76.9,86.6,137.5,86.6H315c44.7,0,85-19.3,112.8-50l-24.6-21.9C381.9,258.9,351.9,272.7,318.7,272.7z"/>
		<path fill="none" stroke="#9BA3A6" stroke-miterlimit="10" d="M33.5,156v-0.3c0-64.5,52.3-116.8,116.8-116.8h6.9V3.1H155
			C70.9,3.1,2.6,71.4,2.6,155.6v0.5c0,23.6,5.3,45.9,14.9,65.8l27.9-14.5C37.8,191.8,33.5,174.4,33.5,156z"/>
		<path fill="#EBEDED" stroke="#9BA3A6" stroke-miterlimit="10" d="M467.4,155.6C467.4,71.4,399.1,3.1,315,3.1H157.2v35.8h161.5
			c64.5,0,116.8,52.3,116.8,116.8v0.3c0,31.3-12.3,59.7-32.3,80.6l24.6,21.9c24.6-27.1,39.6-63,39.6-102.5V155.6z"/>
	</g>
	<path fill="none" stroke="#0589D1" stroke-width="2" stroke-miterlimit="10" d="M157.2,10.4C16,30.2-9.6,153.6,23.7,206.2"/>
	<path fill="none" stroke="#B55001" stroke-width="2" stroke-miterlimit="10" d="M157.2,10.4C39.8,26.9,12.6,108.1,21.2,168.8"/>
	<circle fill="#0589D1" cx="23.7" cy="206.2" r="4"/>
	<circle fill="#B55001" cx="21" cy="168.8" r="4"/>
	<path fill="none" stroke="#50ACDF" stroke-miterlimit="10" d="M419.1,250.7C494.2,156.5,474-9.6,234.8,5.1
		c-19.4,1.2-77.6,5.3-77.6,5.3"/>
	<path fill="none" stroke="#50ACDF" stroke-width="0.5" stroke-miterlimit="10" d="M31.5,214.5c13.5,42.5,41.9,71.3,94.7,82.8
		c28.4,6.2,64.7,9.5,108.6,8.9c109.4-1.7,147.7-9.7,184.2-55.5"/>
	<path fill="none" stroke="#CB844D" stroke-miterlimit="10" d="M423.7,254.9C503.1,158.8,474-9.6,234.8,5.1
		c-19.4,1.2-77.6,5.3-77.6,5.3"/>
	<path fill="none" stroke="#CB844D" stroke-width="0.5" stroke-miterlimit="10" d="M27.2,216.8c29.6,83.2,91.9,91.1,207.6,90.4
		c108.4-0.6,152.6-8.5,188.9-52.4"/>
	<g>
		<line fill="none" stroke="#9BA3A6" stroke-width="4.5067" stroke-miterlimit="10" x1="157.2" y1="38.9" x2="157.2" y2="3.1"/>
		<line fill="none" stroke="#FFFFFF" stroke-width="0.7511" stroke-miterlimit="10" x1="157.2" y1="38.9" x2="157.2" y2="3.1"/>
	</g>
	<g>
		<g>
			<path fill="#505D64" d="M194.9,148.5v-21.4h2.3v19.3h10.9v2H194.9z"/>
			<path fill="#505D64" d="M220,148.5v-1.4c-1.2,1.2-2.3,1.6-4.3,1.6c-2,0-3.1-0.4-4.2-1.4c-0.8-0.7-1.1-1.8-1.1-3
				c0-2.6,1.8-4.3,5.1-4.3h4.4v-1.4c0-2.1-1-3.2-3.8-3.2c-1.9,0-2.8,0.5-3.7,1.7l-1.5-1.4c1.3-1.7,2.8-2.2,5.2-2.2
				c4,0,5.9,1.7,5.9,4.9v10H220z M220,141.7h-4.1c-2.2,0-3.3,0.9-3.3,2.6c0,1.7,1,2.5,3.4,2.5c1.2,0,2.3-0.1,3.3-1
				c0.5-0.5,0.8-1.3,0.8-2.5V141.7z"/>
			<path fill="#505D64" d="M237.4,147.4c-0.8,0.8-2.1,1.3-3.6,1.3c-1.6,0-2.9-0.4-4.2-1.9v8.3h-2.2v-21.4h2.2v1.7
				c1.2-1.5,2.5-1.9,4.2-1.9c1.5,0,2.8,0.5,3.6,1.3c1.5,1.5,1.8,3.9,1.8,6.3C239.2,143.5,238.8,145.9,237.4,147.4z M233.3,135.5
				c-3.2,0-3.7,2.8-3.7,5.6s0.5,5.6,3.7,5.6c3.2,0,3.7-2.8,3.7-5.6S236.5,135.5,233.3,135.5z"/>
			<path fill="#505D64" d="M256.1,148.7c-3.4,0-6.1-1.8-6.3-5.6h2.2c0.2,2.7,2.1,3.7,4.1,3.7c2.3,0,4.1-1.5,4.1-4.1
				c0-2.6-1.3-4.1-4.2-4.1h-0.5v-1.9h0.5c2.6,0,3.8-1.5,3.8-3.9c0-2.5-1.7-3.9-3.7-3.9c-2.3,0-3.6,1.4-3.8,3.6h-2.2
				c0.2-3.5,2.8-5.5,6-5.5c3.5,0,5.9,2.3,5.9,5.8c0,2.3-1,3.9-2.9,4.7c2.2,0.8,3.3,2.5,3.3,5.2C262.4,146.6,259.6,148.7,256.1,148.7
				z"/>
		</g>
	</g>
</g>
<g id="Label">
	<g>
		<path fill="#9BA3A6" d="M144.1,58.6c-1.7,0-2.8-0.4-3.9-1.5l0.8-0.8c0.9,0.9,1.8,1.2,3.1,1.2c1.7,0,2.7-0.8,2.7-2.1
			c0-0.6-0.2-1.1-0.6-1.4c-0.4-0.3-0.7-0.4-1.5-0.6l-1.3-0.2c-0.9-0.1-1.6-0.4-2.1-0.9c-0.6-0.5-0.9-1.2-0.9-2.1
			c0-1.9,1.4-3.2,3.6-3.2c1.5,0,2.4,0.4,3.4,1.2l-0.8,0.8c-0.7-0.7-1.5-1-2.7-1c-1.5,0-2.4,0.8-2.4,2.1c0,0.6,0.2,1,0.5,1.3
			c0.4,0.3,0.9,0.5,1.5,0.6l1.3,0.2c1.1,0.2,1.6,0.4,2.1,0.8c0.6,0.5,1,1.3,1,2.2C148,57.4,146.5,58.6,144.1,58.6z"/>
		<path fill="#9BA3A6" d="M152.6,58.5c-1.3,0-2-0.9-2-2.1v-4.9h-1v-0.9h1v-2.4h1.2v2.4h1.7v0.9h-1.7v4.8c0,0.7,0.3,1.2,1.1,1.2h0.6
			v1H152.6z"/>
		<path fill="#9BA3A6" d="M160.1,58.5v-0.8c-0.6,0.6-1.2,0.8-2.3,0.8c-1.1,0-1.7-0.2-2.2-0.7c-0.4-0.4-0.6-1-0.6-1.6
			c0-1.4,1-2.3,2.7-2.3h2.4v-0.8c0-1.1-0.6-1.7-2-1.7c-1,0-1.5,0.3-2,0.9l-0.8-0.7c0.7-0.9,1.5-1.2,2.8-1.2c2.1,0,3.2,0.9,3.2,2.6
			v5.3H160.1z M160.1,54.9h-2.2c-1.2,0-1.8,0.5-1.8,1.4c0,0.9,0.6,1.3,1.8,1.3c0.7,0,1.2-0.1,1.7-0.5c0.3-0.3,0.4-0.7,0.4-1.4V54.9z
			"/>
		<path fill="#9BA3A6" d="M168.4,52.2c-0.4-0.4-0.8-0.6-1.4-0.6c-1.2,0-1.9,0.9-1.9,2.1v4.8H164v-7.9h1.2v1c0.4-0.7,1.3-1.1,2.2-1.1
			c0.8,0,1.3,0.2,1.9,0.7L168.4,52.2z"/>
		<path fill="#9BA3A6" d="M173,58.5c-1.3,0-2-0.9-2-2.1v-4.9h-1v-0.9h1v-2.4h1.2v2.4h1.7v0.9h-1.7v4.8c0,0.7,0.3,1.2,1.1,1.2h0.6v1
			H173z"/>
	</g>
	<g>
		<path fill="#9BA3A6" d="M359.1,229v-10.1l-2.1,1.9v-1.3l2.1-1.8h1.2V229H359.1z"/>
		<path fill="#9BA3A6" d="M367.5,229.1c-1.8,0-3.1-1.2-3.1-3.1v-5.3c0-1.9,1.3-3.1,3.1-3.1c1.8,0,3.1,1.2,3.1,3.1v5.3
			C370.6,227.9,369.3,229.1,367.5,229.1z M369.5,220.8c0-1.2-0.7-2.2-2-2.2s-2,0.9-2,2.2v5.2c0,1.2,0.7,2.2,2,2.2s2-0.9,2-2.2V220.8
			z"/>
		<path fill="#9BA3A6" d="M375.9,229.1c-1.8,0-3.1-1.2-3.1-3.1v-5.3c0-1.9,1.3-3.1,3.1-3.1c1.8,0,3.1,1.2,3.1,3.1v5.3
			C379,227.9,377.6,229.1,375.9,229.1z M377.8,220.8c0-1.2-0.7-2.2-2-2.2s-2,0.9-2,2.2v5.2c0,1.2,0.7,2.2,2,2.2s2-0.9,2-2.2V220.8z"
			/>
		<path fill="#9BA3A6" d="M391.6,229v-4.8c0-1.4-0.8-2.1-1.9-2.1c-1.2,0-2,0.7-2,2v5h-1.2v-4.8c0-1.4-0.8-2.1-1.9-2.1s-2,0.7-2,2.1
			v4.8h-1.2v-7.9h1.2v0.9c0.6-0.6,1.3-1,2.2-1c1.1,0,1.9,0.4,2.4,1.3c0.6-0.9,1.5-1.3,2.6-1.3c0.8,0,1.6,0.3,2,0.7
			c0.6,0.5,0.8,1.3,0.8,2.2v5H391.6z"/>
	</g>
	<g>
		<path fill="#9BA3A6" d="M56.4,204.3v-1l4.5-5.7c0.4-0.6,0.6-1.1,0.6-1.7c0-1.2-0.7-2-2-2c-1.1,0-2,0.6-2,2.1h-1.2
			c0-1.8,1.2-3.1,3.1-3.1c1.9,0,3.1,1.2,3.1,3.1c0,0.9-0.3,1.5-0.9,2.3l-4,5.1h4.9v1H56.4z"/>
		<path fill="#9BA3A6" d="M67.8,204.4c-1.8,0-3.1-1.2-3.1-3.1v-5.3c0-1.9,1.3-3.1,3.1-3.1c1.8,0,3.1,1.2,3.1,3.1v5.3
			C70.9,203.1,69.6,204.4,67.8,204.4z M69.8,196c0-1.2-0.7-2.2-2-2.2s-2,0.9-2,2.2v5.2c0,1.2,0.7,2.2,2,2.2s2-0.9,2-2.2V196z"/>
		<path fill="#9BA3A6" d="M76.2,204.4c-1.8,0-3.1-1.2-3.1-3.1v-5.3c0-1.9,1.3-3.1,3.1-3.1c1.8,0,3.1,1.2,3.1,3.1v5.3
			C79.3,203.1,78,204.4,76.2,204.4z M78.1,196c0-1.2-0.7-2.2-2-2.2s-2,0.9-2,2.2v5.2c0,1.2,0.7,2.2,2,2.2s2-0.9,2-2.2V196z"/>
		<path fill="#9BA3A6" d="M91.9,204.3v-4.8c0-1.4-0.8-2.1-1.9-2.1c-1.2,0-2,0.7-2,2v5h-1.2v-4.8c0-1.4-0.8-2.1-1.9-2.1s-2,0.7-2,2.1
			v4.8h-1.2v-7.9h1.2v0.9c0.6-0.6,1.3-1,2.2-1c1.1,0,1.9,0.4,2.4,1.3c0.6-0.9,1.5-1.3,2.6-1.3c0.8,0,1.6,0.3,2,0.7
			c0.6,0.5,0.8,1.3,0.8,2.2v5H91.9z"/>
	</g>
</g>
</svg>
