<?xml version="1.0" encoding="utf-8"?>
<!-- Generator: Adobe Illustrator 18.1.0, SVG Export Plug-In . SVG Version: 6.00 Build 0)  -->
<svg version="1.1" id="Layer_1" xmlns="http://www.w3.org/2000/svg" xmlns:xlink="http://www.w3.org/1999/xlink" x="0px" y="0px"
	 viewBox="0 0 470 310" enable-background="new 0 0 470 310" xml:space="preserve">
<path fill="none" stroke="#9BA3A6" stroke-miterlimit="10" d="M318.7,271.9H150.3c-46.1,0-85.9-26.7-104.9-65.4L17.5,221
	c24.6,51.3,76.9,86.6,137.5,86.6H315c44.7,0,85-19.3,112.8-50l-24.6-21.9C381.9,258.1,351.9,271.9,318.7,271.9z"/>
<path fill="none" stroke="#9BA3A6" stroke-miterlimit="10" d="M33.5,155.2v-0.3c0-64.5,52.3-116.8,116.8-116.8h6.9V2.3H155
	C70.9,2.3,2.6,70.6,2.6,154.8v0.5c0,23.6,5.3,45.9,14.9,65.8l27.9-14.5C37.8,191,33.5,173.6,33.5,155.2z"/>
<path fill="none" stroke="#9BA3A6" stroke-miterlimit="10" d="M467.4,154.8C467.4,70.6,399.1,2.3,315,2.3H157.2v35.8h161.5
	c64.5,0,116.8,52.3,116.8,116.8v0.3c0,31.3-12.3,59.7-32.3,80.6l24.6,21.9c24.6-27.1,39.6-63,39.6-102.5V154.8z"/>
<g>
	<path fill="none" stroke="#CDD1D3" stroke-width="4.5067" stroke-miterlimit="10" d="M157.2,35.8"/>
	<path fill="none" stroke="#FFFFFF" stroke-width="0.7511" stroke-miterlimit="10" d="M157.2,35.8"/>
</g>
<g id="_x32__1_">
	<path fill="#B55001" d="M217.8,308.1c-47.6,0-89.6-1.7-121.5-13.2c-35.6-12.7-57.9-37-72.2-78.5C8.5,171,7.4,134,20.7,103.6
		c12.6-28.9,38-52.7,79.8-75c17.5-9.4,53.3-19.7,54.9-20.1l0.6,2.1l-0.2-2.8c0.6,0,58.3-4.4,77.5-5.3
		c144.4-6.3,199.5,52.4,216.3,85.4c13,25.4,17.1,54.9,12.1,85.2c-4.9,29.4-18,57.6-37.8,81.6c-36.9,44.6-81.9,52.7-190.4,53.3
		C228.1,308.1,222.9,308.1,217.8,308.1z M156.3,11.8l0.2,0.6c-0.4,0.1-36.9,10.6-54.1,19.8c-82.4,43.9-104,97-74.4,183
		c28,81.4,84.1,89.6,205.4,88.9c107.1-0.6,151.5-8.5,187.4-51.9c40.6-49.1,50.5-112.9,25.3-162.5C428.3,54.8,377-2.4,233.5,6.5
		C215,7.7,160.5,11.5,156.3,11.8z"/>
	<path fill="#0589D1" d="M219,304.3c-57.1,0-97.7-5.9-126.9-18.2c-32.2-13.6-52.2-35.8-63-69.6c-13.6-42.9-14.9-78.2-3.9-108.1
		c11.2-30.6,35.7-56.5,74.8-79.4c12.6-7.4,53.7-18,55.5-18.5l1,3.9c-0.4,0.1-42.3,11-54.4,18.1c-75.2,44-95.8,98.7-69.1,182.9
		c20.3,63.9,74.6,87,200.4,84.9c109.1-1.7,148.5-9.2,183-52.4c39.5-49.5,49.3-114.8,24.4-162.6C410.9,28.1,337.4,0.1,233.5,6.5
		c-19.1,1.2-76.9,5.2-77.4,5.3l-0.3-4c0.6,0,58.3-4.1,77.5-5.3c50.5-3.1,108.5,5.1,139.9,18.4c32.9,14,56.8,35,71.1,62.4
		c13,25,17.2,54.4,12.1,85.1c-4.8,29.3-17.6,57.5-37,81.8c-35.4,44.4-75.5,52.1-186,53.9C228.5,304.2,223.7,304.3,219,304.3z"/>
	<g>
		<path fill="#023800" d="M233.4,304.2c2.4,0,4.8-0.1,7.1-0.1C238.1,304,235.8,304.1,233.4,304.2c-13.6,0-26.3,0-38.3-0.3
			c7.6,0.3,15.6,0.4,23.9,0.4C223.7,304.3,228.5,304.2,233.4,304.2z"/>
		<path fill="#023800" d="M102.4,32.1C102.4,32.1,102.4,32.1,102.4,32.1c0.9-0.5,1.9-1,3-1.5c16.8-8.2,46.3-16.9,50.6-18.2l-0.5-2
			c-1.6,0.4-36.6,9.5-52,16.7c-1,0.5-2,1-2.9,1.5c0,0,0,0,0,0c-0.2,0.1-0.4,0.2-0.5,0.3C75.5,43.2,56.8,58.7,43.4,75.8
			C57.5,59.9,77.1,45.6,102.4,32.1z"/>
		<path fill="#023800" d="M156,10.6l0.1,1.2c0.4,0,34.9-2.4,59.4-4.1c0.1,0,0.3,0,0.4,0c0.9-0.1,1.7-0.1,2.5-0.2c0.1,0,0.2,0,0.2,0
			c0.8-0.1,1.6-0.1,2.4-0.2c0.1,0,0.3,0,0.4,0c0.3,0,0.7,0,1-0.1c0.1,0,0.2,0,0.2,0c0.8-0.1,1.6-0.1,2.3-0.2c0.1,0,0.1,0,0.2,0
			c0.4,0,0.7,0,1.1-0.1c0.1,0,0.1,0,0.2,0c0.7,0,1.5-0.1,2.2-0.1c0,0,0,0,0,0c0.3,0,0.7,0,1-0.1c0.3,0,0.6,0,0.9-0.1
			c0,0,0.1,0,0.1,0c0.2,0,0.4,0,0.6,0c0.2,0,0.3,0,0.5,0c0,0,0.1,0,0.1,0c0.3,0,0.6,0,0.8-0.1c0.3,0,0.6,0,0.9-0.1
			c1.9-0.1,3.9-0.2,5.8-0.3c0.7,0,1.5-0.1,2.2-0.1c1.1,0,2.2-0.1,3.2-0.1c1,0,2-0.1,3-0.1c0.2,0,0.5,0,0.7,0
			C380.6,1.7,428.9,56.1,446,89.7c4,7.8,7,15.9,9.3,24.3c-2.4-10.7-6.1-21-11.1-30.6c-14.3-27.4-38.2-48.4-71.1-62.4
			c-13.6-5.8-28.6-10.3-44.9-13.5c-0.4-0.1-0.8-0.2-1.2-0.2c-0.8-0.2-1.7-0.3-2.5-0.5c-0.8-0.1-1.6-0.3-2.3-0.4
			c-0.6-0.1-1.3-0.2-1.9-0.3c-1.1-0.2-2.1-0.3-3.2-0.5c-0.4-0.1-0.9-0.1-1.3-0.2c-1.5-0.2-3-0.4-4.5-0.6c-0.1,0-0.1,0-0.2,0
			c-3.4-0.5-6.9-0.9-10.5-1.2c-0.1,0-0.2,0-0.3,0c-1.6-0.2-3.3-0.3-4.9-0.5c-0.3,0-0.5,0-0.8-0.1c-1.6-0.1-3.1-0.2-4.7-0.4
			c-0.2,0-0.5,0-0.7-0.1c-5.4-0.4-11,0.4-16.8,0.2c-0.4,0-0.8,0-1.3,0c-1.5,0-3-0.1-4.5-0.1c-0.5,0-1,0-1.5,0c-1.6,0-3.2,0-4.8,0
			c-0.3,0-0.6,0-1,0c-1.9,0-3.9,0-5.9,0.1c-0.4,0-0.8,0-1.2,0c-1.6,0-3.1,0.1-4.7,0.1c-0.6,0-1.3-1-1.9-0.9
			c-1.4,0.1-2.9,0.1-4.3,0.2c-0.6,0-1.2,0.1-1.8,0.1c-2,0.1-4.1,0.2-6.1,0.3c-19.2,1.2-76.9,5.2-77.5,5.3L156,10.6L156,10.6z"/>
	</g>
	<g>
		<path fill="#69747A" d="M60.3,114.5c-0.7,0-1.4-0.3-2.1-0.6c-0.6-0.3-1-0.5-1.6-0.5c-0.6,0-0.9,0.1-1.7,0.9l-0.9-0.9
			c1.1-1.1,1.7-1.4,2.6-1.4c0.7,0,1.3,0.3,2.1,0.6c0.6,0.3,1,0.5,1.6,0.5c0.6,0,0.9-0.1,1.7-0.9l0.9,0.9
			C61.7,114.2,61.2,114.5,60.3,114.5z"/>
		<path fill="#69747A" d="M65.2,118.7v-1.3l5.6-7.1c0.5-0.7,0.8-1.3,0.8-2.1c0-1.5-0.9-2.6-2.5-2.6c-1.3,0-2.5,0.7-2.5,2.6h-1.4
			c0-2.2,1.5-3.9,3.9-3.9c2.3,0,3.9,1.5,3.9,3.8c0,1.1-0.4,1.9-1.1,2.9l-5,6.4H73v1.3H65.2z"/>
		<path fill="#69747A" d="M79.5,118.8c-2.4,0-4-1.6-4-4.1c0-1,0.3-2,0.9-3.2l3.5-7.1h1.5l-3.2,6.4c0.4-0.2,0.9-0.3,1.5-0.3
			c2.2,0,3.7,1.7,3.7,4C83.5,117,81.9,118.8,79.5,118.8z M79.5,111.8c-1.5,0-2.5,1.1-2.5,2.9c0,1.7,1,2.9,2.5,2.9s2.5-1.1,2.5-2.9
			C82,113.1,81.1,111.8,79.5,111.8z"/>
		<path fill="#69747A" d="M98,118.7l-3.1-5l-1.9,2.2v2.8h-1.4v-14.2h1.4v9.5l4.4-5.1h1.8l-3.3,3.8l3.9,6.1H98z"/>
		<path fill="#69747A" d="M115.2,118.7v-6.1c0-1.7-0.9-2.6-2.4-2.6c-1.4,0-2.5,0.9-2.5,2.5v6.2h-1.4v-6.1c0-1.7-0.9-2.6-2.4-2.6
			s-2.5,0.9-2.5,2.6v6.1h-1.4v-9.8h1.4v1.1c0.7-0.8,1.7-1.2,2.8-1.2c1.4,0,2.4,0.6,3,1.6c0.8-1.1,1.9-1.6,3.2-1.6
			c1.1,0,1.9,0.3,2.5,0.9c0.7,0.7,1.1,1.6,1.1,2.7v6.3H115.2z"/>
		<path fill="#69747A" d="M119.7,120.2h-1.4L124,103h1.4L119.7,120.2z"/>
		<path fill="#69747A" d="M133.5,118.7v-6.1c0-1.7-0.9-2.6-2.4-2.6s-2.5,0.9-2.5,2.6v6.1h-1.4v-14.2h1.4v5.5
			c0.7-0.8,1.6-1.2,2.8-1.2c2.2,0,3.5,1.4,3.5,3.6v6.3H133.5z"/>
	</g>
	<g>
		<path fill="#69747A" d="M198.9,256.3c-0.7,0-1.4-0.3-2.1-0.6c-0.6-0.3-1-0.5-1.6-0.5c-0.6,0-0.9,0.1-1.7,0.9l-0.9-0.9
			c1.1-1.1,1.7-1.4,2.6-1.4c0.7,0,1.3,0.3,2.1,0.6c0.6,0.3,1,0.5,1.6,0.5c0.6,0,0.9-0.1,1.7-0.9l0.9,0.9
			C200.4,256,199.8,256.3,198.9,256.3z"/>
		<path fill="#69747A" d="M207.5,260.6c-2.2,0-4.1-1.2-4.2-3.8h1.4c0.1,1.8,1.4,2.5,2.7,2.5c1.5,0,2.7-1,2.7-2.8
			c0-1.7-0.9-2.8-2.8-2.8h-0.3v-1.3h0.3c1.7,0,2.5-1,2.5-2.6c0-1.7-1.1-2.6-2.5-2.6c-1.5,0-2.4,0.9-2.6,2.4h-1.4
			c0.2-2.3,1.8-3.7,4-3.7c2.3,0,3.9,1.5,3.9,3.9c0,1.5-0.6,2.6-1.9,3.2c1.4,0.5,2.2,1.7,2.2,3.5
			C211.7,259.2,209.8,260.6,207.5,260.6z"/>
		<path fill="#69747A" d="M218,260.6c-2.2,0-4.1-1.2-4.2-3.8h1.4c0.1,1.8,1.4,2.5,2.7,2.5c1.5,0,2.7-1,2.7-2.8
			c0-1.7-0.9-2.8-2.8-2.8h-0.3v-1.3h0.3c1.7,0,2.5-1,2.5-2.6c0-1.7-1.1-2.6-2.5-2.6c-1.5,0-2.4,0.9-2.6,2.4H214
			c0.2-2.3,1.8-3.7,4-3.7c2.3,0,3.9,1.5,3.9,3.9c0,1.5-0.6,2.6-1.9,3.2c1.4,0.5,2.2,1.7,2.2,3.5C222.1,259.2,220.3,260.6,218,260.6z
			"/>
		<path fill="#69747A" d="M236.6,260.5l-3.1-5l-1.9,2.2v2.8h-1.4v-14.2h1.4v9.5l4.4-5.1h1.8l-3.3,3.8l3.9,6.1H236.6z"/>
		<path fill="#69747A" d="M253.9,260.5v-6.1c0-1.7-0.9-2.6-2.4-2.6c-1.4,0-2.5,0.9-2.5,2.5v6.2h-1.4v-6.1c0-1.7-0.9-2.6-2.4-2.6
			s-2.5,0.9-2.5,2.6v6.1h-1.4v-9.8h1.4v1.1c0.7-0.8,1.7-1.2,2.8-1.2c1.4,0,2.4,0.6,3,1.6c0.8-1.1,1.9-1.6,3.2-1.6
			c1.1,0,1.9,0.3,2.5,0.9c0.7,0.7,1.1,1.6,1.1,2.7v6.3H253.9z"/>
		<path fill="#69747A" d="M258.4,262H257l5.7-17.2h1.4L258.4,262z"/>
		<path fill="#69747A" d="M272.2,260.5v-6.1c0-1.7-0.9-2.6-2.4-2.6s-2.5,0.9-2.5,2.6v6.1h-1.4v-14.2h1.4v5.5
			c0.7-0.8,1.6-1.2,2.8-1.2c2.2,0,3.5,1.4,3.5,3.6v6.3H272.2z"/>
	</g>
	<g>
		<path fill="#69747A" d="M320.5,94.8c-0.7,0-1.4-0.3-2.1-0.6c-0.6-0.3-1-0.5-1.6-0.5c-0.6,0-0.9,0.1-1.7,0.9l-0.9-0.9
			c1.1-1.1,1.7-1.4,2.6-1.4c0.7,0,1.3,0.3,2.1,0.6c0.6,0.3,1,0.5,1.6,0.5c0.6,0,0.9-0.1,1.7-0.9l0.9,0.9
			C322,94.5,321.4,94.8,320.5,94.8z"/>
		<path fill="#69747A" d="M332.2,98c-0.7,0.7-1.6,1.1-2.8,1.1c-1.2,0-2.2-0.4-2.9-1c-0.6-0.6-0.9-1.5-1-2.5h1.4
			c0.2,1.4,0.9,2.2,2.4,2.2c0.7,0,1.3-0.2,1.8-0.7c0.7-0.7,0.8-1.9,0.8-2.9c0-1.7-0.3-3.5-2.4-3.5c-1.2,0-2.1,0.6-2.4,1.4h-1.3v-7.5
			h7.2V86h-5.9v4.5c0.6-0.6,1.4-1,2.6-1c1.1,0,1.9,0.3,2.5,0.9c1,1,1.2,2.5,1.2,3.8C333.3,95.7,333.2,97,332.2,98z"/>
		<path fill="#69747A" d="M339.7,99V86.3l-2.7,2.3V87l2.7-2.3h1.4V99H339.7z"/>
		<path fill="#69747A" d="M358.2,99l-3.1-5l-1.9,2.2V99h-1.4V84.7h1.4v9.5l4.4-5.1h1.8l-3.3,3.8L360,99H358.2z"/>
		<path fill="#69747A" d="M375.4,99v-6.1c0-1.7-0.9-2.6-2.4-2.6c-1.4,0-2.5,0.9-2.5,2.5V99h-1.4v-6.1c0-1.7-0.9-2.6-2.4-2.6
			s-2.5,0.9-2.5,2.6V99h-1.4v-9.8h1.4v1.1c0.7-0.8,1.7-1.2,2.8-1.2c1.4,0,2.4,0.6,3,1.6c0.8-1.1,1.9-1.6,3.2-1.6
			c1.1,0,1.9,0.3,2.5,0.9c0.7,0.7,1.1,1.6,1.1,2.7V99H375.4z"/>
		<path fill="#69747A" d="M380,100.4h-1.4l5.7-17.2h1.4L380,100.4z"/>
		<path fill="#69747A" d="M393.8,99v-6.1c0-1.7-0.9-2.6-2.4-2.6s-2.5,0.9-2.5,2.6V99h-1.4V84.7h1.4v5.5c0.7-0.8,1.6-1.2,2.8-1.2
			c2.2,0,3.5,1.4,3.5,3.6V99H393.8z"/>
	</g>
	<g>
		<g>
			<path fill="#505D64" d="M190.5,167.4v-27.8h3v25.1h14.2v2.7H190.5z"/>
			<path fill="#505D64" d="M223.2,167.4v-1.8c-1.5,1.5-3,2.1-5.5,2.1c-2.7,0-4.1-0.5-5.4-1.8c-1-0.9-1.4-2.4-1.4-3.9
				c0-3.4,2.4-5.5,6.7-5.5h5.7v-1.8c0-2.8-1.4-4.2-4.9-4.2c-2.4,0-3.7,0.6-4.8,2.2l-1.9-1.8c1.7-2.2,3.6-2.9,6.8-2.9
				c5.2,0,7.7,2.3,7.7,6.4v13H223.2z M223.2,158.5h-5.3c-2.9,0-4.3,1.1-4.3,3.4c0,2.2,1.4,3.3,4.4,3.3c1.6,0,3-0.2,4.3-1.3
				c0.7-0.6,1-1.7,1-3.3V158.5z"/>
			<path fill="#505D64" d="M245.7,165.9c-1,1-2.7,1.7-4.7,1.7c-2.1,0-3.8-0.5-5.4-2.5v10.8h-2.8v-27.8h2.8v2.3
				c1.6-2,3.3-2.5,5.4-2.5c2,0,3.7,0.7,4.7,1.7c1.9,1.9,2.3,5.1,2.3,8.2S247.6,164,245.7,165.9z M240.5,150.4
				c-4.2,0-4.8,3.6-4.8,7.3s0.6,7.3,4.8,7.3c4.2,0,4.8-3.6,4.8-7.3S244.6,150.4,240.5,150.4z"/>
			<path fill="#505D64" d="M262.9,167.4v-2.5l11-13.9c1.1-1.4,1.6-2.6,1.6-4.1c0-3-1.8-5-4.8-5c-2.6,0-4.8,1.4-4.8,5H263
				c0-4.4,3-7.5,7.6-7.5c4.6,0,7.6,2.9,7.6,7.5c0,2.2-0.7,3.7-2.2,5.6l-9.7,12.4h11.9v2.5H262.9z"/>
		</g>
	</g>
</g>
<g>
	<path fill="#69747A" d="M139.2,64.6c-2.2,0-3.7-0.6-5.1-2l1.1-1.1c1.2,1.2,2.4,1.6,4.1,1.6c2.2,0,3.5-1,3.5-2.8
		c0-0.8-0.2-1.4-0.7-1.9c-0.5-0.4-0.9-0.6-2-0.7l-1.7-0.3c-1.2-0.2-2.1-0.5-2.7-1.1c-0.8-0.7-1.2-1.6-1.2-2.8c0-2.5,1.8-4.2,4.8-4.2
		c1.9,0,3.2,0.5,4.5,1.6l-1,1c-0.9-0.9-1.9-1.3-3.5-1.3c-2,0-3.2,1.1-3.2,2.8c0,0.7,0.2,1.3,0.7,1.7s1.2,0.7,2,0.8l1.7,0.3
		c1.4,0.2,2,0.5,2.7,1.1c0.8,0.7,1.3,1.7,1.3,2.9C144.3,63,142.3,64.6,139.2,64.6z"/>
	<path fill="#69747A" d="M150.3,64.5c-1.8,0-2.6-1.2-2.6-2.8v-6.4h-1.3v-1.2h1.3V51h1.5v3.2h2.2v1.2h-2.2v6.4c0,0.9,0.4,1.5,1.4,1.5
		h0.8v1.3H150.3z"/>
	<path fill="#69747A" d="M160.1,64.5v-1c-0.8,0.8-1.6,1.1-3,1.1c-1.4,0-2.2-0.3-2.9-0.9c-0.5-0.5-0.8-1.3-0.8-2.1c0-1.8,1.3-3,3.6-3
		h3.1v-1c0-1.5-0.7-2.3-2.6-2.3c-1.3,0-2,0.3-2.6,1.2l-1-0.9c0.9-1.2,2-1.6,3.7-1.6c2.8,0,4.1,1.2,4.1,3.4v7H160.1z M160.1,59.7
		h-2.9c-1.6,0-2.3,0.6-2.3,1.8c0,1.2,0.7,1.8,2.4,1.8c0.9,0,1.6-0.1,2.3-0.7c0.4-0.3,0.5-0.9,0.5-1.8V59.7z"/>
	<path fill="#69747A" d="M171.1,56.1c-0.6-0.6-1-0.8-1.8-0.8c-1.5,0-2.5,1.2-2.5,2.8v6.3h-1.5V54.1h1.5v1.3c0.6-0.9,1.7-1.4,2.9-1.4
		c1,0,1.7,0.2,2.5,1L171.1,56.1z"/>
	<path fill="#69747A" d="M177.1,64.5c-1.8,0-2.6-1.2-2.6-2.8v-6.4h-1.3v-1.2h1.3V51h1.5v3.2h2.2v1.2h-2.2v6.4c0,0.9,0.4,1.5,1.4,1.5
		h0.8v1.3H177.1z"/>
</g>
<g>
	<line fill="none" stroke="#9BA3A6" stroke-width="4.5067" stroke-miterlimit="10" x1="157.2" y1="38.1" x2="157.2" y2="2.3"/>
	<line fill="none" stroke="#FFFFFF" stroke-width="0.7511" stroke-miterlimit="10" x1="157.2" y1="38.1" x2="157.2" y2="2.3"/>
</g>
</svg>
