<?xml version="1.0" encoding="utf-8"?>
<!-- Generator: Adobe Illustrator 18.1.0, SVG Export Plug-In . SVG Version: 6.00 Build 0)  -->
<svg version="1.1" id="Layer_1" xmlns="http://www.w3.org/2000/svg" xmlns:xlink="http://www.w3.org/1999/xlink" x="0px" y="0px"
	 viewBox="0 0 470 310" enable-background="new 0 0 470 310" xml:space="preserve">
<g id="start">
	<g id="_x31_">
		<path fill="#B55001" d="M249.9,305.9c-7.7,0-15.4-0.5-23.1-1.5l-10.3-1.3c-2.8-0.4-5.8-0.5-8.9-0.7c-7.7-0.5-15.7-1-22.3-4.1
			c-9-4.2-26.3-14.1-34.7-19.3c-3.9-2.4-8.6-3.4-13-4.2c-6.2-1.1-21.6-4.2-30.9-7.9c-24.6-9.8-44.7-26.3-58-47.7
			c-12.4-20-18.6-43.2-17.9-67.3c0.7-24.6,8.6-48,22.7-67.7C68.5,62.9,90.6,47.1,117,38.3c19.3-6.4,38.9-25,39.1-25.2l2.7,3
			c-0.9,0.8-20.4,19.3-40.5,26c-50.1,16.7-83.1,58.8-84.6,110C32.2,202,61,245,107.8,263.6c9,3.6,16.3,5.8,30.4,7.7
			c4.8,0.7,9.9,1.6,14.4,4.4c8.4,5.2,25.5,14.9,34.3,19.1c6,2.8,13.6,3.3,20.9,3.7c3.1,0.2,6.2,0.4,9.2,0.8l10.3,1.3
			c17.7,2.2,35.6,1.8,53.2-1.2l0.1,0l31.8-3.4c46.3-5.1,51.6-12.5,59-22.8c1.1-1.5,2.2-3.1,3.6-4.8c0.6-0.7,14.4-18.7,23.9-27.1
			c29.9-26.3,43.8-67.8,36.2-108.3c-7.9-42.2-37.4-75.5-81.1-91.5c-9.7-3.6-33.4-21.6-35.1-22.8c-9.2-6-19.8-9.6-30.8-10.3L266,7.8
			c-10.6,0.1-18.1-0.7-23.5-1.3c-4.1-0.4-7-0.7-9.5-0.5c-0.5,0.1-55.9,5.8-74.3,8.3l-0.5-4C176.6,7.8,232,2,232.6,2
			c2.9-0.2,6.2,0.1,10.3,0.5c5.4,0.6,12.7,1.3,23.1,1.2l22.4,0.4c11.7,0.8,23,4.6,32.8,11l0.1,0.1c0.2,0.2,24.8,18.9,34.1,22.3
			c45,16.5,75.5,51,83.6,94.6c7.8,41.8-6.5,84.8-37.5,112c-9.2,8.1-23.3,26.4-23.4,26.6c-1.3,1.6-2.4,3.2-3.5,4.7
			c-8,11.1-13.8,19.1-61.8,24.4l-31.8,3.4C270.8,305.1,260.3,305.9,249.9,305.9z"/>
		<path fill="#0589D1" d="M241.3,305.7c-5.3,0-8.9-0.1-9.3-0.1l-9.8-0.3c-1,0-24.9-0.7-34.4-3.1c-9.9-2.5-28.6-12.9-35.9-17.7
			c-0.5-0.3-1-0.7-1.6-1.1c-3.6-2.5-9.2-6.2-12.9-7.1c-9.8-2.2-23.1-6.2-30.9-9.4c-24.6-9.8-44.7-26.4-58-48
			c-12.4-20.1-18.6-43.5-17.9-67.8c0.7-24.8,8.6-48.4,22.7-68.2C68.5,61.5,90.6,45.6,117,36.8c19.2-6.4,39.7-29.2,39.9-29.5l1.2,1.1
			l0-0.1c18.4-2.5,80.7-4.4,84-4.5c3.1-0.2,7.7-0.3,12.7-0.3c5.1,0,10.3,0,13.4-0.3l0.1,0l18.9-0.5c17.2,0.3,34,10,45.2,17.3
			l0.1,0.1c0.2,0.1,15.6,12.1,24.8,15.8c44.3,17.4,74.2,52.7,81.9,96.8c7.3,41.9-7.1,84.6-37.7,111.5c-5.4,4.8-13,12.2-18.4,17.6
			c-4.2,4.2-7.8,8.8-10.9,13.9c-6.5,10.7-15,19.3-59.4,24.2l-31.8,3.4C269.2,305.3,251.9,305.7,241.3,305.7z M158.6,11.4
			c-5,5.3-22.8,23.3-40.3,29.1c-59.8,19.9-83.4,70.2-84.6,110.7c-1.5,50.4,27.5,93.8,74.2,112.5c8.4,3.3,22.1,6.8,30.4,8.7
			c4.5,1,10.1,4.8,14.2,7.6c0.6,0.4,1.1,0.7,1.6,1.1c6.9,4.6,25.3,14.8,34.7,17.2c9.1,2.3,33.3,3,33.5,3l9.8,0.3
			c0.3,0,31,0.7,48.4-2.2l0.1,0l31.8-3.4c42.7-4.7,50.3-12.2,56.4-22.3c3.3-5.4,7.1-10.3,11.5-14.7c5.4-5.4,13-12.9,18.5-17.7
			c29.5-26,43.5-67.3,36.4-107.9c-7.5-42.7-36.4-76.9-79.4-93.8c-9.5-3.8-24.4-15.3-25.7-16.3c-10.7-7-26.8-16.3-42.9-16.6
			l-18.8,0.5c-3.3,0.3-8.6,0.3-13.7,0.3c-4.7,0-9.5,0-12.4,0.3l-0.1,0c-0.7,0-65.3,2-83.6,4.5L158.6,11.4z"/>
		<g>
			<path fill="#023800" d="M53.3,84.2c-14.1,19.7-22,43.1-22.7,67.7c0,1.3-0.1,2.7,0,4c0.2,22.6,6.3,44.3,18,63
				c13.3,21.6,33.4,38.1,58,48c0,0,0.1,0,0.1,0c9.4,3.7,24.7,6.7,30.9,7.9c4.4,0.8,9.1,1.8,13,4.2c2.2,1.3,4.9,3,8,4.8
				c-1.7-1-3.2-2-4.4-2.7c-0.5-0.3-1-0.7-1.6-1.1c-4.1-2.8-9.8-6.6-14.2-7.6c-8.3-1.9-22-5.1-30.4-8.5c0,0,0,0,0,0
				c-45.4-18.1-74.1-59.6-74.3-107.7c0-1.6,0-3.3,0-4.9c1.2-40.5,24.8-90.8,84.6-110.7c15.8-5.2,31.7-20.3,38.4-27.2
				c-3,2.6-21.8,18.9-39.7,24.8C90.6,47.1,68.5,62.9,53.3,84.2z"/>
			<path fill="#023800" d="M441,148.5c0-0.1,0-0.2,0-0.2c0-0.5-0.1-0.9-0.1-1.4c-0.3-4.9-0.9-9.8-1.8-14.8
				c-8.2-43.6-38.6-78.1-83.6-94.6c-9.3-3.4-33.8-22.1-34.1-22.3l-0.1-0.1c-9.8-6.4-21.1-10.2-32.8-11L266,3.8
				c-4.2,0-8-0.1-11.3-0.2c-4.9,0-9.6,0-12.7,0.3c-1.8,0.1-21.5,0.7-41.9,1.6c-15.8,1.7-33.2,3.7-42.1,4.9l0.2,1.4
				c0.1-0.1,0.2-0.2,0.2-0.3l0.1,0.9c8.1-1.1,25.1-2.1,41.7-2.9C217.5,7.6,232.7,6,233,6c2.5-0.2,5.4,0.1,9.5,0.5
				c3.3,0.3,7.2,0.8,12.2,1c0.1,0,0.1,0,0.2,0c5.1,0,10.4,0,13.7-0.3l18.8-0.5c16.1,0.3,32.2,9.6,42.9,16.6
				c1.3,1,16.2,12.5,25.7,16.3c43,16.9,71.9,51.1,79.4,93.8c0.8,4.6,1.3,9.3,1.6,13.9c0,0.4,0.1,0.8,0.1,1.2c0,0.1,0,0.2,0,0.3
				c1.8,35.2-12.1,69.6-38.1,92.5c-9.5,8.4-23.3,26.4-23.9,27.1c-1.3,1.7-2.5,3.2-3.6,4.8c-7.4,10.3-12.7,17.7-59,22.8l-31.8,3.4
				l-0.1,0c-13.5,2.3-27.1,3.1-40.7,2.3c-4.6,0-7.6-0.1-7.7-0.1l-9.8-0.3c-0.2,0-24.4-0.7-33.5-3c-6.2-1.6-16.6-6.7-24.8-11.3
				c7.6,4.3,15.9,8.8,21.2,11.3c6.7,3.1,14.6,3.6,22.3,4.1c3.1,0.2,6.1,0.4,8.9,0.7l10.3,1.3c4.4,0.6,8.9,0.9,13.4,1.2
				c0.4,0,0.7,0,1.1,0c10.6,0,28-0.4,39.8-2.4l31.8-3.4c44.4-4.9,52.9-13.5,59.4-24.2c3.1-5.1,6.8-9.8,10.9-13.9
				c5.4-5.4,12.9-12.8,18.4-17.6C428.3,220.7,442.7,185.1,441,148.5z"/>
		</g>
		<g>
			<path fill="#69747A" d="M60.3,114.5c-0.7,0-1.4-0.3-2.1-0.6c-0.6-0.3-1-0.5-1.6-0.5c-0.6,0-0.9,0.1-1.7,0.9l-0.9-0.9
				c1.1-1.1,1.7-1.4,2.6-1.4c0.7,0,1.3,0.3,2.1,0.6c0.6,0.3,1,0.5,1.6,0.5c0.6,0,0.9-0.1,1.7-0.9l0.9,0.9
				C61.7,114.2,61.2,114.5,60.3,114.5z"/>
			<path fill="#69747A" d="M69,118.7V106l-2.7,2.3v-1.6l2.7-2.3h1.4v14.2H69z"/>
			<path fill="#69747A" d="M82.4,117.8c-0.7,0.7-1.6,1.1-2.8,1.1c-1.2,0-2.2-0.4-2.9-1c-0.6-0.6-0.9-1.5-1-2.5h1.4
				c0.2,1.4,0.9,2.2,2.4,2.2c0.7,0,1.3-0.2,1.8-0.7c0.7-0.7,0.8-1.9,0.8-2.9c0-1.7-0.3-3.5-2.4-3.5c-1.2,0-2.1,0.6-2.4,1.4H76v-7.5
				h7.2v1.3h-5.9v4.5c0.6-0.6,1.4-1,2.6-1c1.1,0,1.9,0.3,2.5,0.9c1,1,1.2,2.5,1.2,3.8C83.5,115.4,83.4,116.7,82.4,117.8z"/>
			<path fill="#69747A" d="M98,118.7l-3.1-5l-1.9,2.2v2.8h-1.4v-14.2h1.4v9.5l4.4-5.1h1.8l-3.3,3.8l3.9,6.1H98z"/>
			<path fill="#69747A" d="M115.2,118.7v-6.1c0-1.7-0.9-2.6-2.4-2.6c-1.4,0-2.5,0.9-2.5,2.5v6.2h-1.4v-6.1c0-1.7-0.9-2.6-2.4-2.6
				s-2.5,0.9-2.5,2.6v6.1h-1.4v-9.8h1.4v1.1c0.7-0.8,1.7-1.2,2.8-1.2c1.4,0,2.4,0.6,3,1.6c0.8-1.1,1.9-1.6,3.2-1.6
				c1.1,0,1.9,0.3,2.5,0.9c0.7,0.7,1.1,1.6,1.1,2.7v6.3H115.2z"/>
			<path fill="#69747A" d="M119.7,120.2h-1.4L124,103h1.4L119.7,120.2z"/>
			<path fill="#69747A" d="M133.5,118.7v-6.1c0-1.7-0.9-2.6-2.4-2.6s-2.5,0.9-2.5,2.6v6.1h-1.4v-14.2h1.4v5.5
				c0.7-0.8,1.6-1.2,2.8-1.2c2.2,0,3.5,1.4,3.5,3.6v6.3H133.5z"/>
		</g>
		<g>
			<path fill="#69747A" d="M198.9,256.3c-0.7,0-1.4-0.3-2.1-0.6c-0.6-0.3-1-0.5-1.6-0.5c-0.6,0-0.9,0.1-1.7,0.9l-0.9-0.9
				c1.1-1.1,1.7-1.4,2.6-1.4c0.7,0,1.3,0.3,2.1,0.6c0.6,0.3,1,0.5,1.6,0.5c0.6,0,0.9-0.1,1.7-0.9l0.9,0.9
				C200.4,256,199.8,256.3,198.9,256.3z"/>
			<path fill="#69747A" d="M207.7,260.5v-12.6l-2.7,2.3v-1.6l2.7-2.3h1.4v14.2H207.7z"/>
			<path fill="#69747A" d="M218.2,260.6c-2.4,0-4-1.6-4-4.1c0-1,0.3-2,0.9-3.2l3.5-7.1h1.5l-3.2,6.4c0.4-0.2,0.9-0.3,1.5-0.3
				c2.2,0,3.7,1.7,3.7,4C222.1,258.8,220.6,260.6,218.2,260.6z M218.2,253.6c-1.5,0-2.5,1.1-2.5,2.9c0,1.7,1,2.9,2.5,2.9
				s2.5-1.1,2.5-2.9C220.7,254.9,219.8,253.6,218.2,253.6z"/>
			<path fill="#69747A" d="M236.6,260.5l-3.1-5l-1.9,2.2v2.8h-1.4v-14.2h1.4v9.5l4.4-5.1h1.8l-3.3,3.8l3.9,6.1H236.6z"/>
			<path fill="#69747A" d="M253.9,260.5v-6.1c0-1.7-0.9-2.6-2.4-2.6c-1.4,0-2.5,0.9-2.5,2.5v6.2h-1.4v-6.1c0-1.7-0.9-2.6-2.4-2.6
				s-2.5,0.9-2.5,2.6v6.1h-1.4v-9.8h1.4v1.1c0.7-0.8,1.7-1.2,2.8-1.2c1.4,0,2.4,0.6,3,1.6c0.8-1.1,1.9-1.6,3.2-1.6
				c1.1,0,1.9,0.3,2.5,0.9c0.7,0.7,1.1,1.6,1.1,2.7v6.3H253.9z"/>
			<path fill="#69747A" d="M258.4,262H257l5.7-17.2h1.4L258.4,262z"/>
			<path fill="#69747A" d="M272.2,260.5v-6.1c0-1.7-0.9-2.6-2.4-2.6s-2.5,0.9-2.5,2.6v6.1h-1.4v-14.2h1.4v5.5
				c0.7-0.8,1.6-1.2,2.8-1.2c2.2,0,3.5,1.4,3.5,3.6v6.3H272.2z"/>
		</g>
		<g>
			<path fill="#69747A" d="M321.5,94.8c-0.7,0-1.4-0.3-2.1-0.6c-0.6-0.3-1-0.5-1.6-0.5c-0.6,0-0.9,0.1-1.7,0.9l-0.9-0.9
				c1.1-1.1,1.7-1.4,2.6-1.4c0.7,0,1.3,0.3,2.1,0.6c0.6,0.3,1,0.5,1.6,0.5c0.6,0,0.9-0.1,1.7-0.9l0.9,0.9
				C323,94.5,322.4,94.8,321.5,94.8z"/>
			<path fill="#69747A" d="M326.4,99v-1.3l5.6-7.1c0.5-0.7,0.8-1.3,0.8-2.1c0-1.5-0.9-2.6-2.5-2.6c-1.3,0-2.5,0.7-2.5,2.6h-1.4
				c0-2.2,1.5-3.9,3.9-3.9c2.3,0,3.9,1.5,3.9,3.8c0,1.1-0.4,1.9-1.1,2.9l-5,6.4h6.1V99H326.4z"/>
			<path fill="#69747A" d="M340.7,99.1c-2.2,0-3.9-1.6-3.9-3.9v-6.6c0-2.4,1.7-3.9,3.9-3.9c2.2,0,3.9,1.6,3.9,3.9v6.6
				C344.6,97.5,343,99.1,340.7,99.1z M343.2,88.6c0-1.6-0.9-2.7-2.5-2.7c-1.6,0-2.5,1.2-2.5,2.7v6.5c0,1.6,0.9,2.7,2.5,2.7
				c1.6,0,2.5-1.2,2.5-2.7V88.6z"/>
			<path fill="#69747A" d="M359.2,99l-3.1-5l-1.9,2.2V99h-1.4V84.7h1.4v9.5l4.4-5.1h1.8l-3.3,3.8L361,99H359.2z"/>
			<path fill="#69747A" d="M376.4,99v-6.1c0-1.7-0.9-2.6-2.4-2.6c-1.4,0-2.5,0.9-2.5,2.5V99h-1.4v-6.1c0-1.7-0.9-2.6-2.4-2.6
				s-2.5,0.9-2.5,2.6V99h-1.4v-9.8h1.4v1.1c0.7-0.8,1.7-1.2,2.8-1.2c1.4,0,2.4,0.6,3,1.6c0.8-1.1,1.9-1.6,3.2-1.6
				c1.1,0,1.9,0.3,2.5,0.9c0.7,0.7,1.1,1.6,1.1,2.7V99H376.4z"/>
			<path fill="#69747A" d="M381,100.4h-1.4l5.7-17.2h1.4L381,100.4z"/>
			<path fill="#69747A" d="M394.8,99v-6.1c0-1.7-0.9-2.6-2.4-2.6s-2.5,0.9-2.5,2.6V99h-1.4V84.7h1.4v5.5c0.7-0.8,1.6-1.2,2.8-1.2
				c2.2,0,3.5,1.4,3.5,3.6V99H394.8z"/>
		</g>
		<g>
			<g>
				<path fill="#505D64" d="M190.5,167.4v-27.8h3v25.1h14.2v2.7H190.5z"/>
				<path fill="#505D64" d="M223.2,167.4v-1.8c-1.5,1.5-3,2.1-5.5,2.1c-2.7,0-4.1-0.5-5.4-1.8c-1-0.9-1.4-2.4-1.4-3.9
					c0-3.4,2.4-5.5,6.7-5.5h5.7v-1.8c0-2.8-1.4-4.2-4.9-4.2c-2.4,0-3.7,0.6-4.8,2.2l-1.9-1.8c1.7-2.2,3.6-2.9,6.8-2.9
					c5.2,0,7.7,2.3,7.7,6.4v13H223.2z M223.2,158.5h-5.3c-2.9,0-4.3,1.1-4.3,3.4c0,2.2,1.4,3.3,4.4,3.3c1.6,0,3-0.2,4.3-1.3
					c0.7-0.6,1-1.7,1-3.3V158.5z"/>
				<path fill="#505D64" d="M245.7,165.9c-1,1-2.7,1.7-4.7,1.7c-2.1,0-3.8-0.5-5.4-2.5v10.8h-2.8v-27.8h2.8v2.3
					c1.6-2,3.3-2.5,5.4-2.5c2,0,3.7,0.7,4.7,1.7c1.9,1.9,2.3,5.1,2.3,8.2S247.6,164,245.7,165.9z M240.5,150.4
					c-4.2,0-4.8,3.6-4.8,7.3s0.6,7.3,4.8,7.3c4.2,0,4.8-3.6,4.8-7.3S244.6,150.4,240.5,150.4z"/>
				<path fill="#505D64" d="M270.3,167.4v-24.6l-5.2,4.6v-3.2l5.2-4.5h2.8v27.8H270.3z"/>
			</g>
		</g>
	</g>
	<g>
		<path fill="none" stroke="#9BA3A6" stroke-miterlimit="10" d="M318.7,271.9H150.3c-46.1,0-85.9-26.7-104.9-65.4L17.5,221
			c24.6,51.3,76.9,86.6,137.5,86.6H315c44.7,0,85-19.3,112.8-50l-24.6-21.9C381.9,258.1,351.9,271.9,318.7,271.9z"/>
		<path fill="none" stroke="#9BA3A6" stroke-miterlimit="10" d="M33.5,155.2v-0.3c0-64.5,52.3-116.8,116.8-116.8h6.9V2.3H155
			C70.9,2.3,2.6,70.6,2.6,154.8v0.5c0,23.6,5.3,45.9,14.9,65.8l27.9-14.5C37.8,191,33.5,173.6,33.5,155.2z"/>
		<path fill="none" stroke="#9BA3A6" stroke-miterlimit="10" d="M467.4,154.8C467.4,70.6,399.1,2.3,315,2.3H157.2v35.8h161.5
			c64.5,0,116.8,52.3,116.8,116.8v0.3c0,31.3-12.3,59.7-32.3,80.6l24.6,21.9c24.6-27.1,39.6-63,39.6-102.5V154.8z"/>
		<g>
			<line fill="none" stroke="#9BA3A6" stroke-width="4.5067" stroke-miterlimit="10" x1="157.2" y1="38.1" x2="157.2" y2="2.3"/>
			<line fill="none" stroke="#FFFFFF" stroke-width="0.7511" stroke-miterlimit="10" x1="157.2" y1="38.1" x2="157.2" y2="2.3"/>
		</g>
		<g>
			<path fill="none" stroke="#CDD1D3" stroke-width="4.5067" stroke-miterlimit="10" d="M157.2,35.8"/>
			<path fill="none" stroke="#FFFFFF" stroke-width="0.7511" stroke-miterlimit="10" d="M157.2,35.8"/>
		</g>
	</g>
</g>
</svg>
