<?xml version="1.0" encoding="utf-8"?>
<!-- Generator: Adobe Illustrator 18.1.0, SVG Export Plug-In . SVG Version: 6.00 Build 0)  -->
<svg version="1.1" xmlns="http://www.w3.org/2000/svg" xmlns:xlink="http://www.w3.org/1999/xlink" x="0px" y="0px"
	 viewBox="0 0 470 311" enable-background="new 0 0 470 311" xml:space="preserve">
<g id="Layer_0">
	<g id="start">
		<g>
			<path fill="none" stroke="#9BA3A6" stroke-miterlimit="10" d="M318.7,272.7H150.3c-46.1,0-85.9-26.7-104.9-65.4l-27.9,14.5
				c24.6,51.3,76.9,86.6,137.5,86.6H315c44.7,0,85-19.3,112.8-50l-24.6-21.9C381.9,258.9,351.9,272.7,318.7,272.7z"/>
			<path fill="none" stroke="#9BA3A6" stroke-miterlimit="10" d="M33.5,156v-0.3c0-64.5,52.3-116.8,116.8-116.8h6.9V3.1H155
				C70.9,3.1,2.6,71.4,2.6,155.6v0.5c0,23.6,5.3,45.9,14.9,65.8l27.9-14.5C37.8,191.8,33.5,174.4,33.5,156z"/>
			<path fill="none" stroke="#9BA3A6" stroke-miterlimit="10" d="M467.4,155.6C467.4,71.4,399.1,3.1,315,3.1H157.2v35.8h161.5
				c64.5,0,116.8,52.3,116.8,116.8v0.3c0,31.3-12.3,59.7-32.3,80.6l24.6,21.9c24.6-27.1,39.6-63,39.6-102.5V155.6z"/>
			<g>
				<line fill="none" stroke="#9BA3A6" stroke-width="4.5067" stroke-miterlimit="10" x1="157.2" y1="38.9" x2="157.2" y2="3.1"/>
				<line fill="none" stroke="#FFFFFF" stroke-width="0.7511" stroke-miterlimit="10" x1="157.2" y1="38.9" x2="157.2" y2="3.1"/>
			</g>
		</g>
		<circle fill="#B55000" cx="157.2" cy="9.3" r="4"/>
		<circle fill="#0689D1" cx="157.2" cy="15.2" r="4"/>
	</g>
	<g>
		<g>
			<path fill="#505D64" d="M199.3,148.7c-3.4,0-6.1-1.8-6.3-5.6h2.2c0.2,2.7,2.1,3.7,4.1,3.7c2.3,0,4.1-1.5,4.1-4.1
				c0-2.6-1.3-4.1-4.2-4.1h-0.5v-1.9h0.5c2.6,0,3.8-1.5,3.8-3.9c0-2.5-1.7-3.9-3.7-3.9c-2.3,0-3.6,1.4-3.8,3.6h-2.2
				c0.2-3.5,2.8-5.5,6-5.5c3.5,0,5.9,2.3,5.9,5.8c0,2.3-1,3.9-2.9,4.7c2.2,0.8,3.3,2.5,3.3,5.2C205.6,146.6,202.8,148.7,199.3,148.7
				z"/>
			<path fill="#505D64" d="M218,148.5v-21.4h2.3v19.3h10.9v2H218z"/>
			<path fill="#505D64" d="M243.2,148.5v-1.4c-1.2,1.2-2.3,1.6-4.3,1.6c-2,0-3.1-0.4-4.2-1.4c-0.8-0.7-1.1-1.8-1.1-3
				c0-2.6,1.8-4.3,5.1-4.3h4.4v-1.4c0-2.1-1-3.2-3.8-3.2c-1.9,0-2.8,0.5-3.7,1.7l-1.5-1.4c1.3-1.7,2.8-2.2,5.2-2.2
				c4,0,5.9,1.7,5.9,4.9v10H243.2z M243.2,141.7H239c-2.2,0-3.3,0.9-3.3,2.6c0,1.7,1,2.5,3.4,2.5c1.2,0,2.3-0.1,3.3-1
				c0.5-0.5,0.8-1.3,0.8-2.5V141.7z"/>
			<path fill="#505D64" d="M260.5,147.4c-0.8,0.8-2.1,1.3-3.6,1.3c-1.6,0-2.9-0.4-4.2-1.9v8.3h-2.2v-21.4h2.2v1.7
				c1.2-1.5,2.5-1.9,4.2-1.9c1.5,0,2.8,0.5,3.6,1.3c1.5,1.5,1.8,3.9,1.8,6.3C262.3,143.5,262,145.9,260.5,147.4z M256.4,135.5
				c-3.2,0-3.7,2.8-3.7,5.6s0.5,5.6,3.7,5.6c3.2,0,3.7-2.8,3.7-5.6S259.7,135.5,256.4,135.5z"/>
			<path fill="#505D64" d="M271.6,148.7c-2.5,0-4.5-0.6-6.1-2.1l1.4-1.4c1.1,1.2,2.8,1.7,4.6,1.7c2.5,0,3.9-0.9,3.9-2.6
				c0-1.3-0.7-2-2.5-2.2l-2.4-0.2c-2.9-0.2-4.4-1.5-4.4-4c0-2.7,2.3-4.3,5.4-4.3c2.1,0,4,0.5,5.3,1.6l-1.4,1.4
				c-1-0.8-2.4-1.2-3.9-1.2c-2.2,0-3.3,0.9-3.3,2.4c0,1.3,0.8,2,2.6,2.2l2.3,0.2c2.6,0.2,4.3,1.2,4.3,4
				C277.6,147,275.2,148.7,271.6,148.7z"/>
		</g>
	</g>
	<g>
		<g>
			<path fill="#505D64" d="M219.4,166.5h-1.2l4-10.4h-4v1.8H217v-2.8h6.3v1L219.4,166.5z"/>
			<path fill="#505D64" d="M230.6,165.8c-0.5,0.5-1.3,0.8-2.3,0.8c-1,0-1.8-0.3-2.3-0.8c-0.5-0.5-0.7-1.2-0.8-2h1.2
				c0.1,1.1,0.7,1.8,1.9,1.8c0.6,0,1.1-0.2,1.4-0.5c0.6-0.6,0.6-1.5,0.6-2.3c0-1.4-0.3-2.8-1.9-2.8c-1,0-1.7,0.4-1.9,1.1h-1v-6h5.8
				v1h-4.7v3.6c0.4-0.5,1.2-0.8,2-0.8c0.8,0,1.5,0.3,2,0.7c0.8,0.8,0.9,2,0.9,3.1C231.5,163.9,231.4,165,230.6,165.8z"/>
			<path fill="#505D64" d="M236.6,166.6c-1.8,0-3.1-1.2-3.1-3.1v-5.3c0-1.9,1.3-3.1,3.1-3.1c1.8,0,3.1,1.2,3.1,3.1v5.3
				C239.8,165.4,238.4,166.6,236.6,166.6z M238.6,158.2c0-1.2-0.7-2.2-2-2.2c-1.3,0-2,0.9-2,2.2v5.2c0,1.2,0.7,2.2,2,2.2
				c1.3,0,2-0.9,2-2.2V158.2z"/>
			<path fill="#505D64" d="M256.4,166.5v-4.9c0-1.4-0.8-2.1-1.9-2.1c-1.2,0-2,0.7-2,2v5h-1.2v-4.9c0-1.4-0.8-2.1-1.9-2.1
				s-2,0.7-2,2.1v4.9h-1.2v-7.9h1.2v0.9c0.6-0.6,1.3-1,2.2-1c1.1,0,1.9,0.4,2.4,1.3c0.6-0.9,1.5-1.3,2.6-1.3c0.8,0,1.6,0.3,2,0.7
				c0.6,0.5,0.8,1.3,0.8,2.2v5H256.4z"/>
		</g>
	</g>
	<g>
		<g>
			<path fill="none" stroke="#505D64" stroke-miterlimit="10" d="M359.6,246.7c-14.7,8.2-31.7,12.8-49.7,12.8"/>
			<g>
				<polygon fill="#505D64" points="355.3,244.9 358.5,247.3 359,251.3 364.7,243.7 				"/>
			</g>
		</g>
	</g>
	<path fill="none" stroke="#505D64" stroke-miterlimit="10" d="M161.8,259.5c-30.5,0-58-13.3-76.8-34.5"/>
	<path fill="none" stroke="#505D64" stroke-miterlimit="10" d="M309.9,259.5H161.8"/>
	<g>
		<g>
			<path fill="none" stroke="#505D64" stroke-miterlimit="10" d="M59.7,168.2c-0.4-3.8-0.6-7.8-0.6-11.6"/>
			<g>
				<polygon fill="#505D64" points="63.1,165 59.6,167 55.8,165.9 60.6,174.1 				"/>
			</g>
		</g>
	</g>
	<path fill="none" stroke="#505D64" stroke-miterlimit="10" d="M59.1,156.6c0-42.2,25.4-78.4,61.7-94.2"/>
	<path fill="none" stroke="#505D64" stroke-miterlimit="10" d="M412.5,156.9c0,17.1-4.2,33.2-11.6,47.4"/>
	<path fill="none" stroke="#505D64" stroke-miterlimit="10" d="M309.9,54c56.7,0,102.7,46.2,102.7,102.9"/>
	<g>
		<g>
			<line fill="none" stroke="#505D64" stroke-miterlimit="10" x1="207.8" y1="54" x2="309.9" y2="54"/>
			<g>
				<polygon fill="#505D64" points="210.6,57.7 209.1,54 210.6,50.3 201.9,54 				"/>
			</g>
		</g>
	</g>
	<g>
		<g>
			<path fill="#505D64" d="M80.4,130.9c-1.3,0-2.1-0.3-2.9-1.1l0.6-0.6c0.7,0.7,1.4,0.9,2.3,0.9c1.3,0,2-0.6,2-1.6
				c0-0.5-0.1-0.8-0.4-1.1c-0.3-0.2-0.5-0.3-1.1-0.4l-1-0.1c-0.7-0.1-1.2-0.3-1.6-0.6c-0.4-0.4-0.7-0.9-0.7-1.6c0-1.5,1-2.4,2.7-2.4
				c1.1,0,1.8,0.3,2.5,0.9l-0.6,0.6c-0.5-0.5-1.1-0.7-2-0.7c-1.2,0-1.8,0.6-1.8,1.6c0,0.4,0.1,0.8,0.4,1c0.3,0.2,0.7,0.4,1.1,0.4
				l1,0.2c0.8,0.1,1.2,0.3,1.5,0.6c0.5,0.4,0.7,1,0.7,1.7C83.4,130,82.2,130.9,80.4,130.9z"/>
			<path fill="#505D64" d="M85.7,128.1c0,1.3,0.6,2,1.7,2c0.7,0,1.1-0.2,1.5-0.7l0.6,0.5c-0.6,0.6-1.2,0.9-2.2,0.9
				c-1.6,0-2.6-0.9-2.6-3c0-1.9,0.9-3,2.4-3c1.5,0,2.4,1.1,2.4,2.9v0.4H85.7z M88.6,126.5c-0.3-0.5-0.7-0.9-1.4-0.9
				c-0.6,0-1.1,0.3-1.4,0.9c-0.1,0.3-0.2,0.5-0.2,1h3.1C88.8,127,88.7,126.8,88.6,126.5z"/>
			<path fill="#505D64" d="M93.8,130.9c-1.5,0-2.6-1-2.6-3c0-2,1.1-3,2.6-3c0.8,0,1.3,0.2,1.9,0.9l-0.6,0.6
				c-0.4-0.5-0.8-0.7-1.4-0.7c-0.6,0-1.1,0.2-1.4,0.7c-0.3,0.4-0.4,0.8-0.4,1.6c0,0.7,0.1,1.2,0.4,1.6c0.3,0.4,0.8,0.7,1.4,0.7
				c0.6,0,0.9-0.2,1.4-0.7l0.6,0.6C95.1,130.7,94.6,130.9,93.8,130.9z"/>
			<path fill="#505D64" d="M99,130.8c-1,0-1.5-0.7-1.5-1.6v-3.7h-0.7v-0.7h0.7v-1.8h0.9v1.8h1.3v0.7h-1.3v3.6c0,0.5,0.3,0.9,0.8,0.9
				h0.5v0.7H99z"/>
			<path fill="#505D64" d="M101.3,123.3v-1h1v1H101.3z M101.3,130.8v-5.9h0.9v5.9H101.3z"/>
			<path fill="#505D64" d="M108.2,130.2c-0.4,0.4-1,0.7-1.7,0.7c-0.7,0-1.3-0.3-1.7-0.7c-0.6-0.6-0.7-1.4-0.7-2.4
				c0-0.9,0.1-1.8,0.7-2.4c0.4-0.4,1-0.7,1.7-0.7c0.7,0,1.3,0.3,1.7,0.7c0.6,0.6,0.7,1.4,0.7,2.4
				C108.9,128.8,108.8,129.6,108.2,130.2z M107.5,126.1c-0.3-0.3-0.7-0.4-1.1-0.4c-0.4,0-0.8,0.1-1.1,0.4c-0.4,0.4-0.5,1.2-0.5,1.8
				c0,0.7,0,1.4,0.5,1.8c0.3,0.3,0.6,0.4,1.1,0.4c0.4,0,0.8-0.1,1.1-0.4c0.4-0.4,0.5-1.2,0.5-1.8C108,127.2,108,126.5,107.5,126.1z"
				/>
			<path fill="#505D64" d="M114.5,130.8v-3.6c0-1-0.6-1.6-1.5-1.6s-1.5,0.5-1.5,1.6v3.6h-0.9v-5.9h0.9v0.6c0.4-0.5,1-0.7,1.7-0.7
				c0.6,0,1.2,0.2,1.5,0.6c0.4,0.4,0.6,1,0.6,1.6v3.8H114.5z"/>
			<path fill="#505D64" d="M122.5,130.8v-7.6l-1.6,1.4v-1l1.6-1.4h0.9v8.5H122.5z"/>
		</g>
	</g>
	<g>
		<g>
			<path fill="#505D64" d="M205.3,249.7c-1.3,0-2.1-0.3-2.9-1.1l0.6-0.6c0.7,0.7,1.4,0.9,2.3,0.9c1.3,0,2-0.6,2-1.6
				c0-0.5-0.1-0.8-0.4-1.1c-0.3-0.2-0.5-0.3-1.1-0.4l-1-0.1c-0.7-0.1-1.2-0.3-1.6-0.6c-0.4-0.4-0.7-0.9-0.7-1.6c0-1.5,1-2.4,2.7-2.4
				c1.1,0,1.8,0.3,2.5,0.9l-0.6,0.6c-0.5-0.5-1.1-0.7-2-0.7c-1.2,0-1.8,0.6-1.8,1.6c0,0.4,0.1,0.8,0.4,1c0.3,0.2,0.7,0.4,1.1,0.4
				l1,0.2c0.8,0.1,1.2,0.3,1.5,0.6c0.5,0.4,0.7,1,0.7,1.7C208.2,248.8,207.1,249.7,205.3,249.7z"/>
			<path fill="#505D64" d="M210.5,246.9c0,1.3,0.6,2,1.7,2c0.7,0,1.1-0.2,1.5-0.7l0.6,0.5c-0.6,0.6-1.2,0.9-2.2,0.9
				c-1.6,0-2.6-0.9-2.6-3c0-1.9,0.9-3,2.4-3c1.5,0,2.4,1.1,2.4,2.9v0.4H210.5z M213.5,245.3c-0.3-0.5-0.7-0.9-1.4-0.9
				c-0.6,0-1.1,0.3-1.4,0.9c-0.1,0.3-0.2,0.5-0.2,1h3.1C213.6,245.8,213.6,245.6,213.5,245.3z"/>
			<path fill="#505D64" d="M218.6,249.7c-1.5,0-2.6-1-2.6-3c0-2,1.1-3,2.6-3c0.8,0,1.3,0.2,1.9,0.9l-0.6,0.6
				c-0.4-0.5-0.8-0.7-1.4-0.7c-0.6,0-1.1,0.2-1.4,0.7c-0.3,0.4-0.4,0.8-0.4,1.6c0,0.7,0.1,1.2,0.4,1.6c0.3,0.4,0.8,0.7,1.4,0.7
				c0.6,0,0.9-0.2,1.4-0.7l0.6,0.6C220,249.5,219.5,249.7,218.6,249.7z"/>
			<path fill="#505D64" d="M223.9,249.6c-1,0-1.5-0.7-1.5-1.6v-3.7h-0.7v-0.7h0.7v-1.8h0.9v1.8h1.3v0.7h-1.3v3.6
				c0,0.5,0.3,0.9,0.8,0.9h0.5v0.7H223.9z"/>
			<path fill="#505D64" d="M226.2,242v-1h1v1H226.2z M226.2,249.6v-5.9h0.9v5.9H226.2z"/>
			<path fill="#505D64" d="M233,249c-0.4,0.4-1,0.7-1.7,0.7c-0.7,0-1.3-0.3-1.7-0.7c-0.6-0.6-0.7-1.4-0.7-2.4c0-0.9,0.1-1.8,0.7-2.4
				c0.4-0.4,1-0.7,1.7-0.7c0.7,0,1.3,0.3,1.7,0.7c0.6,0.6,0.7,1.4,0.7,2.4C233.8,247.6,233.6,248.4,233,249z M232.4,244.8
				c-0.3-0.3-0.7-0.4-1.1-0.4c-0.4,0-0.8,0.1-1.1,0.4c-0.4,0.4-0.5,1.2-0.5,1.8c0,0.7,0,1.4,0.5,1.8c0.3,0.3,0.6,0.4,1.1,0.4
				c0.4,0,0.8-0.1,1.1-0.4c0.4-0.4,0.5-1.2,0.5-1.8C232.9,246,232.9,245.3,232.4,244.8z"/>
			<path fill="#505D64" d="M239.4,249.6V246c0-1-0.6-1.6-1.5-1.6s-1.5,0.5-1.5,1.6v3.6h-0.9v-5.9h0.9v0.6c0.4-0.5,1-0.7,1.7-0.7
				c0.6,0,1.2,0.2,1.5,0.6c0.4,0.4,0.6,1,0.6,1.6v3.8H239.4z"/>
			<path fill="#505D64" d="M245.1,249.6v-0.8l3.4-4.3c0.3-0.4,0.5-0.8,0.5-1.3c0-0.9-0.6-1.5-1.5-1.5c-0.8,0-1.5,0.4-1.5,1.5h-0.9
				c0-1.3,0.9-2.3,2.4-2.3c1.4,0,2.4,0.9,2.4,2.3c0,0.7-0.2,1.1-0.7,1.7l-3,3.8h3.7v0.8H245.1z"/>
		</g>
	</g>
	<g>
		<g>
			<path fill="#505D64" d="M334.1,99.9c-1.3,0-2.1-0.3-2.9-1.1l0.6-0.6c0.7,0.7,1.4,0.9,2.3,0.9c1.3,0,2-0.6,2-1.6
				c0-0.5-0.1-0.8-0.4-1.1c-0.3-0.2-0.5-0.3-1.1-0.4l-1-0.1c-0.7-0.1-1.2-0.3-1.6-0.6c-0.4-0.4-0.7-0.9-0.7-1.6c0-1.5,1-2.4,2.7-2.4
				c1.1,0,1.8,0.3,2.5,0.9l-0.6,0.6c-0.5-0.5-1.1-0.7-2-0.7c-1.2,0-1.8,0.6-1.8,1.6c0,0.4,0.1,0.8,0.4,1s0.7,0.4,1.1,0.4l1,0.2
				c0.8,0.1,1.2,0.3,1.5,0.6c0.5,0.4,0.7,1,0.7,1.7C337,99,335.9,99.9,334.1,99.9z"/>
			<path fill="#505D64" d="M339.3,97.1c0,1.3,0.6,2,1.7,2c0.7,0,1.1-0.2,1.5-0.7l0.6,0.5c-0.6,0.6-1.2,0.9-2.2,0.9
				c-1.6,0-2.6-0.9-2.6-3c0-1.9,0.9-3,2.4-3c1.5,0,2.4,1.1,2.4,2.9v0.4H339.3z M342.3,95.5c-0.3-0.5-0.7-0.9-1.4-0.9
				c-0.6,0-1.1,0.3-1.4,0.9c-0.1,0.3-0.2,0.5-0.2,1h3.1C342.4,96,342.4,95.8,342.3,95.5z"/>
			<path fill="#505D64" d="M347.4,99.9c-1.5,0-2.6-1-2.6-3c0-2,1.1-3,2.6-3c0.8,0,1.3,0.2,1.9,0.9l-0.6,0.6
				c-0.4-0.5-0.8-0.7-1.4-0.7c-0.6,0-1.1,0.2-1.4,0.7c-0.3,0.4-0.4,0.8-0.4,1.6c0,0.7,0.1,1.2,0.4,1.6c0.3,0.4,0.8,0.7,1.4,0.7
				c0.6,0,0.9-0.2,1.4-0.7l0.6,0.6C348.8,99.7,348.3,99.9,347.4,99.9z"/>
			<path fill="#505D64" d="M352.7,99.8c-1,0-1.5-0.7-1.5-1.6v-3.7h-0.7v-0.7h0.7v-1.8h0.9v1.8h1.3v0.7H352v3.6
				c0,0.5,0.3,0.9,0.8,0.9h0.5v0.7H352.7z"/>
			<path fill="#505D64" d="M355,92.3v-1h1v1H355z M355,99.8v-5.9h0.9v5.9H355z"/>
			<path fill="#505D64" d="M361.8,99.2c-0.4,0.4-1,0.7-1.7,0.7c-0.7,0-1.3-0.3-1.7-0.7c-0.6-0.6-0.7-1.4-0.7-2.4
				c0-0.9,0.1-1.8,0.7-2.4c0.4-0.4,1-0.7,1.7-0.7c0.7,0,1.3,0.3,1.7,0.7c0.6,0.6,0.7,1.4,0.7,2.4C362.5,97.8,362.4,98.6,361.8,99.2z
				 M361.2,95.1c-0.3-0.3-0.7-0.4-1.1-0.4c-0.4,0-0.8,0.1-1.1,0.4c-0.4,0.4-0.5,1.2-0.5,1.8c0,0.7,0,1.4,0.5,1.8
				c0.3,0.3,0.6,0.4,1.1,0.4c0.4,0,0.8-0.1,1.1-0.4c0.4-0.4,0.5-1.2,0.5-1.8C361.7,96.2,361.6,95.5,361.2,95.1z"/>
			<path fill="#505D64" d="M368.2,99.8v-3.6c0-1-0.6-1.6-1.5-1.6s-1.5,0.5-1.5,1.6v3.6h-0.9v-5.9h0.9v0.6c0.4-0.5,1-0.7,1.7-0.7
				c0.6,0,1.2,0.2,1.5,0.6c0.4,0.4,0.6,1,0.6,1.6v3.8H368.2z"/>
			<path fill="#505D64" d="M376.1,99.9c-1.3,0-2.4-0.7-2.5-2.3h0.9c0.1,1.1,0.8,1.5,1.6,1.5c0.9,0,1.6-0.6,1.6-1.7
				c0-1-0.5-1.7-1.7-1.7h-0.2v-0.8h0.2c1,0,1.5-0.6,1.5-1.5c0-1-0.7-1.6-1.5-1.6c-0.9,0-1.5,0.6-1.5,1.4h-0.9
				c0.1-1.4,1.1-2.2,2.4-2.2c1.4,0,2.4,0.9,2.4,2.3c0,0.9-0.4,1.5-1.2,1.9c0.9,0.3,1.3,1,1.3,2.1C378.6,99.1,377.5,99.9,376.1,99.9z
				"/>
		</g>
	</g>
</g>
<g id="Label">
	<g>
		<path fill="#9BA3A6" d="M144.1,58.6c-1.7,0-2.8-0.4-3.9-1.5l0.8-0.8c0.9,0.9,1.8,1.2,3.1,1.2c1.7,0,2.7-0.8,2.7-2.1
			c0-0.6-0.2-1.1-0.6-1.4c-0.4-0.3-0.7-0.4-1.5-0.6l-1.3-0.2c-0.9-0.1-1.6-0.4-2.1-0.9c-0.6-0.5-0.9-1.2-0.9-2.1
			c0-1.9,1.4-3.2,3.6-3.2c1.5,0,2.4,0.4,3.4,1.2l-0.8,0.8c-0.7-0.7-1.5-1-2.7-1c-1.5,0-2.4,0.8-2.4,2.1c0,0.6,0.2,1,0.5,1.3
			c0.4,0.3,0.9,0.5,1.5,0.6l1.3,0.2c1.1,0.2,1.6,0.4,2.1,0.8c0.6,0.5,1,1.3,1,2.2C148,57.4,146.5,58.6,144.1,58.6z"/>
		<path fill="#9BA3A6" d="M152.6,58.5c-1.3,0-2-0.9-2-2.1v-4.9h-1v-0.9h1v-2.4h1.2v2.4h1.7v0.9h-1.7v4.8c0,0.7,0.3,1.2,1.1,1.2h0.6
			v1H152.6z"/>
		<path fill="#9BA3A6" d="M160.1,58.5v-0.8c-0.6,0.6-1.2,0.8-2.3,0.8c-1.1,0-1.7-0.2-2.2-0.7c-0.4-0.4-0.6-1-0.6-1.6
			c0-1.4,1-2.3,2.7-2.3h2.4v-0.8c0-1.1-0.6-1.7-2-1.7c-1,0-1.5,0.3-2,0.9l-0.8-0.7c0.7-0.9,1.5-1.2,2.8-1.2c2.1,0,3.2,0.9,3.2,2.6
			v5.3H160.1z M160.1,54.9h-2.2c-1.2,0-1.8,0.5-1.8,1.4c0,0.9,0.6,1.3,1.8,1.3c0.7,0,1.2-0.1,1.7-0.5c0.3-0.3,0.4-0.7,0.4-1.4V54.9z
			"/>
		<path fill="#9BA3A6" d="M168.4,52.2c-0.4-0.4-0.8-0.6-1.4-0.6c-1.2,0-1.9,0.9-1.9,2.1v4.8H164v-7.9h1.2v1c0.4-0.7,1.3-1.1,2.2-1.1
			c0.8,0,1.3,0.2,1.9,0.7L168.4,52.2z"/>
		<path fill="#9BA3A6" d="M173,58.5c-1.3,0-2-0.9-2-2.1v-4.9h-1v-0.9h1v-2.4h1.2v2.4h1.7v0.9h-1.7v4.8c0,0.7,0.3,1.2,1.1,1.2h0.6v1
			H173z"/>
	</g>
	<g>
		<path fill="#9BA3A6" d="M59.4,204.3v-10.1l-2.1,1.9v-1.3l2.1-1.8h1.2v11.4H59.4z"/>
		<path fill="#9BA3A6" d="M67.8,204.4c-1.8,0-3.1-1.2-3.1-3.1v-5.3c0-1.9,1.3-3.1,3.1-3.1c1.8,0,3.1,1.2,3.1,3.1v5.3
			C70.9,203.1,69.6,204.4,67.8,204.4z M69.8,196c0-1.2-0.7-2.2-2-2.2s-2,0.9-2,2.2v5.2c0,1.2,0.7,2.2,2,2.2s2-0.9,2-2.2V196z"/>
		<path fill="#9BA3A6" d="M76.2,204.4c-1.8,0-3.1-1.2-3.1-3.1v-5.3c0-1.9,1.3-3.1,3.1-3.1c1.8,0,3.1,1.2,3.1,3.1v5.3
			C79.3,203.1,78,204.4,76.2,204.4z M78.1,196c0-1.2-0.7-2.2-2-2.2s-2,0.9-2,2.2v5.2c0,1.2,0.7,2.2,2,2.2s2-0.9,2-2.2V196z"/>
		<path fill="#9BA3A6" d="M91.9,204.3v-4.8c0-1.4-0.8-2.1-1.9-2.1c-1.2,0-2,0.7-2,2v5h-1.2v-4.8c0-1.4-0.8-2.1-1.9-2.1s-2,0.7-2,2.1
			v4.8h-1.2v-7.9h1.2v0.9c0.6-0.6,1.3-1,2.2-1c1.1,0,1.9,0.4,2.4,1.3c0.6-0.9,1.5-1.3,2.6-1.3c0.8,0,1.6,0.3,2,0.7
			c0.6,0.5,0.8,1.3,0.8,2.2v5H91.9z"/>
	</g>
	<g>
		<path fill="#9BA3A6" d="M356.1,229v-1l4.5-5.7c0.4-0.6,0.6-1.1,0.6-1.7c0-1.2-0.7-2-2-2c-1.1,0-2,0.6-2,2.1h-1.2
			c0-1.8,1.2-3.1,3.1-3.1c1.9,0,3.1,1.2,3.1,3.1c0,0.9-0.3,1.5-0.9,2.3l-4,5.1h4.9v1H356.1z"/>
		<path fill="#9BA3A6" d="M367.5,229.1c-1.8,0-3.1-1.2-3.1-3.1v-5.3c0-1.9,1.3-3.1,3.1-3.1c1.8,0,3.1,1.2,3.1,3.1v5.3
			C370.6,227.9,369.3,229.1,367.5,229.1z M369.5,220.8c0-1.2-0.7-2.2-2-2.2s-2,0.9-2,2.2v5.2c0,1.2,0.7,2.2,2,2.2s2-0.9,2-2.2V220.8
			z"/>
		<path fill="#9BA3A6" d="M375.9,229.1c-1.8,0-3.1-1.2-3.1-3.1v-5.3c0-1.9,1.3-3.1,3.1-3.1c1.8,0,3.1,1.2,3.1,3.1v5.3
			C379,227.9,377.6,229.1,375.9,229.1z M377.8,220.8c0-1.2-0.7-2.2-2-2.2s-2,0.9-2,2.2v5.2c0,1.2,0.7,2.2,2,2.2s2-0.9,2-2.2V220.8z"
			/>
		<path fill="#9BA3A6" d="M391.6,229v-4.8c0-1.4-0.8-2.1-1.9-2.1c-1.2,0-2,0.7-2,2v5h-1.2v-4.8c0-1.4-0.8-2.1-1.9-2.1s-2,0.7-2,2.1
			v4.8h-1.2v-7.9h1.2v0.9c0.6-0.6,1.3-1,2.2-1c1.1,0,1.9,0.4,2.4,1.3c0.6-0.9,1.5-1.3,2.6-1.3c0.8,0,1.6,0.3,2,0.7
			c0.6,0.5,0.8,1.3,0.8,2.2v5H391.6z"/>
	</g>
</g>
</svg>
