<?xml version="1.0" encoding="utf-8"?>
<!-- Generator: Adobe Illustrator 18.1.0, SVG Export Plug-In . SVG Version: 6.00 Build 0)  -->
<svg version="1.1" xmlns="http://www.w3.org/2000/svg" xmlns:xlink="http://www.w3.org/1999/xlink" x="0px" y="0px"
	 viewBox="0 0 470 311" enable-background="new 0 0 470 311" xml:space="preserve">
<g id="Layer_0">
</g>
<g id="Layer_1">
</g>
<g id="Layer_2">
</g>
<g id="Layer_3">
</g>
<g id="Layer_4">
</g>
<g id="Layer_5">
</g>
<g id="Layer_6">
</g>
<g id="Layer_7">
</g>
<g id="Layer_8">
	<g>
		<path fill="none" stroke="#9BA3A6" stroke-miterlimit="10" d="M318.7,272.7H150.3c-46.1,0-85.9-26.7-104.9-65.4l-27.9,14.5
			c24.6,51.3,76.9,86.6,137.5,86.6H315c44.7,0,85-19.3,112.8-50l-24.6-21.9C381.9,258.9,351.9,272.7,318.7,272.7z"/>
		<path fill="#F0F1F2" stroke="#9BA3A6" stroke-miterlimit="10" d="M33.5,156v-0.3c0-64.5,52.3-116.8,116.8-116.8h6.9V3.1H155
			C70.9,3.1,2.6,71.4,2.6,155.6v0.5c0,23.6,5.3,45.9,14.9,65.8l27.9-14.5C37.8,191.8,33.5,174.4,33.5,156z"/>
		<path fill="#F0F1F2" stroke="#9BA3A6" stroke-miterlimit="10" d="M467.4,155.6C467.4,71.4,399.1,3.1,315,3.1H157.2v35.8h161.5
			c64.5,0,116.8,52.3,116.8,116.8v0.3c0,31.3-12.3,59.7-32.3,80.6l24.6,21.9c24.6-27.1,39.6-63,39.6-102.5V155.6z"/>
	</g>
	<path fill="none" stroke="#0589D1" stroke-width="2" stroke-miterlimit="10" d="M30.5,215.1c9.4,9.3,30,24.7,40.4,34.3
		c19.2,17.6,56.7,34.4,73.9,32.4c23.3-2.7,173.6,2.1,198.5-3.6c26.9-6.2,48.4-18.7,64.6-34.9"/>
	<path fill="none" stroke="#50ACDF" stroke-miterlimit="10" d="M157.2,10.4C7.3,31.4-12.3,169.1,30.5,215.1"/>
	<path fill="none" stroke="#B55001" stroke-width="2" stroke-miterlimit="10" d="M35.3,212.6c6.8,11.3,26,31,36.6,38.8
		c24.4,17.7,49.9,30.7,74.8,28.9c26.8-2,171.9,3.6,196.5-2c17.2-3.9,32.1-10.4,44.9-18.8"/>
	<path fill="none" stroke="#CB844D" stroke-miterlimit="10" d="M157.2,10.4C7.5,31.4,4.4,157.7,35.3,212.6"/>
	<circle fill="#0589D1" cx="407.8" cy="243.2" r="4"/>
	<circle fill="#B55001" cx="388.1" cy="259.4" r="4"/>
	<path fill="none" stroke="#50ACDF" stroke-width="0.5" stroke-miterlimit="10" d="M419.1,250.7C494.2,156.4,474-9.6,234.8,5.1
		c-19.4,1.2-77.6,5.3-77.6,5.3"/>
	<path fill="none" stroke="#CB844D" stroke-width="0.5" stroke-miterlimit="10" d="M423.7,254.8c78.9-96.1,50-264.5-188.9-249.7
		c-19.4,1.2-77.6,5.3-77.6,5.3"/>
	<g>
		<line fill="none" stroke="#9BA3A6" stroke-width="4.5067" stroke-miterlimit="10" x1="157.2" y1="38.9" x2="157.2" y2="3.1"/>
		<line fill="none" stroke="#FFFFFF" stroke-width="0.7511" stroke-miterlimit="10" x1="157.2" y1="38.9" x2="157.2" y2="3.1"/>
	</g>
	<g>
		<g>
			<path fill="#505D64" d="M194.9,163.5v-21.4h2.3v19.3h10.9v2H194.9z"/>
			<path fill="#505D64" d="M220,163.5v-1.4c-1.2,1.2-2.3,1.6-4.3,1.6c-2,0-3.1-0.4-4.2-1.4c-0.8-0.7-1.1-1.8-1.1-3
				c0-2.6,1.8-4.3,5.1-4.3h4.4v-1.4c0-2.1-1-3.2-3.8-3.2c-1.9,0-2.8,0.5-3.7,1.7l-1.5-1.4c1.3-1.7,2.8-2.2,5.2-2.2
				c4,0,5.9,1.7,5.9,4.9v10H220z M220,156.7h-4.1c-2.2,0-3.3,0.9-3.3,2.6c0,1.7,1,2.5,3.4,2.5c1.2,0,2.3-0.1,3.3-1
				c0.5-0.5,0.8-1.3,0.8-2.5V156.7z"/>
			<path fill="#505D64" d="M237.4,162.4c-0.8,0.8-2.1,1.3-3.6,1.3c-1.6,0-2.9-0.4-4.2-1.9v8.3h-2.2v-21.4h2.2v1.7
				c1.2-1.5,2.5-1.9,4.2-1.9c1.5,0,2.8,0.5,3.6,1.3c1.5,1.5,1.8,3.9,1.8,6.3C239.2,158.5,238.8,160.9,237.4,162.4z M233.3,150.5
				c-3.2,0-3.7,2.8-3.7,5.6s0.5,5.6,3.7,5.6c3.2,0,3.7-2.8,3.7-5.6S236.5,150.5,233.3,150.5z"/>
			<path fill="#505D64" d="M256.1,163.7c-3.4,0-6.1-1.8-6.3-5.6h2.2c0.2,2.7,2.1,3.7,4.1,3.7c2.3,0,4.1-1.5,4.1-4.1
				c0-2.6-1.3-4.1-4.2-4.1h-0.5v-1.9h0.5c2.6,0,3.8-1.5,3.8-3.9c0-2.5-1.7-3.9-3.7-3.9c-2.3,0-3.6,1.4-3.8,3.6h-2.2
				c0.2-3.5,2.8-5.5,6-5.5c3.5,0,5.9,2.3,5.9,5.8c0,2.3-1,3.9-2.9,4.7c2.2,0.8,3.3,2.5,3.3,5.2C262.4,161.6,259.6,163.7,256.1,163.7
				z"/>
		</g>
	</g>
</g>
<g id="Layer_9">
</g>
<g id="section3_1_">
	<g>
		<path fill="none" stroke="#9BA3A6" stroke-miterlimit="10" d="M414.1,152.8c0,15.8-3.3,32.7-10.9,45.8"/>
		<path fill="none" stroke="#9BA3A6" stroke-miterlimit="10" d="M308.7,57.7c63.6,0,105.5,42.7,105.5,95.1"/>
		<g>
			<g>
				<line fill="none" stroke="#9BA3A6" stroke-miterlimit="10" x1="196.7" y1="57.7" x2="308.7" y2="57.7"/>
				<g>
					<polygon fill="#9BA3A6" points="199.5,61.4 197.9,57.7 199.5,54 190.7,57.7 					"/>
				</g>
			</g>
		</g>
	</g>
	<g>
		<g>
			<path fill="#9BA3A6" d="M330.1,102.9c-1.3,0-2.1-0.3-2.9-1.1l0.6-0.6c0.7,0.7,1.4,0.9,2.3,0.9c1.3,0,2-0.6,2-1.6
				c0-0.5-0.1-0.8-0.4-1.1c-0.3-0.2-0.5-0.3-1.1-0.4l-1-0.1c-0.7-0.1-1.2-0.3-1.6-0.6c-0.4-0.4-0.7-0.9-0.7-1.6c0-1.5,1-2.4,2.7-2.4
				c1.1,0,1.8,0.3,2.5,0.9l-0.6,0.6c-0.5-0.5-1.1-0.7-2-0.7c-1.2,0-1.8,0.6-1.8,1.6c0,0.4,0.1,0.8,0.4,1s0.7,0.4,1.1,0.4l1,0.2
				c0.8,0.1,1.2,0.3,1.5,0.6c0.5,0.4,0.7,1,0.7,1.7C333,102,331.9,102.9,330.1,102.9z"/>
			<path fill="#9BA3A6" d="M335.3,100.1c0,1.3,0.6,2,1.7,2c0.7,0,1.1-0.2,1.5-0.7l0.6,0.5c-0.6,0.6-1.2,0.9-2.2,0.9
				c-1.6,0-2.6-0.9-2.6-3c0-1.9,0.9-3,2.4-3c1.5,0,2.4,1.1,2.4,2.9v0.4H335.3z M338.3,98.5c-0.3-0.5-0.7-0.9-1.4-0.9
				c-0.6,0-1.1,0.3-1.4,0.9c-0.1,0.3-0.2,0.5-0.2,1h3.1C338.4,99,338.4,98.8,338.3,98.5z"/>
			<path fill="#9BA3A6" d="M343.4,102.9c-1.5,0-2.6-1-2.6-3c0-2,1.1-3,2.6-3c0.8,0,1.3,0.2,1.9,0.9l-0.6,0.6
				c-0.4-0.5-0.8-0.7-1.4-0.7c-0.6,0-1.1,0.2-1.4,0.7c-0.3,0.4-0.4,0.8-0.4,1.6c0,0.7,0.1,1.2,0.4,1.6c0.3,0.4,0.8,0.7,1.4,0.7
				c0.6,0,0.9-0.2,1.4-0.7l0.6,0.6C344.8,102.7,344.3,102.9,343.4,102.9z"/>
			<path fill="#9BA3A6" d="M348.7,102.8c-1,0-1.5-0.7-1.5-1.6v-3.7h-0.7v-0.7h0.7v-1.8h0.9v1.8h1.3v0.7H348v3.6
				c0,0.5,0.3,0.9,0.8,0.9h0.5v0.7H348.7z"/>
			<path fill="#9BA3A6" d="M351,95.3v-1h1v1H351z M351,102.8v-5.9h0.9v5.9H351z"/>
			<path fill="#9BA3A6" d="M357.8,102.2c-0.4,0.4-1,0.7-1.7,0.7c-0.7,0-1.3-0.3-1.7-0.7c-0.6-0.6-0.7-1.4-0.7-2.4
				c0-0.9,0.1-1.8,0.7-2.4c0.4-0.4,1-0.7,1.7-0.7c0.7,0,1.3,0.3,1.7,0.7c0.6,0.6,0.7,1.4,0.7,2.4
				C358.5,100.8,358.4,101.6,357.8,102.2z M357.2,98.1c-0.3-0.3-0.7-0.4-1.1-0.4c-0.4,0-0.8,0.1-1.1,0.4c-0.4,0.4-0.5,1.2-0.5,1.8
				c0,0.7,0,1.4,0.5,1.8c0.3,0.3,0.6,0.4,1.1,0.4c0.4,0,0.8-0.1,1.1-0.4c0.4-0.4,0.5-1.2,0.5-1.8C357.7,99.2,357.6,98.5,357.2,98.1z
				"/>
			<path fill="#9BA3A6" d="M364.2,102.8v-3.6c0-1-0.6-1.6-1.5-1.6s-1.5,0.5-1.5,1.6v3.6h-0.9v-5.9h0.9v0.6c0.4-0.5,1-0.7,1.7-0.7
				c0.6,0,1.2,0.2,1.5,0.6c0.4,0.4,0.6,1,0.6,1.6v3.8H364.2z"/>
			<path fill="#9BA3A6" d="M372.1,102.9c-1.3,0-2.4-0.7-2.5-2.3h0.9c0.1,1.1,0.8,1.5,1.6,1.5c0.9,0,1.6-0.6,1.6-1.7
				c0-1-0.5-1.7-1.7-1.7h-0.2v-0.8h0.2c1,0,1.5-0.6,1.5-1.5c0-1-0.7-1.6-1.5-1.6c-0.9,0-1.5,0.6-1.5,1.4h-0.9
				c0.1-1.4,1.1-2.2,2.4-2.2c1.4,0,2.4,0.9,2.4,2.3c0,0.9-0.4,1.5-1.2,1.9c0.9,0.3,1.3,1,1.3,2.1
				C374.6,102.1,373.5,102.9,372.1,102.9z"/>
		</g>
	</g>
</g>
<g id="section2">
	<g>
		<g>
			<g>
				<path fill="none" stroke="#9BA3A6" stroke-miterlimit="10" d="M366.4,238.6c-15.7,8.2-33.8,13-53,13"/>
				<g>
					<polygon fill="#9BA3A6" points="362.1,236.7 365.3,239.2 365.7,243.2 371.6,235.7 					"/>
				</g>
			</g>
		</g>
		<path fill="none" stroke="#9BA3A6" stroke-miterlimit="10" d="M156.2,251.5c-34.4,1.4-62.9-12.4-81.5-34.5"/>
		<line fill="none" stroke="#9BA3A6" stroke-miterlimit="10" x1="313.4" y1="251.5" x2="156.2" y2="251.5"/>
	</g>
	<g>
		<g>
			<path fill="#9BA3A6" d="M205.3,241.7c-1.3,0-2.1-0.3-2.9-1.1l0.6-0.6c0.7,0.7,1.4,0.9,2.3,0.9c1.3,0,2-0.6,2-1.6
				c0-0.5-0.1-0.8-0.4-1.1c-0.3-0.2-0.5-0.3-1.1-0.4l-1-0.1c-0.7-0.1-1.2-0.3-1.6-0.6c-0.4-0.4-0.7-0.9-0.7-1.6c0-1.5,1-2.4,2.7-2.4
				c1.1,0,1.8,0.3,2.5,0.9l-0.6,0.6c-0.5-0.5-1.1-0.7-2-0.7c-1.2,0-1.8,0.6-1.8,1.6c0,0.4,0.1,0.8,0.4,1c0.3,0.2,0.7,0.4,1.1,0.4
				l1,0.2c0.8,0.1,1.2,0.3,1.5,0.6c0.5,0.4,0.7,1,0.7,1.7C208.2,240.8,207.1,241.7,205.3,241.7z"/>
			<path fill="#9BA3A6" d="M210.5,238.9c0,1.3,0.6,2,1.7,2c0.7,0,1.1-0.2,1.5-0.7l0.6,0.5c-0.6,0.6-1.2,0.9-2.2,0.9
				c-1.6,0-2.6-0.9-2.6-3c0-1.9,0.9-3,2.4-3c1.5,0,2.4,1.1,2.4,2.9v0.4H210.5z M213.5,237.3c-0.3-0.5-0.7-0.9-1.4-0.9
				c-0.6,0-1.1,0.3-1.4,0.9c-0.1,0.3-0.2,0.5-0.2,1h3.1C213.6,237.8,213.6,237.6,213.5,237.3z"/>
			<path fill="#9BA3A6" d="M218.6,241.7c-1.5,0-2.6-1-2.6-3c0-2,1.1-3,2.6-3c0.8,0,1.3,0.2,1.9,0.9l-0.6,0.6
				c-0.4-0.5-0.8-0.7-1.4-0.7c-0.6,0-1.1,0.2-1.4,0.7c-0.3,0.4-0.4,0.8-0.4,1.6c0,0.7,0.1,1.2,0.4,1.6c0.3,0.4,0.8,0.7,1.4,0.7
				c0.6,0,0.9-0.2,1.4-0.7l0.6,0.6C220,241.5,219.5,241.7,218.6,241.7z"/>
			<path fill="#9BA3A6" d="M223.9,241.6c-1,0-1.5-0.7-1.5-1.6v-3.7h-0.7v-0.7h0.7v-1.8h0.9v1.8h1.3v0.7h-1.3v3.6
				c0,0.5,0.3,0.9,0.8,0.9h0.5v0.7H223.9z"/>
			<path fill="#9BA3A6" d="M226.2,234v-1h1v1H226.2z M226.2,241.6v-5.9h0.9v5.9H226.2z"/>
			<path fill="#9BA3A6" d="M233,241c-0.4,0.4-1,0.7-1.7,0.7c-0.7,0-1.3-0.3-1.7-0.7c-0.6-0.6-0.7-1.4-0.7-2.4c0-0.9,0.1-1.8,0.7-2.4
				c0.4-0.4,1-0.7,1.7-0.7c0.7,0,1.3,0.3,1.7,0.7c0.6,0.6,0.7,1.4,0.7,2.4C233.8,239.6,233.6,240.4,233,241z M232.4,236.8
				c-0.3-0.3-0.7-0.4-1.1-0.4c-0.4,0-0.8,0.1-1.1,0.4c-0.4,0.4-0.5,1.2-0.5,1.8c0,0.7,0,1.4,0.5,1.8c0.3,0.3,0.6,0.4,1.1,0.4
				c0.4,0,0.8-0.1,1.1-0.4c0.4-0.4,0.5-1.2,0.5-1.8C232.9,238,232.9,237.3,232.4,236.8z"/>
			<path fill="#9BA3A6" d="M239.4,241.6V238c0-1-0.6-1.6-1.5-1.6s-1.5,0.5-1.5,1.6v3.6h-0.9v-5.9h0.9v0.6c0.4-0.5,1-0.7,1.7-0.7
				c0.6,0,1.2,0.2,1.5,0.6c0.4,0.4,0.6,1,0.6,1.6v3.8H239.4z"/>
			<path fill="#9BA3A6" d="M245.1,241.6v-0.8l3.4-4.3c0.3-0.4,0.5-0.8,0.5-1.3c0-0.9-0.6-1.5-1.5-1.5c-0.8,0-1.5,0.4-1.5,1.5h-0.9
				c0-1.3,0.9-2.3,2.4-2.3c1.4,0,2.4,0.9,2.4,2.3c0,0.7-0.2,1.1-0.7,1.7l-3,3.8h3.7v0.8H245.1z"/>
		</g>
	</g>
</g>
<g id="section1">
	<g>
		<g>
			<g>
				<path fill="none" stroke="#9BA3A6" stroke-miterlimit="10" d="M53.3,166.2c-0.5-4-0.8-8.1-0.8-12.1"/>
				<g>
					<polygon fill="#9BA3A6" points="56.6,162.9 53.1,165 49.2,164 54.2,172.1 					"/>
				</g>
			</g>
		</g>
		<path fill="none" stroke="#9BA3A6" stroke-miterlimit="10" d="M52.5,154.1c0-43.4,29-79,72.4-92.9"/>
	</g>
	<g>
		<g>
			<path fill="#9BA3A6" d="M79.4,120.9c-1.3,0-2.1-0.3-2.9-1.1l0.6-0.6c0.7,0.7,1.4,0.9,2.3,0.9c1.3,0,2-0.6,2-1.6
				c0-0.5-0.1-0.8-0.4-1.1c-0.3-0.2-0.5-0.3-1.1-0.4l-1-0.1c-0.7-0.1-1.2-0.3-1.6-0.6c-0.4-0.4-0.7-0.9-0.7-1.6c0-1.5,1-2.4,2.7-2.4
				c1.1,0,1.8,0.3,2.5,0.9l-0.6,0.6c-0.5-0.5-1.1-0.7-2-0.7c-1.2,0-1.8,0.6-1.8,1.6c0,0.4,0.1,0.8,0.4,1c0.3,0.2,0.7,0.4,1.1,0.4
				l1,0.2c0.8,0.1,1.2,0.3,1.5,0.6c0.5,0.4,0.7,1,0.7,1.7C82.4,120,81.2,120.9,79.4,120.9z"/>
			<path fill="#9BA3A6" d="M84.7,118.1c0,1.3,0.6,2,1.7,2c0.7,0,1.1-0.2,1.5-0.7l0.6,0.5c-0.6,0.6-1.2,0.9-2.2,0.9
				c-1.6,0-2.6-0.9-2.6-3c0-1.9,0.9-3,2.4-3c1.5,0,2.4,1.1,2.4,2.9v0.4H84.7z M87.6,116.5c-0.3-0.5-0.7-0.9-1.4-0.9
				c-0.6,0-1.1,0.3-1.4,0.9c-0.1,0.3-0.2,0.5-0.2,1h3.1C87.8,117,87.7,116.8,87.6,116.5z"/>
			<path fill="#9BA3A6" d="M92.8,120.9c-1.5,0-2.6-1-2.6-3c0-2,1.1-3,2.6-3c0.8,0,1.3,0.2,1.9,0.9l-0.6,0.6
				c-0.4-0.5-0.8-0.7-1.4-0.7c-0.6,0-1.1,0.2-1.4,0.7c-0.3,0.4-0.4,0.8-0.4,1.6c0,0.7,0.1,1.2,0.4,1.6c0.3,0.4,0.8,0.7,1.4,0.7
				c0.6,0,0.9-0.2,1.4-0.7l0.6,0.6C94.1,120.7,93.6,120.9,92.8,120.9z"/>
			<path fill="#9BA3A6" d="M98,120.8c-1,0-1.5-0.7-1.5-1.6v-3.7h-0.7v-0.7h0.7v-1.8h0.9v1.8h1.3v0.7h-1.3v3.6c0,0.5,0.3,0.9,0.8,0.9
				h0.5v0.7H98z"/>
			<path fill="#9BA3A6" d="M100.3,113.3v-1h1v1H100.3z M100.3,120.8v-5.9h0.9v5.9H100.3z"/>
			<path fill="#9BA3A6" d="M107.2,120.2c-0.4,0.4-1,0.7-1.7,0.7c-0.7,0-1.3-0.3-1.7-0.7c-0.6-0.6-0.7-1.4-0.7-2.4
				c0-0.9,0.1-1.8,0.7-2.4c0.4-0.4,1-0.7,1.7-0.7c0.7,0,1.3,0.3,1.7,0.7c0.6,0.6,0.7,1.4,0.7,2.4
				C107.9,118.8,107.8,119.6,107.2,120.2z M106.5,116.1c-0.3-0.3-0.7-0.4-1.1-0.4c-0.4,0-0.8,0.1-1.1,0.4c-0.4,0.4-0.5,1.2-0.5,1.8
				c0,0.7,0,1.4,0.5,1.8c0.3,0.3,0.6,0.4,1.1,0.4c0.4,0,0.8-0.1,1.1-0.4c0.4-0.4,0.5-1.2,0.5-1.8C107,117.2,107,116.5,106.5,116.1z"
				/>
			<path fill="#9BA3A6" d="M113.5,120.8v-3.6c0-1-0.6-1.6-1.5-1.6s-1.5,0.5-1.5,1.6v3.6h-0.9v-5.9h0.9v0.6c0.4-0.5,1-0.7,1.7-0.7
				c0.6,0,1.2,0.2,1.5,0.6c0.4,0.4,0.6,1,0.6,1.6v3.8H113.5z"/>
			<path fill="#9BA3A6" d="M121.5,120.8v-7.6l-1.6,1.4v-1l1.6-1.4h0.9v8.5H121.5z"/>
		</g>
	</g>
</g>
<g id="Label">
	<g>
		<path fill="#9BA3A6" d="M144.1,63.6c-1.7,0-2.8-0.4-3.9-1.5l0.8-0.8c0.9,0.9,1.8,1.2,3.1,1.2c1.7,0,2.7-0.8,2.7-2.1
			c0-0.6-0.2-1.1-0.6-1.4c-0.4-0.3-0.7-0.4-1.5-0.6l-1.3-0.2c-0.9-0.1-1.6-0.4-2.1-0.9c-0.6-0.5-0.9-1.2-0.9-2.1
			c0-1.9,1.4-3.2,3.6-3.2c1.5,0,2.4,0.4,3.4,1.2l-0.8,0.8c-0.7-0.7-1.5-1-2.7-1c-1.5,0-2.4,0.8-2.4,2.1c0,0.6,0.2,1,0.5,1.3
			c0.4,0.3,0.9,0.5,1.5,0.6l1.3,0.2c1.1,0.2,1.6,0.4,2.1,0.8c0.6,0.5,1,1.3,1,2.2C148,62.4,146.5,63.6,144.1,63.6z"/>
		<path fill="#9BA3A6" d="M152.6,63.5c-1.3,0-2-0.9-2-2.1v-4.9h-1v-0.9h1v-2.4h1.2v2.4h1.7v0.9h-1.7v4.8c0,0.7,0.3,1.2,1.1,1.2h0.6
			v1H152.6z"/>
		<path fill="#9BA3A6" d="M160.1,63.5v-0.8c-0.6,0.6-1.2,0.8-2.3,0.8c-1.1,0-1.7-0.2-2.2-0.7c-0.4-0.4-0.6-1-0.6-1.6
			c0-1.4,1-2.3,2.7-2.3h2.4v-0.8c0-1.1-0.6-1.7-2-1.7c-1,0-1.5,0.3-2,0.9l-0.8-0.7c0.7-0.9,1.5-1.2,2.8-1.2c2.1,0,3.2,0.9,3.2,2.6
			v5.3H160.1z M160.1,59.9h-2.2c-1.2,0-1.8,0.5-1.8,1.4c0,0.9,0.6,1.3,1.8,1.3c0.7,0,1.2-0.1,1.7-0.5c0.3-0.3,0.4-0.7,0.4-1.4V59.9z
			"/>
		<path fill="#9BA3A6" d="M168.4,57.2c-0.4-0.4-0.8-0.6-1.4-0.6c-1.2,0-1.9,0.9-1.9,2.1v4.8H164v-7.9h1.2v1c0.4-0.7,1.3-1.1,2.2-1.1
			c0.8,0,1.3,0.2,1.9,0.7L168.4,57.2z"/>
		<path fill="#9BA3A6" d="M173,63.5c-1.3,0-2-0.9-2-2.1v-4.9h-1v-0.9h1v-2.4h1.2v2.4h1.7v0.9h-1.7v4.8c0,0.7,0.3,1.2,1.1,1.2h0.6v1
			H173z"/>
	</g>
	<g>
		<path fill="#9BA3A6" d="M367.1,222v-10.1l-2.1,1.9v-1.3l2.1-1.8h1.2V222H367.1z"/>
		<path fill="#9BA3A6" d="M375.5,222.1c-1.8,0-3.1-1.2-3.1-3.1v-5.3c0-1.9,1.3-3.1,3.1-3.1c1.8,0,3.1,1.2,3.1,3.1v5.3
			C378.6,220.9,377.3,222.1,375.5,222.1z M377.5,213.8c0-1.2-0.7-2.2-2-2.2s-2,0.9-2,2.2v5.2c0,1.2,0.7,2.2,2,2.2s2-0.9,2-2.2V213.8
			z"/>
		<path fill="#9BA3A6" d="M383.9,222.1c-1.8,0-3.1-1.2-3.1-3.1v-5.3c0-1.9,1.3-3.1,3.1-3.1c1.8,0,3.1,1.2,3.1,3.1v5.3
			C387,220.9,385.6,222.1,383.9,222.1z M385.8,213.8c0-1.2-0.7-2.2-2-2.2s-2,0.9-2,2.2v5.2c0,1.2,0.7,2.2,2,2.2s2-0.9,2-2.2V213.8z"
			/>
		<path fill="#9BA3A6" d="M399.6,222v-4.8c0-1.4-0.8-2.1-1.9-2.1c-1.2,0-2,0.7-2,2v5h-1.2v-4.8c0-1.4-0.8-2.1-1.9-2.1s-2,0.7-2,2.1
			v4.8h-1.2v-7.9h1.2v0.9c0.6-0.6,1.3-1,2.2-1c1.1,0,1.9,0.4,2.4,1.3c0.6-0.9,1.5-1.3,2.6-1.3c0.8,0,1.6,0.3,2,0.7
			c0.6,0.5,0.8,1.3,0.8,2.2v5H399.6z"/>
	</g>
	<g>
		<path fill="#9BA3A6" d="M55.4,197.3v-1l4.5-5.7c0.4-0.6,0.6-1.1,0.6-1.7c0-1.2-0.7-2-2-2c-1.1,0-2,0.6-2,2.1h-1.2
			c0-1.8,1.2-3.1,3.1-3.1c1.9,0,3.1,1.2,3.1,3.1c0,0.9-0.3,1.5-0.9,2.3l-4,5.1h4.9v1H55.4z"/>
		<path fill="#9BA3A6" d="M66.8,197.4c-1.8,0-3.1-1.2-3.1-3.1v-5.3c0-1.9,1.3-3.1,3.1-3.1c1.8,0,3.1,1.2,3.1,3.1v5.3
			C69.9,196.1,68.6,197.4,66.8,197.4z M68.8,189c0-1.2-0.7-2.2-2-2.2s-2,0.9-2,2.2v5.2c0,1.2,0.7,2.2,2,2.2s2-0.9,2-2.2V189z"/>
		<path fill="#9BA3A6" d="M75.2,197.4c-1.8,0-3.1-1.2-3.1-3.1v-5.3c0-1.9,1.3-3.1,3.1-3.1c1.8,0,3.1,1.2,3.1,3.1v5.3
			C78.3,196.1,77,197.4,75.2,197.4z M77.1,189c0-1.2-0.7-2.2-2-2.2s-2,0.9-2,2.2v5.2c0,1.2,0.7,2.2,2,2.2s2-0.9,2-2.2V189z"/>
		<path fill="#9BA3A6" d="M90.9,197.3v-4.8c0-1.4-0.8-2.1-1.9-2.1c-1.2,0-2,0.7-2,2v5h-1.2v-4.8c0-1.4-0.8-2.1-1.9-2.1s-2,0.7-2,2.1
			v4.8h-1.2v-7.9h1.2v0.9c0.6-0.6,1.3-1,2.2-1c1.1,0,1.9,0.4,2.4,1.3c0.6-0.9,1.5-1.3,2.6-1.3c0.8,0,1.6,0.3,2,0.7
			c0.6,0.5,0.8,1.3,0.8,2.2v5H90.9z"/>
	</g>
</g>
</svg>
