<?xml version="1.0" encoding="utf-8"?>
<!-- Generator: Adobe Illustrator 18.1.0, SVG Export Plug-In . SVG Version: 6.00 Build 0)  -->
<svg version="1.1" id="Layer_1" xmlns="http://www.w3.org/2000/svg" xmlns:xlink="http://www.w3.org/1999/xlink" x="0px" y="0px"
	 viewBox="0 0 470 310" enable-background="new 0 0 470 310" xml:space="preserve">
<g id="start">
	<g id="_x31_">
		<path fill="none" stroke="#B55000" stroke-width="2" stroke-miterlimit="10" d="M158.4,14.5c0,0-20.8,19-40.8,25.6
			C8.2,76.6,4,223.9,107.3,265.1c8.1,3.2,21.5,6.1,30.6,7.8c4.9,0.9,9.6,2,13.7,4.5c8.5,5.2,25.6,15,34.5,19.2
			c9,4.2,20.9,3.4,30.7,4.6l10.3,1.3c17.9,2.3,36,1.8,53.8-1.2l31.8-3.4c53.9-5.9,53.6-15.3,63.9-28.3c0,0,14.2-18.5,23.7-26.9
			c61.6-54.2,52.7-167.2-45.5-203.2c-9.7-3.6-34.6-22.6-34.6-22.6c-9.5-6.2-20.5-9.9-31.9-10.7L266,5.8c-18.4,0.2-27-2.3-33.2-1.8
			c0,0-55.8,5.7-74.4,8.3"/>
		<path fill="none" stroke="#0589D1" stroke-width="2" stroke-miterlimit="10" d="M158.4,8.6c0,0-20.8,23.4-40.8,30
			C8.2,75.1,4,223.9,107.3,265.1c8.1,3.2,21.6,7.2,30.6,9.3c4.7,1.1,11.4,5.9,15.1,8.4c7.2,4.8,25.7,15,35.3,17.5
			c9.4,2.4,33.9,3,33.9,3c2.7,0.1,7.1,0.2,9.8,0.3c0,0,31,0.8,48.8-2.3l31.8-3.4c43.7-4.8,51.7-12.9,57.9-23.2
			c3.2-5.2,6.9-10,11.2-14.3c5.4-5.4,13-12.8,18.5-17.6c61.6-54.2,52.2-167.3-43.6-205c-9.6-3.8-25.3-16-25.3-16
			c-9.5-6.2-26.6-16.7-44-16.9l-18.9,0.5c-6.1,0.6-20,0.1-26.2,0.6c0,0-65.2,1.9-83.8,4.5"/>
	</g>
	<g>
		<path fill="none" stroke="#9BA3A6" stroke-miterlimit="10" d="M318.7,271.9H150.3c-46.1,0-85.9-26.7-104.9-65.4L17.5,221
			c24.6,51.3,76.9,86.6,137.5,86.6H315c44.7,0,85-19.3,112.8-50l-24.6-21.9C381.9,258.1,351.9,271.9,318.7,271.9z"/>
		<path fill="none" stroke="#9BA3A6" stroke-miterlimit="10" d="M33.5,155.2v-0.3c0-64.5,52.3-116.8,116.8-116.8h6.9V2.3H155
			C70.9,2.3,2.6,70.6,2.6,154.8v0.5c0,23.6,5.3,45.9,14.9,65.8l27.9-14.5C37.8,191,33.5,173.6,33.5,155.2z"/>
		<path fill="none" stroke="#9BA3A6" stroke-miterlimit="10" d="M467.4,154.8C467.4,70.6,399.1,2.3,315,2.3H157.2v35.8h161.5
			c64.5,0,116.8,52.3,116.8,116.8v0.3c0,31.3-12.3,59.7-32.3,80.6l24.6,21.9c24.6-27.1,39.6-63,39.6-102.5V154.8z"/>
		<g>
			<line fill="none" stroke="#CDD1D3" stroke-width="4.5067" stroke-miterlimit="10" x1="157.2" y1="38.1" x2="157.2" y2="2.3"/>
			<line fill="none" stroke="#FFFFFF" stroke-width="0.7511" stroke-miterlimit="10" x1="157.2" y1="38.1" x2="157.2" y2="2.3"/>
		</g>
		<g>
			<line fill="none" stroke="#CDD1D3" stroke-width="4.5067" stroke-miterlimit="10" x1="157.2" y1="50.1" x2="157.2" y2="35.8"/>
			<line fill="none" stroke="#FFFFFF" stroke-width="0.7511" stroke-miterlimit="10" x1="157.2" y1="50.1" x2="157.2" y2="35.8"/>
		</g>
	</g>
</g>
</svg>
