<?xml version="1.0" encoding="utf-8"?>
<!-- Generator: Adobe Illustrator 18.1.0, SVG Export Plug-In . SVG Version: 6.00 Build 0)  -->
<svg version="1.1" id="Layer_1" xmlns="http://www.w3.org/2000/svg" xmlns:xlink="http://www.w3.org/1999/xlink" x="0px" y="0px"
	 viewBox="0 0 470 310" enable-background="new 0 0 470 310" xml:space="preserve">
<path fill="none" stroke="#9BA3A6" stroke-miterlimit="10" d="M318.7,271.9H150.3c-46.1,0-85.9-26.7-104.9-65.4L17.5,221
	c24.6,51.3,76.9,86.6,137.5,86.6H315c44.7,0,85-19.3,112.8-50l-24.6-21.9C381.9,258.1,351.9,271.9,318.7,271.9z"/>
<path fill="none" stroke="#9BA3A6" stroke-miterlimit="10" d="M33.5,155.2v-0.3c0-64.5,52.3-116.8,116.8-116.8h6.9V2.3H155
	C70.9,2.3,2.6,70.6,2.6,154.8v0.5c0,23.6,5.3,45.9,14.9,65.8l27.9-14.5C37.8,191,33.5,173.6,33.5,155.2z"/>
<path fill="none" stroke="#9BA3A6" stroke-miterlimit="10" d="M467.4,154.8C467.4,70.6,399.1,2.3,315,2.3H157.2v35.8h161.5
	c64.5,0,116.8,52.3,116.8,116.8v0.3c0,31.3-12.3,59.7-32.3,80.6l24.6,21.9c24.6-27.1,39.6-63,39.6-102.5V154.8z"/>
<g>
	<path fill="none" stroke="#CDD1D3" stroke-width="4.5067" stroke-miterlimit="10" d="M157.2,35.8"/>
	<path fill="none" stroke="#FFFFFF" stroke-width="0.7511" stroke-miterlimit="10" d="M157.2,35.8"/>
</g>
<g id="_x33__2_">
	<path fill="#B55001" d="M281.4,282c-20.5,0-43.5-0.3-65.3-0.6c-31.8-0.4-59.3-0.8-69.5,0c-22.2,1.6-46.3-7.7-76-29.2
		c-11.4-8.2-29.1-25.8-35.8-37C17.3,186.2,8.6,134.1,30.6,88c14.5-30.4,48.2-69,126-79.9l0.6,4C81.1,22.7,48.3,60.2,34.2,89.7
		c-21.4,44.8-13,95.4,3.9,123.4c6.4,10.6,23.9,28,34.8,35.8c28.9,21,52.2,30,73.4,28.4c10.4-0.8,38-0.4,69.9,0
		c49.5,0.6,111.2,1.4,126.1-2c69.8-15.9,99.7-73.6,98.3-123.6c-1.2-46.1-30.5-104.7-108.8-118.2c-10.6-1.8-72.1-2.3-121.6-2.7
		c-20.1-0.2-39.1-0.3-53.3-0.5l0.1-4c14.1,0.2,33.1,0.4,53.3,0.5c52.2,0.4,111.3,0.9,122.2,2.8c34.5,5.9,63.2,21.5,83.2,45.1
		c17.9,21.2,28.2,48.5,29,76.9c1.4,51.7-29.4,111.2-101.4,127.7C334.1,281.4,310.2,282,281.4,282z"/>
	<path fill="#0589D1" d="M141,284.7c-18.4,0-55.4-14.5-70-33.9c-4.5-6-14.2-13-23.5-19.9c-6.7-4.9-13-9.5-16.9-13.4
		C8.5,195.9,2.2,153,15.3,113.4C34.1,56.4,85.6,18,156.6,8.1l0.6,4C87.7,21.8,37.4,59.2,19.1,114.6c-12.6,38.3-6.8,79.4,14.3,100.1
		c3.8,3.7,10,8.2,16.5,13c9.6,7,19.6,14.3,24.4,20.7c14.9,19.9,56.2,34.9,70.7,32c11.1-2.2,50.1-2.2,91.4-2.1
		c45.7,0,92.9,0.1,105.8-2.8c69.8-15.9,99.7-73.6,98.3-123.6c-1.2-46.1-30.5-104.7-108.8-118.2c-8.9-1.5-53.7-1.2-97-0.9
		c-28.5,0.2-58.1,0.4-77.9,0.1l0.1-4c19.8,0.3,49.3,0.1,77.8-0.1c45.5-0.3,88.5-0.6,97.7,1c34.5,5.9,63.2,21.5,83.2,45.1
		c17.9,21.2,28.2,48.5,29,76.9c1.4,51.7-29.4,111.2-101.4,127.7c-13.3,3-60.7,3-106.6,2.9c-41.1-0.1-80-0.1-90.6,2
		C144.4,284.6,142.8,284.7,141,284.7z"/>
	<g>
		<path fill="#023800" d="M444.5,151.7c-0.8-28.4-11-55.7-29-76.9c-19.9-23.6-48.7-39.2-83.2-45.1c-9.2-1.6-52.2-1.3-97.7-1
			c-28.5,0.2-58,0.4-77.8,0.1l0,1.5c14.2,0.2,33.1,0.4,53.2,0.5c49.5,0.4,111,0.9,121.6,2.7c78.3,13.5,107.6,72.1,108.8,118.2
			c1.3,50.1-28.5,107.7-98.3,123.6c-0.4,0.1-0.7,0.2-1.2,0.2c-0.1,0-0.2,0-0.3,0c-0.4,0.1-0.8,0.1-1.2,0.2c-0.2,0-0.4,0.1-0.6,0.1
			c-0.2,0-0.4,0.1-0.6,0.1c-16.7,2.3-60,2.2-102,2.2c-41.3-0.1-80.4-0.1-91.4,2.1c-13.6,2.7-50.4-10.2-67.4-28
			c-1.6-1.1-3.2-2.2-4.8-3.4c-6.7-4.9-16.1-13.5-23.7-21.8c-5.1-3.7-9.8-7.2-13.4-10.3c2.6,4,6.4,8.6,10.7,13.3
			c0.4,0.3,0.7,0.5,1.1,0.8c9.4,6.9,19.1,13.9,23.5,19.9c1.2,1.6,2.5,3.1,4,4.6c27.6,19.2,50.4,27.5,71.5,26
			c10.2-0.7,37.7-0.4,69.5,0c21.8,0.3,44.8,0.6,65.3,0.6c21.2,0,39.8-0.3,51.7-1.3c0.4,0,0.7-0.1,1.1-0.1c0.2,0,0.4,0,0.6-0.1
			c1.3-0.1,2.6-0.3,3.7-0.4c0,0,0.1,0,0.1,0c1.1-0.1,2.1-0.3,3.1-0.5c0.1,0,0.2,0,0.3-0.1c0.4-0.1,0.8-0.2,1.2-0.2
			C415.1,262.9,445.9,203.4,444.5,151.7z"/>
		<path fill="#023800" d="M30.6,88c-0.8,1.6-1.5,3.3-2.2,5c11-20.7,27.1-38.1,47.4-51.5C95,28.1,121.2,17.1,157.2,12l-0.6-4
			c-32.1,4.5-60.2,14.8-83.1,30C51.3,53.5,38.3,71.9,30.6,88z"/>
	</g>
	<g>
		<path fill="#69747A" d="M60.3,114.5c-0.7,0-1.4-0.3-2.1-0.6c-0.6-0.3-1-0.5-1.6-0.5c-0.6,0-0.9,0.1-1.7,0.9l-0.9-0.9
			c1.1-1.1,1.7-1.4,2.6-1.4c0.7,0,1.3,0.3,2.1,0.6c0.6,0.3,1,0.5,1.6,0.5c0.6,0,0.9-0.1,1.7-0.9l0.9,0.9
			C61.7,114.2,61.2,114.5,60.3,114.5z"/>
		<path fill="#69747A" d="M69.1,118.8c-2.4,0-4-1.6-4-4.1c0-1,0.3-2,0.9-3.2l3.5-7.1H71l-3.2,6.4c0.4-0.2,0.9-0.3,1.5-0.3
			c2.2,0,3.7,1.7,3.7,4C73,117,71.5,118.8,69.1,118.8z M69.1,111.8c-1.5,0-2.5,1.1-2.5,2.9c0,1.7,1,2.9,2.5,2.9s2.5-1.1,2.5-2.9
			C71.6,113.1,70.7,111.8,69.1,111.8z"/>
		<path fill="#69747A" d="M79.5,118.8c-2.2,0-3.9-1.6-3.9-3.9v-6.6c0-2.4,1.7-3.9,3.9-3.9c2.2,0,3.9,1.6,3.9,3.9v6.6
			C83.4,117.2,81.7,118.8,79.5,118.8z M81.9,108.3c0-1.6-0.9-2.7-2.5-2.7c-1.6,0-2.5,1.2-2.5,2.7v6.5c0,1.6,0.9,2.7,2.5,2.7
			c1.6,0,2.5-1.2,2.5-2.7V108.3z"/>
		<path fill="#69747A" d="M98,118.7l-3.1-5l-1.9,2.2v2.8h-1.4v-14.2h1.4v9.5l4.4-5.1h1.8l-3.3,3.8l3.9,6.1H98z"/>
		<path fill="#69747A" d="M115.2,118.7v-6.1c0-1.7-0.9-2.6-2.4-2.6c-1.4,0-2.5,0.9-2.5,2.5v6.2h-1.4v-6.1c0-1.7-0.9-2.6-2.4-2.6
			s-2.5,0.9-2.5,2.6v6.1h-1.4v-9.8h1.4v1.1c0.7-0.8,1.7-1.2,2.8-1.2c1.4,0,2.4,0.6,3,1.6c0.8-1.1,1.9-1.6,3.2-1.6
			c1.1,0,1.9,0.3,2.5,0.9c0.7,0.7,1.1,1.6,1.1,2.7v6.3H115.2z"/>
		<path fill="#69747A" d="M119.7,120.2h-1.4L124,103h1.4L119.7,120.2z"/>
		<path fill="#69747A" d="M133.5,118.7v-6.1c0-1.7-0.9-2.6-2.4-2.6s-2.5,0.9-2.5,2.6v6.1h-1.4v-14.2h1.4v5.5
			c0.7-0.8,1.6-1.2,2.8-1.2c2.2,0,3.5,1.4,3.5,3.6v6.3H133.5z"/>
	</g>
	<g>
		<path fill="#69747A" d="M198.9,256.3c-0.7,0-1.4-0.3-2.1-0.6c-0.6-0.3-1-0.5-1.6-0.5c-0.6,0-0.9,0.1-1.7,0.9l-0.9-0.9
			c1.1-1.1,1.7-1.4,2.6-1.4c0.7,0,1.3,0.3,2.1,0.6c0.6,0.3,1,0.5,1.6,0.5c0.6,0,0.9-0.1,1.7-0.9l0.9,0.9
			C200.4,256,199.8,256.3,198.9,256.3z"/>
		<path fill="#69747A" d="M207.8,260.6c-2.4,0-4-1.6-4-4.1c0-1,0.3-2,0.9-3.2l3.5-7.1h1.5l-3.2,6.4c0.4-0.2,0.9-0.3,1.5-0.3
			c2.2,0,3.7,1.7,3.7,4C211.7,258.8,210.2,260.6,207.8,260.6z M207.7,253.6c-1.5,0-2.5,1.1-2.5,2.9c0,1.7,1,2.9,2.5,2.9
			s2.5-1.1,2.5-2.9C210.3,254.9,209.4,253.6,207.7,253.6z"/>
		<path fill="#69747A" d="M218.2,260.6c-2.4,0-4.2-1.6-4.2-4c0-1.7,0.9-2.8,2.1-3.5c-1.1-0.6-1.9-1.7-1.9-3.2c0-2.2,1.7-3.8,3.9-3.8
			c2.3,0,3.9,1.6,3.9,3.8c0,1.5-0.7,2.5-1.8,3.2c1.2,0.7,2.1,1.8,2.1,3.5C222.4,259,220.5,260.6,218.2,260.6z M218.2,253.8
			c-1.6,0-2.8,1.2-2.8,2.8c0,1.6,1.2,2.8,2.8,2.8c1.6,0,2.8-1.2,2.8-2.8C220.9,255,219.7,253.8,218.2,253.8z M218.2,247.4
			c-1.5,0-2.5,1.1-2.5,2.6c0,1.5,1,2.5,2.5,2.5c1.5,0,2.5-1,2.5-2.5C220.6,248.5,219.6,247.4,218.2,247.4z"/>
		<path fill="#69747A" d="M236.6,260.5l-3.1-5l-1.9,2.2v2.8h-1.4v-14.2h1.4v9.5l4.4-5.1h1.8l-3.3,3.8l3.9,6.1H236.6z"/>
		<path fill="#69747A" d="M253.9,260.5v-6.1c0-1.7-0.9-2.6-2.4-2.6c-1.4,0-2.5,0.9-2.5,2.5v6.2h-1.4v-6.1c0-1.7-0.9-2.6-2.4-2.6
			s-2.5,0.9-2.5,2.6v6.1h-1.4v-9.8h1.4v1.1c0.7-0.8,1.7-1.2,2.8-1.2c1.4,0,2.4,0.6,3,1.6c0.8-1.1,1.9-1.6,3.2-1.6
			c1.1,0,1.9,0.3,2.5,0.9c0.7,0.7,1.1,1.6,1.1,2.7v6.3H253.9z"/>
		<path fill="#69747A" d="M258.4,262H257l5.7-17.2h1.4L258.4,262z"/>
		<path fill="#69747A" d="M272.2,260.5v-6.1c0-1.7-0.9-2.6-2.4-2.6s-2.5,0.9-2.5,2.6v6.1h-1.4v-14.2h1.4v5.5
			c0.7-0.8,1.6-1.2,2.8-1.2c2.2,0,3.5,1.4,3.5,3.6v6.3H272.2z"/>
	</g>
	<g>
		<path fill="#69747A" d="M321.5,94.8c-0.7,0-1.4-0.3-2.1-0.6c-0.6-0.3-1-0.5-1.6-0.5c-0.6,0-0.9,0.1-1.7,0.9l-0.9-0.9
			c1.1-1.1,1.7-1.4,2.6-1.4c0.7,0,1.3,0.3,2.1,0.6c0.6,0.3,1,0.5,1.6,0.5c0.6,0,0.9-0.1,1.7-0.9l0.9,0.9
			C323,94.5,322.4,94.8,321.5,94.8z"/>
		<path fill="#69747A" d="M329.6,99H328l4.9-13h-5v2.2h-1.4v-3.5h7.9V86L329.6,99z"/>
		<path fill="#69747A" d="M340.7,99V86.3l-2.7,2.3V87l2.7-2.3h1.4V99H340.7z"/>
		<path fill="#69747A" d="M359.2,99l-3.1-5l-1.9,2.2V99h-1.4V84.7h1.4v9.5l4.4-5.1h1.8l-3.3,3.8L361,99H359.2z"/>
		<path fill="#69747A" d="M376.4,99v-6.1c0-1.7-0.9-2.6-2.4-2.6c-1.4,0-2.5,0.9-2.5,2.5V99h-1.4v-6.1c0-1.7-0.9-2.6-2.4-2.6
			s-2.5,0.9-2.5,2.6V99h-1.4v-9.8h1.4v1.1c0.7-0.8,1.7-1.2,2.8-1.2c1.4,0,2.4,0.6,3,1.6c0.8-1.1,1.9-1.6,3.2-1.6
			c1.1,0,1.9,0.3,2.5,0.9c0.7,0.7,1.1,1.6,1.1,2.7V99H376.4z"/>
		<path fill="#69747A" d="M381,100.4h-1.4l5.7-17.2h1.4L381,100.4z"/>
		<path fill="#69747A" d="M394.8,99v-6.1c0-1.7-0.9-2.6-2.4-2.6s-2.5,0.9-2.5,2.6V99h-1.4V84.7h1.4v5.5c0.7-0.8,1.6-1.2,2.8-1.2
			c2.2,0,3.5,1.4,3.5,3.6V99H394.8z"/>
	</g>
	<g>
		<g>
			<path fill="#505D64" d="M190.5,167.4v-27.8h3v25.1h14.2v2.7H190.5z"/>
			<path fill="#505D64" d="M223.2,167.4v-1.8c-1.5,1.5-3,2.1-5.5,2.1c-2.7,0-4.1-0.5-5.4-1.8c-1-0.9-1.4-2.4-1.4-3.9
				c0-3.4,2.4-5.5,6.7-5.5h5.7v-1.8c0-2.8-1.4-4.2-4.9-4.2c-2.4,0-3.7,0.6-4.8,2.2l-1.9-1.8c1.7-2.2,3.6-2.9,6.8-2.9
				c5.2,0,7.7,2.3,7.7,6.4v13H223.2z M223.2,158.5h-5.3c-2.9,0-4.3,1.1-4.3,3.4c0,2.2,1.4,3.3,4.4,3.3c1.6,0,3-0.2,4.3-1.3
				c0.7-0.6,1-1.7,1-3.3V158.5z"/>
			<path fill="#505D64" d="M245.7,165.9c-1,1-2.7,1.7-4.7,1.7c-2.1,0-3.8-0.5-5.4-2.5v10.8h-2.8v-27.8h2.8v2.3
				c1.6-2,3.3-2.5,5.4-2.5c2,0,3.7,0.7,4.7,1.7c1.9,1.9,2.3,5.1,2.3,8.2S247.6,164,245.7,165.9z M240.5,150.4
				c-4.2,0-4.8,3.6-4.8,7.3s0.6,7.3,4.8,7.3c4.2,0,4.8-3.6,4.8-7.3S244.6,150.4,240.5,150.4z"/>
			<path fill="#505D64" d="M270.1,167.6c-4.4,0-7.9-2.3-8.2-7.3h2.8c0.2,3.5,2.7,4.8,5.3,4.8c3,0,5.3-2,5.3-5.4
				c0-3.4-1.7-5.4-5.5-5.4h-0.6v-2.5h0.6c3.4,0,5-1.9,5-5c0-3.3-2.1-5.1-4.8-5.1c-2.9,0-4.7,1.8-5,4.6h-2.8c0.3-4.5,3.6-7.1,7.8-7.1
				c4.5,0,7.6,3,7.6,7.5c0,2.9-1.2,5-3.7,6.2c2.8,1.1,4.3,3.3,4.3,6.8C278.2,164.9,274.6,167.6,270.1,167.6z"/>
		</g>
	</g>
</g>
<g>
	<path fill="#69747A" d="M139.2,64.6c-2.2,0-3.7-0.6-5.1-2l1.1-1.1c1.2,1.2,2.4,1.6,4.1,1.6c2.2,0,3.5-1,3.5-2.8
		c0-0.8-0.2-1.4-0.7-1.9c-0.5-0.4-0.9-0.6-2-0.7l-1.7-0.3c-1.2-0.2-2.1-0.5-2.7-1.1c-0.8-0.7-1.2-1.6-1.2-2.8c0-2.5,1.8-4.2,4.8-4.2
		c1.9,0,3.2,0.5,4.5,1.6l-1,1c-0.9-0.9-1.9-1.3-3.5-1.3c-2,0-3.2,1.1-3.2,2.8c0,0.7,0.2,1.3,0.7,1.7s1.2,0.7,2,0.8l1.7,0.3
		c1.4,0.2,2,0.5,2.7,1.1c0.8,0.7,1.3,1.7,1.3,2.9C144.3,63,142.3,64.6,139.2,64.6z"/>
	<path fill="#69747A" d="M150.3,64.5c-1.8,0-2.6-1.2-2.6-2.8v-6.4h-1.3v-1.2h1.3V51h1.5v3.2h2.2v1.2h-2.2v6.4c0,0.9,0.4,1.5,1.4,1.5
		h0.8v1.3H150.3z"/>
	<path fill="#69747A" d="M160.1,64.5v-1c-0.8,0.8-1.6,1.1-3,1.1c-1.4,0-2.2-0.3-2.9-0.9c-0.5-0.5-0.8-1.3-0.8-2.1c0-1.8,1.3-3,3.6-3
		h3.1v-1c0-1.5-0.7-2.3-2.6-2.3c-1.3,0-2,0.3-2.6,1.2l-1-0.9c0.9-1.2,2-1.6,3.7-1.6c2.8,0,4.1,1.2,4.1,3.4v7H160.1z M160.1,59.7
		h-2.9c-1.6,0-2.3,0.6-2.3,1.8c0,1.2,0.7,1.8,2.4,1.8c0.9,0,1.6-0.1,2.3-0.7c0.4-0.3,0.5-0.9,0.5-1.8V59.7z"/>
	<path fill="#69747A" d="M171.1,56.1c-0.6-0.6-1-0.8-1.8-0.8c-1.5,0-2.5,1.2-2.5,2.8v6.3h-1.5V54.1h1.5v1.3c0.6-0.9,1.7-1.4,2.9-1.4
		c1,0,1.7,0.2,2.5,1L171.1,56.1z"/>
	<path fill="#69747A" d="M177.1,64.5c-1.8,0-2.6-1.2-2.6-2.8v-6.4h-1.3v-1.2h1.3V51h1.5v3.2h2.2v1.2h-2.2v6.4c0,0.9,0.4,1.5,1.4,1.5
		h0.8v1.3H177.1z"/>
</g>
<g>
	<line fill="none" stroke="#9BA3A6" stroke-width="4.5067" stroke-miterlimit="10" x1="157.2" y1="38.1" x2="157.2" y2="2.3"/>
	<line fill="none" stroke="#FFFFFF" stroke-width="0.7511" stroke-miterlimit="10" x1="157.2" y1="38.1" x2="157.2" y2="2.3"/>
</g>
</svg>
