<?xml version="1.0" encoding="utf-8"?>
<!-- Generator: Adobe Illustrator 18.1.0, SVG Export Plug-In . SVG Version: 6.00 Build 0)  -->
<svg version="1.1" id="Layer_1" xmlns="http://www.w3.org/2000/svg" xmlns:xlink="http://www.w3.org/1999/xlink" x="0px" y="0px"
	 viewBox="0 0 470 310" enable-background="new 0 0 470 310" xml:space="preserve">
<g id="start">
	<g id="_x33_">
		<path fill="none" stroke="#B55000" stroke-width="2" stroke-miterlimit="10" d="M156.9,16.1C5.2,37.3,4.3,166.7,36.4,220.1
			c6.8,11.3,24.6,28.7,35.3,36.4c24.4,17.7,49.8,30.6,74.7,28.8c26.8-2,171.7,3.6,196.3-2C477,252.8,478.3,62.8,332.1,37.6
			c-15-2.6-125-2.5-175.2-3.3"/>
		<path fill="none" stroke="#0589D1" stroke-width="2" stroke-miterlimit="10" d="M156.9,16.1C5.2,37.3-12.9,178,32,222.1
			c9.4,9.2,32.8,22.9,40.7,33.5c15.6,20.8,57.5,35.8,72.7,32.7c23-4.6,172.4,0.7,197.2-4.9C477,252.8,478.3,62.8,332.1,37.6
			c-15-2.6-125,0-175.2-0.8"/>
	</g>
	<g>
		<path fill="none" stroke="#9BA3A6" stroke-miterlimit="10" d="M318.7,271.9H150.3c-46.1,0-85.9-26.7-104.9-65.4L17.5,221
			c24.6,51.3,76.9,86.6,137.5,86.6H315c44.7,0,85-19.3,112.8-50l-24.6-21.9C381.9,258.1,351.9,271.9,318.7,271.9z"/>
		<path fill="none" stroke="#9BA3A6" stroke-miterlimit="10" d="M33.5,155.2v-0.3c0-64.5,52.3-116.8,116.8-116.8h6.9V2.3H155
			C70.9,2.3,2.6,70.6,2.6,154.8v0.5c0,23.6,5.3,45.9,14.9,65.8l27.9-14.5C37.8,191,33.5,173.6,33.5,155.2z"/>
		<path fill="none" stroke="#9BA3A6" stroke-miterlimit="10" d="M467.4,154.8C467.4,70.6,399.1,2.3,315,2.3H157.2v35.8h161.5
			c64.5,0,116.8,52.3,116.8,116.8v0.3c0,31.3-12.3,59.7-32.3,80.6l24.6,21.9c24.6-27.1,39.6-63,39.6-102.5V154.8z"/>
		<g>
			<line fill="none" stroke="#CDD1D3" stroke-width="4.5067" stroke-miterlimit="10" x1="157.2" y1="38.1" x2="157.2" y2="2.3"/>
			<line fill="none" stroke="#FFFFFF" stroke-width="0.7511" stroke-miterlimit="10" x1="157.2" y1="38.1" x2="157.2" y2="2.3"/>
		</g>
		<g>
			<line fill="none" stroke="#CDD1D3" stroke-width="4.5067" stroke-miterlimit="10" x1="157.2" y1="50.1" x2="157.2" y2="35.8"/>
			<line fill="none" stroke="#FFFFFF" stroke-width="0.7511" stroke-miterlimit="10" x1="157.2" y1="50.1" x2="157.2" y2="35.8"/>
		</g>
	</g>
</g>
</svg>
